<?xml version="1.0" encoding="UTF-8"?>
<svg id="Capa_2" data-name="Capa 2" xmlns="http://www.w3.org/2000/svg" viewBox="0 0 200 200">
  <defs>
    <style>
      .cls-1 {
        fill: none;
      }

      .cls-2 {
        fill: #010101;
      }
    </style>
  </defs>
  <g id="Capa_1-2" data-name="Capa 1">
    <g id="Bruce">
      <circle class="cls-1" cx="100" cy="100" r="100"/>
      <g>
        <path class="cls-2" d="M12.59,104.92v-5.1h3v-10.82h-3v-5.1h17.42c1.05,0,2,.11,2.94.33.89.28,1.66.61,2.39,1.11.67.5,1.22,1.05,1.61,1.78.39.72.61,1.5.61,2.39,0,1.17-.33,2.16-1,2.94-.67.78-1.55,1.39-2.61,1.78,1.39.33,2.55.89,3.44,1.72s1.33,1.94,1.33,3.27c0,.94-.17,1.72-.55,2.44-.44.72-.94,1.33-1.66,1.78-.67.5-1.44.89-2.39,1.11-.89.28-1.89.39-2.88.39H12.59ZM21.03,89v2.83h8.99c.55,0,1.05-.11,1.5-.39.39-.33.61-.67.61-1.17,0-.44-.22-.78-.61-1-.44-.17-.94-.28-1.5-.28h-8.99ZM21.03,96.93v2.88h10.21c.55,0,1.05-.17,1.5-.44.39-.22.61-.61.61-1.05,0-.5-.22-.83-.61-1.05-.39-.22-.89-.33-1.5-.33h-10.21Z"/>
        <path class="cls-2" d="M49.76,104.92v-5.1h3.05v-10.82h-3.05v-5.1h16.87c1.11,0,2.16.11,3.16.39.94.28,1.83.72,2.55,1.28.78.55,1.33,1.28,1.78,2.11.39.83.61,1.78.61,2.88,0,.94-.17,1.78-.5,2.5-.28.78-.72,1.39-1.28,1.94-.55.55-1.22,1-2,1.39-.72.33-1.55.55-2.5.72l.78,1.78c.06.17.11.33.22.5.06.17.17.33.28.5.11.17.28.28.44.39.17.11.44.17.72.17s.5-.17.61-.44c.17-.33.22-.67.22-1.11h5.38c0,.94-.11,1.78-.33,2.55-.28.83-.67,1.55-1.17,2.11-.55.61-1.17,1.11-1.94,1.44-.83.33-1.72.55-2.77.55-1.22,0-2.22-.22-3.05-.67-.78-.44-1.44-1-2-1.66-.5-.61-.94-1.33-1.28-2.11-.28-.78-.61-1.5-.89-2.22l-.72-1.66h-4.77v2.61h3v5.1h-11.43ZM58.2,89v3.11h8.43c.72,0,1.39-.11,1.89-.39.55-.28.83-.67.83-1.17,0-.55-.28-.94-.83-1.17-.5-.28-1.17-.39-1.89-.39h-8.43Z"/>
        <path class="cls-2" d="M111.46,89v7.49c0,1.55-.33,2.88-.89,3.99-.61,1.11-1.39,2.05-2.39,2.83-1,.72-2.22,1.28-3.55,1.66-1.33.33-2.77.55-4.33.55s-3-.22-4.33-.55c-1.33-.39-2.5-.94-3.55-1.66-1-.78-1.78-1.72-2.39-2.83-.55-1.11-.83-2.44-.83-3.99v-7.49h-3v-5.1h11.37v5.1h-3v7.49c0,.67.17,1.22.44,1.72.33.5.72.89,1.22,1.22.55.33,1.11.55,1.83.72.72.17,1.44.28,2.22.28s1.55-.11,2.22-.28c.72-.17,1.33-.39,1.83-.72.5-.33.94-.72,1.22-1.22.28-.5.44-1.05.44-1.72v-7.49h-3v-5.1h11.43v5.1h-3Z"/>
        <path class="cls-2" d="M151.4,97.93c-.22,1.33-.67,2.44-1.39,3.38-.72.94-1.61,1.72-2.66,2.39-1.05.61-2.33,1.05-3.72,1.39-1.39.28-2.88.44-4.49.44-2,0-3.88-.28-5.6-.72-1.66-.5-3.16-1.17-4.38-2.11-1.28-.94-2.22-2.11-2.94-3.44-.67-1.39-1.05-3-1.05-4.77,0-1.89.39-3.5,1.11-4.88.72-1.39,1.66-2.55,2.88-3.5,1.17-.94,2.55-1.66,4.11-2.16,1.55-.44,3.16-.67,4.83-.67,3.5,0,6.16,1.11,7.93,3.33v-2.72h5.38v6.93h-5.27c-.28-.39-.61-.72-1.11-1.05-.5-.28-1.05-.55-1.72-.78-.61-.17-1.33-.33-2.11-.44-.72-.11-1.5-.17-2.33-.17-1.17,0-2.27.11-3.27.33-1,.28-1.89.61-2.61,1.11-.78.5-1.33,1.11-1.78,1.89-.39.78-.61,1.66-.61,2.66,0,1.05.22,1.94.61,2.66.44.78,1,1.39,1.78,1.89s1.66.89,2.77,1.11c1.05.22,2.27.39,3.61.39.72,0,1.44-.06,2.16-.17.72-.06,1.39-.22,2-.39.61-.17,1.17-.44,1.55-.78.44-.33.72-.72.89-1.17h5.44Z"/>
        <polygon class="cls-2" points="162.77 104.92 162.77 99.82 165.77 99.82 165.77 89 162.77 89 162.77 83.89 187.41 83.89 187.41 91.38 181.97 91.38 181.97 89 171.15 89 171.15 91.83 174.76 91.83 174.76 90.33 180.19 90.33 180.19 98.43 174.76 98.43 174.76 96.93 171.15 96.93 171.15 99.82 181.97 99.82 181.97 97.37 187.41 97.37 187.41 104.92 162.77 104.92"/>
        <polygon class="cls-2" points="50.93 119.07 50.93 127.55 49.93 127.55 49.93 119.07 48.65 119.07 48.65 118.07 52.15 118.07 52.15 119.07 50.93 119.07"/>
        <polygon class="cls-2" points="58.09 127.55 58.09 123.34 56.48 123.34 56.48 127.55 55.48 127.55 55.48 118.07 56.48 118.07 56.48 122.4 58.09 122.4 58.09 118.07 59.14 118.07 59.14 127.55 58.09 127.55"/>
        <polygon class="cls-2" points="62.8 127.55 62.8 118.07 65.8 118.07 65.8 119.07 63.86 119.07 63.86 122.17 65.24 122.17 65.24 123.12 63.86 123.12 63.86 126.61 65.8 126.61 65.8 127.55 62.8 127.55"/>
        <path class="cls-2" d="M76.01,127.55l-.28-2.05h-1.28l-.33,2.05h-.94l1.44-9.49h1.05l1.39,9.49h-1.05ZM75.12,120.34l-.55,4.22h1.05l-.5-4.22Z"/>
        <polygon class="cls-2" points="84.44 127.55 84.44 120.4 84.22 122.06 83.33 127.55 82.39 127.55 81.5 122.06 81.28 120.4 81.28 127.55 80.33 127.55 80.33 118.07 81.83 118.07 82.66 123.95 82.88 125.56 83.11 123.95 83.94 118.07 85.38 118.07 85.38 127.55 84.44 127.55"/>
        <polygon class="cls-2" points="89.1 127.55 89.1 118.07 92.09 118.07 92.09 119.07 90.1 119.07 90.1 122.17 91.54 122.17 91.54 123.12 90.1 123.12 90.1 126.61 92.09 126.61 92.09 127.55 89.1 127.55"/>
        <path class="cls-2" d="M98.97,127.61c-.67,0-.94-.22-.94-1v-2.44c0-.5-.22-.78-.67-.78h-.78v4.16h-1v-9.49h1.83c.89,0,1.61.44,1.61,1.72v1.83c0,.67-.22,1.17-.83,1.33.61.17.83.72.83,1.33v2.27c0,.28.06.39.28.39v.67h-.33ZM97.98,119.73c0-.44-.17-.67-.55-.67h-.83v3.44h.78c.39,0,.61-.28.61-.78v-2Z"/>
        <rect class="cls-2" x="102.64" y="118.07" width="1.11" height="9.49"/>
        <path class="cls-2" d="M109.13,127.67c-1.11,0-1.78-.83-1.78-1.94v-5.83c0-1.11.67-1.94,1.78-1.94s1.72.78,1.72,1.89v1.55h-.89v-1.66c0-.44-.28-.78-.78-.78-.55,0-.83.33-.83.78v6.16c0,.5.28.83.83.83.5,0,.78-.33.78-.83v-1.66h.89v1.55c0,1.11-.61,1.89-1.72,1.89Z"/>
        <path class="cls-2" d="M116.78,127.55l-.22-2.05h-1.33l-.28,2.05h-1l1.44-9.49h1.05l1.39,9.49h-1.05ZM115.89,120.34l-.5,4.22h1l-.5-4.22Z"/>
        <polygon class="cls-2" points="124.16 127.55 122.55 122.78 122.11 121.23 122.11 127.55 121.16 127.55 121.16 118.07 122.05 118.07 123.55 122.95 123.94 124.5 123.94 118.07 124.94 118.07 124.94 127.55 124.16 127.55"/>
        <polygon class="cls-2" points="137.09 127.55 136.14 127.55 135.37 121.4 134.54 127.55 133.59 127.55 132.48 118.07 133.54 118.07 134.15 124.89 135.03 118.07 135.87 118.07 136.7 124.89 137.36 118.07 138.31 118.07 137.09 127.55"/>
        <path class="cls-2" d="M143.86,127.55l-.28-2.05h-1.28l-.33,2.05h-.94l1.44-9.49h1.05l1.39,9.49h-1.05ZM142.97,120.34l-.55,4.22h1.05l-.5-4.22Z"/>
        <polygon class="cls-2" points="149.96 123.84 149.96 127.55 148.96 127.55 148.96 123.84 147.52 118.07 148.52 118.07 149.51 122.51 150.51 118.07 151.51 118.07 149.96 123.84"/>
      </g>
    </g>
  </g>
</svg>
