<?xml version="1.0" encoding="UTF-8"?>
<svg id="Capa_2" data-name="Capa 2" xmlns="http://www.w3.org/2000/svg" viewBox="0 0 200 200">
  <defs>
    <style>
      .cls-1 {
        fill: #004b46;
      }

      .cls-2 {
        fill: #9ad8b4;
      }

      .cls-3 {
        fill: #fff;
      }
    </style>
  </defs>
  <g id="Capa_1-2" data-name="Capa 1">
    <g id="Concept_Vision" data-name="Concept Vision">
      <circle class="cls-1" cx="100" cy="100" r="100"/>
      <g>
        <g>
          <path class="cls-3" d="M53.21,123.89c2.82,2.82,4.23,6.22,4.23,10.21s-1.41,7.42-4.23,10.24c-2.82,2.82-6.22,4.23-10.21,4.23s-7.42-1.41-10.24-4.23c-2.82-2.82-4.23-6.23-4.23-10.24s1.41-7.39,4.23-10.21,6.23-4.23,10.24-4.23,7.39,1.41,10.21,4.23ZM43,125.44c-2.4,0-4.45.85-6.15,2.54s-2.54,3.73-2.54,6.11.85,4.45,2.54,6.15c1.7,1.7,3.75,2.54,6.15,2.54s4.42-.85,6.11-2.54c1.7-1.7,2.54-3.75,2.54-6.15s-.85-4.42-2.54-6.11c-1.7-1.7-3.73-2.54-6.11-2.54Z"/>
          <path class="cls-3" d="M67.44,141.97v5.78h-5.78v-27.26h9.91c2.97,0,5.51,1.05,7.6,3.14s3.14,4.63,3.14,7.6-1.05,5.51-3.14,7.6c-2.09,2.09-4.63,3.14-7.6,3.14h-4.13ZM67.44,126.27v9.91h4.13c1.37,0,2.53-.48,3.5-1.45s1.45-2.14,1.45-3.5-.49-2.53-1.45-3.5c-.97-.97-2.14-1.45-3.5-1.45h-4.13Z"/>
          <path class="cls-3" d="M102.77,120.49v5.78h-6.61v21.48h-5.78v-21.48h-6.61v-5.78h19Z"/>
          <path class="cls-3" d="M111.33,120.49v27.26h-5.78v-27.26h5.78Z"/>
          <path class="cls-3" d="M140.33,144.35c-2.82,2.82-6.22,4.23-10.21,4.23s-7.42-1.41-10.24-4.23c-2.82-2.82-4.23-6.23-4.23-10.24s1.41-7.39,4.23-10.21c2.82-2.82,6.23-4.23,10.24-4.23s7.39,1.41,10.21,4.23l-4.1,4.1c-1.7-1.7-3.73-2.54-6.11-2.54s-4.45.85-6.15,2.54-2.54,3.73-2.54,6.11.85,4.45,2.54,6.15c1.7,1.7,3.75,2.54,6.15,2.54s4.42-.85,6.11-2.54l4.1,4.1Z"/>
          <path class="cls-3" d="M163.43,144.44h-14.01l-1.55,3.3h-6.44l12.82-27.26h4.3l12.82,27.26h-6.38l-1.55-3.3ZM160.72,138.66l-4.3-9.12-4.3,9.12h8.59Z"/>
        </g>
        <g>
          <path class="cls-2" d="M135.02,66.93c-1.65.71-3.77,1.54-6.18,2.31-3.02.96-7.26,2.04-11.6,2.27,3.37-9,10.85-16.91,12.21-18.3l.5-.25c-1.78-2.78-3.95-5.29-6.43-7.45l-.59.57c-.64.62-15.75,15.47-16.91,31.6,0,0-.09,1.79.17,2.06.67.67,6.83,1.46,9.38,1.46,7.04,0,14.02-1.91,19.21-3.8.35-1.96.54-3.97.54-6.03,0-1.51-.11-2.99-.3-4.44Z"/>
          <path class="cls-2" d="M89.04,90.25c-5.06-3.19-8.58-8.17-9.9-14-1.32-5.84-.29-11.84,2.9-16.9,6.31-10.01,19.29-13.3,29.56-7.77,3.37-4.85,6.65-8.3,7.75-9.41-16.06-10.12-37.35-5.29-47.48,10.76-4.91,7.78-6.49,17-4.46,25.98,2.03,8.97,7.43,16.61,15.21,21.52,7.78,4.91,17,6.49,25.98,4.46,8.86-2.01,16.42-7.3,21.33-14.93-3.41-1.59-7.03-3.63-10.34-6.18-6.72,10.02-20.28,12.95-30.55,6.47Z"/>
        </g>
      </g>
    </g>
  </g>
</svg>
