<?xml version="1.0" encoding="UTF-8"?>
<svg id="Capa_2" data-name="Capa 2" xmlns="http://www.w3.org/2000/svg" viewBox="0 0 200 200">
  <defs>
    <style>
      .cls-1 {
        fill: #e52620;
      }

      .cls-2 {
        fill: #f5e100;
      }

      .cls-3 {
        fill: #41ab34;
      }

      .cls-4 {
        fill: #fff;
      }

      .cls-5 {
        fill: #53b6e8;
      }

      .cls-6 {
        fill: #1e5faa;
      }
    </style>
  </defs>
  <g id="Capa_1-2" data-name="Capa 1">
    <g id="Mapache">
      <circle class="cls-5" cx="100" cy="100" r="100"/>
      <g>
        <g>
          <path class="cls-1" d="M5.69,105.66l26.48,19.54s-2.02-18.26-3.4-22.74c0,0-16.59,3.05-23.08,3.2Z"/>
          <path class="cls-3" d="M34.88,93.8s-3-17.08-3.2-22.84l26.23,19.39s-14.6,1.54-23.03,3.45Z"/>
          <path class="cls-6" d="M35.12,127.86l26-35.34s-16.8,1.28-30.68,4.82c0,0,2.68,9.97,4.68,30.51Z"/>
          <path class="cls-2" d="M3.72,103.35s12.45-.79,29.28-4.23c0,0-2.09-7.04-4.45-29.41L3.72,103.35Z"/>
        </g>
        <path class="cls-4" d="M89.33,97.62s8.57-14.52,10.83-17.25c2.02-2.44,2.34-2.44,4.77-.86,2.33,1.51,3.22,3.54,2.46,5.73,0,0-.27.84-.89,2.04-.62,1.21-3.69,7.23-4.31,8.74s-2.39,5.36-3.05,7.51c-.66,2.14-1.85,6.1-1.99,9.23-.15,3.13,1.11,4.48,2.71,5.14,1.6.66,4.97.53,6.82.4,1.85-.13,19.29-2.36,27.14-3.51,7.85-1.15,21.26-2.89,29.58-2.85,8.32.05,16.51.17,22.42,4.21,5.91,4.04,4.58,10.38,4.48,11.32s-.59,3.15-1.82,2.78c-1.36-.4-.59-.82-2.02-2.19s-6.1-4.68-15.06-6.35c0,0-9.06-2.51-26.08-2.76-17.03-.25-16.93.07-35.44,1.23-8.64.54-12.21.79-16.44-1.89-4.05-2.56-4.19-7.56-3.79-10.37,0,0,1.12-6.95,4.63-13.78,1.66-3.23,1.38-3.3,1.38-3.3,0,0-.25-.1-2.07,3.05-1.82,3.15-5.02,8.85-5.81,10.43-.79,1.58-1.87,3.55-4.53,2.37-2.66-1.18-3.69-4.13-2.34-9.06,1.35-4.92,2.14-5.36,2.04-6.45,0,0-1.03,1.18-3.05,4.43-2.02,3.25-5.32,8.76-6.35,10.48s-2.12,2.76-4.77.44c-2.66-2.31-1.53-8.17-.2-11.07,0,0,3.25-6.99,7.33-12.85,0,0,.94-1.57.69-2.71-.25-1.13.94-1.72,2.12-.64,0,0,2.31,1.18,3.3,2.71.98,1.53,1.08,3.2.44,4.58-.64,1.38-3.99,6.6-5.32,8.91-1.33,2.31-3.2,5.51-3.2,6.35s2.81-4.53,4.58-7.33c1.77-2.81,6.55-10.14,7.78-11.37,1.23-1.23,2.02-.39,3.79.74,1.77,1.13,3.35,2.66,2.61,4.63-.74,1.97-3.1,7.09-3.4,8.02-.3.94-.8,2.49.02,1.11Z"/>
        <path class="cls-4" d="M188.63,96.03c-.22-.24-.57-.35-1.06-.35-.42,0-.85.09-1.27.27-.42.18-.82.44-1.2.76-.38.32-.72.71-1.03,1.15-.31.45-.57.93-.77,1.45,1.73.02,3.05-.18,3.98-.59.92-.41,1.45-1.01,1.59-1.8.06-.36-.02-.65-.24-.89ZM193.22,96.86c-.13.76-.42,1.46-.85,2.09-.43.63-1.07,1.18-1.9,1.64-.84.46-1.9.82-3.2,1.09-1.3.26-2.88.41-4.75.44-.03.06-.05.11-.06.15,0,.04-.02.09-.02.14-.05.3-.06.6-.01.89.04.3.16.57.35.81.19.24.47.43.83.58.36.15.83.22,1.4.22.35,0,.73-.03,1.15-.09.42-.06.85-.15,1.3-.27.44-.12.89-.26,1.34-.43.45-.17.87-.35,1.26-.55l-1.31,3.4c-.33.15-.69.3-1.1.45-.41.14-.85.27-1.32.39-.47.12-.96.21-1.48.27-.52.07-1.04.1-1.57.1-1.12,0-2.04-.16-2.78-.49-.74-.33-1.32-.77-1.74-1.32-.42-.55-.68-1.2-.79-1.94-.11-.74-.09-1.53.06-2.36.22-1.26.64-2.46,1.26-3.59.62-1.13,1.39-2.13,2.31-2.98.92-.86,1.98-1.54,3.16-2.04,1.18-.5,2.44-.76,3.79-.76.97,0,1.78.12,2.42.35.64.23,1.14.54,1.51.93.36.39.6.83.72,1.33.11.5.12,1.02.03,1.56ZM178.53,96.57c-.03.14-.07.34-.14.58-.07.24-.15.49-.24.75-.09.26-.18.51-.27.76-.09.25-.17.45-.24.63l-3.31,8.54h-4.57l3.26-8.42c.11-.31.23-.62.34-.95.12-.33.19-.58.22-.75.08-.48.03-.85-.17-1.12-.2-.26-.53-.4-1-.4-.37,0-.79.12-1.25.35-.46.24-.91.55-1.36.94-.44.39-.86.86-1.25,1.38-.39.53-.7,1.09-.93,1.69l-2.81,7.27h-4.61l8.5-21.86h4.6l-3.87,9.93h.06c.44-.46.9-.89,1.4-1.28.5-.39,1.01-.73,1.53-1.01.53-.28,1.06-.51,1.59-.67.53-.16,1.05-.25,1.54-.25,1.2,0,2.06.33,2.57,1,.51.67.66,1.63.44,2.88ZM162.66,97.11c-.28-.25-.67-.47-1.15-.65-.49-.18-1.03-.27-1.64-.27-.7,0-1.37.16-1.99.49-.62.33-1.18.75-1.67,1.27-.49.52-.89,1.1-1.22,1.74-.33.64-.54,1.28-.65,1.9-.17.99-.08,1.75.29,2.29.37.54,1.01.81,1.93.81.29,0,.59-.03.92-.09.32-.06.65-.14.97-.24.33-.1.64-.21.95-.34.31-.13.59-.26.84-.4l-1.32,3.49c-.71.34-1.46.6-2.23.79-.77.19-1.53.28-2.27.28-.96,0-1.78-.15-2.45-.45-.67-.3-1.21-.72-1.6-1.25-.4-.54-.65-1.18-.76-1.92-.11-.74-.09-1.56.07-2.46.15-.83.38-1.63.71-2.42.33-.78.73-1.52,1.2-2.21.48-.69,1.03-1.33,1.66-1.92.63-.59,1.32-1.09,2.07-1.51.75-.42,1.56-.75,2.42-.99.86-.24,1.77-.35,2.72-.35.44,0,.86.03,1.24.08.38.05.73.12,1.05.2.31.08.58.17.82.27.23.1.42.19.56.28l-1.45,3.58ZM145.07,95.93c-.27-.02-.52-.04-.76-.04-.66,0-1.26.11-1.8.33-.54.22-1.02.51-1.46.87-.43.36-.81.76-1.14,1.21-.33.45-.61.91-.84,1.38-.23.47-.42.92-.56,1.36-.14.44-.24.83-.3,1.17-.06.36-.08.68-.07.99.02.3.09.56.2.79.11.22.27.39.48.52.2.13.45.19.75.19.55,0,1.06-.16,1.55-.48.48-.32.93-.72,1.34-1.22.41-.5.78-1.05,1.1-1.67.33-.62.61-1.23.85-1.84l1.37-3.45c-.21-.05-.45-.08-.72-.11ZM147.67,102.95c-.12.3-.25.66-.39,1.08-.14.42-.27.86-.41,1.32-.13.46-.26.9-.37,1.34-.11.44-.19.81-.25,1.13h-4.61c.03-.14.07-.33.12-.56.05-.23.11-.46.17-.69.06-.24.12-.47.19-.69.06-.23.12-.42.17-.57h-.06c-.35.37-.7.74-1.06,1.08-.36.35-.74.65-1.16.92-.41.26-.86.48-1.33.63-.47.16-1.01.24-1.59.24-.72,0-1.34-.13-1.86-.39-.52-.26-.92-.63-1.22-1.12s-.49-1.09-.56-1.8c-.08-.71-.04-1.51.12-2.4.08-.45.23-1.01.44-1.67.22-.66.52-1.35.91-2.08.39-.73.89-1.45,1.48-2.16.6-.72,1.31-1.36,2.15-1.94.84-.58,1.81-1.04,2.91-1.4,1.11-.36,2.37-.53,3.78-.53.55,0,1.09.02,1.64.06.55.04,1.08.1,1.6.17.52.07,1.02.16,1.51.25.48.1.93.19,1.35.29l-3.69,9.47ZM129.91,97.73c0-.3-.07-.57-.18-.8-.11-.23-.28-.41-.5-.55-.22-.13-.51-.2-.88-.2-.54,0-1.05.16-1.54.47-.49.31-.94.72-1.35,1.21-.41.5-.79,1.05-1.12,1.66-.33.61-.62,1.22-.85,1.82l-1.36,3.37c.11.04.24.07.39.1.15.03.31.06.48.08.16.02.33.04.49.06.16.01.3.02.43.02.71,0,1.39-.18,2.05-.53.65-.35,1.24-.82,1.77-1.4.53-.58.97-1.25,1.34-2.01.37-.76.63-1.54.77-2.35.06-.34.08-.66.07-.96ZM134.5,98.16c-.14.81-.37,1.62-.69,2.43-.32.81-.71,1.59-1.18,2.34-.47.74-1.02,1.44-1.66,2.08-.63.64-1.34,1.19-2.11,1.67-.78.47-1.62.84-2.54,1.11-.92.27-1.9.4-2.95.4-.38,0-.8-.03-1.25-.09-.45-.06-.83-.13-1.14-.22l-2.64,6.73h-4.6l6.49-16.68c.11-.3.24-.67.4-1.1.15-.44.31-.89.45-1.35.15-.46.29-.91.42-1.34.13-.43.23-.79.29-1.08h4.48c-.04.14-.08.33-.14.55-.06.23-.12.46-.2.7-.07.24-.14.47-.22.7-.07.23-.13.41-.18.55h.06c.34-.4.71-.78,1.11-1.12.4-.35.82-.65,1.28-.91.45-.26.94-.46,1.45-.61.51-.15,1.05-.22,1.6-.22.65,0,1.23.12,1.73.36.5.24.9.59,1.21,1.06.31.47.51,1.04.61,1.72.1.68.07,1.45-.09,2.33ZM113.46,95.93c-.27-.02-.52-.04-.76-.04-.66,0-1.26.11-1.8.33-.54.22-1.02.51-1.46.87-.43.36-.81.76-1.14,1.21-.33.45-.61.91-.84,1.38-.23.47-.42.92-.56,1.36-.14.44-.24.83-.3,1.17-.06.36-.08.68-.07.99.02.3.09.56.2.79.11.22.27.39.48.52.2.13.45.19.75.19.55,0,1.06-.16,1.55-.48.48-.32.93-.72,1.34-1.22.41-.5.78-1.05,1.1-1.67.33-.62.61-1.23.85-1.84l1.37-3.45c-.21-.05-.45-.08-.72-.11ZM116.06,102.95c-.12.3-.25.66-.39,1.08-.14.42-.27.86-.41,1.32-.13.46-.26.9-.37,1.34-.11.44-.19.81-.25,1.13h-4.61c.03-.14.07-.33.12-.56.05-.23.11-.46.17-.69.06-.24.12-.47.19-.69.06-.23.12-.42.17-.57h-.06c-.35.37-.7.74-1.06,1.08-.36.35-.74.65-1.16.92-.41.26-.86.48-1.33.63-.47.16-1.01.24-1.59.24-.72,0-1.34-.13-1.86-.39-.52-.26-.92-.63-1.22-1.12-.3-.49-.49-1.09-.56-1.8-.08-.71-.04-1.51.12-2.4.08-.45.23-1.01.44-1.67.22-.66.52-1.35.91-2.08.39-.73.89-1.45,1.48-2.16.6-.72,1.31-1.36,2.15-1.94.84-.58,1.81-1.04,2.91-1.4,1.11-.36,2.37-.53,3.78-.53.55,0,1.09.02,1.64.06.55.04,1.08.1,1.6.17.52.07,1.02.16,1.51.25.48.1.93.19,1.35.29l-3.69,9.47Z"/>
      </g>
    </g>
  </g>
</svg>
