<?xml version="1.0" encoding="UTF-8"?>
<svg id="Capa_2" data-name="Capa 2" xmlns="http://www.w3.org/2000/svg" viewBox="0 0 200 200">
  <defs>
    <style>
      .cls-1 {
        fill: #010101;
      }

      .cls-2 {
        fill: #3d3a87;
      }

      .cls-3 {
        fill: #231f20;
      }

      .cls-4 {
        fill: #f6a355;
      }

      .cls-4, .cls-5, .cls-6, .cls-7 {
        fill-rule: evenodd;
      }

      .cls-8 {
        fill: #29abe3;
      }

      .cls-5, .cls-9 {
        fill: #e52629;
      }

      .cls-10, .cls-7 {
        fill: #03a86f;
      }

      .cls-6, .cls-11 {
        fill: #faea27;
      }

      .cls-12 {
        fill: #eb5d9d;
      }

      .cls-13 {
        fill: #f08224;
      }

      .cls-14 {
        fill: #bed137;
      }
    </style>
  </defs>
  <g id="Capa_1-2" data-name="Capa 1">
    <g id="Matilda">
      <circle class="cls-2" cx="100" cy="100" r="100"/>
      <g>
        <path class="cls-12" d="M191.87,74.31c.51-.9,1.06-1.78,1.51-2.72.33-.69-.06-1.59-.73-1.97-2.05-1.16-4.11-2.32-6.16-3.48-.66-.38-1.59-.24-2,.39-.57.88-1.04,1.82-1.56,2.73,5.59,1.18,8.93,5.03,8.95,5.04"/>
        <path class="cls-7" d="M184.08,78.04c.75.55,1.49,1.08,2.2,1.64.54.42.52.44.18,1.06-3.08,5.48-6.16,10.96-9.22,16.45-.31.55-.63.93-1.33.89-.39-.02-.8.1-1.19.18-.26.05-.42-.02-.5-.28-.13-.47-.28-.93-.38-1.4-.03-.16,0-.37.08-.51,3.33-5.94,6.67-11.88,10.01-17.82.02-.04.05-.07.15-.2"/>
        <path class="cls-5" d="M183.75,77.87c-.13.23-.2.36-.28.49-3.27,5.81-6.54,11.63-9.8,17.45-.15.26-.31.42-.61.48-.5.1-1,.23-1.5.36-.32.09-.53,0-.64-.34-.14-.43-.32-.86-.45-1.29-.04-.13.01-.32.09-.45.49-.89.99-1.77,1.48-2.65,2.77-4.92,5.53-9.84,8.3-14.76.08-.14.16-.29.3-.53,1.02.41,2.04.81,3.11,1.24"/>
        <path class="cls-4" d="M173.35,96.59c.22.71.43,1.36.65,2.05.75-.11,1.5-.2,2.25-.33.36-.06.53.04.62.4.13.5.32.98.44,1.47.03.13-.06.38-.15.42-1.4.59-2.81,1.16-4.32,1.77.24-1.07-.31-1.75-1.07-2.19-.8-.47-1.66-.29-2.5.25-.31-1.66-.6-3.27-.91-4.96.5-.07,1-.15,1.5-.18.1,0,.24.14.3.25.22.42.42.85.6,1.28.11.26.26.3.52.24.67-.17,1.35-.31,2.07-.47"/>
        <path class="cls-7" d="M180.16,76.61c-.09.16-.16.29-.24.43-3.26,5.79-6.52,11.59-9.77,17.39-.17.31-.36.49-.73.48-.3,0-.6.05-1.02.1.11-.2.18-.32.25-.44,3.34-5.94,6.68-11.88,10.01-17.83.2-.36.41-.48.79-.34.22.08.45.13.71.21"/>
        <path class="cls-5" d="M187.02,80.39c.07.03.09.03.1.04q.86.84.26,1.9c-3.17,5.64-6.33,11.28-9.5,16.91-.08.14-.16.29-.3.54-.24-.86-.66-1.5-.15-2.39,3.15-5.5,6.24-11.04,9.35-16.57.08-.14.16-.29.25-.44"/>
        <path class="cls-6" d="M189.43,78.66c-2.44-2.68-5.43-4.34-8.98-5.06.32-.56.58-1.06.88-1.54.05-.08.26-.12.38-.1,1.47.26,2.86.74,4.18,1.43,1.62.85,3.07,1.91,4.26,3.32.17.21.2.35.06.57-.27.43-.51.89-.78,1.38"/>
        <path class="cls-6" d="M179.22,75.77c.29-.51.52-.97.8-1.4.08-.12.33-.24.46-.21.93.25,1.9.43,2.77.83,1.19.55,2.35,1.19,3.43,1.93.81.55,1.48,1.31,2.21,1.99.19.18.22.37.06.62-.25.38-.45.79-.71,1.25-2.46-2.65-5.44-4.31-9.01-5.02"/>
        <path class="cls-6" d="M190.75,76.29c-2.42-2.73-5.42-4.33-8.94-5.12.22-.39.4-.75.62-1.08.06-.08.27-.13.39-.09,1.06.31,2.16.54,3.16.99,1.75.79,3.36,1.82,4.7,3.23.79.83.8.82.23,1.81-.04.07-.08.14-.15.26"/>
        <path class="cls-10" d="M169.43,100.78l.45,2.87,2.78-1.25s.36-.99-.9-1.88c-1.25-.9-2.33.27-2.33.27"/>
        <path class="cls-1" d="M170.64,103.39l6.53-2.79,16.25-28.72s.43.09.43.46-.34.81-.34.81l-16.17,28.26-6.57,2.73-.12-.74Z"/>
        <path class="cls-1" d="M62.15,98.47c-.11-.01-.19-.05-.25-.13-.37.07-.73.22-1.07.43-.31.22-.52.51-.61.89.83.33,1.26.95,1.28,1.86.04.93-.4,1.56-1.3,1.88-.31.12-.64.18-.99.18-.76.11-1.47.05-2.15-.17.17.33.4.56.68.68.37.17.75.28,1.14.35.24,0,.48.01.74.04.04,0,.08.01.11.03.22,0,.44-.02.67-.05.35,0,.68-.06.99-.18.9-.33,1.34-.95,1.3-1.88-.02-.92-.45-1.54-1.28-1.86.1-.37.3-.67.62-.89.34-.22.69-.36,1.07-.43.06.07.14.12.25.13.07,0,.13.01.2.02-.35-.59-.82-.89-1.39-.9"/>
        <path class="cls-1" d="M73.18,103.08c.02.55.02,1.3,0,2.24-.02,1.05-.03,1.77-.02,2.17.04,1.69.3,3.13.8,4.34.34-.16.57-.39.71-.68-.19-.84-.29-1.77-.31-2.78-.01-.4,0-1.12.02-2.17.02-.94.02-1.69,0-2.24-.11-2.31-1.06-3.98-2.86-5.01-.01,0-.03-.01-.04-.02,1.05,1.01,1.62,2.39,1.7,4.15"/>
        <path class="cls-1" d="M77.19,112.04l.02-.09c0-.35-.11-.57-.33-.67,0,.01,0,.04-.02.09-.13-.08-.3-.11-.49-.07-.12.02-.21.06-.27.12.37.88.52,1.41.43,1.59-.2.42-.59.93-1.16,1.54-.63.68-1.68,1.06-3.17,1.16-2.25.16-4.32-.55-6.2-2.12-1.09,1.06-2.54,1.75-4.36,2.06-1.03.17-1.96.18-2.8.04-.5.01-.91,0-1.25-.04-.61-.19-1.19-.45-1.74-.78.88.78,1.86,1.33,2.93,1.66.34.04.75.05,1.25.04.84.14,1.78.13,2.8-.04,1.82-.31,3.27-1,4.36-2.06,1.88,1.57,3.95,2.27,6.2,2.12,1.48-.1,2.54-.48,3.17-1.16.57-.6.95-1.12,1.16-1.54.1-.19-.08-.81-.54-1.85"/>
        <path class="cls-1" d="M88.46,92.03c.01.36,0,.84-.04,1.43-.05.71-.08,1.18-.09,1.41,0,.64.07,1.07.2,1.3.19.31.55.47,1.07.5-.05-.24-.07-.54-.07-.92.01-.23.04-.7.09-1.41.04-.59.05-1.07.04-1.43-.04-.95-.42-1.63-1.14-2.04-.15-.08-.3-.14-.45-.18.24.36.37.81.39,1.35"/>
        <path class="cls-1" d="M78.57,99.19s0,0,.02-.05c-.45-.05-.79-.08-1.01-.11.01.14.04.27.1.41.12.24.42.39.9.45,0-.31-.01-.55-.02-.69"/>
        <path class="cls-1" d="M91.3,97.65c.32.94.13,1.53-.6,1.75-.23.07-.59.14-1.08.2-.55.05-.93.1-1.14.16-.21.11-.28.15-.22.13-.06.04-.13.05-.22.04.16,3.48.27,6.1.34,7.85.01.05.01.36,0,.94-.01.45,0,.81.04,1.08.12.84.51,1.2,1.16,1.07.03,0,.05,0,.07-.01-.01-.06-.03-.11-.03-.17-.04-.28-.05-.64-.04-1.08.01-.58.01-.89,0-.94-.07-1.75-.19-4.36-.34-7.85.08.01.16,0,.22-.04-.06.03.01-.02.22-.13.2-.06.58-.11,1.14-.16.49-.06.86-.13,1.08-.2.72-.23.92-.81.6-1.75-.1-.26-.31-.5-.63-.71-.2-.11-.39-.19-.59-.23,0,.02.02.04.03.06"/>
        <path class="cls-1" d="M80.81,114.01c-.04.11-.01.22.09.33.14.14.29.15.44.05-.19-.12-.37-.24-.53-.37"/>
        <path class="cls-1" d="M91.98,111.81c-.33-.13-.49-.2-.49-.2,0,0-.06.01-.17.03.02.07.03.13.04.21.06.44.02.82-.13,1.14-.55,1.23-1.74,2-3.54,2.3-1.29.22-2.51.24-3.67.05-.17.13-.32.1-.45-.09-.63-.13-1.18-.31-1.66-.54-.03.02-.07.02-.1.03.23.2.49.39.77.56,0,.12.06.22.18.29.11.06.22.06.34,0,.48.23,1.04.41,1.66.54.13.19.28.22.45.09,1.16.18,2.38.16,3.67-.05,1.81-.3,2.99-1.07,3.54-2.3.14-.32.19-.7.13-1.14-.06-.48-.25-.79-.58-.92"/>
        <path class="cls-1" d="M105.18,113.74c-.78-.42-1.19-1.35-1.23-2.78-.01-.46.01-1.06.07-1.81.06-.84.1-1.37.11-1.57,0-.59,0-1.48.02-2.66.02-1.17.04-2.05.04-2.64.23-.05.35-.16.38-.34.12-1.43.18-2.12.18-2.06,0-.92-.22-1.53-.67-1.84-.2-.15-.44-.23-.72-.24.13.32.19.72.19,1.2,0-.06-.06.63-.18,2.06-.02.18-.15.3-.38.34,0,.59-.01,1.47-.04,2.64-.01,1.18-.02,2.07-.02,2.66-.01.2-.05.73-.11,1.57-.06.75-.08,1.35-.07,1.81.04,1.43.45,2.36,1.23,2.78.98.51,1.19,1.13.63,1.86-.52.71-1.25,1.05-2.21,1.03-.14,0-.5,0-1.07-.02-.17.07-.33.14-.47.2-.12.05-.27.05-.44,0-.19-.05-.31-.13-.34-.24-.61-.02-1.54-.06-2.77-.11-.15.03-.3.03-.45-.02-.52-.02-.81-.04-.89-.04h-.69c-.34,0-.62-.01-.85-.04-.07,0-.13-.02-.19-.03.02.07.04.14.07.2.16.4.6.63,1.32.71.23.02.51.04.85.04h.69c.07,0,.37.01.89.04.16.05.31.05.45.02,1.23.05,2.15.08,2.77.11.04.11.15.19.34.24.17.05.31.05.43,0,.14-.06.3-.13.47-.2.57.01.92.02,1.07.02.95.02,1.69-.32,2.21-1.03.55-.74.34-1.36-.63-1.86"/>
        <path class="cls-1" d="M93.51,106.18c-.03-.19-.05-.37-.08-.55-.09,0-.18,0-.27,0,.06.22.17.4.35.55"/>
        <path class="cls-1" d="M102.04,93.06s-.08.01-.11.02c-.17.29-.37.57-.6.82,0,.03.02.07.01.11-.01.12-.05.24-.11.34.36-.39.63-.81.81-1.28"/>
        <path class="cls-1" d="M103.14,89.77c-.14-.22-.3-.42-.46-.6.53,1.02.72,2.06.58,3.11-.19,1.31-.87,2.37-2.02,3.16-1.01.69-2.32.95-3.92.78-1.66-.18-2.84-.76-3.54-1.74-.17-.12-.32-.26-.46-.4.13.27.27.53.44.77.22.32.5.59.82.82.7.98,1.88,1.56,3.54,1.74,1.6.17,2.91-.09,3.92-.78,1.16-.8,1.83-1.85,2.03-3.16.17-1.25-.14-2.49-.92-3.71"/>
        <path class="cls-1" d="M116.23,101.36l-.07,5.75c.06.09.06.18,0,.27-.05,1.54-.07,2.35-.07,2.42.05.98.27,1.73.67,2.26.39.2.71.36.96.49-.25-.49-.4-1.11-.43-1.87,0-.07.02-.88.07-2.42.06-.1.06-.19,0-.27l.07-5.75c.1-6.58.05-10.44-.13-11.59-.02-.14-.12-.25-.29-.31-.16-.06-.31-.07-.47-.02-.1-.06-.24-.11-.39-.17.14,1.49.17,5.22.08,11.2"/>
        <path class="cls-1" d="M106.68,92.03s-.06-.02-.09-.03c.03.05.06.1.1.15,0-.04,0-.08,0-.12"/>
        <path class="cls-1" d="M119.54,113.76s-.39-.2-1.16-.59c.02.2.06.5.11.91.05.36-.13.71-.54,1.03-.34.26-.71.45-1.12.54-1.39.33-3.08.42-5.08.27-.12.1-.28.13-.49.11-.21-.01-.35-.07-.43-.18-.59-.06-1.22-.14-1.9-.23-.12.08-.28.11-.49.07-.19-.04-.32-.1-.38-.2,0,0-.4-.06-1.16-.18-.01.14-.01.27,0,.41.02.19.15.31.38.34,1.3.21,1.96.31,1.97.31.06.1.19.16.38.2.2.04.37.01.49-.07.68.1,1.31.17,1.9.23.08.11.23.17.43.18.2.02.37-.01.49-.11,2,.14,3.69.05,5.08-.27.41-.1.78-.28,1.12-.54.41-.33.59-.67.54-1.03-.1-.8-.15-1.19-.15-1.19"/>
        <path class="cls-1" d="M140.52,88.81c-.04.12-.14.21-.31.25-.2.36-.35,1.12-.43,2.26.02.23.04.39.05.47.05,1.17.08,2.09.09,2.77v.29s.05.06.09.11c.04.04.06.07.07.09.17.21.12.36-.14.45.04,1.76.04,3.28.02,4.56-.04,2.29-.1,4.34-.2,6.15-.11,1.87-.16,2.71-.16,2.51-.02.31-.02.63.02.94,0,.82.41,1.24,1.24,1.28-.03-.12-.04-.25-.04-.4-.04-.31-.04-.63-.02-.94,0,.19.05-.64.16-2.51.1-1.81.16-3.86.2-6.15.02-1.28.02-2.8-.02-4.56.26-.1.31-.25.14-.45-.01-.02-.04-.05-.07-.09-.04-.05-.07-.08-.09-.11v-.29c-.01-.67-.04-1.6-.09-2.77-.01-.08-.03-.24-.05-.47.08-1.15.23-1.9.43-2.26.17-.05.27-.13.31-.25.05-.14-.02-.27-.2-.38.05-.16.01-.28-.11-.36-.01-.01-.07-.05-.18-.11-.01-.12-.12-.22-.33-.29-.19-.06-.35-.07-.47-.04.09.09.12.19.09.3"/>
        <path class="cls-1" d="M143.83,112.29c-.13-.19-.2-.29-.2-.29,0,0-.06-.07-.18-.22-.13-.16-.3-.23-.51-.22-.12,0-.21.03-.3.08.04.9-.29,1.65-.99,2.22-.35.3-.77.51-1.25.63-1.06.6-2.18.86-3.35.78-1.21-.1-2.28-.53-3.22-1.3-.6.45-1.28.81-2.03,1.09-1.66,1.07-3.47,1.45-5.41,1.12-.87-.14-1.68-.44-2.44-.9,0,0,0,0,0,0,1.08.97,2.3,1.56,3.63,1.77,1.94.33,3.74-.05,5.41-1.12.75-.28,1.42-.64,2.03-1.09.94.77,2.01,1.21,3.22,1.3,1.17.08,2.28-.17,3.34-.78.48-.12.9-.33,1.25-.63.76-.63,1.09-1.45.98-2.46"/>
        <path class="cls-1" d="M162.9,103.08c.02.55.02,1.3,0,2.24-.02,1.05-.03,1.77-.02,2.17.04,1.69.3,3.13.8,4.34.16-.07.41-.39.69-.8-.17-.81-.27-1.69-.29-2.66-.01-.4,0-1.12.02-2.17.02-.94.02-1.69,0-2.24-.11-2.31-1.06-3.98-2.86-5.01-.01,0-.03-.01-.04-.02,1.05,1.01,1.62,2.39,1.7,4.15"/>
        <path class="cls-1" d="M151.87,98.47c-.11-.01-.19-.05-.25-.13-.37.07-.73.22-1.07.43-.31.22-.52.51-.61.89.83.33,1.26.95,1.28,1.86.04.93-.4,1.56-1.3,1.88-.31.12-.64.18-.99.18-.76.11-1.47.05-2.15-.17.17.33.4.56.68.68.37.17.75.28,1.14.35.24,0,.49.01.74.04.04,0,.08.01.11.03.22,0,.44-.02.67-.05.35,0,.68-.06.99-.18.9-.33,1.34-.95,1.3-1.88-.02-.92-.45-1.54-1.28-1.86.1-.37.3-.67.61-.89.34-.22.69-.36,1.07-.43.06.07.15.12.25.13.07,0,.13.01.2.02-.35-.59-.82-.89-1.39-.9"/>
        <path class="cls-1" d="M169.92,105.47l.02-.09c0-.35-1.86,3.6-2.07,3.5,0,.01,0,.04-.02.09-.03-.02-.05-.03-.08-.04-.67,2.01-1.45,3.97-1.5,4.07-.2.42-.59.93-1.16,1.54-.63.68-1.68,1.06-3.17,1.16-2.25.16-4.32-.55-6.2-2.12-1.08,1.06-2.54,1.75-4.36,2.06-1.03.17-1.96.18-2.8.04-.49.01-.91,0-1.25-.04-.61-.19-1.19-.45-1.74-.78.88.78,1.86,1.33,2.93,1.66.34.04.75.05,1.25.04.84.14,1.78.13,2.8-.04,1.82-.31,3.27-1,4.36-2.06,1.88,1.57,3.95,2.27,6.2,2.12,1.48-.1,2.54-.48,3.16-1.16.57-.6.95-1.12,1.16-1.54.1-.19,2.92-7.38,2.46-8.41"/>
        <path class="cls-12" d="M76.22,111.17c.46,1.04.64,1.65.54,1.84-.2.42-.59.93-1.16,1.54-.63.68-1.68,1.06-3.17,1.16-2.25.16-4.32-.55-6.2-2.12-1.08,1.06-2.54,1.75-4.36,2.06-1.03.17-1.96.18-2.8.04-.49.01-.91,0-1.25-.04-1.18-.36-2.25-.99-3.2-1.9-.01-.01-.05-.08-.13-.22-.55-.66-.93-1.45-1.12-2.37-.21-.93-.18-1.78.07-2.57.06-.51.2-.95.42-1.34,1.17-2.11,3.16-3.03,5.97-2.77.06,0,.11.02.16.05.2,0,.46.02.78.07.02,0,.06,0,.11.02.06,0,.1,0,.13.02,1.29-.05,2.43.12,3.44.49v-.34s.08-.04.09-.06c-.05.04-.03.03.05-.04.05-4.13-.69-6.21-2.22-6.24-.11-.01-.19-.05-.25-.13-.37.07-.73.22-1.07.44-.31.22-.52.51-.61.89.83.33,1.26.95,1.28,1.86.04.93-.4,1.56-1.3,1.88-.31.12-.65.18-.99.18-.95.13-1.84.01-2.66-.36-.54-.24-.88-.85-1.01-1.83-.13-.96.01-1.66.43-2.08.13-.14.21-.3.24-.47.25-.23.52-.43.8-.6.35-.19.73-.37,1.14-.52,1.31-.8,2.88-1.18,4.7-1.16,1.81.02,3.29.21,4.45.56,1.22.17,2.23.48,3.04.94,1.8,1.02,2.75,2.69,2.86,5.01.02.55.02,1.3,0,2.24-.02,1.05-.03,1.77-.02,2.17.04,1.69.3,3.14.8,4.34.51-.24.8-.63.87-1.16.04-.13.16-.22.36-.25.19-.04.36-.01.49.07.01-.05.02-.08.02-.09.22.1.32.32.32.67l-.02.09ZM55.89,105.94c-.35.22-.65.47-.89.76.17-.1.28-.16.33-.2.16-.19.34-.38.56-.56M55.24,109.78c0,.07,0,.21.02.42.13-.13.54-.46,1.23-.99.72-.58,1.56-1.12,2.5-1.63.11-.05.21-.05.31,0,.06-.29.13-.56.22-.81-.02-.04-.04-.07-.05-.11-.02.1-.08.17-.16.22-1.48.78-2.83,1.75-4.05,2.91M55.71,108.44c-.08-.06-.13-.14-.13-.23-.07.16-.14.33-.2.52.04-.02.09-.07.16-.14.07-.06.13-.11.16-.15M56.07,112.65s.11-.07.18-.09c.46-.42.95-.92,1.46-1.5.19-.3.39-.6.6-.89-.94.83-1.77,1.6-2.48,2.3.02.05.07.14.14.29l.09-.11ZM56.29,100.77c-.27.65-.27,1.27,0,1.84v-1.84ZM56.99,113c.16-.16.28-.28.36-.36.25-.29.5-.59.74-.9.07-.08.16-.12.25-.11.04-.07.11-.23.24-.47-.11.12-.22.24-.33.36-.01.01-.02.03-.04.05-.02.02-.04.04-.04.05-.04.06-.08.1-.14.13-.53.58-1.09,1.13-1.68,1.65-.02-.02,0,0,.05.07l.04-.04c.07-.06.15-.09.23-.09.02-.04.04-.06.04-.06,0,0,.09-.1.27-.29M57.7,106.99c-.58.26-.98.54-1.19.81.41-.3.81-.57,1.19-.81M58.53,114.14c.08-.15.11-.19.07-.13.18-.31.28-.48.29-.51-.19.07-.48.25-.85.54-.1.07-.21.16-.33.27v.02c-.04.06-.08.11-.15.14-.06.05-.08.06-.05.04.15.1.31.17.49.22.14-.31.21-.46.2-.43.06-.14.09-.22.09-.22,0,0,.08.02.24.05M59.22,101.28c.06-.05.16-.07.31-.07-.12-.05-.2-.11-.23-.2l-.04-.04c-.06.05-.14.11-.25.18-.13.07-.22.13-.27.16-.12.18-.22.36-.29.54.12-.08.18-.13.18-.13,0,0,.2-.15.6-.45M59.29,111.49s0,.02-.02.02c-.01,0-.02,0-.02.02,0-.02,0-.05.02-.09v-.13c-.22.45-.38.78-.49.99.15.05.23.15.25.31.1-.39.17-.74.22-1.05l.04-.02v-.06ZM59.94,114.53c-.26.18-.42.28-.45.31-.02.02-.07.04-.13.05-.08.05-.16.05-.23.02h-.02c-.07-.01-.15-.03-.24-.05l-.04.04c.24.05.46.08.67.09l.43-.45ZM61.84,105.76c.23-.04.47-.05.72-.04h.07c-.65-.12-1.44-.12-2.35,0,.04.01.07.02.09.04h1.46ZM60.79,107.75c.07.01.13.04.18.09.05-.46.14-.84.27-1.14-.19.16-.35.38-.47.67,0,.05,0,.11.02.18v.2ZM61.13,112.53c.1.22.22.39.38.52-.22-.43-.37-.98-.45-1.65-.01.16-.02.25-.02.27.01.23.04.51.09.85M63.68,113.25c.68-.37,1-.98.98-1.81-.01-.46-.03-1.15-.05-2.06-.02-.92-.04-1.6-.05-2.06-.07-.11-.12-.18-.15-.22-.31-.43-.75-.69-1.32-.76-.09.07-.19.1-.31.09-.42-.07-.75.28-.98,1.05-.22.71-.3,1.56-.24,2.55.05,1.02.22,1.84.52,2.44.35.7.8.95,1.34.76.1-.02.18-.02.25.02M64.79,97.63c-1.03-.06-1.95-.07-2.78-.02.11,0,.26,0,.47.02h2.31ZM65.22,99.54c.12.18.23.37.33.56.06-.04.14-.08.25-.15-.31-.16-.34-.34-.09-.56.14-.13.26-.23.34-.29h-.04s-.03-.02-.04-.02c-.29.18-.54.33-.76.45M65.67,97.72s-.06.01-.11.04c-.05.01-.08.02-.11.04.06.02.11.06.16.11.12-.02.2-.04.23-.05.35-.06.57.03.65.27.36-.11.61-.18.74-.22-.54-.07-1.07-.13-1.57-.18M66.76,100.05c-.18.1-.51.28-1,.54.04.07.06.13.07.18.41-.33.72-.57.92-.72M66.36,108.78c.07-.08.16-.19.27-.33-.64.27-.92.39-.85.36.07.04.13.08.18.13l.33-.14s.02-.02.02-.02h.05ZM67.1,101.04s0-.02.02-.04c0-.02,0-.04.02-.04-.17.1-.32.19-.45.27-.01.09-.02.16-.02.22.05-.05.12-.11.22-.2.1-.1.17-.17.22-.22M67.28,98.69s.09.05.13.07c.24-.06.47-.11.69-.16.12-.07.28-.16.47-.27-.24-.13-.47-.24-.69-.33h-.02c-.16.1-.46.28-.92.54.13.05.25.1.34.14M67.9,103.18c.25-.34.53-.67.83-1.01-.22.08-.48.19-.8.31-.01.23-.04.47-.07.72.04-.02.05-.03.04-.02M69.22,99.22c.46.01.67.13.63.36.13.03.24.07.31.13l.02-.02.02-.02s0,.01.02,0c-.16-.21-.34-.4-.56-.58-.11,0-.21.01-.31.04.01-.01,0-.01-.02,0l-.11.09ZM70.28,114.86c.15-.27.27-.49.38-.67-.09.06-.28.2-.58.42-.07.05-.18.08-.31.09.19.06.36.11.51.16M70.77,110.63v.02c.35-.16.67-.29.98-.4.17-.05.35-.03.54.05.2.08.29.19.25.33.07-.05.12-.08.14-.09-.1-.37-.17-.77-.22-1.19-.32.13-.69.32-1.1.56-.13.18-.31.37-.52.56-.01.07-.04.13-.07.16M71.91,104.79c-.11.13-.24.28-.4.43.34-.2.62-.39.85-.54v-.51c-.17.14-.3.25-.38.33.04.09.01.18-.07.29M71.53,115.02c.49-.01.89-.04,1.18-.07-.11-.05-.22-.13-.34-.24-.05,0-.19,0-.43.02-.12.09-.25.18-.4.29M72.35,107.59s-.17.15-.6.52c.11,0,.19.05.25.15.29-.18.41-.26.36-.24,0,0,0-.14-.02-.43M72,105.85c.11.02.21.05.31.09-.01,0,0,0,.04.02v-.25s-.13.05-.34.14M72.2,103.3s-.05.05-.09.09c-.04.05-.06.08-.07.11.01-.01.04-.02.07-.02.04-.01.06-.02.07-.02.05-.01.1-.01.16,0-.01-.19-.02-.33-.04-.42l-.02.02h-.02v.13s-.02.04-.07.11M73.03,112.76c.1-.07.23-.1.42-.09-.1-.1-.19-.21-.29-.34-.01.05-.04.1-.07.15-.2.23-.42.48-.63.76.23-.17.42-.32.58-.47M74.88,112.83c0-.06,0-.16.02-.29-.19.14-.38.25-.56.31.08-.02.1-.03.05-.02.02.02.05.05.07.07.1-.01.23-.04.42-.07"/>
        <path class="cls-11" d="M91.01,110.93c.32.13.52.44.58.92.06.44.02.81-.13,1.14-.55,1.23-1.74,2-3.54,2.3-1.29.22-2.51.23-3.67.05-.17.13-.32.1-.45-.09-.63-.13-1.18-.31-1.66-.54-.12.06-.23.06-.34,0-.12-.07-.18-.17-.18-.29-.46-.28-.85-.6-1.17-.96h-.02v.02c-.17.14-.33.14-.49-.02-.16-.16-.16-.31,0-.47,0-.01.02-.04.07-.09-.2-.29-.36-.57-.47-.85-.23-.53-.41-2.37-.54-5.53-.06-1.33-.11-2.81-.15-4.47-.2-.19-.21-.36-.02-.51l.02-.02c-.02-1.22-.04-2-.05-2.33,0,.01,0,0,.02-.05-.59-.06-.98-.1-1.18-.13-.49-.06-.8-.21-.92-.45-.17-.39-.16-.76.04-1.14.18-.35.48-.59.89-.72.06-.02.13-.02.2,0,1.36.1,2.93-.83,4.7-2.78-.05-.12-.02-.24.07-.36.16-.22.4-.44.74-.67,1.04-1.64,1.68-2.54,1.93-2.71.77-.53,1.53-.59,2.26-.18.72.41,1.1,1.09,1.14,2.04.01.36,0,.84-.04,1.43-.05.71-.08,1.18-.09,1.41,0,.64.07,1.07.2,1.3.2.34.61.51,1.21.51.3,0,.61.09.92.27.33.2.54.44.63.71.32.94.13,1.53-.6,1.75-.23.07-.59.14-1.08.2-.55.05-.93.1-1.14.16-.21.11-.28.15-.22.13-.06.04-.13.05-.22.04.16,3.48.27,6.1.34,7.85.01.05.01.36,0,.94-.01.45,0,.81.04,1.08.12.84.51,1.2,1.16,1.07.48-.1.72-.14.72-.14,0,0,.16.07.49.2M77.44,97.73c.12-.04.34-.14.65-.33-.11,0-.22,0-.34-.02-.17.07-.3.17-.38.31l.02.02s-.02-.02-.02-.02c0,0,.02.01.07.04M78.84,98.06c.66-.35,1.41-.71,2.22-1.07.01-.1.07-.17.16-.22l.47-.23c.47-.4,1-.86,1.59-1.37-.47.24-.85.31-1.14.22-.01-.01-.03-.02-.05-.04.11.05.18.13.22.25.04.12,0,.22-.11.31-.48.4-1.42.93-2.8,1.61-.54.27-1.12.54-1.74.81.04.01.07.02.09.02.1.01.25.03.47.05.19.01.35.02.47.04-.06-.17-.01-.3.14-.38M79.49,99.47c.13-.15.3-.31.51-.49-.01-.13.04-.23.16-.31.06-.04.19-.11.38-.23-.11.07-.22.08-.34.04-.11-.04-.18-.11-.22-.22-.43.22-.62.31-.56.29.12.06.19.16.2.31.02.14-.02.25-.15.31.01.05.02.06.02.04v.27ZM79.51,100.99c1.09-.89,1.97-1.57,2.64-2.03.21-.14.46-.32.78-.52-.3.17-.56.31-.78.43-1.43.84-2.28,1.27-2.53,1.28-.04,0-.08,0-.13-.02.01.37.02.66.02.85M79.54,102.69c.02.83.04,1.4.04,1.72.55-.69,1.55-1.6,2.98-2.75l-1.86,1.32c-.16.12-.3.1-.43-.07-.13-.18-.13-.34.02-.47.04-.02.09-.07.16-.14.07-.06.13-.11.16-.14.06-.05.13-.07.2-.07.33-.24.83-.6,1.5-1.08.66-.48,1.16-.84,1.48-1.07.12-.08.4-.31.83-.67-.1-.19-.05-.34.13-.45.93-.51,1.81-1.08,2.64-1.72.14-.11.28-.1.4.02.11.13.13.28.07.43.02.05.04.1.04.14.12-.07.3-.19.54-.34l.02-.02c-.36-.08-.58-.48-.65-1.18-.19.34-.87.89-2.03,1.66-.07.06-.2.14-.38.25-.16.11-.28.19-.38.25.01.13-.04.23-.16.29-.26.13-.55.28-.87.43-.28.22-.51.41-.71.58.04.11.03.21-.02.31-.06.11-.16.16-.29.16-.14,0-.25,0-.32-.02-.07,0-.14-.02-.2-.07-.59.58-1.47,1.45-2.64,2.6-.09.07-.13.11-.13.11,0,0-.05,0-.15-.02M79.61,105.29c.01.12.02.28.02.47.01.24.02.4.02.47.02-.02.04-.04.05-.05.05-.04.13-.1.24-.18.1-.08.17-.15.22-.18-.14.02-.26-.04-.34-.18-.07-.13-.06-.26.04-.38-.08.02-.16.04-.24.04M79.89,110.25s.03-.07.02-.05c.29-.29.62-.6.99-.94.02-.02.07-.06.13-.11.05-.06.09-.1.13-.13.01-.01.04-.03.07-.06.66-.58,1.71-1.42,3.13-2.51,1.41-1.09,2.45-1.92,3.13-2.51.07-.07.16-.1.25-.09-.06-1.35-.1-2.36-.13-3.04l-7.41,5.86c-.18.15-.36.13-.52-.05.01.1.03.42.05.96,1.63-1.33,4.06-3.31,7.31-5.95.18-.14.35-.14.51.02.17.17.16.33-.02.47l-7.7,6.28s-.03.02-.05.04c0,.04,0,.1.02.18v.18c.93-.93,2.03-1.89,3.31-2.88l3.54-2.73c-.06-.2.02-.34.23-.42.23-.06.37.02.43.23.1.36-.17.79-.8,1.28-.19.15-.45.33-.78.54-.34.22-.54.35-.61.4-2.06,1.58-3.53,2.79-4.41,3.63-.01.1-.06.18-.14.23-.1.07-.25.19-.45.34-.09.06-.17.07-.27.02v.2c.01.09.02.15.02.2.01.13.02.2.02.2,0,0,0,.07.02.2M80.5,112.34c.42-.47.64-.72.67-.74.11-.12.23-.14.36-.07.05-.04.74-.66,2.08-1.86,1.92-1.71,2.98-2.69,3.2-2.95-1.9,1.4-3.69,2.86-5.35,4.39-.04.04-.05.05-.04.04-.18.16-.32.28-.42.36-.17.16-.34.15-.51-.02-.16-.16-.16-.31,0-.47,2.28-2.12,4.71-4.07,7.31-5.86l-.04-.58c-.63.54-1.69,1.4-3.2,2.57-1.4,1.07-2.46,1.93-3.18,2.59-.22.22-.55.53-.99.94-.13.15-.28.15-.43.02.11.62.29,1.16.54,1.65M82,97.35s-.11.04-.18.07c-.1.04-.16.07-.2.09-.63.53-.98.83-1.05.89.08-.05.21-.13.38-.23.37-.31.72-.58,1.05-.81M87.39,100.1c-.07-.15-.06-.28.04-.4.04-.04.08-.09.14-.15-.04-.04-.06-.08-.07-.13-.45.28-.66.41-.65.4-.16.11-.3.09-.42-.05-.49.41-1.03.81-1.59,1.19.12.03.2.1.25.22.06.13.04.26-.05.38-.16.19-.9.82-2.22,1.88-.71.58-1.41,1.21-2.08,1.88v.04c2.95-2.34,4.43-3.51,4.43-3.51,0,0,.74-.59,2.22-1.75M81.97,113.92c1.9-1.88,3.86-3.65,5.88-5.32.02-.02.06-.04.11-.05l-.11-2.57s-.31.23-.87.63c.14-.05.26,0,.36.15.1.16.09.3-.02.43-.22.25-1.29,1.24-3.22,2.96-.35.31-.87.79-1.57,1.43-.71.63-1.24,1.1-1.59,1.43.29.36.63.66,1.03.9M81.33,103.56s.07.11.09.18c.34-.3.64-.56.9-.78,1.17-.9,1.86-1.47,2.06-1.7-.24.16-.47.3-.69.43-.05.03-.1.04-.14.04-1.31,1.06-2.06,1.67-2.22,1.83M88.28,111.64c.13-.1.25-.09.36.02.11.09.15.2.13.34.28-.22.4-.31.36-.29-.01.02,0,.02.02,0-.15,0-.28-.01-.4-.04-.45-.13-.68-.54-.71-1.23-.02-.47-.04-.83-.05-1.07-1.71,1.44-3.38,2.94-5.01,4.5v.02s-.1.09-.18.16c-.07.08-.13.15-.16.18.02.01.1.04.23.07.04-.04.05-.05.04-.04l.34-.34s0,0,.02-.02c1.25-1.23,2.53-2.39,3.83-3.47.17-.15.34-.14.51.02.17.17.16.33-.02.47-1.35,1.12-2.66,2.32-3.94,3.6-.04-.01.05,0,.25.05.02-.04.51-.48,1.46-1.32.25-.23.64-.57,1.16-1.01.51-.46.89-.8,1.14-1.03.17-.15.33-.13.49.04.17.16.17.31,0,.45-.01.01-.02.02-.04.04-.01.01-.03.02-.04.04.02-.01.05-.04.09-.07.05-.04.07-.05.07-.05,0,0,.01,0,.04-.02M83.9,93.34c-.22.26-.41.49-.58.69.55-.37,1.53-1.04,2.93-1.99.07-.14.12-.25.14-.31.1-.22.25-.25.45-.11.07-.05.19-.12.34-.22.15-.1.25-.18.33-.24-.08-.05-.19-.08-.31-.11-.01.07-.05.16-.11.25-.11.18-.26.22-.45.11-.18.14-.47.35-.85.61-.39.28-.67.48-.85.61-.12.08-.29.2-.51.34-.27.16-.45.27-.54.34M85.36,95.06c-.31.24-.61.47-.89.69h.04s.02-.02.04-.02c.04-.01.08-.01.13,0,.08-.06.2-.14.34-.24.16-.11.26-.18.33-.22.01-.11.02-.16.02-.16v-.05ZM84.73,100.1s.05.03.07.05c.4-.3.78-.6,1.14-.89l-.02-.04s-.01,0-.07.02c-.24.18-.46.34-.65.47-.12.11-.22.19-.29.23l-.18.15ZM85.08,91.46c-.05.1-.13.23-.24.42.11-.07.27-.18.47-.33.2-.16.36-.27.47-.34-.23.07-.46.16-.7.25M86.14,114.8c-.01-.11.01-.2.07-.29l-.18.13c-.15.1-.28.09-.4-.02-.11-.11-.14-.24-.09-.4-.17.17-.36.34-.56.52.37.04.56.05.56.05h.6ZM87.91,91.75s-.11.07-.2.13c-.08.06-.14.1-.18.13.06.13.03.25-.09.34-.35.28-.72.56-1.12.85-.21.28-.45.56-.74.85.8-.58,1.6-1.11,2.42-1.59.02-.29,0-.54-.07-.74l-.02.04ZM87.26,96.09c-.16-.16-.16-.32,0-.49.17-.16.33-.16.49,0h.02v.02s.05-.6.15-1.88c0,.08.01-.06.04-.43-.7.42-1.41.9-2.13,1.43.07.01.13.04.18.09.82-.55,1.25-.85,1.3-.89.19-.13.34-.1.45.11.12.19.09.36-.09.49.07-.05-.17.11-.72.49.02.11-.02.2-.13.27l-.94.76c-.06.15-.13.29-.2.43.01-.01.03-.02.05-.02.02-.01.04-.02.05-.04.19-.06.33.01.4.22.57-.53.85-.8.85-.8,0,0,.08.08.24.23M87.52,114.71c-.02-.1-.01-.19.04-.29-.23.17-.39.28-.47.34.15-.01.29-.03.43-.05M90.52,112.6s.03-.03.05-.05c.02-.02.05-.05.07-.07-.02-.12-.05-.25-.09-.38-.01.04-.04.07-.07.09-.26.2-.52.43-.76.69.04.12,0,.23-.09.33.05-.05-.06.06-.33.32.06.15.04.27-.07.38-.18.19-.39.38-.63.58.14-.05.22-.08.24-.09.11-.02.23-.06.36-.11v-.16c-.01-.17.07-.27.24-.31,0-.05.01-.1.04-.14.12-.22.31-.54.56-.98.11-.21.27-.24.49-.09M89.42,97.37c-.28.04-.47.05-.56.04.1.12.11.25.05.38.04-.02.11-.07.22-.13.1-.06.17-.1.22-.13.02-.01.06-.02.11-.04l-.04-.13Z"/>
        <path class="cls-9" d="M104.21,112.87c.98.51,1.19,1.13.63,1.86-.52.71-1.25,1.05-2.21,1.03-.14,0-.5,0-1.07-.02-.17.07-.33.14-.47.2-.12.05-.27.05-.43,0-.19-.05-.31-.13-.34-.23-.61-.02-1.54-.06-2.77-.11-.15.04-.3.03-.45-.02-.52-.02-.81-.04-.89-.04h-.69c-.34,0-.62-.01-.85-.04-.72-.07-1.16-.31-1.32-.71-.24-.57-.19-1.29.16-2.17.42-1.04.62-1.77.6-2.19-.06-1.49-.22-3.1-.47-4.81-.45.04-.81-.07-1.1-.31-.3-.25-.44-.6-.42-1.05-.18-.11-.21-.25-.07-.43,1.59-2.15,4.33-4.19,8.21-6.13.81-.4,1.27-.62,1.37-.67.6-.2,1.09-.17,1.46.11.45.31.67.93.67,1.84,0-.06-.06.63-.18,2.06-.02.18-.15.3-.38.34,0,.59-.01,1.47-.04,2.64-.01,1.18-.02,2.07-.02,2.66-.01.2-.05.73-.11,1.57-.06.75-.08,1.35-.07,1.81.04,1.43.45,2.36,1.23,2.78M102.56,88.58c.78,1.22,1.09,2.45.92,3.71-.19,1.31-.87,2.37-2.03,3.16-1.01.69-2.32.95-3.92.78-1.68-.18-2.86-.77-3.56-1.77-.74-1.04-1.05-2.39-.94-4.05.06-.89.72-1.81,1.99-2.77.08-.06.2-.09.34-.09.04-.04.09-.08.16-.13,1.34-.72,2.61-1.02,3.81-.89,1.35.15,2.42.83,3.22,2.04M93.99,91.48c0,.14,0,.31.02.49.14-.31.32-.62.52-.92-.02.02-.08.08-.18.16-.07.07-.13.13-.16.16-.05.05-.11.08-.2.11M94.6,92.51c-.19.04-.36.02-.51-.05.04.17.08.32.13.45.05-.05.11-.11.2-.2.09-.08.14-.15.18-.2M94.3,104.75s-.03.03-.05.04c.2.06.33.18.36.36.13.81.21,1.31.24,1.5.55-.57,1.38-1.41,2.48-2.53,1.1-1.13,1.92-1.98,2.48-2.55-1.1.71-2.39,1.8-3.89,3.25-.17.16-.41.19-.72.09-.31-.1-.37-.25-.18-.47.6-.65,1.51-1.63,2.71-2.93-1.19,1.03-2.33,2.1-3.42,3.24M94.46,113.05c-.43,1.04,0,1.63,1.32,1.79-.05-.08-.02-.18.07-.29,1.1-1.18,2.19-2.41,3.27-3.69-.04.02-.05.03-.04.02-1,1.07-2.02,2.12-3.06,3.13-.17.17-.4.21-.69.13-.3-.08-.37-.25-.2-.51.08-.13.22-.33.42-.58-.39-.1-.47-.25-.25-.47,1.63-1.64,3.2-3.36,4.72-5.15-.93.71-2.12,1.82-3.56,3.33-.17.17-.41.2-.72.09-.3-.1-.36-.25-.18-.47.31-.37,1.12-1.28,2.42-2.71,1.04-1.13,1.84-2.07,2.4-2.82-.72.61-1.43,1.25-2.11,1.92-.74.78-1.4,1.47-1.99,2.06-.16.16-.39.19-.71.09-.31-.11-.37-.27-.18-.47.63-.69,1.3-1.38,2.02-2.08.96-1.02,1.86-2,2.69-2.93-.15.13-.41.37-.8.72-.33.29-.58.51-.76.65l-3.06,2.44c-.13.11-.33.12-.58.04.31,2.34.16,4.26-.47,5.77M94.48,93.43c.25.47.61.87,1.09,1.21.04-.01.07-.02.11-.02.43.02.87.02,1.3-.02-.23-.16-.23-.32,0-.49.99-.7,1.88-1.5,2.68-2.41-1.15.63-2.21,1.31-3.2,2.06-.19.16-.42.16-.69,0-.27-.14-.28-.32-.04-.52,1.24-1.06,2.22-1.95,2.95-2.68-1.34.71-2.53,1.62-3.58,2.73-.13.14-.34.19-.61.13M99.32,99.11c-.49.26-.92.51-1.27.72-1.41.84-2.6,1.74-3.58,2.68,1.19-1.05,2.5-1.94,3.91-2.66.33-.27.64-.51.94-.74M96.78,90.09c-.12.14-.3.37-.54.67-.24.29-.42.51-.54.67.19-.21.48-.51.87-.9.39-.4.68-.69.89-.89-.24.14-.46.3-.67.45M101.87,89.33c-1.16-2.07-2.92-2.58-5.3-1.52.16.06.26.14.31.23.39-.26.66-.45.83-.56.17-.11.39-.11.67-.02.28.1.33.25.14.47-.06.07-.15.18-.27.33.32-.16.67-.31,1.05-.47.16-.07.36-.05.6.05.24.12.28.27.11.45-.01.01-.02.02-.04.04.11,0,.2.02.27.07l1.79,1.28s0,0,.02.02c-.06-.13-.12-.26-.18-.38M97.95,113.76c-.43.4-.82.78-1.16,1.14h.25c.29-.36.59-.74.9-1.14M99.7,93.67c-.16.07-.39.19-.71.34-.31.16-.55.27-.71.34.57-.17,1.04-.4,1.41-.69M100.43,113.01c-.76.55-1.46,1.18-2.12,1.86.25.01.55.03.89.06.02-.02.04-.04.04-.06.42-.58.82-1.2,1.19-1.86M99.43,88.87c-.08.08-.21.22-.38.4-.18.18-.31.31-.4.4.36-.17.75-.33,1.18-.49-.12-.1-.23-.18-.33-.25-.02-.01-.05-.03-.07-.05M102.65,99.76c.07-1.59-.39-2.14-1.37-1.65-.01,0-.03.01-.05.04-.04.01-.06.02-.07.02.16.06.26.14.31.23.05.11,0,.22-.14.33-.11.07-.31.22-.61.43.17.12.18.26.04.42-.42.45-.74.78-.94,1.01.63-.36,1.26-.67,1.9-.92.25-.1.49-.04.72.16.07-.04.15-.06.23-.07M100.37,90.1c-.18.21-.36.4-.54.58.27-.13.54-.26.83-.4l-.02-.04c-.07-.04-.11-.05-.11-.05,0,0-.05-.03-.16-.09M100.68,92.29c.06-.17.1-.34.13-.52-.2.25-.44.52-.71.81.12-.06.31-.16.58-.29M100.54,110.63c.16.02.28.08.36.18.08.1.08.22,0,.36-.17.27-.38.59-.63.96.39-.25.76-.48,1.12-.67.21-.12.43-.1.67.07,0-.02,0-.76.02-2.21.02-1.34.04-2.34.04-3-.2.25-.42.52-.63.8.19,0,.34.05.45.15.13.12.14.25.02.4-.36.42-.78.9-1.25,1.45.18-.06.37-.04.58.07.22.11.25.25.09.43-.17.22-.45.56-.83,1.01M102.2,100.39l-1.75,1.79c.55-.38,1.09-.63,1.61-.74h.13c0-.47,0-.82.02-1.05M100.48,115s.02,0,.2.02c.08-.12.16-.22.22-.31-.08.06-.22.16-.42.29M102.13,105.24c0-.14,0-.35.02-.63v-.61c-.4.61-.87,1.26-1.43,1.93.41-.26.78-.48,1.12-.65.07-.04.17-.05.29-.04M101.44,94.35c.36-.39.63-.81.81-1.28-.27.06-.46.01-.6-.15-.16.24-.34.48-.54.72.31.05.46.17.43.36-.01.12-.05.23-.11.34M102.11,111.95c-.2.43-.45.89-.72,1.36.17-.12.42-.3.76-.54.04-.04.09-.06.16-.07-.02-.05-.03-.06-.02-.04-.07-.21-.13-.44-.18-.71M102.29,114.33c.13-.11.27-.23.42-.36-.01-.01-.02-.03-.04-.06-.02-.02-.05-.06-.07-.11-.06.12-.16.3-.31.52M103.25,114.66c-.16.13-.31.25-.47.36.31-.02.57-.07.76-.13-.08-.04-.15-.08-.2-.13l-.09-.11Z"/>
        <path class="cls-13" d="M118.71,114.08c.05.36-.13.7-.54,1.03-.34.27-.71.45-1.12.54-1.39.33-3.08.42-5.08.27-.12.1-.28.13-.49.11-.21-.01-.35-.07-.43-.18-.59-.06-1.22-.14-1.9-.23-.12.08-.28.11-.49.07-.19-.04-.32-.1-.38-.2-.01,0-.67-.1-1.97-.31-.23-.04-.36-.15-.38-.34-.06-.52.09-1.02.45-1.52.07-.1.25-.31.52-.63.23-.27.4-.49.52-.67.29-.47.39-1.72.29-3.74-.05-1.11-.09-1.95-.13-2.51-.28-.11-.33-.27-.16-.47.06-.07.1-.13.13-.16v-.14c-.05-1.01-.12-2.53-.22-4.54-.16-.1-.21-.22-.14-.36-.02.05.01-.02.11-.22-.05-.89-.11-2.2-.2-3.92-.08-1.76-.15-3.06-.2-3.91t0,0c-.9-.26-1.4-.79-1.5-1.57-.06-.52.25-.9.92-1.14-.02-.08,0-.16.07-.24.02-.02.06-.06.11-.11.11-.12.25-.18.43-.18s.33.06.45.18c.04.04.06.06.07.07l.04.04c.29.02.82-.02,1.59-.13.82-.1,1.26-.14,1.32-.14,1.31,0,2.43.06,3.35.18.87.11,1.47.26,1.81.45.16-.05.31-.04.47.02.17.06.26.16.29.31.18,1.15.22,5.01.13,11.59l-.07,5.75c.06.08.06.18,0,.27-.05,1.54-.07,2.35-.07,2.42.05.98.27,1.73.67,2.26,1.06.54,1.59.81,1.59.81,0,0,.05.4.15,1.19M107.19,90.47c.19-.24.41-.48.65-.7-.21.01-.38.02-.52.02-.06.09-.17.14-.33.16l.2.52ZM107.68,114.44c.65-.7,1.14-1.23,1.46-1.59h-.07c-.74.71-1.27,1.3-1.59,1.75.01.01.03.02.05.02h.05c0-.06.03-.12.09-.18M108.06,93s-.03.04-.05.05l.02.38c.42-.43,1.06-1.08,1.92-1.93.84-.86,1.48-1.49,1.9-1.92-1.24,1.16-2.5,2.3-3.78,3.42M108.08,94.59c.05-.06.12-.13.22-.22.1-.11.16-.18.2-.22-.12.05-.27.06-.43.04l.02.4ZM113.07,89.62c-.4.4-.79.79-1.18,1.18.06-.06.23-.23.52-.52.22-.2.4-.37.54-.51.17-.17.41-.2.72-.09.31.11.37.26.18.45-1.81,1.72-3.59,3.48-5.33,5.26-.08.1-.22.14-.4.14l.02.6c1.78-1.77,3.49-3.58,5.12-5.43.16-.18.39-.22.71-.11.31.11.38.26.2.47-.01.01-.03.02-.04.04-.01.01-.03.02-.04.04.19-.13.42-.14.69-.04.25.11.3.26.14.45-.12.15-.2.24-.23.29-.01.01-.03.03-.05.05-1.24,1.46-2.55,2.87-3.92,4.25.13.02.23.08.31.16,1.34-1.36,2.66-2.63,3.96-3.8.12-.12.31-.16.58-.11-.04-.54-.08-1.07-.14-1.57-.06-.06-.1-.13-.11-.22-.08-.57-.81-.92-2.19-1.07-.01.02-.03.05-.05.07M108.22,97.35l.02-.04c1.9-1.78,3.72-3.69,5.44-5.71-1.62,1.81-3.26,3.53-4.94,5.17-.12.12-.31.16-.56.13l.04.45ZM108.6,97.81c-.16-.02-.28-.07-.38-.15l.04.6c.12-.16.24-.31.34-.45M108.66,99.36c-.1.19-.2.4-.31.61l.07,1.52c.46-.55.81-.99,1.07-1.32-.42-.09-.52-.24-.29-.47.29-.3.73-.75,1.32-1.34.58-.6,1.02-1.05,1.32-1.36.16-.16.4-.4.72-.74.33-.33.57-.57.72-.74.6-.61.87-.88.81-.8-.04-.06-.05-.11-.05-.16-1.63,1.54-3.16,3.12-4.61,4.72-.18.21-.44.23-.78.07M109.18,89.74c-.29.22-.56.46-.81.74.11-.1.28-.25.52-.47.23-.19.41-.34.54-.45h-.13c-.01.08-.05.14-.13.18M108.64,102.69s-.09.08-.16.11l.07,1.12c.72-.89,1.33-1.64,1.83-2.24-.37,0-.56-.11-.56-.33-.01,0-.02,0-.02.02-.04.03-.08.05-.15.07-.45.57-.78.98-1.01,1.25M112.25,100.83c-.41.49-1.02,1.24-1.83,2.24-.81.99-1.41,1.73-1.81,2.22.01.24.02.37.02.4,1.27-1.72,2.6-3.33,4.01-4.83-.13.02-.27.01-.4-.04M108.71,114.77c.81-.86,1.69-1.84,2.66-2.95l-.02-.02c-.33.35-.78.84-1.37,1.48-.62.68-1.07,1.17-1.36,1.48h.09ZM109.13,106.6c-.07.11-.2.16-.4.16.05.53.08.92.09,1.18,1.16-1.84,2.42-3.62,3.78-5.33.08-.11.23-.16.43-.16l1.09-1.14c.12-.13.31-.33.56-.6l.13-.14c.1-.08.17-.15.22-.2-.02-.06-.04-.12-.04-.18-.09.07-.21.18-.38.33-.17.14-.3.25-.38.33-.18.14-.4.16-.65.04.11.1.1.21-.02.34-1.59,1.7-2.39,2.55-2.39,2.55,0,0-.68.95-2.04,2.84M109.47,108.48c-.25.07-.46.03-.63-.13.02.36.04.61.05.76.15-.19.34-.4.58-.63M114.68,105.42c-.47.75-1.4,1.78-2.79,3.09-1.33,1.25-2.23,2.3-2.71,3.13.05-.01.1-.02.15-.02,1.6-1.66,3.15-3.36,4.65-5.08.01-.05.04-.1.09-.14.07-.07.19-.19.34-.34.11-.11.27-.16.49-.15.23.02.38.09.45.2.01-.36.02-.9.04-1.63-.1.13-.18.25-.25.34-.08.11-.22.27-.4.49-.01.04-.03.07-.05.11M113.66,104.15c-.16-.05-.27-.13-.32-.24-.05-.12,0-.24.13-.34.52-.42.93-.93,1.23-1.54.11-.25.36-.33.74-.22v-.33c.01-.13.02-.24.02-.31-.19.21-.34.36-.43.47-.25.27-.63.66-1.12,1.19-.1.1-.24.15-.43.15-1.3,1.64-2.52,3.35-3.65,5.14.42-.39.69-.64.81-.76.34-.36.84-.9,1.52-1.61.68-.72,1.18-1.26,1.52-1.61M110.05,114.91c1.17-1.01,2.24-2.18,3.2-3.49-.08-.05-.15-.1-.18-.16-1.1,1.28-2.18,2.49-3.24,3.64.02.01.06.02.11.02h.11ZM111.55,115.04c-.1.11.97-1.07,3.2-3.55.22-.23.49-.24.83-.04-.18-.52-.27-1.13-.27-1.85v-.16c-.74,1.07-1.05,1.54-.94,1.39.24.11.29.26.15.45-.93,1.31-2.03,2.56-3.29,3.72.04,0,.09,0,.16.02h.16ZM114.57,108.11v-.02c-.12-.01-.22-.05-.29-.11-.1-.06-.14-.14-.14-.24-.94,1.05-1.8,1.99-2.57,2.82.23.01.39.07.49.18.89-.86,1.73-1.74,2.51-2.64M115.62,96.58c.04-1.31.03-2.46-.02-3.44-.02.02-.03.03-.02.02v.02h-.02v.02s-.01,0,0,0c0-.01,0-.01-.02,0-.02.02-.06.05-.11.07-.15.13-.47.44-.98.92.11-.04.24-.04.38,0,.25.05.39.16.4.34,0,.19-.25.55-.76,1.07-.16.16-.4.4-.72.74-.33.33-.57.57-.74.74l-1.34,1.37s0,.01.02.04c.99-.88,1.73-1.54,2.22-1.97l.04-.05s.05-.05.09-.07l.27-.23c.19-.17.42-.18.69-.04.26.16.28.34.05.54-.06.05-.14.12-.25.22-.25.29-.63.73-1.14,1.32-.51.58-.89,1.01-1.14,1.3.05.02.08.04.11.05,0,.01.01.02.04.04.01.01.02.02.04.04,1.19-1.3,2.08-2.28,2.68-2.93.05-.06.07-.09.07-.09,0,0,.05-.01.16-.04M116.9,113.32c.06-.06.13-.1.22-.13-.02-.04-.03-.05-.02-.04-.16.01-.29-.02-.4-.09-.12-.1-.25-.22-.38-.38-.93.95-1.64,1.68-2.15,2.19-.16.17-.39.2-.71.09-.31-.1-.37-.25-.18-.45.55-.57,1.39-1.42,2.49-2.57l-.07-.16s-.05.05-.07.09c-1.22,1.35-2.19,2.43-2.93,3.24h.29c.96.03,1.56.04,1.77.04l-.11-.02c-.11-.05-.19-.12-.23-.22-.06-.11-.05-.2.04-.27l1.48-1.45c.2-.19.44-.24.71-.13.13.05.2.07.2.07,0,0,.02.06.05.18M115.55,98.58c.02-.39.04-.57.04-.54-.07.04-.16.06-.27.07-1.05,1.16-1.84,2.02-2.37,2.59.17-.02.34,0,.51.07-.17-.14-.16-.29.04-.45.9-.76,1.58-1.33,2.03-1.7,0,0,.01-.01.04-.04M114.51,107.32c.31-.24.59-.52.83-.83v-.15s-.03.06-.05.07c.07-.09-.19.22-.78.9M115.4,102.73c-.12.2-.27.42-.45.63h.02c.14-.17.29-.29.43-.36v-.27ZM116.32,115.06l.02-.04.02-.02c-.17.06-.33.06-.49,0-.13-.06-.22-.14-.25-.25l-.25.25c-.07.07-.17.12-.29.14.23,0,.42,0,.56-.02h.33s.12-.02.36-.07"/>
        <path class="cls-8" d="M142.85,111.42c.11,1.01-.22,1.83-.98,2.46-.35.3-.77.51-1.25.63-1.06.6-2.18.86-3.34.78-1.21-.1-2.28-.53-3.22-1.3-.6.45-1.28.81-2.03,1.09-1.66,1.07-3.47,1.45-5.41,1.12-1.34-.22-2.55-.81-3.63-1.77-1.09-.96-1.8-2.1-2.15-3.42-.41-1.49-.66-3.16-.76-5.01-.2-1.47-.16-2.86.13-4.18.55-3.93,2.23-5.91,5.03-5.93.53-.16,1.07-.21,1.63-.16.46-.06.93-.06,1.41,0,.13-.01.26,0,.4.05,1.25.22,2.4.75,3.44,1.59.05-.07.09-.14.13-.22.05-.13.1-.28.15-.45.01.11.04.44.09.99.18.17.36.36.54.56.58-.59,1.02-1.02,1.32-1.3-.07.04-.4.24-.99.61-.16.1-.35.1-.58.02-.24-.08-.34-.24-.29-.45.04-.13.09-.33.16-.58-.04.01-.11.04-.24.09.4-1.3.48-2.6.25-3.89-.01-.16-.02-.25-.02-.27h-.02c-.16-.71-.4-1.33-.74-1.84-.02-.04-.07-.09-.13-.16v-.09c-.11-.16-.2-.3-.27-.42-.07-.04-.1-.05-.09-.04-.07.02-.16.04-.25.05-.11-.06-.32-.16-.63-.29-.28-.12-.49-.22-.65-.31-.19-.12-.36-.25-.49-.4-.13-.37,0-.72.4-1.05.47-1.01,1.29-1.48,2.46-1.39.05.01.09.02.11.04.15.06.29.08.43.05.06.01.08.02.05.02.43.04.84.08,1.21.13,0-.14.1-.24.31-.27.21-.05.38-.02.52.07-.02-.02.15.1.52.38.36.05.57.08.63.09.04-.11.14-.19.31-.24.16-.04.3-.02.42.04.22.13.43.27.65.42,1.17.18,1.86.3,2.06.36.12-.04.28-.02.47.04.21.07.31.17.33.29.11.06.17.1.18.11.12.08.16.2.11.36.18.11.25.23.2.38-.04.12-.14.2-.31.25-.2.36-.35,1.12-.43,2.26.02.23.04.39.05.47.05,1.17.08,2.09.09,2.77v.29s.05.06.09.11c.04.04.06.07.07.09.17.2.12.36-.14.45.04,1.76.04,3.28.02,4.56-.04,2.29-.1,4.34-.2,6.15-.11,1.87-.16,2.71-.16,2.51-.02.31-.02.63.02.94,0,.95.56,1.37,1.68,1.26.1-.16.25-.23.45-.23.2-.01.37.06.51.22.12.14.18.22.18.22,0,0,.07.1.2.29M122.56,101.46c-.01.26-.01.54,0,.83.47-.53.98-1.02,1.52-1.48l1.43-1.41c-.88.6-1.71,1.26-2.5,1.97-.1.08-.25.11-.45.09M123.93,110.09c0,.08,0,.17.02.27.61-.71,1.21-1.45,1.79-2.22-.42.35-.79.69-1.1,1.01-.16.16-.39.18-.71.05-.3-.12-.37-.29-.2-.51.74-.88,1.83-2.2,3.29-3.96-.94.57-1.79,1.27-2.55,2.1-.16.17-.39.19-.69.07-.31-.12-.39-.29-.22-.51.73-.99,1.53-1.96,2.39-2.93-.41.31-.8.64-1.18.99-.46.45-.71.69-.74.72-.17.16-.4.17-.7.05-.31-.13-.38-.3-.2-.49.22-.23.47-.48.76-.74.01-.01.03-.03.05-.05.01-.01.02-.02.04-.04-.22.02-.4-.02-.54-.14-.17-.12-.19-.26-.05-.42.65-.76,1.36-1.45,2.13-2.08.64-.65,1.14-1.15,1.5-1.5-.72.45-1.42.95-2.1,1.52-.78.78-1.37,1.37-1.77,1.75-.12.12-.31.15-.58.09v.07s0,.08.02.09c.07,0,.14.02.22.05.04.58.1,1.18.18,1.79-.03.67-.01,1.31.04,1.9.22.98.52,1.99.9,3.04M124.24,111.17c.12.28.26.54.42.8.6-.86,1.24-1.71,1.92-2.55-.63.43-1.22.91-1.77,1.43-.14.14-.37.17-.67.07-.01.04-.03.07-.05.09-.01-.01.02.05.09.18,0,0,.02,0,.07-.02M125.91,113.48c.32-.48.64-1,.94-1.56-.51.35-.99.71-1.45,1.07.15.17.31.33.51.49M126.68,97.32c-.2.25-.38.46-.52.63.52-.3,1.06-.59,1.63-.87-.27,0-.55.02-.87.05-.06.09-.14.15-.24.18M127.52,112.81c.88-.57,1.27-.82,1.18-.76l.02.02s.02.02.04.02c-.31-.45-.52-.89-.63-1.32-.12-.52-.23-1.05-.32-1.61.01.27.02.36.02.29-.48.58-.9,1.11-1.25,1.59.39-.27.75-.49,1.09-.69.06-.05.16-.07.29-.07.07.39.18.74.32,1.05-.25.57-.38.85-.38.85,0,0-.12.21-.36.63M127.55,107.79c-.01-.13-.03-.28-.05-.43-.24.36-.41.61-.51.74.11-.07.29-.17.56-.31M127.35,103.58c.01-.11.02-.18.02-.22-.2.23-.33.36-.36.38.05-.03.16-.08.34-.16M127.8,114.03c.13-.21.25-.4.36-.58-.19.12-.49.31-.89.58h.52ZM127.95,98.33c.4-.19.77-.36,1.1-.49.02,0,.06,0,.11-.02.15-.13.19-.17.13-.13-.23-.07-.4-.12-.51-.14.02.04.02.02-.02-.04l-.81.81ZM131.82,100.9s0-.08-.02-.15v-.13c-.13-.1-.28-.16-.43-.2-.1-.02-.2-.04-.31-.04-.07.02-.15.04-.22.04-.71,0-1.26.49-1.64,1.48-.29.72-.45,1.52-.47,2.39-.04,1.24.06,2.54.29,3.91.17,1,.27,1.58.31,1.74.1.61.32,1.19.69,1.72.78-.05,1.42-.08,1.9-.11.11-.19.21-.42.31-.67-.02-.25-.04-.58-.04-.99,0-.52,0-.83-.02-.92-.01-.45-.04-1.11-.09-2.01-.04-.9-.06-1.58-.07-2.03-.05-.85-.11-2.2-.18-4.03M129.54,113.01c-.11.23-.19.38-.23.45.08-.06.22-.17.42-.33-.09-.06-.15-.1-.18-.13M130.17,98.15c-.17.14-.33.3-.47.47.19-.07.34-.12.43-.14.28-.07.51-.01.71.18.01-.01.04-.02.07-.04.02-.01.04-.02.05-.04-.19-.12-.46-.26-.8-.43M134.6,100.34c-.43.58-.91,1.13-1.43,1.65.01.08.02.2.04.34.57-.64,1.41-1.58,2.53-2.84-.41.3-.79.58-1.14.85M133.61,96.36c.67-.43.98-.62.9-.56-.16-.1-.22-.23-.2-.4v-.14c.01-.07.02-.12.02-.15-.01-.06,0-.11.02-.16-.01,0-.01-.01,0-.04v-.02c-.42.35-.78.66-1.07.92.07.12.05.24-.05.34.17.02.25.04.25.04,0,0,.04.05.13.16M133.3,103.39c.01.1.02.25.02.47.01.21.02.36.02.47,1.19-1.16,2.32-2.35,3.38-3.58-1.11.74-2.13,1.57-3.07,2.51-.07.07-.19.11-.34.13M133.81,87.97c-.18.02-.34.1-.47.22,0,.01,0,.04.02.09l.45-.31ZM133.55,106.5c1.56-1.46,2.75-2.71,3.6-3.74-1.24.67-2.37,1.51-3.4,2.5-.08.08-.2.12-.36.11v.18c.01.07.02.13.02.16,0,.01.01.31.04.9.02-.05.06-.08.11-.11M134.08,88.87c-.06.04-.15.1-.27.18-.11.08-.19.14-.25.18-.04.05-.08.08-.13.11,0,.14,0,.29-.02.43.12-.05.21-.09.27-.13.8-.45,1.68-.93,2.64-1.46-.59-.07-.92-.11-.99-.11-.06.04-.14.06-.24.07-.11.07-.28.19-.51.36-.23.16-.4.28-.51.36M133.64,99.23c.01.13-.02.25-.09.34.36-.18.61-.3.76-.36.02-.01.05-.02.09-.04.13-.12.34-.3.61-.54.26-.24.46-.42.6-.54.11-.08.28-.22.51-.4-.08-.02-.15-.07-.2-.13-.76.54-1.52,1.1-2.28,1.66M134.33,87.57c-.08-.01-.18-.02-.29-.04,0,.02,0,.06.02.11v.13c.1-.08.19-.15.27-.2M134.77,111.88s.07-.07.13-.11c-.07-.01-.15-.04-.22-.07-.12.18-.26.39-.42.63.02.04.05.08.07.13.01.02.01.03,0,.02.18-.2.33-.4.43-.6M136.16,105.67c-.59.43-1.19.9-1.79,1.41.11.06.16.15.15.25.05,0,.12,0,.22.02l1.43-1.68ZM135.92,107.95l-1,.78c-.1.18-.21.36-.34.54.02.04.04.07.05.09l.02.16c.48-.59.9-1.11,1.27-1.57M135.51,95.17c-.02-.4-.02-.78,0-1.16-.22.45-.38.93-.49,1.46.05-.04.13-.08.23-.14.11-.07.19-.13.25-.16M137.41,89.63c-.25.17-.65.44-1.18.81-.52.36-.92.63-1.19.81.01.1.02.17.02.22.65-.53.99-.81,1.01-.83.06-.05.51-.39,1.34-1.01M135.45,111.71c.14.04.25.1.31.18.2-.29.43-.61.67-.96-.12.07-.29.19-.51.34-.22.16-.38.28-.49.36v.04s.02.02.02.04M136.36,113.28c.23-.37.48-.76.74-1.16-.13.1-.34.23-.61.42-.17.11-.37.11-.61.02.14.27.31.51.49.72M136.67,91.73s.08.08.11.13c.2-.18.36-.31.47-.4-.19.08-.39.17-.58.27M137.33,94.03c.01-.06.04-.17.07-.33.04-.12.06-.22.07-.31-.21.28-.41.58-.61.92.18-.12.34-.22.47-.29M138.24,98.77c-.05.13-.14.2-.29.22-.15.02-.25-.02-.33-.13-.07.07-.18.19-.32.36-.15.16-.25.28-.33.36.46-.27.91-.51,1.36-.72.24-.11.49-.08.76.09-.08-.48-.18-.96-.27-1.43-.01.01-.09.1-.23.27-.14.42-.26.75-.34.98M139.14,99.36s-.01.02,0,.02c-.61.76-1.31,1.58-2.1,2.46.46-.23.9-.43,1.32-.6.33-.13.57-.06.74.22.02-1,.04-1.7.04-2.1M137.64,113.83l.38-.65-.87.63c.17.01.33.02.49.02M138.62,106.6c.06-.05.14-.08.23-.09.06-.47.1-.8.11-.99-.02.04-.03.05-.02.04-.41.58-.88,1.22-1.41,1.92.27-.22.63-.51,1.09-.87M138.13,105.04c.11-.1.26-.12.45-.07.19.05.32.13.4.25,0-.1.02-.58.05-1.46-.16.19-.39.48-.71.85-.33.37-.57.65-.72.83.06-.05.15-.11.27-.2.11-.1.19-.16.25-.2M138.27,103.18c.24-.14.5-.11.78.11.01-.58.02-1.08.04-1.52l-.02.04c-.35.53-.77,1.09-1.25,1.66.04-.02.11-.07.23-.15.08-.06.16-.11.22-.14M138.69,109.38l-.76,1.12c.17-.12.42-.29.76-.52.02-.01.05-.02.09-.04-.04-.18-.07-.37-.09-.56M138.8,89.62c-.1.07-.22.17-.38.29-.19.16-.32.26-.38.31.61-.25.88-.36.8-.33-.01-.1-.02-.19-.04-.27M139.05,93.12c-.02-.81-.05-1.48-.07-2.02-.22.22-.47.46-.76.72.24.06.33.21.27.43-.08.34-.21.84-.38,1.52.16.04.28.09.38.16.18-.29.36-.54.52-.76,0,0,.01-.02.04-.05M138.11,108.67c.19-.04.38,0,.56.11,0-.25,0-.52.02-.8-.17.21-.36.43-.58.69M139.25,111.17s.05-.02.07-.04c-.06-.06-.11-.13-.16-.2-.16.21-.32.42-.49.65.07-.05.17-.11.29-.2.14-.11.24-.18.29-.22M141.71,112.29c.13-.11.31-.13.54-.07-.1-.17-.19-.32-.27-.45-.18.11-.38.17-.6.2.17.05.33.08.47.11-.13.04-.25.06-.36.07h.02v.02c.08.05.13.07.13.07,0,0,.02.02.07.05"/>
        <path class="cls-14" d="M168.94,104.6c.46,1.04-2.36,8.22-2.46,8.41-.21.42-.59.93-1.16,1.54-.63.68-1.68,1.06-3.16,1.16-2.25.16-4.32-.55-6.2-2.12-1.09,1.06-2.54,1.75-4.36,2.06-1.03.17-1.96.18-2.8.04-.49.01-.91,0-1.25-.04-1.18-.36-2.25-.99-3.2-1.9-.01-.01-.05-.08-.13-.22-.55-.66-.93-1.45-1.12-2.37-.2-.93-.18-1.78.07-2.57.06-.51.2-.95.42-1.34,1.17-2.11,3.16-3.03,5.97-2.77.06,0,.11.02.16.05.2,0,.46.02.78.07.02,0,.06,0,.11.02.06,0,.1,0,.13.02,1.29-.05,2.44.12,3.44.49v-.34s.08-.04.09-.06c-.05.04-.03.03.05-.04.05-4.13-.69-6.21-2.22-6.24-.11-.01-.19-.05-.25-.13-.37.07-.73.22-1.07.44-.31.22-.52.51-.62.89.83.33,1.26.95,1.28,1.86.04.93-.4,1.56-1.3,1.88-.31.12-.64.18-.99.18-.95.13-1.84.01-2.66-.36-.54-.24-.88-.85-1.01-1.83-.13-.96.01-1.66.43-2.08.13-.14.21-.3.24-.47.25-.23.52-.43.8-.6.35-.19.73-.37,1.14-.52,1.31-.8,2.88-1.18,4.7-1.16,1.81.02,3.29.21,4.45.56,1.22.17,2.23.48,3.04.94,1.8,1.02,2.75,2.69,2.86,5.01.02.55.02,1.3,0,2.24-.02,1.05-.03,1.77-.02,2.17.04,1.69.3,3.14.8,4.34.51-.24,2.05-3.02,2.12-3.55.04-.13.16-.22.36-.25.19-.04.36-.01.49.07.01-.05.02-.08.02-.09.22.1,2.07-3.85,2.07-3.5l-.02.09ZM145.62,105.94c-.35.22-.65.47-.89.76.17-.1.28-.16.33-.2.16-.19.34-.38.56-.56M144.96,109.78c0,.07,0,.21.02.42.13-.13.54-.46,1.23-.99.72-.58,1.56-1.12,2.5-1.63.11-.05.21-.05.31,0,.06-.29.13-.56.22-.81-.02-.04-.04-.07-.05-.11-.02.1-.08.17-.16.22-1.48.78-2.83,1.75-4.05,2.91M145.43,108.44c-.08-.06-.13-.14-.13-.23-.07.16-.14.33-.2.52.04-.02.09-.07.16-.14.07-.06.13-.11.16-.15M145.8,112.65s.11-.07.18-.09c.46-.42.95-.92,1.46-1.5.19-.3.39-.6.6-.89-.94.83-1.77,1.6-2.48,2.3.02.05.07.14.14.29l.09-.11ZM146.01,100.77c-.26.65-.26,1.27,0,1.84v-1.84ZM146.72,113c.16-.16.28-.28.36-.36.25-.29.5-.59.74-.9.07-.08.16-.12.25-.11.04-.07.12-.23.23-.47-.11.12-.22.24-.33.36-.01.01-.02.03-.04.05-.02.02-.04.04-.04.05-.04.06-.08.1-.14.13-.53.58-1.09,1.13-1.68,1.65-.02-.02,0,0,.05.07l.04-.04c.07-.06.15-.09.23-.09.02-.04.04-.06.04-.06,0,0,.09-.1.27-.29M147.42,106.99c-.58.26-.98.54-1.19.81.41-.3.81-.57,1.19-.81M148.26,114.14c.08-.15.11-.19.07-.13.18-.31.28-.48.29-.51-.19.07-.48.25-.85.54-.1.07-.2.16-.33.27v.02c-.04.06-.08.11-.15.14-.06.05-.08.06-.05.04.14.1.31.17.49.22.14-.31.21-.46.2-.43.06-.14.09-.22.09-.22l.24.05ZM148.94,101.28c.06-.05.16-.07.31-.07-.12-.05-.2-.11-.23-.2l-.04-.04c-.06.05-.14.11-.25.18-.13.07-.22.13-.27.16-.12.18-.22.36-.29.54.12-.08.18-.13.18-.13,0,0,.2-.15.6-.45M149.02,111.49s0,.02-.02.02c-.01,0-.02,0-.02.02,0-.02,0-.05.02-.09v-.13c-.22.45-.38.78-.49.99.14.05.23.15.25.31.1-.39.17-.74.22-1.05l.04-.02v-.06ZM149.67,114.53c-.27.18-.42.28-.45.31-.02.02-.07.04-.13.05-.09.05-.16.05-.24.02h-.02c-.07-.01-.15-.03-.23-.05.01-.01,0,0-.04.04.24.05.46.08.67.09l.43-.45ZM151.56,105.76c.23-.04.47-.05.72-.04h.07c-.65-.12-1.44-.12-2.35,0,.04.01.07.02.09.04h1.46ZM150.52,107.75c.07.01.13.04.18.09.05-.46.14-.84.27-1.14-.19.16-.35.38-.47.67,0,.05,0,.11.02.18v.2ZM150.86,112.53c.1.22.22.39.38.52-.22-.43-.37-.98-.45-1.65-.01.16-.02.25-.02.27.01.23.04.51.09.85M153.41,113.25c.68-.37,1-.98.98-1.81-.01-.46-.03-1.15-.06-2.06-.02-.92-.04-1.6-.05-2.06-.07-.11-.12-.18-.15-.22-.31-.43-.75-.69-1.32-.76-.08.07-.19.1-.31.09-.42-.07-.75.28-.98,1.05-.22.71-.3,1.56-.24,2.55.05,1.02.22,1.84.52,2.44.35.7.8.95,1.34.76.1-.02.18-.02.25.02M154.51,97.63c-1.03-.06-1.95-.07-2.78-.02.11,0,.26,0,.47.02h2.31ZM154.95,99.54c.12.18.23.37.33.56.06-.04.14-.08.25-.15-.31-.16-.34-.34-.09-.56.15-.13.26-.23.34-.29h-.04s-.02-.02-.04-.02c-.29.18-.54.33-.76.45M155.4,97.72s-.06.01-.11.04c-.05.01-.08.02-.11.04.06.02.11.06.16.11.12-.02.2-.04.24-.05.35-.06.57.03.65.27.36-.11.61-.18.74-.22-.54-.07-1.07-.13-1.57-.18M156.48,100.05c-.18.1-.51.28-1,.54.04.07.06.13.07.18.41-.33.72-.57.92-.72M156.09,108.78c.07-.08.16-.19.27-.33-.64.27-.92.39-.85.36.07.04.13.08.18.13l.33-.14s.02-.02.02-.02h.05ZM156.83,101.04s0-.02.02-.04c0-.02,0-.04.02-.04-.17.1-.32.19-.45.27-.01.09-.02.16-.02.22.05-.05.12-.11.22-.2.1-.1.17-.17.22-.22M157.01,98.69s.09.05.13.07c.24-.06.47-.11.69-.16.12-.07.28-.16.47-.27-.24-.13-.47-.24-.69-.33h-.02c-.16.1-.46.28-.92.54.13.05.25.1.34.14M157.62,103.18c.25-.34.53-.67.83-1.01-.22.08-.48.19-.8.31-.01.23-.04.47-.07.72.04-.02.05-.03.04-.02M158.94,99.22c.46.01.67.13.63.36.13.03.24.07.31.13l.02-.02.02-.02s0,.01.02,0c-.16-.21-.34-.4-.56-.58-.11,0-.21.01-.31.04.01-.01,0-.01-.02,0l-.11.09ZM160.01,114.86c.15-.27.27-.49.38-.67-.09.06-.28.2-.58.42-.07.05-.17.08-.31.09.19.06.36.11.51.16M160.5,110.63v.02c.35-.16.67-.29.98-.4.17-.05.35-.03.54.05.2.08.29.19.25.33.07-.05.12-.08.14-.09-.1-.37-.17-.77-.22-1.19-.32.13-.69.32-1.1.56-.13.18-.31.37-.52.56-.01.07-.04.13-.07.16M161.64,104.79c-.11.13-.24.28-.4.43.34-.2.62-.39.85-.54v-.51c-.17.14-.29.25-.38.33.04.09.01.18-.07.29M161.26,115.02c.49-.01.89-.04,1.18-.07-.11-.05-.22-.13-.34-.24-.05,0-.19,0-.43.02-.12.09-.25.18-.4.29M162.07,107.59s-.17.15-.6.52c.11,0,.19.05.25.15.29-.18.41-.26.36-.24,0,0,0-.14-.02-.43M161.73,105.85c.11.02.21.05.31.09-.01,0,0,0,.04.02v-.25s-.13.05-.34.14M161.93,103.3s-.05.05-.09.09c-.04.05-.06.08-.07.11.01-.01.04-.02.07-.02.04-.01.06-.02.07-.02.05-.01.1-.01.16,0-.01-.19-.02-.33-.04-.42l-.02.02h-.02v.13s-.02.04-.07.11M162.76,112.76c.1-.07.23-.1.42-.09-.1-.1-.19-.21-.29-.34-.01.05-.04.1-.07.15-.21.23-.42.48-.63.76.23-.17.42-.32.58-.47M164.6,112.83c0-.06,0-.16.02-.29-.19.14-.38.25-.56.31.08-.02.1-.03.05-.02.02.02.05.05.07.07.1-.01.23-.04.42-.07"/>
        <path class="cls-1" d="M64.41,107.1s-1.59-1.76-2.43.1c-.84,1.86,0,5.21.37,5.76.37.56-.87-3.35.34-5.11,1.21-1.77,1.72-.75,1.72-.75"/>
        <path class="cls-1" d="M154.01,107.1s-1.59-1.76-2.43.1c-.84,1.86,0,5.21.37,5.76.37.56-.87-3.35.34-5.11,1.21-1.77,1.72-.75,1.72-.75"/>
        <path class="cls-1" d="M131.8,100.75s-1.57-1.08-2.5.84c-1.71,3.54.69,10.57.71,10.06.04-.89-.86-7.99.35-9.76,1.21-1.77,1.44-1.15,1.44-1.15"/>
        <path class="cls-3" d="M28.98,93.95c.15.49.32,1.14.52,1.96.21.89.36,1.46.44,1.72.69,2.42,1.25,4.14,1.7,5.17-.07.25-.02.49.17.72.44.62.84,1.43,1.18,2.44.04-.08.09-.17.13-.26-.18-.37-.38-.71-.59-.99-.18-.23-.24-.47-.17-.72-.44-1.02-1.01-2.74-1.7-5.17-.09-.26-.23-.83-.44-1.71-.2-.81-.37-1.46-.52-1.96-.38-1.19-.83-2.11-1.34-2.75.22.46.43.98.61,1.57"/>
        <path class="cls-3" d="M51.73,92.08s-.03.01-.15.04c-.02.17-.1.34-.24.5.01-.01-.63.39-1.94,1.2-.11.06-.2.12-.28.17-.18,1.49-.33,2.96-.42,4.43v3.45h.07v.28c-.01.11-.02.25-.02.41h-.06v.13l.06.04v.65c.01.34.02.56.02.65,0,.18.06.34.17.46,0-.02.02.07.07.29-.03.06-.06.12-.11.17-.02,2.56.15,4.96.52,7.21.12.01.22.07.3.18.06.11.06.22,0,.33-.01.01-.05.06-.11.15.16.11.33.21.51.3-.35-2.19-.51-4.52-.49-7,.05-.05.09-.1.11-.17-.05-.22-.07-.32-.07-.3-.11-.12-.17-.28-.17-.46,0-.09,0-.3-.02-.65v-.65l-.06-.04v-.13h.06c0-.16,0-.3.02-.41v-.28h-.07v-3.45c.1-1.46.24-2.94.42-4.43.07-.05.17-.1.28-.17,1.3-.81,1.95-1.21,1.94-1.2.14-.16.21-.33.24-.5.12-.02.17-.04.15-.04.05-.04.08-.06.09-.07-.19-.48-.43-.87-.74-1.17-.02.01-.04.03-.08.07"/>
        <path class="cls-3" d="M53.95,116.08c-.04-.61-.06-.92-.06-.92,0,0-.19-.05-.58-.16.09.1.17.19.24.28-.05.06-.18.22-.41.48-3.17.1-5.59.17-7.25.22-4.53.14-7.09.18-7.69.13-.07.04-.15.04-.22,0-.18-.06-.34-.14-.46-.22-.13-.03-.25-.07-.36-.11-.02.06-.04.12-.04.19-.04.39.12.67.48.83.16.12.38.21.65.28.12.09.28.16.46.22.07.04.15.04.22,0,.6.05,3.17,0,7.69-.13,1.66-.05,4.08-.12,7.25-.22.22-.26.36-.42.41-.48-.09-.12-.2-.25-.33-.39"/>
        <path class="cls-3" d="M38.73,102.86s0-.09,0-.14c-.01-.52-.04-1.29-.09-2.32-.54,1.11-1.26,2.56-2.16,4.35-1.12,2.24-1.84,3.69-2.16,4.35-1.88,3.8-2.81,5.68-2.79,5.65,0,.04,0,.07-.02.11-.48,1.17-1.33,1.62-2.55,1.35-.26-.05-.53-.25-.79-.56.03.07.06.13.1.19.48.93.95,1.45,1.42,1.55,1.22.27,2.07-.18,2.55-1.35.01-.04.02-.07.02-.11-.02.04.9-1.84,2.79-5.64.32-.66,1.04-2.12,2.16-4.35.59-1.17,1.1-2.2,1.53-3.07"/>
        <path class="cls-3" d="M23.88,115.25c0,.12,0,.24-.04.37-.09.32-.46.52-1.11.61-.21.02-.46.04-.76.04h-.55c-2.08.1-4.16.09-6.24-.02-.16,0-.3-.04-.43-.08,0,0,0,.02,0,.02.03.79.41,1.2,1.16,1.24,2.08.11,4.16.12,6.24.02h.55c.3,0,.55-.01.76-.04.65-.09,1.02-.29,1.11-.61.15-.58-.08-1.1-.69-1.55"/>
        <path class="cls-3" d="M25.77,111.12c-.09-.17-.19-.37-.3-.6-.04.07-.06.1-.05.08-.07.17-.05.32.07.44.09.09.19.12.28.1,0,0,0-.02-.01-.03"/>
        <path class="cls-10" d="M53.22,114.9c.14.14.25.26.33.39-.05.06-.18.22-.41.48-3.17.1-5.59.17-7.25.22-4.53.14-7.09.18-7.69.13-.07.04-.15.04-.22,0-.18-.06-.34-.14-.46-.22-.27-.06-.49-.15-.65-.28-.36-.16-.52-.44-.48-.83.05-.6.73-1.13,2.03-1.59.17-.23.28-.42.31-.57.23-.97.23-4.27-.02-9.91-.01-.52-.04-1.29-.09-2.32-.54,1.11-1.26,2.56-2.16,4.35-1.12,2.24-1.84,3.69-2.16,4.35-1.88,3.8-2.81,5.68-2.79,5.65,0,.04,0,.07-.02.11-.48,1.17-1.33,1.62-2.55,1.35-.47-.1-.94-.61-1.42-1.55-.86-1.72-1.45-2.9-1.77-3.54-.16-.32-.36-.72-.59-1.2-.14.09-.27.07-.41-.06-.12-.12-.15-.27-.07-.44-.01.02.03-.05.13-.22-1.86-3.87-3.3-7.33-4.34-10.37-.03-.02-.03-.03-.02-.02-.01-.02-.04-.06-.07-.11-.04-.06-.05-.14-.04-.24-.21-.63-.37-1.14-.48-1.53-.17.42-.25,2.34-.22,5.76.01,2.88.02,5.03.04,6.46,0,1.23.05,2.04.15,2.43.22.87.73,1.45,1.51,1.72.76.25,1.22.41,1.37.5.92.52,1.29,1.13,1.11,1.83-.09.32-.46.52-1.11.61-.21.02-.46.04-.76.04h-.55c-2.08.1-4.16.09-6.24-.02-.75-.04-1.14-.45-1.16-1.24-.01-.23.17-.57.53-1.01.22-.26.52-.44.9-.55l.04-.07c.09-.09.41-.41.98-.96.06-.26.1-.58.11-.96.01-.36.06-2.48.15-6.36.02-1.46.07-3.66.13-6.59,0-.07.03-.49.09-1.24.06-.74.09-1.36.09-1.86.04-1.62-.17-2.48-.61-2.56-.8-.16-1.36-.6-1.7-1.31-.33-.76-.09-1.37.72-1.81.16-.09.3-.06.42.07,2.23.22,4.23.33,6.01.31.25,0,.61-.02,1.11-.07.6-.05,1.01-.08,1.22-.09,1.01-.06,1.77.04,2.29.3.21.1.42.24.63.42l.02.02c.73.63,1.33,1.72,1.83,3.26.15.49.32,1.14.52,1.96.21.89.36,1.46.44,1.72.69,2.42,1.25,4.14,1.7,5.16-.07.25-.02.49.17.72.44.62.84,1.43,1.18,2.44.33-.65.82-1.63,1.48-2.93.66-1.3,1.16-2.28,1.49-2.93-.01-.05,0-.1.02-.17.34-1.02.89-2.26,1.62-3.71.14-.26.33-.68.59-1.25l-.09-.11c.21-.36.42-.83.63-1.42.15-.28.28-.52.41-.7.15-.14.31-.28.48-.42.31-.43.66-.78,1.05-1.05-.37.22-.71.46-1.03.7.59-.77,1.26-1.25,2.01-1.42.16-.04.29-.11.41-.2l3.39-.15c.16-.01.37-.02.63-.04.33-.01.54-.02.63-.02.18.14.39.17.63.11,2.31-.58,3.81.02,4.5,1.79-.01.01-.04.04-.09.07.02,0-.02.01-.15.04-.03.17-.11.34-.24.5.01-.01-.63.39-1.94,1.2-.11.06-.2.12-.28.17-.18,1.49-.33,2.96-.42,4.43v3.45h.07v.28c-.01.11-.02.25-.02.41h-.06v.13l.06.04v.65c.01.34.02.56.02.65,0,.18.06.34.17.46,0-.02.02.07.07.29-.02.06-.06.12-.11.17-.03,2.56.15,4.96.52,7.21.12.01.22.07.3.18.06.11.06.22,0,.33-.01.01-.05.06-.11.15.38.27.82.47,1.31.61.54.14.84.22.9.26.2.02.35.05.46.07.59.16.89.24.89.24,0,0,.02.31.06.92M15.61,115.14c.06.07.15.15.26.22.33-.32.84-.79,1.51-1.4.68-.62,1.18-1.08,1.51-1.4.11-.1.24-.12.39-.06-.04-.09-.06-.14-.06-.17-.01-.02-.04-.15-.09-.39-.39.36-.98.89-1.75,1.59-.79.71-1.38,1.25-1.77,1.6M16.84,92.16c.14.01.26.06.37.13.05.02.1.06.15.09.09-.09.12-.12.11-.11-.12-.01-.22-.07-.28-.18-.06-.11-.07-.21-.04-.31l-.33.18c-.21.11-.37.06-.48-.15-.04.01-.09.05-.17.11-.07.04-.13.07-.17.09.2.12.47.17.83.15M20.28,113.57c-.34-.21-.6-.43-.77-.66-.03.07-.06.13-.11.17-1.28,1.19-2.18,2.03-2.71,2.51-.06,0,.11,0,.52.02.02-.06.07-.12.13-.17.8-.57,1.54-1.24,2.23-2.01.11-.13.24-.15.39-.06.15.09.21.21.18.37.01,0,.02-.01.04-.04.01-.02.02-.04.04-.05.01-.03.04-.05.07-.07M16.94,112.97c.61-.55,1.24-1.11,1.86-1.68.06-.05.13-.08.2-.09-.04-.26-.06-.37-.06-.33-.61.68-1.29,1.38-2.01,2.1M18.87,109.9c-.01-.27-.02-.48-.02-.63-.43.65-.92,1.24-1.46,1.77-.02.17-.05.34-.07.52.55-.58,1.06-1.13,1.51-1.64-.01.01,0,0,.04-.02M17.43,105.01c.42-.44.79-.91,1.11-1.4.1-.16.24-.21.42-.15l-.02-1.33c-.48.54-.89,1.06-1.24,1.55-.06.09-.15.14-.26.15v.59c-.01.27-.02.47-.02.59M18.5,105.22c.14-.18.28-.19.44-.02.01-.37.02-.68.02-.94-.39.57-.81,1.08-1.25,1.53-.09.07-.18.11-.28.09,0,.18,0,.43.02.74.11-.16.28-.39.52-.7.23-.31.41-.54.53-.7M17.51,101.55c-.01.57-.02.99-.02,1.27.44-.6.87-1.13,1.27-1.57.05-.05.11-.08.18-.09l-.02-1.37c-.44.54-.82,1.07-1.14,1.59-.07.11-.17.17-.28.17M18.86,107.84c.01-.21.04-.88.07-2.01-.15.2-.36.49-.65.87-.28.38-.5.66-.65.85.01.06,0,.12-.02.18-.02.07-.07.14-.13.2v.29c.06-.09.12-.18.17-.28.12-.2.29-.23.5-.11.2.12.23.28.11.48-.05.09-.13.22-.24.41-.1.17-.18.3-.24.39-.06.11-.15.17-.28.17,0,.18,0,.39-.02.63.54-.61.99-1.29,1.35-2.03-.01.02,0,.01.02-.04M17.55,99.91c-.01.25-.02.43-.02.55.36-.52.74-1.01,1.14-1.48.07-.09.16-.12.26-.11-.01-.55-.02-.79-.02-.72-.34.46-.78,1.02-1.31,1.7-.02.02-.04.04-.06.06M17.56,98.72c-.05.07.3-.37,1.03-1.33.1-.12.21-.15.35-.09.05-.38.15-.72.31-1.01-.02.01-.05.02-.07.02-.02.04-.06.09-.11.17-.05.07-.07.12-.07.13l-.37.5-.42.57c-.05.21-.19.36-.42.46-.06.02-.13.02-.2-.02l-.02.61ZM17.6,97.3l.65-.89c-.12.02-.22-.01-.3-.11-.06-.09-.09-.18-.07-.29-.09.01-.17,0-.26-.04l-.02,1.33ZM17.64,91.49c.36-.09.69-.2,1.01-.35-.09-.04-.16-.07-.22-.09l-.79.44ZM19.63,114.61c.09-.18.17-.34.26-.48-.49.54-1.03,1.04-1.6,1.49.06,0,.29,0,.68-.02-.02-.11,0-.21.09-.31.12-.15.31-.37.57-.68M19,94.98c-.09.05-.17.1-.26.17.05.01.09.03.13.06.02-.01.07-.04.15-.09.06-.04.11-.07.15-.09-.04-.01-.08-.04-.13-.09l-.04.06ZM18.98,94.15s0,.01-.17.15c.07.01.14.04.2.09.05-.11.12-.22.2-.33-.01.01-.05.03-.11.06-.05.01-.09.02-.13.04t0,0M19.74,90.98c.12-.05.27-.11.44-.18-.63-.01-.88-.02-.76-.02.11.07.21.14.31.2M20.55,96.7l.04-.07c.29-.29.66-.63,1.09-1,.31-.38.68-.74,1.11-1.09.11-.09.21-.1.31-.04,1.14-.89,1.97-1.63,2.49-2.23-.12.1-.38.31-.77.63-.31.27-.56.49-.76.65-1.14.89-2.34,1.71-3.58,2.47.01,0,0,0-.06.02-.06.07-.07.09-.04.06l-.02.02s0,.02-.02.02c.02.05.04.08.06.09.01.05.04.13.07.24.04.11.06.17.06.17,0,0,0,.03.02.07M20.7,97.19c.01.06.09.29.22.7.09-.07.22-.18.41-.33-.14.07-.25.07-.35,0-.1-.07-.15-.18-.17-.33-.04,0-.07-.01-.11-.04M22.03,91.22c-.11.06-.29.15-.54.28-.23.12-.41.21-.53.28.5-.23.88-.41,1.14-.52.09-.05.17-.06.26-.04.16-.1.38-.23.65-.39-.42.01-.69.02-.81.02.05.16,0,.28-.17.37M21.22,98.76c.34,1.03.76,2.15,1.24,3.36.17-.25.36-.49.57-.72-.27-.12-.33-.3-.18-.52.02-.02.06-.06.09-.11.04-.05.07-.09.09-.11-.06.01-.11,0-.15-.02.04.01,0,0-.09-.04-.2-.07-.28-.22-.24-.44.02-.22.2-.47.53-.74l-.02-.06v-.06l-.17.09c-.06.12-.15.18-.28.18-.05.02-.12.07-.2.13-.09.05-.15.09-.2.11-.15.1-.28.08-.41-.06-.14-.14-.16-.28-.07-.44.1-.16.21-.34.35-.55-.11-.01-.2-.08-.26-.2-.07-.12-.08-.24-.02-.35.02-.04.06-.09.09-.15.04-.07.06-.12.07-.15-.21.18-.28.25-.2.18-.16.27-.34.38-.55.31.05.11.07.17.07.17,0,0-.02.06-.07.17M21.6,114.15c-.06-.02-.14-.06-.22-.09v.07c.11-.04.22,0,.33.09.11.1.15.21.11.33h.04s.06-.07.09-.13c.05-.05.09-.09.11-.11-.11-.1-.26-.15-.46-.17M22.16,115.35s-.02-.02-.04-.04c-.06.03-.14.03-.22,0-.02.05-.04.09-.06.11-.05.04-.08.07-.09.09.04,0,.1,0,.18-.02h.18s.01-.05.04-.15M23.87,92.19c-.44.21-.89.43-1.35.66.06.07.09.17.09.28.16-.12.37-.28.63-.48.31-.23.52-.39.63-.46M23.08,103.67l.02-.02s.18-.2.66-.7c.06-.12.09-.17.09-.15-.27.31-.41.46-.41.44-.12.17-.27.18-.44.04-.16-.14-.2-.29-.11-.48.06-.1.14-.24.24-.42-.14.18-.23.32-.3.41-.02.03-.06.06-.09.09-.01-.05-.02-.07-.02-.07,0,0,.12.29.35.87M23.74,105.2c0-.1.04-.18.11-.26.46-.41.9-.84,1.35-1.29.22-.32.47-.66.74-1.01-.64.37-1.25.74-1.84,1.11-.04.02-.08.04-.13.04-.04.04-.1.1-.18.2-.09.07-.15.14-.18.18-.07.07-.16.11-.26.11.11.25.25.55.41.92M27.32,92.18c-.39.52-.83,1.02-1.31,1.51.44-.27.82-.38,1.13-.33-.23-.04-.32-.18-.26-.42.07-.23.22-.33.44-.29l.02.02s-.01-.01,0,0h.07c.11.02.2.11.26.26,0,.01.01.05.04.11.04.11,0,.23-.09.37l-3.1,2.47c-.1.07-.23.18-.39.31-.18.15-.31.25-.37.3-.18.25-.3.4-.33.46.01,0,.02,0,.02-.02.01-.01.02-.02.04-.02.2-.15.35-.1.46.13.27-.27.39-.39.35-.37,1-1,2.07-2,3.23-3.03.01-.11.07-.2.18-.26.04-.01.09-.03.15-.06-.18-.48-.28-.72-.28-.72,0,0-.09-.14-.26-.42M28.28,94.56c-.14-.41-.19-.57-.17-.48-1.05.91-1.96,1.75-2.73,2.53-.58.58-1.06,1.06-1.44,1.46-.03.04-.08.09-.17.17.09.06.14.14.17.24.18-.14.37-.26.57-.37l.57-.53c.36-.33.89-.83,1.59-1.49.71-.68,1.25-1.18,1.6-1.51M24.24,106.31c.01-.06.04-.12.07-.17l.76-.98s-.02.02-.04.02c-.03.01-.04.03-.04.04-.12.06-.25.06-.37-.02-.02.02-.07.07-.13.13-.06.06-.11.11-.15.15-.16.15-.33.14-.5-.02.09.2.22.48.39.85M25.53,106.73c-.06-.14-.04-.26.06-.39.06-.06.14-.16.22-.3.11-.14.19-.23.24-.3.34-.6.73-1.23,1.16-1.88-.38.23-.53.33-.46.28l-1.94,2.51c-.1.14-.22.16-.37.07.11.22.3.62.55,1.18.17-.42.35-.81.53-1.18M29.57,98.84c-.63-2.14-.98-3.31-1.05-3.52-.28.27-.71.68-1.29,1.22-.58.55-1.01.97-1.31,1.24-.07.07-.15.15-.22.22.04.11.02.2-.04.28-.44.61-.78,1.07-1.01,1.36.23-.15.44-.28.63-.41,1.86-1.45,2.75-2.4,2.67-2.86-.05-.23.04-.39.28-.46.22-.06.35.03.39.26.1.5-.11,1.04-.63,1.6-.05.05-.5.46-1.37,1.22l-.09.07c.01.1-.02.18-.09.26-.15.14-.3.28-.44.42.33-.26.56-.43.68-.52.12-.09.25-.08.37.02.52-.64.99-1.24,1.42-1.81.14-.18.28-.19.44-.02.17.17.19.35.06.54-1.01,1.34-2.12,2.68-3.32,4.02.6-.34,1.16-.66,1.68-.94.07-.04.15-.05.22-.04.55-.69,1.07-1.38,1.55-2.07.12-.18.18-.28.18-.28,0,0,.1.06.29.18M26.11,109.09c.09-.42.24-.86.46-1.33-.01.01-.03.03-.06.04-.01.02-.02.04-.04.06-.32.47-.59.9-.81,1.29l-.02.09s.06.12.09.2c.05.1.09.17.11.22.07-.21.16-.4.26-.57M26.16,107.03c.18-.26.62-.85,1.31-1.77.53-.74.95-1.34,1.25-1.81-.69.92-1.4,1.84-2.12,2.77-.16.28-.31.55-.44.81M28.32,113.11c-.03-.07-.03-.15,0-.22-.01.01,0-.04.06-.17-.02-.07-.02-.15,0-.22,0-.02.01-.06.04-.09.01-.05.02-.09.04-.11-.11-.12-.13-.26-.06-.41.14-.28.3-.58.5-.89l.09-.2c-.26.26-.51.5-.76.72-.34.58-.5.84-.46.77-.12.2-.28.24-.48.13-.2-.12-.24-.29-.13-.5-.06.12.08-.12.42-.74.05-.39.12-.77.22-1.14-.34.42-.67.79-.98,1.13-.04.05-.1.09-.18.11.01.01.02.03.04.06.39.79.79,1.57,1.18,2.36.01.03.03.06.06.11.02.05.04.08.06.09.05-.09.11-.21.18-.39.09-.18.14-.32.17-.41M29.72,99.28s-.03.03-.02.02c-.16.25-.34.5-.55.77.14,0,.24.07.31.22.07.15.06.29-.04.42-.31.39-.77.98-1.38,1.77.02-.01.07-.04.15-.07.05-.04.09-.07.13-.09.11-.07.23-.07.35.02.05-.07.17-.25.37-.52.15-.2.27-.36.37-.5.1-.14.23-.18.39-.15.15.04.24.12.28.26.12.01.21.07.28.18.09.11.1.23.04.37-.17.33-.38.71-.63,1.14.3.01.42.16.39.44-.09.69-.6,1.73-1.53,3.14-.58.9-1.21,1.86-1.88,2.88-.01.14-.02.26-.02.39.01-.02.02-.04.02-.06.05-.09.11-.14.18-.17.54-.86,1.23-1.97,2.07-3.32,1.13-1.82,1.82-2.92,2.07-3.3-.43-1.03-.87-2.32-1.33-3.86M29.11,115.2c.06-.17.1-.28.11-.33-.12.06-.25.05-.39-.04-.14-.1-.17-.23-.11-.39-.02.07,0,0,.07-.2-.06,0-.12-.02-.17-.06-.02.05-.07.14-.13.26-.05.12-.09.22-.11.28v.02c.26.2.39.29.39.29,0,0,.11.06.33.17M28.93,108.85c.27-.49.47-.86.59-1.09-.05.06-.12.16-.22.29-.14.27-.26.54-.37.79M31.73,107.38c.42-.85.73-1.49.94-1.92-.39-.06-.76-.45-1.11-1.16-.02-.05-.06-.11-.09-.18-.04-.1-.06-.17-.07-.2-.04.06-.09.15-.17.28-.07.11-.13.2-.17.26.12-.11.26-.1.41.04.15.12.18.28.11.46-.48,1.17-1.03,2.35-1.64,3.54.07-.11.17-.26.3-.44.28-.54.57-1.06.87-1.55.07-.12.18-.18.31-.18.01-.02.04-.08.07-.17.04-.07.07-.13.09-.17.1-.22.25-.27.44-.15.21.12.26.3.17.52-.05.1-.21.44-.48,1.01-.01-.01,0,0,.02.02M35.29,105.51s.01-.04.11-.22c-.05.07-.12.17-.2.3-.11.16-.18.26-.22.31.01.09,0,.17-.04.24.02-.06-.09.14-.35.61,0,.06-.01.12-.04.18-.22.46-.46.93-.72,1.42-.04.07-.09.18-.15.33-.06.16-.1.28-.13.35.18-.39.47-.98.87-1.77.39-.78.68-1.36.87-1.75M36.66,100.26c.64-1.05,1.25-1.97,1.85-2.77v-.02s0-.02,0,0v-.02l-1.59,2.32c-.06.1-.09.15-.09.15,0,0-.06.11-.17.33M38.85,114s.04-.06.24-.31c-.06.02-.14.06-.22.09-.11.14-.19.24-.24.31.02-.01.06-.03.11-.06.05-.01.09-.02.11-.04M39.33,99.54c.15-.47.24-.75.28-.85-.05,0-.1,0-.15-.02-.02.04-.05.09-.07.15-.02.06-.05.11-.07.15.01.12.02.31.02.57M39.65,114.96c.2-.38.42-.76.66-1.14-.32.37-.65.76-1,1.16h.33v-.02ZM39.54,112.12c-.04.28-.1.55-.18.79.05-.06.28-.31.68-.74-.04-.04-.06-.07-.06-.11h-.02c-.14.12-.2.18-.2.18,0,0-.07-.04-.22-.13M39.42,102.41c.1-.2.18-.38.24-.55-.11-.01-.2-.06-.26-.13.01.37.02.6.02.68M39.87,103.47s.04-.15.07-.3c.02-.11.05-.2.07-.28-.02.04-.07.1-.13.18-.06.09-.1.15-.13.18-.06.11-.16.17-.29.17.02.43.04.61.04.55.04-.07.1-.16.18-.26.09-.12.15-.21.18-.26M40.11,104.79c-.11.04-.22.03-.31-.02-.01.02-.04.06-.07.11-.04.05-.07.09-.09.13-.01.03-.04.05-.07.07.02.47.04.9.05,1.29l.04-.04c.1-.34.15-.52.15-.52,0,0,.1-.34.31-1.03M39.63,111.19c.07-.14.15-.27.22-.41-.06.01-.13,0-.2-.02,0,.09,0,.23-.02.42M39.81,108.65c-.09-.09-.1-.19-.06-.31.07-.2.18-.49.33-.87.15-.39.26-.69.35-.89-.02.01-.05.04-.07.07-.04.02-.06.05-.07.07-.01,0-.02.02-.04.06-.01.02-.02.04-.02.06-.05.14-.14.21-.28.22-.12.02-.23,0-.31-.09.04,1.12.04,2.14.02,3.06.07-.09.17-.21.29-.37.12-.16.22-.28.28-.35-.15.02-.26-.03-.33-.17-.09-.12-.12-.29-.09-.5M40.24,115.53c.73.01,1.54,0,2.44-.02-.07,0-.14-.02-.2-.06-.11.04-.21.02-.3-.06-.1-.09-.14-.18-.13-.29l-.04-.04-.26-.33c-.23.25-.41.43-.52.55-.12.12-.26.14-.41.06-.16-.07-.23-.18-.2-.33l-.17.18c.01.16.02.24.02.24,0,0-.08.03-.24.09M41.21,107.58c-.54.71-.77,1.13-.7,1.24.01.03.02.06.04.11.06-.09.17-.21.31-.39.11-.31.23-.63.35-.96M41.62,98.85c.16-.23.31-.47.46-.7-.48.44-.95.89-1.42,1.33l-.02.06-.02.04c.11.05.17.14.17.28.3-.36.44-.54.44-.54,0,0,.13-.15.39-.46M41.12,95.85c.87-.98,1.77-1.89,2.69-2.71-.89.59-1.92,1.32-3.12,2.2.11.09.17.2.17.33.11.01.2.07.26.18M43.17,91.29c-.17-.02-.36-.03-.55-.02-.62.48-1.16.95-1.64,1.42-.04.04.04-.01.22-.15.43-.39.92-.71,1.46-.96.21-.12.38-.22.52-.3M41.55,103.32c-.15-.1-.2-.22-.15-.37.14-.33.3-.69.48-1.09-.31.41-.42.56-.35.46v.11l-.42,1.42c.15-.18.3-.36.44-.53M41.2,101.12c.25-.39.53-.82.85-1.27l-.74.74s-.03.06-.06.09c-.04.04-.06.06-.07.07.06.09.08.17.06.26-.01.01-.02.03-.02.06,0,.02,0,.04-.02.05M42.23,106.79c.69-.86,1.35-1.7,1.99-2.53-.07-.01-.16-.02-.26-.02-.37.44-.53.63-.48.57-.02.02-.15.17-.37.44-.27.31-.5.58-.7.81-.05.17-.12.42-.2.74,0-.01,0-.02.02-.02M42.49,114c-.01.07-.02.15-.02.22l1.11-1.2-.02-.04c-.31.28-.46.42-.46.42,0,0-.2.2-.61.59M43.94,115.46s.06-.09.15-.22l-.09.07c-.11.09-.23.11-.37.07-.15-.05-.23-.14-.24-.26-.18.14-.38.25-.57.35-.04.01-.07.02-.11.04.45-.01.87-.03,1.24-.06M44.94,109.85c.01-.09.02-.17.02-.24-.9.84-1.62,1.56-2.18,2.18.71-.7,1.43-1.35,2.16-1.94M44.28,105.97c-.49.52-.98,1.03-1.46,1.55l.02.07c.27-.2.52-.36.76-.5-.06.1.07-.08.41-.53.09-.2.12-.28.11-.26.04-.06.06-.09.06-.09,0,0,.04-.08.11-.24M42.87,103.36s.19-.16.53-.44c.01-.1.03-.2.06-.3-.29.37-.49.62-.59.74M42.93,101.36c.57-.58,1.16-1.22,1.77-1.94.12-.38.17-.66.13-.83-.79,1-1.42,1.92-1.9,2.77M44.13,91.92c-.34.29-.63.55-.87.76.41-.26.86-.55,1.37-.87-.16.04-.33.07-.5.11M43.83,94.06c1.44-1.23,2.82-2.31,4.15-3.25-1.5.98-2.88,2.07-4.15,3.25M46.01,93.84c.21-.25.45-.51.74-.79-.91.79-1.72,1.52-2.42,2.19.49-.42,1.03-.85,1.62-1.31.01-.04.03-.07.06-.09M44.33,101.97c.46-.54.84-1.02,1.14-1.44-.11-.05-.18-.12-.2-.22-.28.36-.41.52-.39.5-.28.57-.47.95-.55,1.16M44.7,103.65c.15-.17.36-.44.65-.81.28-.36.5-.62.65-.79-.05.03-.1.04-.15.04-.44.48-.89.98-1.35,1.51.09.02.15.04.2.06M45.03,106.4c.06-.02.13-.03.22-.02.66-.73,1.03-1.13,1.09-1.2.01-.01.25-.24.72-.68v-.39c-.11-.01-.19-.07-.24-.17-.6.78-1.22,1.6-1.86,2.49.1-.05.12-.06.07-.04M45.23,107.69c.07.11.08.22.02.31,1.09-.77,1.68-1.19,1.77-1.25.01-.01.04-.02.07-.04-.01-.42-.02-.81-.04-1.16-.55.52-.9.85-1.03,1-.04.04-.09.09-.15.17-.07.07-.12.13-.15.17.09.16.07.3-.06.41-.05.05-.12.12-.22.2-.1.1-.17.17-.22.2M48.09,94.98s0-.02.02-.04v-.04s-.1.1-.41.41c-.02.15-.1.24-.24.28h-.06c-.39.41-.76.78-1.11,1.13-.01.07-.04.14-.07.2-.31.36-.6.71-.89,1.05.11.11.18.25.22.42.58-.69,1.08-1.32,1.51-1.9.11-.14.25-.18.42-.13.17-.22.31-.39.41-.5-.01,0-.01,0,0-.02.01-.05.03-.15.06-.31.01-.12.02-.22.04-.3v-.06l.02-.04v-.09s.02-.03.07-.07M47.34,114.83c.17-.23.39-.55.66-.94-.01.01-.04.04-.07.07-.04.02-.06.04-.07.06-.11.09-.24.1-.39.04l-.57.72c-.09.1-.18.14-.3.11-.1-.02-.18-.09-.24-.18-.36.26-.69.49-1.01.7.16-.01.38-.02.66-.04.32-.02.55-.04.68-.04.05-.15.08-.26.09-.33.1-.28.28-.34.55-.17M47.13,101.69l-1.72,2.18s.04.02.06.02c.57-.52,1.08-.96,1.55-1.33,0-.01.02-.02.07-.04,0-.07.01-.35.04-.83M46.38,95.15s-.07-.03-.09-.06c-.43.41-.68.64-.76.7h.06c.23-.17.47-.34.7-.52l.06-.06.04-.07ZM46.64,113.37c-.37.36-.68.67-.92.94.32-.22.66-.48,1.03-.77-.06-.05-.1-.1-.11-.17M47.15,108s0-.1-.02-.42c-.33.32-.8.75-1.4,1.29.02.1.04.2.06.31.42-.33.82-.62,1.2-.87.02-.04.06-.09.09-.17.04-.07.06-.12.07-.15M46.23,110.24s-.08-.09-.09-.17c-.04.04-.15.14-.33.31,0,.01,0,.03-.02.06-.01.04-.02.06-.02.07.25-.15.4-.24.46-.28M46.03,112.84c.1-.07.24-.18.42-.33.2-.15.34-.26.44-.33.07-.06.16-.09.26-.07l.33-.7-.02-.02v-.04c-.53.54-.79.81-.79.81,0,0-.22.23-.65.68M47.37,98.61c.02-.21.07-.58.13-1.13-.05.06-.47.6-1.27,1.6.25-.21.49-.39.72-.53.16-.1.3-.08.42.06M47.23,100.14c.03-.32.06-.66.09-1.01-.03.02-.03.03-.02.02l-.02.02s-.02,0-.04.02c.02.07,0,.15-.06.22-.16.22-.42.57-.77,1.05.07-.05.15-.06.22-.04.02-.02.08-.07.17-.13.07-.05.13-.09.17-.11.09-.06.13-.09.13-.09,0,0,.04.02.13.06M47.28,109.65v-.18c-.01-.09-.02-.14-.02-.17-.2.36-.34.63-.44.81.05.04.09.09.13.15l.33-.61ZM48.46,93.58c.03-.15.12-.25.28-.3.2-.36.42-.65.66-.89-.01-.02-.01-.03,0-.02-.05.04-.12.09-.2.15-.09.07-.15.13-.2.17-.04.02-.08.04-.13.06-.04.04-.09.08-.15.13-.06.06-.11.11-.15.15-.25.34-.51.68-.79,1-.01-.02,0-.01.02.04.17-.14.39-.29.66-.46v-.02ZM48.89,114.28c.07-.04.15-.05.22-.04,0-.04-.01-.12-.04-.24-.09-.02-.16-.05-.22-.07-.07.1-.13.18-.17.24.06.05.1.1.11.17.12-.07.15-.09.09-.06"/>
      </g>
    </g>
  </g>
</svg>