<?xml version="1.0" encoding="UTF-8"?>
<svg id="Capa_2" data-name="Capa 2" xmlns="http://www.w3.org/2000/svg" viewBox="0 0 200 200">
  <defs>
    <style>
      .cls-1 {
        fill: #fff;
      }

      .cls-2 {
        fill: none;
        stroke: #fff;
        stroke-width: 2px;
      }
    </style>
  </defs>
  <g id="Capa_1-2" data-name="Capa 1">
    <g id="Pannus">
      <circle cx="100" cy="100" r="100"/>
      <g>
        <line class="cls-2" x1="38.74" y1="130.35" x2="161.17" y2="130.35"/>
        <line class="cls-2" x1="38.74" y1="68.86" x2="161.17" y2="68.86"/>
        <rect class="cls-1" x="80.66" y="38.44" width="38.54" height="8.76"/>
        <rect class="cls-1" x="72.41" y="41.06" width="55.04" height="3.5"/>
        <g>
          <path class="cls-1" d="M59.06,151.85h3.19c.69,0,1.3.09,1.98.62.53.41.95,1.15.95,2.1,0,1.25-.95,2.65-2.76,2.65h-2.03v3.44h-1.33v-8.8ZM60.4,155.96h1.98c.99,0,1.47-.73,1.47-1.42,0-.59-.23-.95-.57-1.17-.3-.2-.57-.25-.95-.25h-1.93v2.84Z"/>
          <path class="cls-1" d="M72.46,158.69h-3.34l-.68,1.97h-1.41l3.2-8.8h1.11l3.2,8.8h-1.41l-.68-1.97ZM72.08,157.5l-1.27-3.84h-.02l-1.27,3.84h2.57Z"/>
          <path class="cls-1" d="M77.96,151.85h1.26l3.98,6.26h.02v-6.26h1.34v8.8h-1.26l-3.98-6.26h-.03v6.26h-1.33v-8.8Z"/>
          <path class="cls-1" d="M93.4,158.69h-3.34l-.68,1.97h-1.41l3.2-8.8h1.11l3.2,8.8h-1.41l-.68-1.97ZM93.01,157.5l-1.27-3.84h-.02l-1.27,3.84h2.57Z"/>
          <path class="cls-1" d="M98.9,151.85h3.08c1.16,0,2.11.52,2.68,1.48.43.74.47,1.08.47,2.92,0,1.98-.1,2.32-.49,2.94-.52.82-1.43,1.46-2.74,1.46h-2.99v-8.8ZM100.23,159.4h1.59c.75,0,1.29-.26,1.63-.77.3-.45.33-.69.33-2.32s-.04-1.97-.4-2.45c-.41-.56-.85-.74-1.57-.74h-1.59v6.28Z"/>
          <path class="cls-1" d="M109.15,151.85h5.62v1.26h-4.29v2.51h3.66v1.19h-3.66v2.58h4.29v1.26h-5.62v-8.8Z"/>
          <path class="cls-1" d="M118.5,151.85h3.44c.74,0,1.32.17,1.79.58.49.42.88,1.09.88,1.88,0,1.14-.64,2.06-1.71,2.44l2.04,3.91h-1.58l-1.82-3.76h-1.71v3.76h-1.34v-8.8ZM119.83,155.71h2.02c1,0,1.5-.65,1.5-1.4,0-.46-.17-.8-.44-1-.25-.19-.52-.27-.98-.27h-2.09v2.67Z"/>
          <path class="cls-1" d="M128.51,151.85h1.34v8.8h-1.34v-8.8Z"/>
          <path class="cls-1" d="M138.68,158.69h-3.34l-.68,1.97h-1.41l3.2-8.8h1.11l3.2,8.8h-1.41l-.68-1.97ZM138.3,157.5l-1.27-3.84h-.02l-1.27,3.84h2.57Z"/>
        </g>
        <g>
          <path class="cls-1" d="M38.77,82.24h7.56c2.77,0,4.8.64,6.53,2.47,1.73,1.83,2.27,4.05,2.27,8.26,0,3.07-.25,5.14-1.43,7.07-1.38,2.27-3.61,3.66-7.32,3.66h-2.57v13.74h-5.04v-35.2ZM43.81,98.94h2.42c4.1,0,4.15-2.42,4.15-5.93,0-3.31,0-6.03-3.96-6.03h-2.62v11.96Z"/>
          <path class="cls-1" d="M63.19,82.24h4.2l7.86,35.2h-5.04l-1.48-7.56h-6.87l-1.48,7.56h-5.04l7.86-35.2ZM65.31,92.37h-.1l-2.47,12.75h5.04l-2.47-12.75Z"/>
          <path class="cls-1" d="M78.07,82.24h4.84l7.61,21.21h.1v-21.21h5.04v35.2h-4.75l-7.71-21.16h-.1v21.16h-5.04v-35.2Z"/>
          <path class="cls-1" d="M100.56,82.24h4.84l7.61,21.21h.1v-21.21h5.04v35.2h-4.75l-7.71-21.16h-.1v21.16h-5.04v-35.2Z"/>
          <path class="cls-1" d="M139.57,109.53c0,4.6-3.66,8.21-8.16,8.21s-8.16-3.61-8.16-8.21v-27.29h5.04v26.79c0,2.47,1.33,3.66,3.11,3.66s3.11-1.19,3.11-3.66v-26.79h5.04v27.29Z"/>
          <path class="cls-1" d="M161.17,92.37h-5.04v-1.14c0-2.32-.99-4.25-3.56-4.25-2.77,0-3.41,2.22-3.41,4.55,0,2.72.25,3.66,2.87,4.7l3.86,1.53c4.45,1.68,5.29,4.5,5.29,9.64,0,5.93-2.17,10.33-8.7,10.33-4.89,0-8.6-3.61-8.6-8.36v-1.88h5.04v1.58c0,1.83.99,3.61,3.56,3.61,3.41,0,3.66-2.03,3.66-5.24,0-3.76-.44-4.35-2.92-5.34l-3.61-1.48c-4.35-1.78-5.49-4.65-5.49-9.05,0-5.34,2.87-9.64,8.65-9.64,5.04,0,8.4,4.05,8.4,7.96v2.47Z"/>
        </g>
      </g>
    </g>
  </g>
</svg>
