<?xml version="1.0" encoding="UTF-8"?>
<svg id="Capa_2" data-name="Capa 2" xmlns="http://www.w3.org/2000/svg" xmlns:xlink="http://www.w3.org/1999/xlink" viewBox="0 0 200 200">
  <defs>
    <style>
      .cls-1 {
        fill: #e87625;
      }

      .cls-2 {
        fill: #fff;
      }

      .cls-3 {
        clip-path: url(#clippath);
      }
    </style>
    <clipPath id="clippath">
      <path class="cls-2" d="M123.55,110.11c0,3.21,1.13,5.62,2.87,7.32,1.73,1.67,4.14,2.51,6.77,2.51,2.86,0,6.57-1.38,8.25-5.04-.05-.44-.49-.79-.89-.7-1.14,1.69-2.62,2.98-5.48,2.98-5.29,0-7.96-4.61-7.96-8.46s1.85-6.47,4.24-7.55c2.53-1,4.9-.35,5.46.26,1.38,1.49-.85,2.68.36,4.62.62.99,2.19.98,2.94.5.58-.36,1-1.11.94-1.98,0,0,.06-1.53-1.58-3.19-.99-1-2.85-1.86-4.61-1.92-.2,0-.41-.01-.6-.01-7.17,0-10.71,5.46-10.71,10.66M143.03,110.11c0,3.21,1.14,5.62,2.88,7.32,1.73,1.67,4.15,2.51,6.76,2.51,2.87,0,6.57-1.38,8.26-5.04-.06-.44-.5-.79-.9-.7-1.13,1.69-2.62,2.98-5.48,2.98-5.28,0-7.95-4.61-7.95-8.46s1.86-6.47,4.24-7.55c2.54-1,4.9-.35,5.48.26,1.38,1.49-.86,2.68.35,4.62.61.99,2.18.98,2.94.5.59-.36.99-1.11.94-1.98,0,0,.06-1.53-1.58-3.19-.98-1-2.86-1.86-4.6-1.92-.2,0-.41-.01-.61-.01-7.18,0-10.72,5.46-10.72,10.66M50.05,104.88c.05-1.64,2.57-4.3,5.48-4.3s3.81,1.73,3.81,3.12c0,.63-.15.84-.3.93-.4.3-1.49.5-5.14.5h-3.51c-.34,0-.34-.15-.34-.24M46.14,110.26c0,2.16.59,4.49,2.08,6.42.67.88,1.58,1.65,2.68,2.22,1.64.89,3.76,1.32,6.34,1.17,2.1-.11,4.38-1.41,5.4-2.49,1.68-1.81,1.58-3.42,1.58-3.42.03-.92-.52-1.78-1.26-2.19-.95-.54-2.27-.34-2.89.73-1.22,2.1,1.47,3.58-.05,5.26-.46.51-2.02,1.05-3.99.9-4.36-.59-6.52-6.48-6.52-10.92,0-1.24.05-1.33,1.33-1.33h9.14c2.07,0,2.76-.05,2.9-.34.1-.2.21-.6.21-1.29,0-2.96-2.77-5.88-7.02-5.88-5.92,0-9.93,5.08-9.93,11.17M166.67,109.11c0-5.42,2.42-8.54,5.68-8.54,4.7,0,6.38,5.33,6.38,9.53,0,3.8-1.35,8.34-5.69,8.34s-6.37-4.84-6.37-9.34M162.43,109.76c0,6.17,4.44,10.17,10.12,10.17,6.18,0,10.42-4.45,10.42-10.62s-4.49-10.22-10.03-10.22c-5.83,0-10.52,4.44-10.52,10.67M112.17,101.97c-.44.13-.19.98.08,1.04l.98-.19c1.84-.37,2.19.75,2.19,2.77v8.64c0,3.56-.05,4.05-1.88,4.3l-1.03.14c-.34.25-.25,1.09.09,1.24,1.39-.1,2.87-.14,4.65-.14s3.16.05,4.63.14c.35-.14.45-.98.1-1.24l-1.04-.14c-1.77-.25-1.87-.75-1.87-4.3v-8.89c0-2.02.1-4.4.2-6.13-.06-.2-.26-.29-.5-.29-1.14.74-5.45,2.71-6.61,3.04M99.43,96.12c-2.65.04-4.92.85-6.43,2.43-1.48,1.55-2.24,3.75-2.05,6.06.32,4.16,3.45,5.48,6.79,6.87.79.32,3.61,1.64,4.33,2,1.5.77,3.56,1.82,3.77,4.63.11,1.41-.32,2.68-1.25,3.69-.98,1.05-2.5,1.67-4.12,1.75-3.99.19-6.27-1.13-6.56-2.06-.28-.91.23-1.66.8-2.25.56-.59,1.28-1.42,1.1-2.82-.09-.74-.51-1.21-1.08-1.6-.48-.32-1.39-.52-2.08-.46-1.33.11-2.83,1.18-2.59,3.55.1.96.28,1.98,1.24,3.38,1.93,2.82,5.58,3.67,8.99,3.61,2.91-.04,5.79-.86,7.45-2.54,1.61-1.67,2.44-3.71,2.38-5.8-.12-4.06-4.54-6.22-7.62-7.65-1.58-.75-3.7-1.65-4.68-2.16-1.37-.72-3.27-1.7-3.46-4.31-.1-1.3.29-2.49,1.14-3.42.9-.99,2.3-1.56,3.77-1.64,3.66-.17,5.75,1.06,6.02,1.92.26.84-.21,1.54-.73,2.1-.51.54-1.17,1.31-1.01,2.62.09.69.47,1.12.98,1.48.44.3,1.28.48,1.91.44,1.21-.12,2.59-1.1,2.36-3.31-.09-.9-.26-1.84-1.11-3.14-1.72-2.55-4.93-3.36-7.99-3.36-.08,0-.17,0-.25,0M28.27,111.15v-10.88c0-1.83,2.51-3.58,4.54-3.58,5.05,0,6.12,6.17,6.12,10.09,0,3.43-1.16,7.85-5.4,7.85-3.88,0-5.26-1.91-5.26-3.48M28.27,97.69c0-1.12.05-1.24.05-1.83s-.31-.66-.5-.65c-2.59.18-3.36.22-6.64.03-.22.06-.36.29-.36.63,0,.31.14.53.4.58,2.46.22,2.59.75,2.59,4.68l.03,19.31c0,3.55-.06,4.05-2.27,4.29l-1.24.15c-.31.18-.29,1.14-.04,1.24,1.72-.1,3.61-.14,5.75-.14s4.98.04,7.96.14c.46-.1.49-1.04-.04-1.24l-2.05-.15c-3.48-.24-3.68-.74-3.68-4.29l.03-5.41c1.52.41,2.09.77,4.95.77,6.92,0,10.93-4.16,10.93-10.44,0-5.09-3.7-10.4-9.5-10.4-2.68,0-4.42,1.29-6.38,2.73M71.77,99.12c0-2.94.63-3.17,3.35-3.17,5.13,0,7.62,3.3,7.62,7.41s-1.95,7.58-7.31,7.58h-3.65v-11.81ZM69.54,94.78c-2.81,0-6.03-.17-6.39-.17-.25,0-.42.45-.42.67,0,.2.12.66.52.66,3.21,0,3.98.35,4.02,2.99.03,2.06.08,21.5.08,21.5,0,3.55-.08,4.05-3.16,4.29l-1.73.15c-.44.18-.41,1.14-.06,1.24,2.39-.1,5-.14,7.14-.14s4.16.04,6.3.14c.32-.1.34-1.04-.04-1.24l-1.44-.15c-2.48-.24-2.62-.74-2.62-4.29l.02-8.17c1.83-.04,2.85-.04,4.67,1.79,5.8,5.8,7.68,19.53,20.13,19.53,3.28,0,3.46.07,3.67.07.41,0,.6-.31.6-.6,0-.16-.13-.58-.45-.58-6.78,0-11.14-5.14-13.8-10.3-4.76-9.17-6.7-10.44-6.7-10.72,0-.17.26-.26.49-.35,4.91-1.96,7.18-4.06,7.18-8.35,0-6.43-6.33-8.16-11.51-8.16-2.62,0-5.35.17-6.51.17M114.52,92.74c0,1.25.93,2.33,2.38,2.33,1.3,0,2.47-.74,2.47-2.42,0-1.3-.93-2.43-2.33-2.43s-2.51.98-2.51,2.53M90.36,74.94c1.2.05,2.19.47,3,1.13-.55-.18-1.13-.29-1.77-.32-3.29-.12-5.04,2.07-5.26,4.27-.68-2.14.65-5.22,4.03-5.09M84.89,78.63c-.3,2.91,1.7,5.82,6.18,4.73,4.1-.99,6.79.15,8.13,2.28.13.11.44.32.73.18.15-.08.29-.27.29-.72s-.08-1.02-.22-1.73c-.88-3.26-3.61-9.11-8.65-9.65-.28-.03-.55-.04-.82-.04-3.47,0-5.39,2.48-5.64,4.96M115.04,69.87c6.28-1.36,9.91,2.9,9.89,6.85-1.16-3.55-5.01-6.59-11.17-5.66-.95.14-1.83.38-2.64.7,1.09-.89,2.37-1.56,3.93-1.89M114,68.39c-9.26,2.12-11.49,12.35-11.47,19.74.02.66.04,1.7.17,2.37.1.54.32.72.56.74.18.02.52-.06.74-.56.13-.29.55-1.3.66-1.52.31-.64.7-1.31,1.16-1.87,1.83-2.33,4.92-4.2,10.12-3.75,7.94.67,11.29-3.53,10.98-7.74-.28-3.9-3.72-7.81-9.55-7.81-1.05,0-2.17.13-3.36.4M108.89,58.3c2.4-.89,4.04.35,4.49,1.96-1.06-1.09-2.8-1.63-5.01-.81-1,.36-1.81.89-2.51,1.55.65-1.21,1.62-2.18,3.02-2.7M108.45,57.3c-4.56,1.67-5.67,6.9-5.64,11.33,0,.52-.03,1.52.19,2.4.1.35.19.41.47.44.37.05.51-.23.64-.52.31-.64.77-1.81,1.76-2.88.99-1.15,2.42-1.96,4.33-2.35,6.35-1.27,5.18-8.79.28-8.8-.62,0-1.3.12-2.02.39M85.26,57.01c1.53.06,2.87.5,4.03,1.23-.57-.11-1.16-.18-1.81-.2-5.56-.2-8.6,3.19-9.16,6.74-.79-3.48,1.51-7.96,6.93-7.76M76.16,63.09c-.42,4.73,3.3,9.47,11.09,7.16,5.87-1.74,9.4.71,11.43,3.54.44.53.84,1.16,1.16,2.09.19.38.5.53.83.46.46-.11.41-.96.41-.98-.87-7.42-4.79-19.7-15.04-20.04-.16,0-.32,0-.48,0-5.93,0-9.05,3.88-9.4,7.76"/>
    </clipPath>
  </defs>
  <g id="Capa_1-2" data-name="Capa 1">
    <g id="Persicco">
      <circle class="cls-1" cx="100" cy="100" r="100"/>
      <g>
        <path class="cls-2" d="M123.55,110.11c0,3.21,1.13,5.62,2.87,7.32,1.73,1.67,4.14,2.51,6.77,2.51,2.86,0,6.57-1.38,8.25-5.04-.05-.44-.49-.79-.89-.7-1.14,1.69-2.62,2.98-5.48,2.98-5.29,0-7.96-4.61-7.96-8.46s1.85-6.47,4.24-7.55c2.53-1,4.9-.35,5.46.26,1.38,1.49-.85,2.68.36,4.62.62.99,2.19.98,2.94.5.58-.36,1-1.11.94-1.98,0,0,.06-1.53-1.58-3.19-.99-1-2.85-1.86-4.61-1.92-.2,0-.41-.01-.6-.01-7.17,0-10.71,5.46-10.71,10.66M143.03,110.11c0,3.21,1.14,5.62,2.88,7.32,1.73,1.67,4.15,2.51,6.76,2.51,2.87,0,6.57-1.38,8.26-5.04-.06-.44-.5-.79-.9-.7-1.13,1.69-2.62,2.98-5.48,2.98-5.28,0-7.95-4.61-7.95-8.46s1.86-6.47,4.24-7.55c2.54-1,4.9-.35,5.48.26,1.38,1.49-.86,2.68.35,4.62.61.99,2.18.98,2.94.5.59-.36.99-1.11.94-1.98,0,0,.06-1.53-1.58-3.19-.98-1-2.86-1.86-4.6-1.92-.2,0-.41-.01-.61-.01-7.18,0-10.72,5.46-10.72,10.66M50.05,104.88c.05-1.64,2.57-4.3,5.48-4.3s3.81,1.73,3.81,3.12c0,.63-.15.84-.3.93-.4.3-1.49.5-5.14.5h-3.51c-.34,0-.34-.15-.34-.24M46.14,110.26c0,2.16.59,4.49,2.08,6.42.67.88,1.58,1.65,2.68,2.22,1.64.89,3.76,1.32,6.34,1.17,2.1-.11,4.38-1.41,5.4-2.49,1.68-1.81,1.58-3.42,1.58-3.42.03-.92-.52-1.78-1.26-2.19-.95-.54-2.27-.34-2.89.73-1.22,2.1,1.47,3.58-.05,5.26-.46.51-2.02,1.05-3.99.9-4.36-.59-6.52-6.48-6.52-10.92,0-1.24.05-1.33,1.33-1.33h9.14c2.07,0,2.76-.05,2.9-.34.1-.2.21-.6.21-1.29,0-2.96-2.77-5.88-7.02-5.88-5.92,0-9.93,5.08-9.93,11.17M166.67,109.11c0-5.42,2.42-8.54,5.68-8.54,4.7,0,6.38,5.33,6.38,9.53,0,3.8-1.35,8.34-5.69,8.34s-6.37-4.84-6.37-9.34M162.43,109.76c0,6.17,4.44,10.17,10.12,10.17,6.18,0,10.42-4.45,10.42-10.62s-4.49-10.22-10.03-10.22c-5.83,0-10.52,4.44-10.52,10.67M112.17,101.97c-.44.13-.19.98.08,1.04l.98-.19c1.84-.37,2.19.75,2.19,2.77v8.64c0,3.56-.05,4.05-1.88,4.3l-1.03.14c-.34.25-.25,1.09.09,1.24,1.39-.1,2.87-.14,4.65-.14s3.16.05,4.63.14c.35-.14.45-.98.1-1.24l-1.04-.14c-1.77-.25-1.87-.75-1.87-4.3v-8.89c0-2.02.1-4.4.2-6.13-.06-.2-.26-.29-.5-.29-1.14.74-5.45,2.71-6.61,3.04M99.43,96.12c-2.65.04-4.92.85-6.43,2.43-1.48,1.55-2.24,3.75-2.05,6.06.32,4.16,3.45,5.48,6.79,6.87.79.32,3.61,1.64,4.33,2,1.5.77,3.56,1.82,3.77,4.63.11,1.41-.32,2.68-1.25,3.69-.98,1.05-2.5,1.67-4.12,1.75-3.99.19-6.27-1.13-6.56-2.06-.28-.91.23-1.66.8-2.25.56-.59,1.28-1.42,1.1-2.82-.09-.74-.51-1.21-1.08-1.6-.48-.32-1.39-.52-2.08-.46-1.33.11-2.83,1.18-2.59,3.55.1.96.28,1.98,1.24,3.38,1.93,2.82,5.58,3.67,8.99,3.61,2.91-.04,5.79-.86,7.45-2.54,1.61-1.67,2.44-3.71,2.38-5.8-.12-4.06-4.54-6.22-7.62-7.65-1.58-.75-3.7-1.65-4.68-2.16-1.37-.72-3.27-1.7-3.46-4.31-.1-1.3.29-2.49,1.14-3.42.9-.99,2.3-1.56,3.77-1.64,3.66-.17,5.75,1.06,6.02,1.92.26.84-.21,1.54-.73,2.1-.51.54-1.17,1.31-1.01,2.62.09.69.47,1.12.98,1.48.44.3,1.28.48,1.91.44,1.21-.12,2.59-1.1,2.36-3.31-.09-.9-.26-1.84-1.11-3.14-1.72-2.55-4.93-3.36-7.99-3.36-.08,0-.17,0-.25,0M28.27,111.15v-10.88c0-1.83,2.51-3.58,4.54-3.58,5.05,0,6.12,6.17,6.12,10.09,0,3.43-1.16,7.85-5.4,7.85-3.88,0-5.26-1.91-5.26-3.48M28.27,97.69c0-1.12.05-1.24.05-1.83s-.31-.66-.5-.65c-2.59.18-3.36.22-6.64.03-.22.06-.36.29-.36.63,0,.31.14.53.4.58,2.46.22,2.59.75,2.59,4.68l.03,19.31c0,3.55-.06,4.05-2.27,4.29l-1.24.15c-.31.18-.29,1.14-.04,1.24,1.72-.1,3.61-.14,5.75-.14s4.98.04,7.96.14c.46-.1.49-1.04-.04-1.24l-2.05-.15c-3.48-.24-3.68-.74-3.68-4.29l.03-5.41c1.52.41,2.09.77,4.95.77,6.92,0,10.93-4.16,10.93-10.44,0-5.09-3.7-10.4-9.5-10.4-2.68,0-4.42,1.29-6.38,2.73M71.77,99.12c0-2.94.63-3.17,3.35-3.17,5.13,0,7.62,3.3,7.62,7.41s-1.95,7.58-7.31,7.58h-3.65v-11.81ZM69.54,94.78c-2.81,0-6.03-.17-6.39-.17-.25,0-.42.45-.42.67,0,.2.12.66.52.66,3.21,0,3.98.35,4.02,2.99.03,2.06.08,21.5.08,21.5,0,3.55-.08,4.05-3.16,4.29l-1.73.15c-.44.18-.41,1.14-.06,1.24,2.39-.1,5-.14,7.14-.14s4.16.04,6.3.14c.32-.1.34-1.04-.04-1.24l-1.44-.15c-2.48-.24-2.62-.74-2.62-4.29l.02-8.17c1.83-.04,2.85-.04,4.67,1.79,5.8,5.8,7.68,19.53,20.13,19.53,3.28,0,3.46.07,3.67.07.41,0,.6-.31.6-.6,0-.16-.13-.58-.45-.58-6.78,0-11.14-5.14-13.8-10.3-4.76-9.17-6.7-10.44-6.7-10.72,0-.17.26-.26.49-.35,4.91-1.96,7.18-4.06,7.18-8.35,0-6.43-6.33-8.16-11.51-8.16-2.62,0-5.35.17-6.51.17M114.52,92.74c0,1.25.93,2.33,2.38,2.33,1.3,0,2.47-.74,2.47-2.42,0-1.3-.93-2.43-2.33-2.43s-2.51.98-2.51,2.53M90.36,74.94c1.2.05,2.19.47,3,1.13-.55-.18-1.13-.29-1.77-.32-3.29-.12-5.04,2.07-5.26,4.27-.68-2.14.65-5.22,4.03-5.09M84.89,78.63c-.3,2.91,1.7,5.82,6.18,4.73,4.1-.99,6.79.15,8.13,2.28.13.11.44.32.73.18.15-.08.29-.27.29-.72s-.08-1.02-.22-1.73c-.88-3.26-3.61-9.11-8.65-9.65-.28-.03-.55-.04-.82-.04-3.47,0-5.39,2.48-5.64,4.96M115.04,69.87c6.28-1.36,9.91,2.9,9.89,6.85-1.16-3.55-5.01-6.59-11.17-5.66-.95.14-1.83.38-2.64.7,1.09-.89,2.37-1.56,3.93-1.89M114,68.39c-9.26,2.12-11.49,12.35-11.47,19.74.02.66.04,1.7.17,2.37.1.54.32.72.56.74.18.02.52-.06.74-.56.13-.29.55-1.3.66-1.52.31-.64.7-1.31,1.16-1.87,1.83-2.33,4.92-4.2,10.12-3.75,7.94.67,11.29-3.53,10.98-7.74-.28-3.9-3.72-7.81-9.55-7.81-1.05,0-2.17.13-3.36.4M108.89,58.3c2.4-.89,4.04.35,4.49,1.96-1.06-1.09-2.8-1.63-5.01-.81-1,.36-1.81.89-2.51,1.55.65-1.21,1.62-2.18,3.02-2.7M108.45,57.3c-4.56,1.67-5.67,6.9-5.64,11.33,0,.52-.03,1.52.19,2.4.1.35.19.41.47.44.37.05.51-.23.64-.52.31-.64.77-1.81,1.76-2.88.99-1.15,2.42-1.96,4.33-2.35,6.35-1.27,5.18-8.79.28-8.8-.62,0-1.3.12-2.02.39M85.26,57.01c1.53.06,2.87.5,4.03,1.23-.57-.11-1.16-.18-1.81-.2-5.56-.2-8.6,3.19-9.16,6.74-.79-3.48,1.51-7.96,6.93-7.76M76.16,63.09c-.42,4.73,3.3,9.47,11.09,7.16,5.87-1.74,9.4.71,11.43,3.54.44.53.84,1.16,1.16,2.09.19.38.5.53.83.46.46-.11.41-.96.41-.98-.87-7.42-4.79-19.7-15.04-20.04-.16,0-.32,0-.48,0-5.93,0-9.05,3.88-9.4,7.76"/>
        <g class="cls-3">
          <rect class="cls-2" x="19.23" y="57.7" width="162.95" height="78.34"/>
        </g>
      </g>
    </g>
  </g>
</svg>
