<?xml version="1.0" encoding="UTF-8"?>
<svg id="Capa_2" data-name="Capa 2" xmlns="http://www.w3.org/2000/svg" viewBox="0 0 200 200">
  <defs>
    <style>
      .cls-1 {
        fill: #fff;
      }

      .cls-2 {
        fill: #1f3256;
      }
    </style>
  </defs>
  <g id="Capa_1-2" data-name="Capa 1">
    <g id="Ramallo_Club" data-name="Ramallo Club">
      <circle class="cls-2" cx="100" cy="100" r="100"/>
      <g>
        <g>
          <path class="cls-1" d="M110.42,59.57c0-3.82.19-6.95.37-9.07,1.18.01,2.36.02,3.54.03.02,4.68.03,9.35.05,14.03,2.03.12,4.07.24,6.1.36-.04,1.4-.08,2.79-.12,4.19.82.02,1.65.03,2.47.05.02-6.34.03-12.68.05-19.01h4.25c-.05,4.87-.1,9.75-.15,14.62,1.78.04,3.56.07,5.34.11.61,1.86,1.21,3.71,1.82,5.57-2.68,7.85-4.13,13.55-4.98,17.9,0,0-2.6,5.1-4.72,8.78-.25.44-1.12.53-1.45.42-.38-.13-.61-.81-.5-1.35l2.02-10.64c.11-.57-.03-1.26-.31-1.54-1.15-1.17-4.69.9-6.16,4.35-1.09,2.55-2.16,4.98-3.5,7.45-.61,1.12-1.06,2.41-2.46,2.98-.28-2.87.71-5.48.94-8.19.15-1.76-3.05-3.92-3.8-3.93-.32,0-.67.33-.85.71l-4.3,8.95-2.27,4.62c-.68,1.38-1.36,2.69-2.7,3.75-.77-1.09-.51-2.31-.27-3.56l2.77-14.38c.34-1.78,1.11-3.55.73-5.37-.33-1.54-2.05-2.92-3.49-3.34-.63-.11-1.08,1.06-1.21,1.55-1.36,5.15-2.76,10.04-4.48,15.07-1.13,3.3-2.56,6.27-4.3,9.26-.27.47-.35,1.2-.08,1.48.24.25,1.24.29,1.48-.12.73-1.3,1.14-2.83,2.73-3.7-.9,4.27-3.18,8.52.37,9.93,3.05,1.2,7.27-3.62,8.83-6.84l3.35-6.89c.22-.45.43-.79.94-.64l-1.22,5.44c-.39,1.74-.69,4.21.69,5.57.92.91,2.93-.07,3.57-.93l3.43-4.61,3.09-5.29c.14-.24.49-.37.69-.26.2.11.22.42.14.72l-1.03,3.72c-.44,1.6.51,3.48,2.2,3.9,1.18.29,2.37-.32,3.19-1.09,3.37-3.16,5.76-6.91,7.67-11.11.56-1.23,1.03-2.46,2.16-3.39l-1.03,5.6c-.29,1.57.11,3.16,1,4.18.99,1.13,2.66,2.19,4.02,1.81,3.64-1.03,6.35-3.38,7.5-6.84l2.89-8.67c.83-2.49.22-7.04-1.92-7.4-2.39-.41-4.37,4.56-4.9,8.02.87.56,2.11-.3,2.71.26,1.02.95-1.23,12.85-5.28,10.15-.53-.35-.69-1.04-.6-1.83.6-5.14,1.79-10.03,2.84-15.1.54-2.59,1.22-5.01,1.36-7.64.06-1.07-.16-2.01-1.21-2.54-2.04-1.03-3.34-2.84-3.89-5.17-.81-3.47-.8-7.4.44-10.75,1.12-3.02,4.12-4.68,7.01-4.11,2.66.53,4.19,2.02,5,4.44.94,2.78.92,5.7.54,8.66-.3,2.3-.95,4.25-2.71,6.13.95.2,1.89.39,2.84.59l.47,1.04c-.05,3.51-.1,7.02-.16,10.53-.05,5.54-.11,11.08-.16,16.62l-.26,19.03c-.91-.15-1.34-.63-1.84-1.14l-3.83-3.85c-.32-.32-.71-.39-.96-.36-1.59.19-1.45,4.49-3.17,7.16-2.17-2.42-1.35-4.86-3.8-5.11-2.06-.2-4.62.67-5.95,2.54-.68.95-.35,3.1.4,3.86,2.36,2.38,6.86,1.37,9.02-1.37l1.28.97c.75.57,1.4-2.53,2.29-2.97,1.32-.65,2.74.21,4.02.56l2.44.65-.24,19.44c-.04,3.5-2.69,6.43-5.41,8.4-9.4,6.79-28.15,9.27-39.99,10.05-3.04.2-5.94.32-9-.11l-14.94-2.13c-4.64-.66-8.81-2.22-13.28-3.63-4.6-1.45-8.87-3.48-12.15-7.1-1.58-1.75-2.98-4.47-2.95-6.85l.12-11.98.11-19.46.06-13.05.03-16.78c0-2.06.39-3.96.65-5.98l.44-3.34c-.12-5.22-.23-10.43-.35-15.65,2.96.04,5.92.08,8.88.11.59,0,1.41.2,2.18.79,1.46,1.12,1.92,3.3,1.67,4.94-.07.47-.38,2.5-1.66,3.97-.21.25-.67.73-.72,1.43-.05.71.34,1.26.46,1.44.52.78,1.26,2.47,2.31,6.39,1.16-4.26,2.33-8.51,3.49-12.77l1.4-5.95c1.62.01,3.24.02,4.86.03,1.38,6.25,2.75,12.49,4.13,18.74.54.01,1.09.02,1.63.03-.04-6.25-.07-12.51-.11-18.76,1.96.05,3.93.1,5.89.15.53,3.29,1.05,6.59,1.58,9.88.7-3.3,1.4-6.59,2.09-9.89,1.87-.02,3.74-.03,5.61-.05l-.17,5.47c-.1,4.4-.21,8.8-.31,13.21l1.83.05c.59-2.7,1.17-5.4,1.76-8.1l2.58-10.46c1.62-.02,3.24-.05,4.85-.07l3.58,15.13c1.19,3.5,1.72,4.2,1.99,4.14.6-.12.1-4.01.09-9.87ZM140.19,65.68c.98.07,2.12-.36,2.49-1.28,1.23-2.98,1.41-7.95-1.14-9.63-.91-.48-1.96-.11-2.34.91-1.18,3.16-1.68,7.9.98,10ZM103.58,61.98c-.46-1.94-.93-3.87-1.39-5.81-.37,1.94-.73,3.88-1.1,5.82.83,0,1.66,0,2.48,0ZM90.52,68.66c-.1-3.8-.2-7.61-.3-11.41-.69,3.79-1.38,7.57-2.07,11.36.79.02,1.58.03,2.37.05ZM84.73,68.66c-.7-3.85-1.4-7.71-2.11-11.56-.15,3.87-.3,7.74-.44,11.61.85-.02,1.7-.03,2.55-.05ZM99.63,68.82c1.71.01,3.43.02,5.14.04-.31-.73-.61-1.46-.92-2.18-1.13,0-2.26,0-3.4.01-.27.71-.55,1.42-.82,2.13ZM70.82,55.86c-.49,1.96-.99,3.92-1.48,5.88.92.02,1.84.03,2.77.05-.43-1.98-.86-3.95-1.28-5.93ZM55.11,57.1c1.57.35,2.85-.16,3.16-.99.21-.57-.09-1.14-.15-1.23-.47-.85-1.7-1.26-3.06-.94.02,1.05.03,2.11.05,3.16ZM67.9,68.61c1.88.03,3.75.07,5.63.1-.28-.78-.56-1.55-.84-2.33-1.35-.06-2.7-.12-4.05-.19-.25.81-.49,1.61-.74,2.42ZM58.48,68.43c-.14-.87-.34-1.83-.63-2.85-.27-.95-.57-1.82-.87-2.59-.47-.78-.83-1.52-1.92-1.29.08,2.21.15,4.41.23,6.62l3.19.11ZM83.69,112.38c2.66-3.48,3.98-7.62,3.96-11.9,0-.59-.78-.79-1.12-.68s-.72.27-.9.76l-2.04,5.49c-.61,1.65-2.34,2.68-3.75,3.02-3.87.92-6.25-1.6-7.26-5.67-.19-.77.29-1.45.99-1.65,7.21-2.07,13.13-6.42,14.83-13.99.55-2.46.32-5.11-1.15-7.2-2.62-3.72-10.7-2.13-14.1,1.97l-3.98,4.81c-.8.96-4.05-1.25-8.27,1.28-2.46,1.47-4.19,4-3.88,7,.36,3.4,3.09,5.92,6.44,6.42.73.11,1.14.61,1.12,1.27-.08,2.41.38,4.73,1.13,6.98,1.43,4.24,5.34,6.53,9.69,6.24,3.27-.22,6.17-1.34,8.3-4.13ZM139.08,108.97c2.28.37,4.18.3,5.92-1.02.8-.6,1.05-1.45.74-2.28-.87-2.28-4.13.14-6.01-1.44,2.76-2.55,4.16-.21,5.12-.97.29-.23-.22-1.08-.48-1.32-.78-.72-5.38-.1-6.84,2.04-.06.61.59,1.74,1.2,1.87,3.19.69,5.02-.52,5.39.85-3.2,2.41-4.51.16-5.09.39-.44.18-.66.46-.72,1.08-.05.56.02.68.77.81ZM136.43,107.21c-1.32-2.68-5.08,1.57-5.8-.37-.67-1.83,5.27-1.1,5.45-3.24-2.81-.1-5.3.75-7.57,1.79l1.74,6.36c2.32-.22,4.55-.72,6.78-1.46.42-.14.8-.37,1-.99-2.25-.85-4.35,1.22-6.46.68-.7-2.06,2.14-1.64,4.86-2.77ZM122.08,113.72v-2.88c1.18-.02,2.14-.55,3.2-.9,1.41.45.89,3.04,2.4,2.83.6-.08.91-.54.7-1.28l-1.5-5.25c-.14-.5-.67-.84-.96-.71-1.19.5.17,2.55-.88,3.3-.8.57-2.52.8-3.39.15-.78-.59-1.06-1.61-2.14-1.85-.68,1.31-.35,2.49.37,3.66l.35,2.42c.07.49.45.75.75.96.32.22,1.08.16,1.08-.45ZM114.64,114.69c-1.28.28-2.29-.07-2.79-1-.44-.82-.45-1.88.29-2.68,2.19-2.36,4.93.83,5.93-1.49-2.66-1.82-6.66-1-8.08,2.01-.46.98.23,3.2,1.06,3.79,3.88,2.73,9.03-1.67,7.77-2.77-.91-.79-2.15,1.7-4.17,2.15ZM126.78,121.37l-1.24-4.83c-.14-.54-.38-.89-.83-.98-.27-.05-1,.11-.92.51l1.2,5.87c.15.76.72.97,1.18.81.67-.24.79-.64.6-1.38ZM109.41,117.39l-1.43-5.82c-.04-.58-.5-.86-.84-1.02-.3-.14-1.28.11-1.18.53l1.26,5.13c.23.95,1.16,1.82,2.18,1.18ZM92.6,114.49l3.35,5.13c.37.57,1.24.93,1.69.69,1.47-.77.52-3.53,1.59-5.38,1.07.27,1.53,1.25,1.91,2.23.44,1.12,1.77,2.13,2.86,1.48.5-.3.04-1.32.12-1.69.43-1.84,1.04-3.77.35-5.6-.17-.44-1.53.08-1.45.76.14,1.29.17,2.5-.2,3.85-1.8-.86-2.45-3.5-3.87-3.49-1.34.02-1.77,2.86-1.59,5.25-2.08-.96-2.43-3.57-3.79-3.92-.28-.07-1.19.33-.96.68ZM115.06,121.35l3.13,3.24c.45.47,1.61-.46,1.64-1.04.05-1.17.09-2.2.82-3.22,1.31.71.56,2.72,1.52,3.23.4.22.83.11,1-.19.15-.26.29-.68.2-1.02l-1.41-4.85c-.16-.55-.61-.86-1.12-.84-.41.02-.91.28-1.06.87l-1.09,4.05c-1.62.74-2.23-1.88-4.31-3.07-.45-.26-1.93-.23-1.79.47l1.18,5.88c.1.52.53.98.86.95.49-.04.97-.59.9-1.14l-.46-3.34ZM102.86,126.14c-.03-.33.19-.78.59-.89l3.94-1.1c.31-.09-.14-1.25-.44-1.18l-3.99.96c-.4.09-.76-.19-.87-.43-.13-.27.06-.8.44-.89l4.34-1.05c.43-.1.49-.87.28-1.13-.29-.35-.63-.25-1.13-.11l-4.89,1.34c-.55.15-1.11.69-.96,1.35l.97,4.21c.19.81.64,1.42,1.53,1.29,2.3-.32,4.52-.89,6.53-1.76-.1-.57-.37-.89-.69-.97-.76-.2-5.46,2.33-5.65.38ZM92.35,121.08c1.28-1.83.53-4.79-1.63-5.64-1.55-.61-3.28-.05-4.73.31l-2.04.5c-.02,1.93.67,3.66,1.04,5.5.51,2.54,4.44.86,7.35-.66ZM75.52,125.6c.99.26,1.35-.12,1.71-.66.8-1.19-1.21-2.44-.46-4.02l4.43,2.81c.69.44,1.39.73,1.98.17.45-.42.45-1.13.26-1.8l-1.45-5.17c-.13-.45-1.2.15-1.36.54-.52,1.32.95,2.1.57,3.58-2.58.03-4.1-2.68-6.57-2.53-1.32.08,1.09,4.41.89,7.08ZM92.11,131.11c3.8-.34,8.05-1.74,7.36-5.03-.43-2.06-2.2-3.35-4.32-2.97-2.32.43-5.02.97-4.6,2.44l1.56,5.56ZM71.39,124.83c.77-.11,2.64,2.47,3.64.97-1.39-1.94-2.99-3.76-4.8-5.29-.75-.63-2.17-.28-2.41.62l-1.63,6.19c-.14.52,1.01.66,1.34.45,1.15-.71.59-2.47,1.36-2.58l2.49-.36ZM65.43,127.2c-.06-.48-.01-1.21-.45-1.54-2.34-1.77-4.44.54-6.02-1.15,2.28-2.17,4.96.02,5.25-1.45.38-1.98-7.2-1.2-7.27,1.71,0,.37.15,1.24.67,1.29l5.9.56c-.59,1.44-2.11,1.75-3.32,1.45l-2.79-.69c-.04,1.39.9,1.94,1.93,2.14,2.4.47,4.67-.35,6.1-2.32Z"/>
          <path class="cls-1" d="M132.49,117.28c-.56.83,2.3.5,2.4,1.3.1.73-1.05.76-1.52.96-1.69.7-3.71.06-4.06-1.8-.2-1.08.91-1.78,1.72-2.18,1.52-.74,3.33-.87,4.42.7-.97.74-2.56.44-2.96,1.03Z"/>
          <path class="cls-1" d="M142.16,115.26c-.6.29-1.65-.25-1.62-.95.45-.53,1.55-.48,1.91.03.13.19.19.68-.29.92Z"/>
          <path class="cls-1" d="M72.72,99.4c-.79-.59.49-7.35,1.72-7.75.77-.26,2.01,1.72,3.93,1.32.17-2.89-2.87-2.46-3.16-2.94-.41-.7,1.26-4.15,2.57-5.97,1.52-2.1,3.92-3.5,5.59-2.32.53.38,1.18,1.36,1.04,2.33-.39,2.82-1.23,5.79-2.83,8.18-2.06,3.09-4.65,5.53-7.89,7.16-.35.18-.74.16-.98-.02Z"/>
          <path class="cls-1" d="M64.7,99.23c-.26,2.3-5.4-.76-5.52-4.05-.11-3.04,2.53-5.29,5.32-5.6,1.23-.13,2.26-.4,3.29.48-1.61,2.9-2.71,5.88-3.09,9.16Z"/>
          <path class="cls-1" d="M90.85,119.87c-.33.62-2.62,1.88-3.8,1.2-.62-.36-1.26-2.5-.99-3.44s2.99-1.67,4.14-.49c.71.73,1.2,1.69.64,2.73Z"/>
          <path class="cls-1" d="M93.95,129.33c-.88-.54-1.59-2.8-1.26-3.77.66-1.01,2.82-1.18,3.81-.72,1.16.55,1.45,1.89,1.14,2.96-.97.69-2.21,1.64-3.69,1.52Z"/>
          <path class="cls-1" d="M70.47,123.9c-.46.08-.92.16-1.38.25-.14-.98-.08-1.75.17-1.83.26-.08.77.57,1.21,1.58Z"/>
        </g>
        <path class="cls-1" d="M99.41,183.06c-46.36,0-84.08-37.72-84.08-84.08S53.04,14.89,99.41,14.89s84.08,37.72,84.08,84.08-37.72,84.08-84.08,84.08ZM99.41,20.89c-43.06,0-78.08,35.03-78.08,78.08s35.03,78.08,78.08,78.08,78.08-35.03,78.08-78.08S142.46,20.89,99.41,20.89Z"/>
      </g>
    </g>
  </g>
</svg>
