<?xml version="1.0" encoding="UTF-8"?>
<svg id="Capa_2" data-name="Capa 2" xmlns="http://www.w3.org/2000/svg" viewBox="0 0 200 200">
  <defs>
    <style>
      .cls-1 {
        fill: none;
      }

      .cls-2 {
        fill: #e00816;
      }

      .cls-2, .cls-3, .cls-4 {
        fill-rule: evenodd;
      }

      .cls-5 {
        fill: #ffcd07;
      }

      .cls-3 {
        fill: #010101;
      }

      .cls-6 {
        fill: #fff;
      }
    </style>
  </defs>
  <g id="Capa_1-2" data-name="Capa 1">
    <g id="SportClub">
      <circle class="cls-1" cx="100" cy="100" r="100"/>
      <g>
        <g>
          <path class="cls-3" d="M81.4,118.44c1.43-4.2-.52-6.59-5.55-6.59s-8.67,2.38-10.1,6.59l-3.86,11.18c-1.47,4.33,1.56,6.24,5.68,6.24s8.5-1.91,9.97-6.24l3.86-11.18ZM72.47,117.75c.26-.87.87-1.65,1.91-1.65s1.08.78.78,1.65l-4.2,12.22c-.3.87-.87,1.6-1.91,1.6s-1.08-.74-.78-1.6l4.2-12.22Z"/>
          <path class="cls-3" d="M48.29,115.76l1.26-3.77c2.08-5.94-2.04-7.8-7.59-7.8-6.42,0-11.49,2.43-13.7,8.84-3.94,11.49,8.67,11.62,5.94,19.64-.74,2.08-1.78,2.69-3.12,2.69-1.56,0-1.99-.61-1.3-2.69l1.47-4.29c.3-1,0-1.78-.69-1.78h-5.59c-.74,0-1.65.87-1.99,1.91l-.48,1.34-1.13,3.29c-2.12,6.11,2.43,7.93,7.67,7.93,6.94,0,11.57-3.12,13.87-9.8,3.77-10.97-8.28-12.7-6.2-18.68.61-1.73,1.34-2.73,3.12-2.73,1.65,0,1.86,1,1.26,2.73l-.39,1.17s-.04.09-.04.09l-.3.91-.35.95c-.35,1-.04,1.82.65,1.86h5.68c.74-.04,1.56-.82,1.95-1.82Z"/>
          <path class="cls-3" d="M50.37,113.59l-8.41,24.4-.26.82c-.3.82-.04,1.47.52,1.47h4.38c.56,0,1.21-.56,1.52-1.34l2.21-6.46h.09c-.17,2.12,1.08,3.38,3.42,3.38,3.29,0,5.29-2.21,6.29-5.11l4.42-12.92c1.04-2.95,1-5.98-2.56-5.98-2.38,0-4.46.91-5.64,3.34h-.04l.39-1.13.09-.39c.3-.78.04-1.47-.52-1.47h-4.38c-.56,0-1.21.61-1.52,1.39ZM55.05,118.79c.35-1.04,1.13-1.6,1.91-1.6s1.17.56.82,1.6l-3.51,10.14c-.35,1.04-1.13,1.6-1.91,1.6s-1.17-.56-.78-1.6l3.47-10.14Z"/>
          <path class="cls-3" d="M84.31,114.11l-6.5,18.86-.3.91c-.26.78-.04,1.47.52,1.47h4.38c.56,0,1.26-.61,1.56-1.39l5.07-14.87c.35-.95.95-1.91,2.04-1.91s1,.95.69,1.91l-1.08,3.16-.35,1c-.26.78-.04,1.47.52,1.47h4.38c.56,0,1.21-.61,1.52-1.39l2.38-6.89c.82-2.43.48-4.59-2.82-4.59-2.34,0-4.25,1.3-5.81,3.34h-.13l.61-1.65c.17-.74-.09-1.34-.61-1.34h-4.38c-.56,0-1.26.69-1.56,1.47l-.13.43Z"/>
          <path class="cls-2" d="M124.88,128.11l-1.52,4.38c-.52,1.43-1.43,2.77-3.21,2.77s-1.69-1.34-1.17-2.77l6.85-19.94c.48-1.43,1.39-2.82,3.08-2.82,1.82,0,1.82,1.39,1.3,2.82l-1.04,2.99c-.3,1,.04,1.78.74,1.78h5.59c.74,0,1.65-.87,1.99-1.91l.04-.17.61-1.69c2.64-7.67-1.21-9.45-7.28-9.45-5.46,0-11.14,2.21-13.96,10.36l-5.55,16.12c-2.77,8.11,1.39,10.36,6.85,10.36,6.98,0,11.62-3.21,13.87-9.8l1.08-3.08c.17-.87-.13-1.56-.78-1.56h-5.59c-.69,0-1.47.69-1.91,1.6Z"/>
          <path class="cls-2" d="M139.44,132.57l8.24-23.97.22-.65c.3-.82.04-1.47-.52-1.47h-4.33c-.56,0-1.21.61-1.52,1.34l-9.02,26.22c-.17.74.04,1.3.61,1.3h4.33c.56,0,1.26-.65,1.56-1.47l.43-1.3Z"/>
          <path class="cls-2" d="M156.22,133.05l6.37-18.6.04-.04.26-.78c.26-.78,0-1.43-.56-1.43h-4.33c-.56,0-1.21.61-1.52,1.34l-5.07,14.74c-.35,1.04-.87,2.12-2.12,2.12s-.91-1.08-.56-2.12l5.07-14.74c.22-.74-.04-1.34-.56-1.34h-4.33c-.61,0-1.3.65-1.56,1.47l-.26.78-5.46,15.91c-1.17,3.34-.39,5.33,2.51,5.33,2.51,0,4.46-1.13,5.77-3.16h.09l-.56,1.52c-.17.74.09,1.3.61,1.3h4.33c.61,0,1.3-.65,1.56-1.47l.3-.82Z"/>
          <path class="cls-2" d="M163.72,134.01l.52-1.52h.09c-.48,2.3,1,3.21,3.34,3.21,3.55,0,5.64-3.03,6.59-5.81l4.42-12.87c1.04-2.95.56-5.16-2.69-5.16-2.34,0-4.46,1.34-5.72,3.47h-.09l2.56-7.46c.22-.78-.04-1.39-.56-1.39h-4.38c-.52,0-1.21.61-1.52,1.39l-8.93,26.05c-.26.78-.04,1.43.52,1.43h4.38c.52,0,1.17-.61,1.47-1.34ZM169.01,118.75c.35-1.04,1.08-1.6,1.86-1.6s1.17.56.78,1.6l-3.47,10.06c-.35,1.04-1.08,1.6-1.86,1.6s-1.17-.56-.82-1.6l3.51-10.06Z"/>
          <path class="cls-3" d="M102.47,117.27l-4.55,13.39c-1.08,3.08-.91,4.9,2.34,4.9h5.33c.65,0,1.47-.78,1.82-1.73l.56-1.69c.3-.87.09-1.65-.52-1.69h-1.43c-1.52,0-1.3-.78-.82-2.17l3.77-11.01h4.72c.65-.09,1.39-.87,1.69-1.73l.61-1.69c.3-.91.09-1.69-.52-1.78h-4.68l1-2.9c.17-.74-.09-1.3-.61-1.3h-4.38c-.61,0-1.26.65-1.56,1.47l-.95,2.73h-1.56c-.69,0-1.52.82-1.86,1.78l-.56,1.69c-.35.91-.09,1.65.52,1.73h1.65Z"/>
        </g>
        <g>
          <path class="cls-6" d="M111.13,42.23c25.84-6.3,48.07,0,48.07,16.13s-20.72,32.72-46.56,39.02c-25.77,6.36-47.15-.92-47.15-16,0-16.07,19.87-32.79,45.64-39.15Z"/>
          <path class="cls-2" d="M113.17,43.47c21.05-4.72,38.69,2.03,38.17,17.05-.52,15.15-18.1,30.1-39.61,35.22-21.44,5.12-38.82-2.43-38.36-16.72.39-11.15,9.64-22.3,23.08-29.38l1.84-.85,17.18-1.51-2.3-3.8Z"/>
          <path class="cls-4" d="M111.13,41.83c26.56-6.49,49.45-.2,49.45,16.13s-21.38,33.18-47.94,39.67c-26.56,6.49-48.46-.72-48.46-16.07,0-16.26,20.39-33.25,46.95-39.74ZM111.2,43.01c24.59-6.23,45.84-.07,45.84,15.54s-19.8,31.74-44.4,37.9c-24.59,6.23-44.99-.79-44.99-15.48,0-15.61,18.95-31.81,43.54-37.97Z"/>
          <path class="cls-5" d="M143.73,33.44c4.98-.39,9.05,3.41,9.05,8.33s-4.07,9.31-9.05,9.71c-4.92.33-8.98-3.41-8.98-8.39s4.07-9.31,8.98-9.64Z"/>
          <path class="cls-5" d="M127.79,58.16c-.46.26-.79.46-.79.52-7.67,4.39-14.82,8.92-20,13.51,8.33-1.25,22.23-5.12,26.3,4.92,1.11,2.75.92,5.77-.52,8.98-.07.13-.33.66-.59,1.18-5.31,3.28-11.41,6.03-17.9,7.8,4.79-3.93,15.35-13.25,9.51-15.74-5.77-2.49-26.69,7.28-26.3-6.23.13-6.75,11.54-12.92,23.67-20.46.52,0,1.05.07,1.57.13l.59.07.98.33c.72.33,1.25.72,1.84,1.25.46.66.79,1.25,1.11,1.97.2.59.39,1.18.52,1.77Z"/>
          <path class="cls-5" d="M96.77,78.29c-.07.2-.13.33-.13.33-4.39,7.41-11.8,9.44-22.36,6.03h-.07c1.51,4.39,5.12,7.87,10.16,10.03,8.2-.39,14.89-4.13,19.54-12.46,0,0,0-.07.07-.07l-1.25-.13-1.05-.2-1.05-.33-.92-.46-.92-.52-.85-.66-.72-.85-.46-.72Z"/>
          <path class="cls-5" d="M102.61,55.87c11.54-5.12,20.72-6.75,24.59-3.02,4,3.8,2.49,14.23,7.21,17.84,7.15,5.44,14.3-6.36,17.44-12.07l.2-.39c.72-1.25.59-2.16-.26-2.1l-6.75.66c-.79.07-1.97.92-2.82,2.1-.92,1.31-1.84,2.62-2.82,3.93-1.44-13.25-5.97-18.76-14.43-20.2-6.49-1.11-15.02,1.31-23.21,4.66l-.66.26c-1.18.52-2.36,1.05-3.54,1.57-.85.66-1.51,2.16-1.57,3.61l-.07,2.89c0,1.71.85,2.75,1.9,2.3l4.79-2.03Z"/>
        </g>
      </g>
    </g>
  </g>
</svg>
