<?xml version="1.0" encoding="UTF-8"?>
<svg id="Capa_2" data-name="Capa 2" xmlns="http://www.w3.org/2000/svg" viewBox="0 0 200.25 200.1">
  <defs>
    <style>
      .cls-1 {
        fill: none;
      }

      .cls-2 {
        fill: #5cc3dc;
        fill-rule: evenodd;
      }

      .cls-3 {
        fill: #f3e731;
      }

      .cls-4 {
        fill: #e7363a;
      }

      .cls-5 {
        fill: #fff;
      }

      .cls-6 {
        fill: #3f4080;
      }
    </style>
  </defs>
  <g id="Capa_1-2" data-name="Capa 1">
    <g id="Super2000">
      <circle class="cls-1" cx="100" cy="100.1" r="100"/>
      <g>
        <circle class="cls-6" cx="100.25" cy="100" r="100" transform="translate(-41.35 100.18) rotate(-45)"/>
        <path class="cls-2" d="M124.97,75.34l4.79,3.99c.77.64,1.13,2.11.23,2.56h0c-.89.45-1.79.87-2.56.23l-4.28-3.57h-16.76c-1,0-1.82-.82-1.82-1.82s.82-1.82,1.82-1.82h17.14s.09,0,.14,0c.45-.03.92.1,1.3.41M129.42,92.32h45.01c1,0,1.82.82,1.82,1.82h0c0,1-.82,1.82-1.82,1.82h-45.01c-1,0-1.82-.82-1.82-1.82h0c0-1,.82-1.82,1.82-1.82ZM124.22,104.14h39.99c1,0,1.82.82,1.82,1.82h0c0,1-.82,1.82-1.82,1.82h-39.99c-1,0-1.82-.82-1.82-1.82h0c0-1,.82-1.82,1.82-1.82ZM133.36,123.94c1.94,0,3.51,1.57,3.51,3.51s-1.57,3.51-3.51,3.51-3.51-1.57-3.51-3.51,1.57-3.51,3.51-3.51ZM122.88,123.94c1.94,0,3.51,1.57,3.51,3.51s-1.57,3.51-3.51,3.51-3.51-1.57-3.51-3.51,1.57-3.51,3.51-3.51ZM26.39,117.12h119.99c1,0,1.82.82,1.82,1.82h0c0,1-.82,1.82-1.82,1.82H26.39c-1,0-1.82-.82-1.82-1.82h0c0-1,.82-1.82,1.82-1.82Z"/>
        <path class="cls-5" d="M90.48,71.84h3.3c1.4,0,2.32.39,2.32,1.89,0,1.58-1.21,1.89-2.42,1.89h-3.2v-3.79ZM87.28,82.08c0,.96.62,1.6,1.6,1.6s1.6-.64,1.6-1.6v-4.12h3.16c1.76,0,2.2,1,2.2,3.45,0,.57.14,2.26,1.89,2.26.74,0,1.5-.51,1.5-1.25,0-.66-.43-1.27-.43-2.89,0-1.42-.29-2.61-1.93-2.85v-.04c1.52-.35,2.42-1.85,2.42-3.38,0-1.81-1.01-3.9-4.82-3.9h-5.33c-1.13,0-1.87.45-1.87,1.87v10.83ZM73.99,81.55c0,1.42.74,1.87,1.87,1.87h7.67c.94,0,1.62-.27,1.62-1.29s-.68-1.29-1.62-1.29h-6.34v-3.4h5.42c.84,0,1.5-.23,1.5-1.23s-.66-1.23-1.5-1.23h-5.42v-3.04h6.19c.94,0,1.62-.27,1.62-1.29s-.68-1.29-1.62-1.29h-7.51c-1.13,0-1.87.45-1.87,1.87v10.3ZM63.38,71.84h2.65c1.58,0,2.58.59,2.58,1.99,0,1.21-.96,1.99-2.24,1.99h-2.99v-3.98ZM60.18,82.08c0,.96.62,1.6,1.6,1.6s1.6-.64,1.6-1.6v-3.8h3.55c3.1,0,4.88-1.89,4.88-4.45,0-3.12-2.17-4.45-4.86-4.45h-4.9c-1.13,0-1.87.45-1.87,1.87v10.83ZM45,78.16c0,3.86,2.38,5.6,6.11,5.6s6.11-1.74,6.11-5.6v-7.43c0-.96-.62-1.6-1.6-1.6s-1.6.64-1.6,1.6v7.69c0,1.91-1.07,2.77-2.91,2.77s-2.91-.86-2.91-2.77v-7.69c0-.96-.62-1.6-1.6-1.6s-1.6.64-1.6,1.6v7.43ZM36.31,74.69c-1.01-.23-2.19-.55-2.19-1.52s.82-1.66,2.3-1.66c2.99,0,2.71,2.09,4.2,2.09.78,0,1.46-.47,1.46-1.27,0-1.87-2.95-3.28-5.44-3.28-2.71,0-5.6,1.17-5.6,4.29,0,1.5.53,3.1,3.43,3.84l3.61.92c1.09.27,1.37.9,1.37,1.46,0,.94-.92,1.85-2.58,1.85-3.24,0-2.79-2.54-4.53-2.54-.78,0-1.35.55-1.35,1.33,0,1.52,1.81,3.55,5.87,3.55s5.78-1.89,5.78-4.43c0-1.64-.74-3.38-3.67-4.04l-2.67-.6Z"/>
        <path class="cls-4" d="M97.12,99.99c-2.84,9.36.59,12.89,6.83,12.89s11.8-3.53,14.64-12.89c2.37-7.8.14-12.67-6.89-12.67s-12.21,4.87-14.58,12.67M111.08,100.1c-1.8,5.93-3.37,7.27-5.47,7.27s-2.86-1.34-1.06-7.27c1.51-4.98,3.11-7.27,5.47-7.27s2.57,2.29,1.06,7.27ZM73.75,99.99c-2.84,9.36.59,12.89,6.83,12.89s11.8-3.53,14.64-12.89c2.37-7.8.14-12.67-6.89-12.67s-12.21,4.87-14.58,12.67ZM87.71,100.1c-1.8,5.93-3.37,7.27-5.47,7.27s-2.86-1.34-1.06-7.27c1.51-4.98,3.11-7.27,5.47-7.27s2.57,2.29,1.06,7.27ZM50.37,99.99c-2.84,9.36.59,12.89,6.83,12.89s11.8-3.53,14.64-12.89c2.37-7.8.14-12.67-6.89-12.67s-12.21,4.87-14.58,12.67ZM64.34,100.1c-1.8,5.93-3.37,7.27-5.47,7.27s-2.86-1.34-1.06-7.27c1.51-4.98,3.11-7.27,5.47-7.27s2.57,2.29,1.06,7.27ZM34.57,106.49l.02-.07,7.78-4.02c3.83-1.98,5.99-4.1,6.89-7.06,1.19-3.92-.25-8.01-7.98-8.01-6.45,0-10.95,3.6-11.98,6.99-.61,2.01-.1,3.42,2.51,3.42,4.1,0,3.45-4.91,7.58-4.91,1.96,0,2.81,1.13,2.29,2.86-.44,1.45-1.39,2.44-3.53,3.64l-4.15,2.33c-8.04,4.52-8.93,5.65-9.59,7.84-.46,1.52.27,2.93,2.19,2.93h14.79c2.18,0,3.41-1.09,3.98-2.97.57-1.87,0-2.97-2.18-2.97h-8.63Z"/>
        <path class="cls-3" d="M95.71,105.81c0-1.65.33-3.62,1.03-5.93,1.22-4.04,3.19-7.31,5.78-9.55,2.52-2.19,5.62-3.41,9.19-3.41,1.26,0,2.37.15,3.34.45,1.63.49,2.84,1.38,3.66,2.62.81,1.23,1.21,2.78,1.21,4.62,0,1.62-.31,3.46-.93,5.51-1.36,4.5-3.36,7.68-5.75,9.79-2.69,2.37-5.89,3.38-9.27,3.38-1.29,0-2.46-.15-3.5-.46-1.47-.45-2.65-1.22-3.48-2.39-.81-1.16-1.26-2.68-1.26-4.62M97.51,100.11c-.68,2.23-.99,4.12-.99,5.7,0,1.77.39,3.14,1.11,4.16.71,1.01,1.75,1.69,3.05,2.08.95.29,2.05.43,3.27.43,3.19,0,6.21-.95,8.74-3.18,2.29-2.01,4.2-5.07,5.51-9.42.59-1.96.89-3.73.89-5.27,0-1.68-.36-3.09-1.07-4.18-.71-1.08-1.78-1.86-3.22-2.29-.89-.27-1.92-.41-3.11-.41-3.36,0-6.28,1.14-8.66,3.21-2.47,2.15-4.35,5.29-5.53,9.18ZM108.15,105.71c.85-1.04,1.66-2.81,2.55-5.72.74-2.43,1.06-4.2.91-5.33-.13-.96-.64-1.42-1.58-1.42-1.04,0-1.93.52-2.73,1.61-.86,1.16-1.61,2.94-2.36,5.38-.88,2.9-1.14,4.65-.92,5.66.17.83.75,1.09,1.6,1.09.93,0,1.75-.3,2.54-1.26ZM111.47,100.22c-.92,3.02-1.78,4.88-2.69,6-.97,1.19-1.99,1.56-3.16,1.56-1.25,0-2.11-.41-2.39-1.73-.24-1.14.02-3.02.94-6.06.77-2.53,1.57-4.39,2.48-5.63.97-1.31,2.06-1.93,3.38-1.93,1.42,0,2.19.69,2.38,2.12.17,1.25-.16,3.13-.94,5.67ZM72.33,105.81c0-1.65.33-3.62,1.03-5.93,1.22-4.04,3.19-7.31,5.78-9.55,2.52-2.19,5.62-3.41,9.19-3.41,1.26,0,2.37.15,3.34.45,1.63.49,2.84,1.38,3.66,2.62.81,1.23,1.21,2.78,1.21,4.62,0,1.62-.31,3.46-.93,5.51-1.36,4.5-3.36,7.68-5.75,9.79-2.7,2.37-5.89,3.38-9.27,3.38-1.29,0-2.46-.15-3.5-.46-1.47-.45-2.66-1.22-3.48-2.39-.81-1.16-1.26-2.68-1.26-4.62ZM74.13,100.11c-.68,2.23-.99,4.12-.99,5.7,0,1.77.39,3.14,1.11,4.16.71,1.01,1.75,1.69,3.05,2.08.95.29,2.05.43,3.27.43,3.19,0,6.21-.95,8.74-3.18,2.29-2.01,4.2-5.07,5.51-9.42.59-1.96.89-3.73.89-5.27,0-1.68-.36-3.09-1.07-4.18-.71-1.08-1.78-1.86-3.22-2.29-.89-.27-1.92-.41-3.11-.41-3.36,0-6.28,1.14-8.66,3.21-2.47,2.15-4.35,5.29-5.53,9.18ZM84.78,105.71c.85-1.04,1.66-2.81,2.55-5.72.74-2.43,1.06-4.2.91-5.33-.13-.96-.64-1.42-1.58-1.42-1.04,0-1.93.52-2.73,1.61-.86,1.16-1.61,2.94-2.36,5.38-.88,2.9-1.14,4.65-.92,5.66.17.83.75,1.09,1.6,1.09.93,0,1.75-.3,2.54-1.26ZM88.1,100.22c-.92,3.02-1.78,4.88-2.69,6-.97,1.19-1.99,1.56-3.16,1.56-1.25,0-2.11-.41-2.39-1.73-.24-1.14.02-3.02.94-6.06.77-2.53,1.57-4.39,2.48-5.63.97-1.31,2.06-1.93,3.38-1.93,1.42,0,2.19.69,2.38,2.12.17,1.26-.16,3.13-.94,5.67ZM48.96,105.81c0-1.65.33-3.62,1.03-5.93,1.22-4.04,3.19-7.31,5.78-9.55,2.52-2.19,5.62-3.41,9.19-3.41,1.25,0,2.37.15,3.34.45,1.63.49,2.84,1.38,3.66,2.62.81,1.23,1.21,2.78,1.21,4.62,0,1.62-.31,3.46-.93,5.51-1.36,4.5-3.36,7.68-5.75,9.79-2.69,2.37-5.89,3.38-9.27,3.38-1.29,0-2.46-.15-3.5-.46-1.47-.45-2.65-1.22-3.48-2.39-.81-1.16-1.26-2.68-1.26-4.62ZM50.76,100.11c-.68,2.23-.99,4.12-.99,5.7,0,1.77.39,3.14,1.11,4.16.71,1.01,1.75,1.69,3.05,2.08.95.29,2.05.43,3.27.43,3.2,0,6.21-.95,8.74-3.18,2.29-2.01,4.2-5.07,5.51-9.42.59-1.96.89-3.73.89-5.27,0-1.68-.36-3.09-1.07-4.18-.71-1.08-1.78-1.86-3.22-2.29-.89-.27-1.92-.41-3.11-.41-3.36,0-6.28,1.14-8.66,3.21-2.47,2.15-4.35,5.29-5.53,9.18ZM61.41,105.71c.85-1.04,1.66-2.81,2.55-5.72.74-2.43,1.06-4.2.91-5.33-.13-.96-.64-1.42-1.58-1.42-1.04,0-1.93.52-2.73,1.61-.86,1.16-1.61,2.94-2.36,5.38-.88,2.9-1.14,4.65-.92,5.66.17.83.75,1.09,1.6,1.09.93,0,1.75-.3,2.54-1.26ZM64.72,100.22c-.92,3.02-1.78,4.88-2.69,6-.97,1.19-1.99,1.56-3.16,1.56-1.25,0-2.11-.41-2.39-1.73-.24-1.14.02-3.02.94-6.06.77-2.53,1.57-4.39,2.48-5.63.97-1.31,2.06-1.93,3.38-1.93,1.42,0,2.19.69,2.38,2.12.17,1.26-.16,3.13-.94,5.67ZM42.56,102.75l-6.45,3.33h7.09c1.23,0,2.03.34,2.45.96.42.62.43,1.47.11,2.53-.31,1.02-.8,1.83-1.52,2.39-.72.56-1.66.87-2.84.87h-14.79c-.37,0-.71-.05-1.02-.14-.57-.17-.99-.49-1.28-.9-.29-.41-.43-.9-.43-1.43,0-.31.05-.64.15-.97.35-1.16.76-2.05,2.15-3.23,1.33-1.14,3.58-2.57,7.63-4.84l4.15-2.33c1.04-.58,1.78-1.11,2.31-1.65.51-.53.83-1.09,1.03-1.75.09-.29.13-.57.13-.82,0-.35-.09-.65-.26-.88-.18-.23-.45-.41-.81-.52-.27-.08-.59-.12-.97-.12-1.86,0-2.67,1.15-3.48,2.29-.92,1.31-1.85,2.62-4.1,2.62-.57,0-1.06-.07-1.46-.19-.58-.18-1-.47-1.28-.87-.28-.39-.4-.87-.4-1.41,0-.45.09-.94.25-1.48.58-1.91,2.2-3.88,4.6-5.28,2.06-1.2,4.7-2,7.76-2,1.71,0,3.12.2,4.28.55,1.6.49,2.72,1.27,3.43,2.23.72.97,1.03,2.11,1.03,3.31,0,.8-.14,1.62-.39,2.44-.47,1.55-1.27,2.87-2.45,4.07-1.16,1.18-2.7,2.23-4.65,3.24ZM34.18,106.37l.02-.07.05-.16.15-.08,7.78-4.02c1.88-.97,3.34-1.97,4.44-3.08,1.09-1.1,1.82-2.32,2.25-3.74.22-.74.35-1.48.35-2.21,0-1.04-.26-2.01-.87-2.83-.62-.83-1.59-1.51-3.02-1.94-1.08-.33-2.42-.51-4.05-.51-2.92,0-5.42.75-7.36,1.89-2.23,1.3-3.71,3.09-4.24,4.82-.14.45-.21.87-.21,1.24s.08.7.26.95c.18.25.45.44.86.56.33.1.73.15,1.23.15,1.84,0,2.64-1.14,3.44-2.27.93-1.32,1.86-2.63,4.14-2.63.45,0,.85.06,1.2.16.53.16.93.43,1.21.8.28.37.43.83.43,1.36,0,.32-.06.67-.17,1.05-.24.79-.62,1.45-1.22,2.07-.59.61-1.39,1.18-2.5,1.8l-4.15,2.33c-4,2.25-6.21,3.65-7.5,4.75-1.23,1.05-1.6,1.83-1.91,2.86-.08.25-.11.5-.11.74,0,.37.09.71.28.97.19.27.47.47.85.59.22.07.49.1.79.1h14.79c.99,0,1.76-.24,2.35-.7.58-.45.99-1.13,1.25-1.98.25-.82.26-1.44-.01-1.84-.27-.39-.84-.6-1.79-.6h-9.17l.16-.52Z"/>
      </g>
    </g>
  </g>
</svg>
