<?xml version="1.0" encoding="UTF-8"?>
<svg id="Capa_2" data-name="Capa 2" xmlns="http://www.w3.org/2000/svg" viewBox="0 0 200 200">
  <defs>
    <style>
      .cls-1 {
        fill: #2c2926;
      }

      .cls-2 {
        fill: #dbd9d7;
      }

      .cls-3 {
        fill: #cfcec6;
      }
    </style>
  </defs>
  <g id="Capa_1-2" data-name="Capa 1">
    <g id="Almacen_de_Pizzas" data-name="Almacen de Pizzas">
      <circle class="cls-2" cx="100" cy="100" r="100"/>
      <g>
        <g>
          <path class="cls-1" d="M100,165.11c-6.42,0-12.63-1.91-17.95-5.52l-32.41-19.78-37.65-23.88c-5.4-3.66-8.61-9.72-8.61-16.21s3.2-12.54,8.56-16.18l34.64-21.28,35.54-21.89c5.27-3.58,11.47-5.48,17.89-5.48s12.62,1.91,17.95,5.52l36.41,22.49,33.65,20.62c5.41,3.67,8.61,9.72,8.61,16.21s-3.2,12.55-8.57,16.18l-34.25,21.58-35.91,22.15c-5.28,3.58-11.47,5.48-17.89,5.48Z"/>
          <path class="cls-1" d="M100,165.38c-6.47,0-12.72-1.92-18.07-5.55l-32.44-19.79-37.66-23.89c-5.46-3.71-8.72-9.84-8.72-16.42s3.25-12.72,8.7-16.41l34.62-21.27,35.51-21.88c5.33-3.62,11.58-5.54,18.05-5.54s12.72,1.92,18.07,5.55l36.42,22.49,33.69,20.64c5.45,3.7,8.7,9.83,8.7,16.41s-3.25,12.72-8.7,16.41l-34.25,21.57-35.89,22.13c-5.33,3.62-11.58,5.54-18.05,5.54Z"/>
        </g>
        <g>
          <g>
            <g>
              <path class="cls-2" d="M31.05,86.58c4.6,5.27,8.69,10.94,13.22,16.21-.06.42-.43.37-.64.51-.7.41-1.49.58-2.22.91-1.16.52-2.34.98-3.54,1.4-.19.04-.34.28-.61.26-.79-1.08-1.69-2.13-2.51-3.2-2.32.61-4.44,1.76-6.71,2.44-.03.78-.03,1.48-.11,2.21-.07.67.02,1.37-.09,1.9-.91.31-1.67.65-2.46.97-.17-.15-.27-.3-.27-.63.03-.78.15-1.55.12-2.34-.01-.82-.03-1.67.09-2.51.07-.58.03-1.14.06-1.73.07-1.19.11-2.39.24-3.57.05-.54-.02-1.12.02-1.69.04-.84-.13-1.69,0-2.53.17-1.16.05-2.31.13-3.47.08-1.07.01-2.14.1-3.28.25-.12.52-.28.81-.36.67-.16,1.29-.41,1.93-.65.7-.26,1.4-.58,2.13-.85.1-.04.26,0,.32,0ZM28.12,102.21c1.61-.47,3.22-1.22,4.83-1.87-1.55-1.96-3.04-4.08-4.59-6.01-.27,2.6-.11,5.33-.24,7.88Z"/>
              <path class="cls-2" d="M49.74,81.33c.89,5.49,2.04,11.36,3.52,16.77l1.77-.4c.56-.13,1.12-.28,1.68-.43.42-.12.88-.23,1.31-.29.6-.1,1.14-.43,1.75-.48.33-.02.67-.15.99-.25.16-.06.33-.04.44.11l.21,1.16c.05.67.34.82,0,1.36-.34.28-.72.19-1.09.3-.9.26-1.85.39-2.78.65-1.3.35-2.63.59-3.93.94-1.28.32-2.58.55-3.85.92-1,.31-2.06.49-3.1.72-.2-.16-.36-.39-.42-.67-.24-1.21-.41-2.44-.76-3.6-.26-.88-.31-1.82-.6-2.7-.22-.81-.36-1.66-.56-2.47-.26-1.3-.36-2.63-.73-3.9-.23-.74-.38-1.48-.56-2.2-.09-.45-.04-.9-.15-1.32-.14-.71-.69-2.44-.51-2.66.25-.17.58-.19.87-.25.79-.09,1.52-.37,2.28-.51.83-.19,1.65-.43,2.44-.69.39-.15.82-.1,1.23-.28.13-.06.32.07.54.17Z"/>
              <path class="cls-2" d="M85.36,76.42l.21,2.18c.12.71.27,1.42.31,2.14.05.57.16,1.11.19,1.69,0,.61.12,1.26.18,1.86.11,1.12.18,2.21.23,3.31.02.46.14.91.19,1.4.03.63.09,1.24.18,1.86.08.6.11,1.18.22,1.77.1.42.11.89.15,1.32.04.43.11.92.16,1.35.05.23.04.43-.13.62l-.98.1c-1.34.11-2.68.49-4.05.57-.63.04-1.26.02-1.88.2-.16.05-.22-.03-.42-.07-.14-.28-.2-1.49-.24-2.21-.11-1.15-.22-2.27-.24-3.42-.03-.9-.14-1.81-.25-2.67-.16-1.35-.09-2.69-.36-4.05-.21.37-.4.71-.56,1.07-.67,1.69-1.28,3.38-1.91,5.1-.31.79-.56,1.6-.79,2.43-.08.3-.23.43-.54.4-1-.13-2.02.16-3.03.32-.24.05-.49.08-.73.11-.11.01-.2-.07-.29-.17-.35-.48-.72-.94-1.07-1.42-.66-.86-1.3-1.78-1.93-2.64-.41-.59-.8-1.19-1.29-1.75-.34-.4-.69-.85-1-1.29-.22-.3-.39-.6-.69-.94.11.57.1,1.06.23,1.57.08.22.02.52.05.78.08.57.16,1.14.22,1.72.1.74.17,1.52.21,2.24.08,1.18.2,2.36.36,3.5.09.66.1,1.29.19,1.98.01.11.2.7-.09.76-.65.1-1.7.09-2.34.3-.19.08-.31-.05-.32-.23,0-.55-.11-1.15-.14-1.72-.03-.61-.06-1.24-.15-1.87l-.29-3.3c-.11-.83-.19-1.66-.27-2.52l-.26-2.75c-.07-.75-.22-1.45-.23-2.18-.02-.75-.19-1.46-.24-2.21-.05-.55-.13-1.06-.2-1.57-.06-.34-.04-.66-.09-.95-.08-.25-.02-.46.04-.7,1.04-.02,1.96-.18,2.97-.31.95-.1,1.94-.18,2.89-.3.19-.02.41-.07.6-.09.16-.02.27-.03.34.08.55,1.16,1.34,2.18,1.99,3.27.56.93,1.26,1.72,1.87,2.61.68,1.06,1.35,2.06,2.18,2.96.11-.27.25-.52.31-.79.13-.68.43-1.29.64-1.95.24-.66.56-1.33.8-2,.42-1.06.84-2.15,1.26-3.23.2-.51.34-1.05.51-1.56.09-.24.19-.37.49-.37.76-.08,1.5-.1,2.27-.18.44-.05.9-.12,1.33-.2.92-.16,1.85-.28,2.77-.38.11-.04.27-.06.35-.07.23.12.11.28.13.48Z"/>
              <path class="cls-2" d="M102.55,75.91c2.62,6.6,4.63,13.4,7.2,19.98-.2.37-.52.2-.77.25-.8.14-1.59.01-2.38.06-1.26.07-2.52.09-3.78.05-.19-.03-.41.14-.66.02-.4-1.3-.91-2.61-1.33-3.91-2.38-.26-4.74.06-7.09-.11-.28.72-.51,1.38-.81,2.04-.28.6-.42,1.29-.7,1.75-.96-.04-1.78,0-2.63.03-.11-.2-.16-.38-.05-.69.28-.72.64-1.41.87-2.15.25-.78.51-1.58.9-2.33.25-.52.39-1.06.62-1.61.45-1.09.87-2.21,1.37-3.27.22-.49.34-1.06.56-1.58.31-.78.43-1.64.82-2.38.53-1.03.79-2.15,1.24-3.22.42-.98.7-2.01,1.15-3.04.27-.03.58-.08.88-.05.68.09,1.34.07,2.03.08.74,0,1.51-.04,2.27-.03.11,0,.25.09.3.12ZM94.8,89.43c1.67.13,3.34.04,5.07,0-.83-2.4-1.51-4.83-2.34-7.21-1.09,2.35-1.77,4.85-2.73,7.21Z"/>
              <path class="cls-2" d="M123.3,77.07c1.47.18,2.9.5,4.14,1.32.96.65,1.91,1.33,2.5,2.4.11.24.23.46.29.73.12.48.3.93.33,1.45.01.18.13.62.02.67-.09.05-.41-.04-.63-.06-.58-.03-.98-.16-1.55-.22-.08,0-.35-.04-.47-.02-.58-.03-.6-.06-.76-.66-.27-.98-.84-1.59-1.75-1.95-.56-.23-1.08-.49-1.68-.55-.55-.06-.91.02-1.36.12-.45.1-.88.29-1.29.51-.46.24-.72.68-1.09,1.02-.45.45-.83.96-1.13,1.53-.37.77-.74,1.72-.93,2.57-.4,2.54-.18,3.08-.12,3.67.13,1.29.57,2.12,1.15,3.04.12.21.3.38.48.51.57.43,1.11.84,1.77,1.11.56.23,1.13.29,1.69.43.27.06.63.06.96.01,1-.13,2.02-.37,2.99-.76.54-.21,1.01-.53,1.48-.86.17-.07.31-.11.45-.07.17.25.28.55.45.83.24.34.43.74.67,1.11.24.43.17.8-.29,1.01-.52.24-.99.54-1.53.74-.97.36-1.97.72-2.98.97-1.01.24-2.04.28-3.08.29-.77-.02-1.52-.21-2.28-.29-1.04-.08-2-.41-2.93-.74-1.12-.4-2.11-1.03-3.09-1.74-.39-.27-.71-.65-1.09-.95-.52-.37-1.44-2.26-1.76-3.25-.11-.3-.53-2.63-.5-3.21.02-.49-.05-.96,0-1.45.05-.57.11-1.15.27-1.71.12-.45.28-.9.37-1.35.08-.28.24-.55.38-.8.43-.82.99-1.52,1.55-2.22.38-.48.82-.84,1.25-1.26.21-.24.53-.35.82-.52,1.07-.59,2.22-1.05,3.42-1.27.79-.18,1.6-.33,2.4-.3.52.02,1.05-.04,1.57.02.3.03.6.09.89.15Z"/>
              <path class="cls-2" d="M150.3,85.29c.55.07.83.35.68.8-.17.44-.2.88-.23,1.33,0,.13-.07.23-.12.35-3.04-.6-6.07-1.43-9.15-1.84-.23,1.45-.72,3-.82,4.5.63.06,1.19.36,1.82.42.44.02.87.14,1.29.25.94.2,1.89.33,2.84.51.46.07.92.15,1.37.27.37.1.55.34.46.67-.13.55-.21,1.08-.29,1.61-.05.24-.25.4-.51.34-.51-.11-1.02-.2-1.53-.31-.97-.21-1.91-.36-2.89-.55-.38-.06-.76-.14-1.13-.22l-1.99-.43c-.46,1.65-.62,3.34-.86,5.02.19.19.47.15.71.23.56.14,1.14.3,1.69.39.71.1,1.37.27,2.09.32.42.01.86.18,1.29.25.9.09,1.81.32,2.7.51.54.12,1.12,0,1.63.38l-.35,1.8c-.04.34-.26.49-.63.39-.91-.22-1.82-.27-2.72-.51-1.14-.32-2.31-.5-3.47-.72-1.49-.27-2.98-.62-4.49-.94-.32-.07-2.57-.43-3.16-.58-.66-.19-1.32-.39-2.02-.54-.24-.05-.98-.11-.97-.21.18-.66.29-1.36.37-2.05.04-.49.13-.95.28-1.44.15-.47.22-1,.32-1.51.08-.41.19-.81.21-1.23.07-.66.14-1.3.27-1.94.13-.67.24-1.37.37-2.05.16-.67.29-1.34.47-2,.49-2.25.73-4.05.76-4.36.06-.04.2-.03.27-.09.26-.02.38.06.62.11,1.7.29,3.37.78,5.08,1.07.59.1,1.21.26,1.8.36.87.14,1.73.42,2.61.54.84.13,1.68.41,2.55.52.85.11,1.7.34,2.55.52l.21.05Z"/>
              <path class="cls-2" d="M175.67,90.59c-.26.79-.54,1.57-.85,2.34-.16.4-.28.84-.38,1.26-.24.83-.48,1.63-.76,2.41-.39,1.11-.71,2.24-1.12,3.34-.36,1-.67,2.04-.96,3.1-.2.69-.48,1.38-.65,2.08-.32,1.16-.82,2.23-1.09,3.42-.05.23-.12.45-.19.66-.06.19-.19.3-.4.25-.11-.01-.43-.19-.56-.23-.93-.34-1.61-.49-2.53-.86-.56-.23-3.8-1.32-3.83-1.39-1.35-5-2.88-9.95-4.57-14.87-.33,1.35-.8,2.61-1.2,3.93-.37,1.3-.77,2.62-1.11,3.93-.32,1.32-.87,2.55-1.19,3.9-.95-.01-1.79-.71-2.79-.77-.12-.17-.07-.33-.02-.47.28-.85.53-1.61.83-2.44.34-.85.61-1.7.93-2.56.42-1.28.75-2.56,1.12-3.86.24-.83.49-1.68.85-2.5.18-.45.3-.93.4-1.41.22-.84.54-1.64.8-2.45.31-.95.62-1.88.83-2.87.05-.16.07-.31.23-.53,2.32.96,4.55,1.5,6.92,2.42.08.18.18.34.18.52,1.52,4.82,3.01,9.73,4.71,14.55,1.22-3.98,2.65-7.82,3.78-11.8.34.03.65.05.93.16.48.14.93.34,1.42.45.16.03.25.12.31.29Z"/>
            </g>
            <path class="cls-2" d="M150.55,81.73c.1-.87-.04-1.73.01-2.61l-1.09-.02c-.98-.02-1.93.02-2.89.11-1.51.08-3.04-.03-4.56.1-1.09.1-1.96.09-3.07.08-.24,0-.47.02-.59.06-.1.63,0,1.11-.04,1.7.07.11.05.2.19.26.62,0,1.56,0,2.16.01,1.34.04,2.68.12,4.02.16,1.73.04,3.45.13,5.19.2.21,0,.43.02.65-.07Z"/>
          </g>
          <g>
            <path class="cls-2" d="M95.25,100.78c.23,0,.75.02.99,0,.2,0,.44.06.64.07.28.02.54.11.79.2.18.07.34.16.49.27.14.1.31.16.43.29.12.11.22.24.31.37.14.19.22.41.32.61,0,.03.03.07.03.1,0,.11.09.39.09.6,0,.29-.04.56-.07.86-.02.36-.14.69-.3,1.02-.13.25-.31.48-.57.68-.18.13-.35.26-.56.35-.23.1-.45.17-.7.2-.22.02-.42.07-.63.07-.38,0-.75.03-1.14.02-.58,0-1.17-.04-1.74-.02-.34.02-.68-.02-1.01,0-.28.02-.57,0-.84.02-.08-.14-.05-.21-.04-.31.02-.18,0-.35,0-.53v-.6l-.03-.46c0-.16-.03-.32,0-.47.02-.22,0-.44,0-.66,0-.18,0-.36,0-.55,0-.16,0-.33,0-.5v-.78c0-.24-.03-.39-.02-.63,0-.04,0-.16.02-.2.18-.04.35-.02.53-.02.33,0,.66-.03.98,0,.25.02,1.73.02,2,0ZM94.65,101.59c-.08,0-.16.02-.24.03.04.24-.02.46,0,.69.02.28-.02.72,0,.83.02.11,0,1.05,0,1.3,0,.28.03.56.04.84,0,.12-.04.25.03.36.21,0,.46,0,.67,0,.24-.02.45-.06.66-.19.18-.11.31-.25.4-.41.24-.43.25-1.06.24-1.2-.02-.21,0-.43,0-.63,0-.17-.05-.4-.12-.59-.06-.18-.12-.33-.23-.49-.2-.32-.48-.52-.92-.54-.17,0-.33,0-.5,0Z"/>
            <path class="cls-2" d="M107.43,100.78c.2-.02.31.06.29.21-.03.16,0,.3,0,.45,0,.04,0,.08-.02.12-1.11.02-2.22-.04-3.33.04.02.49-.05,1.03.02,1.53.23-.02.44.03.67,0,.16-.02.31-.02.47,0,.34,0,.69-.02,1.03-.03.17,0,.33-.02.5,0,.14,0,.22.07.21.19,0,.19,0,.37,0,.55,0,.08-.06.15-.16.15-.19,0-.37,0-.56,0-.35,0-.7.02-1.05.02-.14,0-.27,0-.41,0h-.73c-.05.57,0,1.14.04,1.7.08.05.18.02.26.02.21,0,.42.02.62,0,.25-.02.5,0,.75-.04.15-.02.31,0,.47,0,.32-.03.66-.02.98-.02.2,0,.39-.08.6,0v.61c0,.11-.06.18-.2.17-.33,0-.66.04-.99.02-.42-.02-.84,0-1.26,0-.54.02-1.09,0-1.64,0-.12,0-.93.04-1.15.03-.24-.02-.49-.03-.74-.03-.09,0-.35.03-.35,0,.02-.23,0-.47,0-.69-.02-.16-.02-.32,0-.49.02-.16,0-.34,0-.51,0-.14,0-.28,0-.42-.02-.22-.04-.43-.04-.65s0-.47,0-.69c0-.23,0-.46.03-.69.02-.77-.02-1.37-.03-1.48.02-.02.07-.02.09-.05.09-.02.14,0,.23,0,.62-.02,1.23.02,1.85,0,.22,0,.44,0,.66,0,.31-.02.64.02.95,0,.3-.02.62.02.93,0,.3-.02.62,0,.93,0h.08Z"/>
          </g>
          <g>
            <path class="cls-2" d="M66.59,111.27c1.01-.02,2.03,0,3.04,0,.17,0,.37-.06.54-.06,1.1,0,2.2.09,3.26.4.86.24,1.59.7,2.09,1.51.45.75.79,1.58.79,2.5,0,.29-.1.59-.1.86-.02.77-.47,1.36-.75,2-.09.22-.26.35-.44.48-.72.59-1.54.99-2.46,1.07-.75.06-1.5.06-2.27.09-.54.04-1.1-.04-1.66,0-.21,0-.42-.04-.66.09-.09,1.25-.02,2.54-.05,3.79-.09.09-.16.13-.24.13-1.47-.04-2.93-.06-4.45-.09-.05-.33-.02-.62-.02-.9,0-1.16,0-2.33-.04-3.49-.07-1.54.02-3.11.02-4.67,0-1.05-.07-2.09-.07-3.14.02-.51.14-.62.61-.64.96-.02,1.92.11,2.86.07ZM67.94,113.18c-.02,1.65-.05,3.25.02,4.91.4.07.77.04,1.12.04.91.04,1.5-.53,1.76-1.3.26-.74.24-1.49.07-2.22-.07-.35-.24-.66-.45-.92-.19-.28-.47-.48-.82-.46-.09,0-.17-.02-.26-.04-.47-.09-.94-.07-1.43,0Z"/>
            <path class="cls-2" d="M83.21,111.53c-.02.26-.02.53,0,.79.04.7-.03,1.41-.02,2.11.02.4-.02.81,0,1.21.02.66,0,1.32,0,1.98-.02.79-.07,1.58-.02,2.37.03.55.02,1.1.02,1.65.02.59,0,1.19,0,1.8,0,.07.02.15.03.22.05.17-.05.31-.21.31-.68,0-1.34.11-2.01.13-.35.02-.68-.04-1.03-.06-.52-.02-1.05-.06-1.57.04-.14-.09-.17-.22-.17-.39.03-.44.09-.88.05-1.3-.03-.48-.05-.94-.03-1.4.02-.85.05-1.69.03-2.54-.02-.46.02-.92.02-1.4,0-.57.02-1.14,0-1.71,0-.42.03-.85,0-1.25-.02-.29-.07-.57-.07-.86-.02-.29.02-.59.02-.88,0-.33-.04-1.08-.04-1.1.35-.06.68.02,1.01-.06.28-.07.56,0,.84.02.23.02.45.02.68,0,.38-.02.77-.02,1.13,0,.33.02.65,0,.98-.06.26-.02.37.06.35.35Z"/>
            <path class="cls-2" d="M96.71,111.46c0,.29-.02.62.02.92.03.37-.04.59-.04.88-.17.31-.37.72-.56.99-.38.57-.75,1.12-1.03,1.73-.4.86-.91,1.64-1.38,2.43-.58.96-1.13,1.87-1.73,2.81-.21.35-.47.66-.66,1.1,1.85-.02,3.67.04,5.45-.11.17.4.21.92.14,1.71-.23.07-.45.13-.7.11-.77-.04-1.52.02-2.29.06-.89.04-1.8.06-2.69.04-1.36-.04-2.72.02-4.09-.04-.4,0-.79-.02-1.19-.04-.1-.02-.21,0-.33-.11,0-.42.04-.85-.02-1.25-.07-.51.05-.9.42-1.29.45-.48.75-1.1,1.13-1.65.66-.96,1.22-1.98,1.85-2.96.44-.66.82-1.36,1.26-2.02.31-.46.63-.92.91-1.41.03-.06.1-.13.07-.26-.09-.06-.21-.02-.31-.02-.93-.02-1.85.02-2.78.07-.63.04-1.24-.02-1.87.07-.14.02-.28-.02-.44-.15-.1-.55-.03-1.12-.1-1.75,1.83-.17,3.63.02,5.43-.11,1.8-.13,3.6.04,5.36-.04.14.07.14.17.16.28Z"/>
            <path class="cls-2" d="M109.96,111.46c0,.29-.02.62.02.92.03.37-.04.59-.04.88-.17.31-.37.72-.56.99-.38.57-.75,1.12-1.03,1.73-.4.86-.91,1.64-1.38,2.43-.58.96-1.13,1.87-1.73,2.81-.21.35-.47.66-.66,1.1,1.85-.02,3.67.04,5.45-.11.17.4.21.92.14,1.71-.23.07-.45.13-.7.11-.77-.04-1.52.02-2.29.06-.89.04-1.8.06-2.69.04-1.36-.04-2.72.02-4.09-.04-.4,0-.79-.02-1.19-.04-.1-.02-.21,0-.33-.11,0-.42.04-.85-.02-1.25-.07-.51.05-.9.42-1.29.45-.48.75-1.1,1.13-1.65.66-.96,1.22-1.98,1.85-2.96.44-.66.82-1.36,1.26-2.02.31-.46.63-.92.91-1.41.03-.06.1-.13.07-.26-.09-.06-.21-.02-.31-.02-.93-.02-1.85.02-2.78.07-.63.04-1.24-.02-1.87.07-.14.02-.28-.02-.44-.15-.1-.55-.03-1.12-.1-1.75,1.83-.17,3.63.02,5.43-.11,1.8-.13,3.6.04,5.36-.04.14.07.14.17.16.28Z"/>
            <path class="cls-2" d="M119.85,111.14c1.71,4.19,3.04,8.51,4.71,12.68-.12.24-.33.13-.49.17-.51.09-1.01.02-1.52.06-.8.06-1.61.07-2.41.06-.12-.02-.26.09-.42.02-.26-.83-.59-1.65-.87-2.48-1.52-.15-3.02.07-4.52-.02-.17.46-.31.88-.51,1.3-.17.39-.26.83-.44,1.12-.61-.02-1.13.02-1.68.04-.07-.13-.1-.24-.03-.44.17-.46.4-.9.54-1.38.16-.5.31-1.01.56-1.49.16-.33.24-.68.38-1.03.28-.7.54-1.41.86-2.09.14-.31.21-.68.35-1.01.19-.5.26-1.05.51-1.53.33-.66.49-1.38.77-2.06.26-.62.44-1.29.72-1.95.17-.02.37-.06.56-.04.44.06.86.04,1.29.04.47,0,.96-.04,1.45-.04.07,0,.16.06.19.07ZM115,119.82c1.06.07,2.13,0,3.23-.04-.54-1.53-1-3.07-1.54-4.58-.68,1.51-1.1,3.11-1.69,4.61Z"/>
            <path class="cls-2" d="M133.58,111.35c1.03.35,1.76,1.05,2.32,2,.12.22.28.42.38.66.07.2.1.39.07.66-.61.11-1.24-.02-1.82,0-.16-.09-.19-.22-.24-.33-.24-.61-.72-.96-1.29-1.16-.45-.17-.91-.22-1.4-.18-.16,0-.3.04-.45.09-.47.17-.63.61-.37,1.08.1.2.26.39.44.51.47.35.96.66,1.43.99.44.31.89.57,1.31.9.52.44,1.12.77,1.59,1.27.73.72,1.1,1.6,1.13,2.66,0,.62-.16,1.18-.35,1.73-.14.35-.42.62-.72.86-.82.68-1.78,1.01-2.81,1.14-1.19.17-2.37.17-3.54-.13-.98-.26-1.87-.7-2.64-1.41-.23-.2-.66-.51-.79-.81-.05-.13.26-.51.37-.66.14-.22.3-.44.47-.66.1-.13.21-.28.47-.26.09.07.23.17.31.28.33.44.82.86,1.29,1.1.4.22.86.53,1.24.57.7.26,1.41.26,2.15.04.49-.13.52-.9.21-1.19-.4-.35-.82-.66-1.24-.96-.44-.29-.89-.59-1.34-.85-.26-.17-.51-.39-.79-.51-.77-.31-1.24-.99-1.82-1.53-.73-.66-1.01-1.62-.96-2.65.05-.97.42-1.78,1.06-2.46.24-.26.54-.42.86-.57.66-.31,1.34-.55,2.09-.61,1.15-.09,2.27,0,3.35.37Z"/>
          </g>
        </g>
        <g>
          <circle class="cls-3" cx="14.88" cy="100" r="1.48"/>
          <circle class="cls-3" cx="185.12" cy="100" r="1.48"/>
        </g>
      </g>
    </g>
  </g>
</svg>
