<?xml version="1.0" encoding="UTF-8"?>
<svg id="Capa_2" data-name="Capa 2" xmlns="http://www.w3.org/2000/svg" viewBox="0 0 200 200">
  <defs>
    <style>
      .cls-1 {
        fill: #050405;
      }

      .cls-2 {
        fill: #d6257c;
      }

      .cls-3 {
        fill: #f0e6ed;
      }
    </style>
  </defs>
  <g id="Capa_1-2" data-name="Capa 1">
    <g id="BoyCut">
      <circle cx="100" cy="100" r="100"/>
      <g>
        <path class="cls-2" d="M32.94,88.11c3.44,1.57,4.29,3.55,4.92,7.21.58,3.38.7,5.95-2.69,7.28,1.07.87,2.39.94,3.2,1.84,1.36,1.51,1.81,3.56,1.93,5.54l.39,6.25c-.05,2.13-1.34,3.76-3.27,4.37s-3.8.85-5.8,1.08l-10.19,1.18c-.2.02-.39-.03-.43-.13l-.18-.44v-2.15s-.48-3.55-.48-3.55c-.19-1.41-.29-2.67-.36-4.1-.04-.81-.65-1.68-.32-2.61.2-.58-.22-1.07-.28-1.54l-.7-6.25c-.07-.59.16-.87-.23-1.52l-.09-1.98c-.49-1-.23-1.96-.39-3-.2-1.24-.41-2.34-.39-3.65.02-.87-.55-1.87-.35-2.65,1.33-.58,2.71-.06,4.02-.41l1.6-.42c1.22-.32,7.07-.75,8.41-.48.6.12,1.15.2,1.69.12ZM27.42,100.76c.02.25.19.44.34.5.6.22,2.04-.1,2.13-1.24.13-1.72-.15-3.39-.28-5.08-.38-.24-.59-.47-.77-.8-.03-.06-.04-.17-.03-.33l-2.26.13c.38,2.36.67,4.56.87,6.83ZM28.95,115.48c-.01.13-.06.29-.03.35.14.25,2.28.15,2.63-.85.44-1.24.06-2.67-.15-3.95l-.57-3.48c-.04-.23-.2-.46-.34-.58-.12-.1-.36-.14-.6.04-.44-.49-1.25-.46-1.78-.26-.06,1.15.24,1.98.33,2.97l.24,2.62c.04.41.14.64-.08.95.41.59.41,1.4.34,2.18Z"/>
        <path class="cls-2" d="M153.91,88.53c.29.67-.04,1.41-.12,2.15l-.99,9.35-.66,5.05-.38,3.24-.43,4-.43,4.17c.11.17.45.27.59.27-.18.15-.27.45-.08.52.86.31,1.6-.15,1.8-.99l.38-1.6c-.02-1.13.36-2.14.41-3.21.1-2.02.29-3.88.54-5.89l.25-1.98.4-3.82.42-3.39.39-3.66c.13-1.21.06-2.55.59-3.67.23-.49.91-.18,1.25-.12l2.06.37c1.07,0,1.94-.01,2.91.34l1.77.11c.12-.08.58-.03.56.18l-.38,4.65-1.31,11.51-.33,3.14c-.29,2.73-.46,5.41-1.17,8.08-.62,2.33-2.17,4.3-4.49,5.16s-4.77.74-7.12.44c-1.54-.2-2.7-.87-3.99-1.43-.1-.74-.98-.46-2.25-2.24l-1.15-1.62-.48-1.54c-.32-2.86.1-4.53.36-6.83l.36-3.21,1.38-12.69c.11-1.03.17-1.96.31-3l.35-2.61,2.41.04.82.36c1.24-.02,2.41-.13,3.61.15.66.15,1.23.39,1.88.22Z"/>
        <path class="cls-2" d="M55.24,85.37c.68.03,1.51.35,2.16.62,2.83,1.18,4.52,3.54,5.04,6.5.18,1.04.24,2.04.32,3.11l.46,6.38.55,9.56c.19,3.27-1.54,6.1-4.46,7.66s-6.42,1.68-9.62.91l-1.86-.77c.07-.17,0-.48-.15-.55-.11-.05-.4-.07-.54-.18l-1.1-.85-.93-.94c-1.07-1.46-1.83-5.23-1.72-7.13.08-1.37-.13-2.67-.23-4.01l-.36-5.03c-.06-.87-.11-1.76-.17-2.62l-.24-3.82c-.18-2.89,1.26-5.69,3.71-7.13.57-.33,2.83-1.28,2.93-1.27.57.02,1.15-.31,1.64-.39,1.55-.26,3.1-.11,4.57-.04ZM52.98,114.32c.27.54.78.47,1.3.3.48-.16.79-.72.75-1.3l-.18-2.43-.29-4.76c-.43-2.97-.17-5.91-.43-8.82-.15-1.67-.32-3.23-.35-4.87-.01-.77-.8-1.38-1.4-1.42-2.06-.12-1.16,4.06-.99,6.6l.28,4.42c.1,1.57.16,3.07.27,4.62.16,2.24.53,4.37.37,6.61-.03.4.53.77.67,1.05Z"/>
        <path class="cls-2" d="M133.99,86.13c1.7.61,3.44,1.65,4.69,3.08,1.68,1.93,1.5,5.82,1.35,8.59l-.21,3.87-8.41-.52c-.32-.02-.44-.34-.51-.49l.51-6.8c.07-.88-.1-2.04-.52-2.34-.15-.1-.4-.1-.6-.05-1.79-.69-1.9,1.9-2.08,4.45l-1.14,16.56c-.05.68-.02,1.56.35,2.02.47.57,1.9.56,2.32-.16.21-.37.5-1.08.56-1.47.03-2.11.01-4.08.25-6.23l5.7.31,2.18.08c.16.14.9-.17.92.31.13,2.68-.34,5.44-1.11,7.99-1.07,3.52-5.06,5.46-8.9,5.47-2.43,0-4.67-.36-6.85-1.45-1.18-.58-2.48-1.31-2.9-2.3-.85-1.98-1.32-4.06-1.23-6.36l.15-3.96.44-6.99.43-5.14c.14-1.73.53-3.31,1.25-4.87.37-.8,1.09-1.21,1.57-1.82.95-1.19,2.19-1.5,3.57-1.96,2.33-.78,4.83-.86,7.18,0l1.05.17Z"/>
        <path class="cls-2" d="M71.75,118.32l-.26-12.22-.85-2.38-.43-1.73-1.2-3.83c-.15-.49-.17-1.2-.36-1.65-.57-1.29-1.11-2.49-1.29-3.84-.05-.33-1.35-3.78-2.01-5.99-.16-.54-.74-1.08-.41-1.72l6.43-.02c.34,0,.66.03.8-.33.2.33.6.29.95.39l1.82,8.8.5,3.07c.56-.58.24-.99.31-1.46l.77-5.18c.23-1.56.75-2.99.75-4.6,0-.33.24-.64.37-.81.31-.42,6.82-.14,7-.4.04-.06.03-.22-.02-.28.27.23.66.42,1.08.51-.14,1.22-.58,2.19-.87,3.28l-1.07,3.98c-.16.6-.35,1.02-.52,1.67l-3.14,11.88c-.52,1.99-.11,4.01-.1,6.03l.05,7.19-7.69.09c-.39,0-.52-.19-.59-.46Z"/>
        <path class="cls-2" d="M187.24,93.34c.05,0,.18.06.23.03l.02,2.05-.78,4.64-5.04-.76-2.29,13.77-2.08,12.89-8.14-1.26c-.35-.05-.55-.05-.62-.41l2.07-12.39.16-1.03,1.58-10.02.38-2.85c.04-.32-.67-.33-.91-.36l-1.66-.24c-.78-.11-1.9-.25-2.4-.6l.33-1.84.57-4.3c.93-.3,1.79-.12,2.73.03l5.59.87,1.51.54,2.27.14c.54.03.87.43,1.5.33.7-.12,1.41-.02,1.97.42.86-.18,1.55-.05,2.27.3l.74.04Z"/>
        <path class="cls-3" d="M70.83,131.4c1.32-1.61,3.75-2.23,5.34-.96.4.32.43,1.18,1.41.92-.78,2.15-2.45,6.57-1.24,7.18.93.47,2.14-.42,2.27-1.45.07-.56.69-.85.73-1.26l.47-4.23c.06-.53.13-1.27.62-1.58s1.3,0,1.73.21l-.43,3.37,1.99-3.91c.29-.56,1.71-.26,2.18.1l-1.11,2.6c-.13.3-.13.61.02.79.18.23.5.35.83.26.77-.19,1.27-.85,1.46-1.6.54-2.13,1.18-4.12,2.14-6.1.65-.07,1.3.1,1.85.5l-1.62,4.47c.94-1.04,2.02-1.61,3.36-1.14.96.34,2.08,1.36,1.99,2.61-.11,1.64-.65,3.16-1.48,4.48-.88,1.41-2.21,2.08-3.86,1.93-1.18-.11-2.35-.59-2.77-1.77-.34-.96-.23-1.95-.05-3.04-1.46.8-2.99.85-3.52-.6-1.09,1.69-1.66,3.77-1.86,5.8-.62.47-1.93.34-2.39-.51-.69.89-1.62,1.6-2.89,1.58-.59,0-1.06-.38-1.31-.99-.75.99-1.67,1.74-2.95,2-1.45.3-2.79-.63-3.02-2.17-.38-2.6.36-5.34,2.11-7.47ZM89.42,137.35c2.38-.03,3.84-4.51,3.39-6.67-.13-.62-1.33-.11-1.69.2-.9.77-1.41,2.02-2.02,3.03-.37.62-.72.83-.73,1.78,0,.64,0,1.67,1.05,1.66ZM74.67,133.88c-.62.08-1.14-.21-1.05-.42.41-.61,1.2-1.81.53-2.38-.47-.4-1.38.46-1.64.9-1.67,2.83-2.43,7.8-1.05,7.77s2.8-3.76,3.21-5.86Z"/>
        <path class="cls-2" d="M103.51,79.8c.34.28.79.56,1.02.96.12.21.06.54.4.81,1.2.93,1.61,2.53.76,3.2-.48.38-2.32-.33-2.79-.78l-.81-.77-2.56-2.69c-.33-.34-.56-.62-.86-.98l-3.37-4.07-1.99-2.68c-.91-1.22-1.78-2.36-2.55-3.71-.56-.99-1.41-1.84-1.85-2.96-.21-.54-.55-.82-.85-1.35l-1.6-2.82c-.9-1.59-1.49-3.22-1.92-5.01s1.09-1.85,2.06-2.61c.52-.06,1,.21,1.3.77l2.22,4.19,2.41,4.64c1.71,3.3,3.48,6.42,5.67,9.45l.05.55.5.22,2.09,2.6c.87,1.08,1.64,2.18,2.66,3.03Z"/>
        <path class="cls-2" d="M12.71,84.04c.48.08.41-.59.57-.79.41-.53,1.43-.2,1.87-.36,1.03-.38,1.91-.26,2.87-.46,1.45-.3,2.74-.33,4.26-.39.48-.02,1.15-.4,1.76-.47l2.84-.34c1.67-.2,3.15-.36,4.87-.39.42,0,1.02-.41,1.57-.45,1.1-.08,2.15-.23,3.23-.37,1.17-.15,2.25-.23,3.42-.4l2.24-.32c2.62-.38,5.15-.58,7.78-.41.37-.42.96-.38,1.46-.41l6.96-.54,6.45-.39c3.28-.2,6.45-.32,9.74-.25l1.2-.26,4.91-.1,7.78-.07c.15,0,.31-.06.38-.12.05-.04.08-.13.13-.19l.86.37c.3.44.12,1.03-.05,1.52l-19.5.57-19.44,1.16-4.22.43-2.87.3-25.89,3.18c-1.17.14-2.17.11-3.28.41-.69.19-1.37-.04-1.88-.44Z"/>
        <path class="cls-2" d="M191.17,84.92c.25.14.59.04.68.17.1.15.04,1.04-.24,1.25-.17.13-.41.18-.73.13l-26.11-3.78-9.84-1.23-12.95-1.3-13.07-.76-5.81-.26c-2.78-.13-5.46-.46-8.23-.28-.17.01-.31-.4-.35-.43.03-.35,0-.69.11-1.14,3.18-.02,6.24-.18,9.38.23l5.64.24,12.54.73,2.01.33c2.1-.08,3.98.18,6.02.4l6.92.76c.67.07,1.15.24,1.78.46l2.4.11c.56.02,1.15.57,1.79.33.74-.28,1.31.34,1.79.36,1.48.06,2.69,0,4.1.37l1.61.43c.89.24,1.98-.25,2.76.55,1.41-.23,3.87.13,4.95.65l2.11.11c.56.03.98.54,1.63.34.53-.16.85.33,1.27.35l2.52.14c.73.3,1.25.22,2.07.33l3.27.4Z"/>
        <path class="cls-2" d="M103.16,95.34c.75.28,1.32.77,2.07,1.19,1.7.97,2.55,2.85,2.67,4.86.17,2.92-1.88,5.29-4.68,6.19-1.81.59-3.8.18-5.3-.92l-.73-.83c-2.41-2.29-2.4-5.77-.28-8.22,1.56-1.79,3.71-2.68,6.09-2.04.09.02.21-.08.16-.22Z"/>
        <path class="cls-3" d="M128.87,137.36c-.39-2.51,1.12-6.54,2.99-7.14.23-.07.63.35.89.36,1,.02,1.87-.08,2.71.59,1.99,1.59,1.42,6.68,0,9.37-.68,1.27-1.98,1.72-3.29,1.29s-2.23-1.47-2.89-2.85c-.73,1.11-1.9,1.6-3.18,1.39-1.09-.18-2.09-.99-2.57-2.2-.63-1.63.07-3.19.23-5.13-1.65,1.96-2.34,4.25-2.97,6.6-.8,0-2.17-.47-2.39-1.38.09-3.1.83-11.54,1.87-12.68.36-.39,1.77-.1,1.97.39.33.86-.39,1.85-.53,2.7l-1.09,6.87,1.76-3c.52-.88,1.03-1.9,2.03-2.38.55-.26,1.92.17,2.16.7.56,1.23-2.57,7.81.03,8.46,1.09.27,1.42-1.02,2.26-1.95ZM132.42,140.41c2.01-.24,2.93-5.11,2.55-8.14-.05-.42-.64-.59-.89-.56-1.26.16-2.2,2.63-2.72,4.38-.06.17-.61.04-.76-.04-.43,2.23.32,4.53,1.82,4.36Z"/>
        <path class="cls-3" d="M116.01,131.69c-.35-.06-.88-.91-3.4.35,2.53,1.03,5.03,2.67,4.78,5.2-.09.96-.73,1.69-1.71,1.88-2.08.4-4.28-.47-5.56-2.14-.53-.68-.48-1.4-.05-2.07.31-.48.69-.85,1.23-.81.38.03,1.32.44,1.09.87l-1.02,1.92c.81,1.04,2.52,1.34,3.64.55.77-.55.79-1.68.24-2.47-.78-1.12-2.36-2.24-3.76-2.11-.8.68-1.59,1.37-2.8,1.03-.65-.18-1.18-.39-1.51-1.26-1.07,1.73-1.64,3.4-1.69,5.32-1.19-.04-2.25-.21-2.43-1.15-1.1,1.8-3.17,2.56-5.26,1.99-1.16-.32-2.38-1.19-2.43-2.55-.08-2.52,1.02-5.05,2.83-6.7,1.09-.99,2.93-.87,3.51.45.46,1.04.13,2.32-.31,3.29-.72,1.59-2.64,2-4,1.03-.32.7-.39,1.22-.45,1.81-.08.8.42,1.41,1.27,1.5,2.03.22,3.88-1.24,4.24-3.29.41,0,.71.15,1.05.34l.27-3.68c.03-.46.12-1.15.57-1.41.49-.29,1.29-.02,1.76.3l-.32,3.06c1.53-1.84.97-4.02,3.03-3.7,2.39.37-.44,2.07.03,3.51.14.44.82.48,1.21.32.33-.14.89-.4.78-1.03-.03-.19-.2-.45-.11-.63.35-.71,4.46-1.54,6.54-1.95.49-.1,1.27.52,1.02.99-.36.67-1.43,1.37-2.27,1.23ZM99.91,129.66c-1.22.99-1.88,2.61-2.14,3.99,1.41,1.05,2.78-2.02,2.14-3.99Z"/>
        <path class="cls-3" d="M57.51,144.52c.66-5.05,1.29-9.91,2.25-14.84.11-.58.27-1.02.72-1.2.36-.14,1.43,0,1.36.46l-.84,5.22c2-.44,3.6-1.86,4.24-3.62.41-1.14.07-2.38-1.15-2.76-2.23-.71-4.91-.03-6.25,1.99-.35.53-.37,1.51-1.19,1.61-.55.06-1.23-.31-1.58-.77,1.88-4.26,6.8-5.48,10.53-3.33,1.8,1.04,2.3,3.13,1.19,4.81-.6.91-1.38,1.54-2.46,2.21,1.21.56,2.48,1.07,2.97,2.37,1.34,3.63-3.93,7.57-7.75,8.71-.11.57-.3.91-.7,1.03-.69.2-2.36-.15-2.38-.8-.02-.56.13-1,1.04-1.09ZM65.31,137.47c.06-.92-.44-1.67-1.31-1.94-1.14-.36-2.31-.26-3.37.28l-.99,8.12c2.89-1.15,5.45-3.44,5.66-6.46Z"/>
        <path class="cls-2" d="M118.24,55.85c.88.42,1.78.85,2.24,1.9.29.67.17,1.54-.25,2.2l-4.57,7.1-.77,1.18-3.38,5.36-4.28,6.37c-.37.55-.76,1.21-1.42,1.39-.29-.17-.7-.48-1.03-.52.27-.4.22-.76-.06-.95l.79-1.06c.54-.73,1.01-1.89.42-2.71-.78-1.08-1.12-2.23-.55-3.46,1.37.7,1.6,1.4,2.01,1.09-.15.23.04.51.22.62s.48.2.63-.03l2.16-3.3,6.01-9.24,2.68-4.19c-.3-.38-.75-.37-1.04-.47-.16-.31-.85-.85-1.25-.46-2.11,2.07-3.36,5.05-4.09,4.97-.07,0-.04-.26,0-.32l.18-.28c1.15-1.78,2.16-3.59,3.54-5.14l1.82-.07Z"/>
        <path class="cls-3" d="M142.94,144.28c-1.68.59-3.05-.54-3.85-2.11l-.7,5.71c-.83-.29-1.59-.71-2.01-1.36l1.16-7.88c.36-2.45.13-5.05,1.2-7.34.42-.49,1.87.43,1.68,1.13.92-.94,1.8-1.38,2.91-1.03.88.28,1.78.99,2.02,2.13.75,3.53-.07,9.92-2.41,10.74ZM141.42,142.59c2.03-.34,2.78-5.97,2.65-8.94-.02-.48-.46-.9-.79-.96-1.32-.24-2.51,3.07-2.91,5.1-.19-.06-.53-.14-.69-.04-.49,2.28.26,5.08,1.74,4.83Z"/>
        <path class="cls-3" d="M88.98,76.55c-.05.06-.08.15-.13.19-.07.06-.23.12-.38.12l-7.78.07-4.91.1-1.2.26c-3.29-.08-6.46.05-9.74.25l-6.45.39-6.96.54c-.5.04-1.09,0-1.46.41-2.63-.17-5.16.03-7.78.41l-2.24.32c-1.17.17-2.25.25-3.42.4-1.08.14-2.13.29-3.23.37-.55.04-1.14.44-1.57.45-1.71.03-3.19.19-4.87.39l-2.84.34c-.6.07-1.27.45-1.76.47-1.52.07-2.81.1-4.26.39-.96.2-1.84.08-2.87.46-.44.16-1.45-.17-1.87.36-.16.2-.09.87-.57.79-.55.27-.62-.35-.48-1.47,1.34-.08,2.53-.33,3.85-.5l16.84-2.15c6.57-.84,12.88-1.64,19.48-2.06l13.92-.89,4.24-.2,10.19-.31,7.12-.1c.48,0,.66,0,1.11.2Z"/>
        <path class="cls-3" d="M32.94,88.11c-.54.09-1.09,0-1.69-.12-1.34-.27-7.19.15-8.41.48l-1.6.42c-1.31.35-2.69-.18-4.02.41-.2.78.37,1.78.35,2.65-.02,1.32.19,2.41.39,3.65.16,1.04-.1,2,.39,3l.09,1.98c.39.65.16.93.23,1.52l.7,6.25c.05.47.48.96.28,1.54-.33.93.29,1.8.32,2.61.07,1.44.17,2.69.36,4.1l.47,3.55v2.15c-.35.16-.75.15-.79-.17l-3.83-33.43,10.3-1.15c2.26-.25,4.48-.25,6.46.56Z"/>
        <path class="cls-3" d="M153.91,88.53c-.65.17-1.22-.07-1.88-.22-1.2-.28-2.37-.17-3.61-.15l-.82-.36-2.41-.04-.35,2.61c-.14,1.04-.19,1.96-.31,3l-1.38,12.69-.36,3.21c-.26,2.3-.68,3.98-.36,6.83l.48,1.54,1.15,1.62c1.27,1.78,2.15,1.5,2.25,2.24-3.07-1.35-5.25-4.19-4.92-7.79l.71-7.73,2.16-18.94,6.57.73c1.1.12,2.23.12,3.06.76Z"/>
        <path class="cls-3" d="M191.17,84.92l-3.27-.4c-.82-.11-1.34-.03-2.07-.33l-2.52-.14c-.42-.02-.74-.51-1.27-.35-.65.19-1.07-.32-1.63-.34l-2.11-.11c-1.08-.52-3.54-.89-4.95-.65-.78-.8-1.87-.31-2.76-.55l-1.61-.43c-1.4-.38-2.61-.31-4.1-.37-.49-.02-1.06-.65-1.79-.36-.63.24-1.23-.3-1.79-.33l-2.4-.11c-.63-.22-1.1-.39-1.78-.46l-6.92-.76c-2.04-.22-3.92-.48-6.02-.4l-2.01-.33-12.54-.73-5.64-.24c-3.14-.42-6.19-.26-9.38-.23-.11.45-.07.79-.11,1.14-.32.03-.93-.02-1-.39-.1-.49,0-.95.04-1.48l5.62.21,8.73.49,2.24.16,12.46.73,3.22.27,7.04.71,13.54,1.74,24.09,3.62c.36.05.5.34.67.43Z"/>
        <path class="cls-3" d="M55.24,85.37c-1.47-.07-3.02-.22-4.57.04-.49.08-1.07.42-1.64.39-.1,0-2.36.94-2.93,1.27-2.46,1.43-3.9,4.23-3.71,7.13l.24,3.82c.05.85.11,1.75.17,2.62l.36,5.03c.1,1.34.31,2.64.23,4.01-.11,1.9.65,5.67,1.72,7.13l.93.94,1.1.85c.14.11.43.13.54.18.15.06.22.38.15.55-3.38-1.39-4.94-4.27-5.19-8.05l-1.14-17.48c-.21-3.28,1.54-6.1,4.36-7.62,2.66-1.43,5.63-1.71,8.62-1.24.36.06.69.02.76.43Z"/>
        <path class="cls-3" d="M133.99,86.13l-1.05-.17c-2.36-.87-4.86-.78-7.18,0-1.37.46-2.62.77-3.57,1.96-.49.61-1.2,1.02-1.57,1.82-.72,1.56-1.1,3.14-1.25,4.87l-.43,5.14-.44,6.99-.15,3.96c-.09,2.3.38,4.38,1.23,6.36-1.39-.83-2.01-3.05-2.1-4.95-.14-3.27.16-6.39.38-9.65l.42-6.25c.29-4.35.82-8.45,5.21-10.28,3.18-1.33,7.62-1.44,10.5.21Z"/>
        <path class="cls-3" d="M164.56,89.77l-1.77-.11c-.97-.36-1.84-.35-2.91-.34l-2.06-.37c-.33-.06-1.01-.37-1.25.12-.53,1.12-.46,2.46-.59,3.67l-.39,3.66-.42,3.39-.4,3.82-.25,1.98c-.25,2.01-.44,3.87-.54,5.89-.05,1.06-.43,2.08-.41,3.21l-.38,1.6c-.2.83-.94,1.3-1.8.99-.19-.07-.1-.37.08-.52.4-.1.69-.42.77-.9l.75-5.08.95-8.93,1.51-13.54,8.07.86c.49.05.86.17,1.03.59Z"/>
        <path class="cls-3" d="M72.17,84.61c-.13.36-.46.33-.8.33l-6.43.02c-.33.64.25,1.18.41,1.72.65,2.2,1.96,5.66,2.01,5.99.19,1.35.73,2.55,1.29,3.84.19.44.21,1.16.36,1.65l1.2,3.83.43,1.73.85,2.38.26,12.22c-.14,0-.52.09-.67-.01-.19-.12-.2-.45-.22-.73l-.24-11.32-6.68-21.66,8.22.02Z"/>
        <path class="cls-3" d="M168.54,124.3c-.28,0-.59,0-.96-.22l4.24-26.43c.24.03.95.04.91.36l-.38,2.85-1.58,10.02-.16,1.03-2.07,12.39Z"/>
        <path class="cls-3" d="M86.62,54.35c-.97.76-2.51.74-2.06,2.61s1.02,3.41,1.92,5.01l1.6,2.82c.3.53.64.81.85,1.35.43,1.12,1.28,1.97,1.85,2.96.77,1.35,1.64,2.49,2.55,3.71l1.99,2.68,3.37,4.07c.29.36.53.63.86.98l2.56,2.69c-1.52-.84-2.63-2.11-3.85-3.47-5.07-5.67-9.37-11.87-12.92-18.61-.99-1.88-1.63-3.68-1.93-5.8,1.12-1.07,2.96-1.86,3.22-.99Z"/>
        <path class="cls-3" d="M107.39,73.74l8.34-12.85,2.32-3.75c.29.1.74.09,1.04.47l-2.68,4.19-6.01,9.24-2.16,3.3c-.15.23-.46.13-.63.03s-.37-.38-.22-.62Z"/>
        <path class="cls-3" d="M187.24,93.34l-.74-.04c-.73-.35-1.41-.48-2.27-.3-.56-.43-1.27-.53-1.97-.42-.64.11-.97-.29-1.5-.33l-2.27-.14-1.51-.54-5.59-.87c-.94-.15-1.8-.33-2.73-.03l-.57,4.3-.33,1.84c-.22-.15-.91-.05-.96-.39l1.04-6.59,3.42.49,15.37,2.46c.34.05.54.35.62.54Z"/>
        <path class="cls-3" d="M84.61,84.15c.05.05.06.21.02.28-.18.26-6.69-.01-7,.4-.12.17-.37.48-.37.81,0,1.6-.51,3.04-.75,4.6l-.77,5.18c-.07.47.25.88-.31,1.46l-.5-3.07c.14-1.68.57-3.32.88-5.05l.78-4.4c2.72-.2,5.49-.29,8.02-.21Z"/>
        <path class="cls-3" d="M103.16,95.34c.05.14-.07.25-.16.22-2.38-.64-4.54.25-6.09,2.04-2.12,2.44-2.14,5.93.28,8.22l.73.83c-2.16-1.08-3.58-3.27-3.48-5.71s1.54-4.59,3.86-5.6c1.55-.67,3.4-.56,4.87,0Z"/>
        <path class="cls-3" d="M138.4,107.04l-2.18-.08-5.7-.31c-.24,2.15-.22,4.12-.25,6.23-.06.39-.35,1.1-.56,1.47-.41.72-1.85.73-2.32.16.93.08,1.6-.65,1.68-1.69l.52-6.7,8.22.51c.4.03.46.26.59.41Z"/>
        <path class="cls-2" d="M96.93,88.97c.44-.3.29-.9.43-1.37.58-1.92,1.94-3.28,3.43-4.52.68.17,1.53.86,1.85,1.47-1.88,1.24-3.32,2.78-4.44,4.64-.12.2-.7.41-.83.26-.1-.12-.16-.53-.44-.49Z"/>
        <path class="cls-3" d="M118.24,55.85l-1.82.07c-.17,0-.32-.2-.55.08-1.9,2.22-3.43,4.6-5.03,7.06l-5.09,7.85c-.1-.07-.21-.11-.32-.13l8.64-13.56c.42-.66.99-1.38,1.65-1.69.87-.41,1.87.02,2.52.32Z"/>
        <path class="cls-3" d="M130.89,100.67l-.94-.1.42-5.98c.08-1.09.08-2.12-.1-3.12.2-.05.46-.05.6.05.42.29.59,1.46.52,2.34l-.51,6.8Z"/>
        <path class="cls-3" d="M105.38,72.65c-.57,1.23-.23,2.38.55,3.46.59.81.13,1.98-.42,2.71l-.79,1.06c-.18.24-.21.53-.19.87-.23-.4-.68-.68-1.02-.96l1.17-1.58c1.85-2.48-1.58-3.52-.13-5.99l.82.42Z"/>
        <path class="cls-3" d="M100.79,83.08c-1.49,1.24-2.85,2.6-3.43,4.52-.14.46.02,1.06-.43,1.37l-.64.09c-.75-2.92,3.58-6.9,4.01-6.46l.48.49Z"/>
        <path class="cls-3" d="M187.49,95.42l-.02-2.05c.53-.23.58.81.02,2.05Z"/>
        <path class="cls-1" d="M29.89,107.02c.48,2.44,1.57,7.39.17,8.03l-1.11.43c.07-.78.06-1.59-.34-2.18.22-.3.12-.54.08-.95l-.24-2.62c-.09-.99-.39-1.83-.33-2.97.53-.2,1.33-.23,1.78.26Z"/>
        <path class="cls-1" d="M28.85,94.14l-.26-.16c-.14-.07-.35.02-.35.11,0-.09,1.32,3,.59,6.05-.12.49-1.03.62-1.4.62-.2-2.27-.49-4.48-.87-6.83l2.26-.13c0,.16,0,.27.03.33Z"/>
        <path class="cls-3" d="M28.95,115.48l1.11-.43c1.4-.63.31-5.59-.17-8.03.24-.18.48-.13.6-.04.14.12.3.35.34.58l.57,3.48c.21,1.28.58,2.7.15,3.95-.35,1-2.49,1.1-2.63.85-.03-.06.02-.22.03-.35Z"/>
        <path class="cls-3" d="M28.85,94.14c.17.33.39.57.77.8.13,1.69.41,3.35.28,5.08-.09,1.15-1.53,1.46-2.13,1.24-.16-.06-.32-.25-.34-.5.36,0,1.28-.14,1.4-.62.73-3.06-.58-6.14-.59-6.05,0-.09.21-.18.35-.11l.26.16Z"/>
        <path class="cls-1" d="M52.38,91.01c.42.86.48,1.75.54,2.8l1.14,18.67c.06.92-.18,1.56-1.08,1.83-.14-.27-.7-.65-.67-1.05.16-2.23-.21-4.36-.37-6.61-.11-1.56-.17-3.05-.27-4.62l-.28-4.42c-.16-2.54-1.06-6.72.99-6.6Z"/>
        <path class="cls-3" d="M52.98,114.32c.9-.27,1.13-.91,1.08-1.83l-1.14-18.67c-.06-1.06-.12-1.95-.54-2.8.6.03,1.39.64,1.4,1.42.02,1.64.2,3.2.35,4.87.26,2.92,0,5.85.43,8.82l.29,4.76.18,2.43c.04.58-.27,1.14-.75,1.3-.53.17-1.03.24-1.3-.3Z"/>
        <path class="cls-1" d="M74.67,133.88c-.41,2.1-1.84,5.83-3.21,5.86s-.62-4.94,1.05-7.77c.26-.44,1.17-1.31,1.64-.9.67.58-.12,1.78-.53,2.38-.09.21.44.51,1.05.42Z"/>
        <path class="cls-1" d="M89.42,137.35c-1.05.01-1.05-1.02-1.05-1.66.01-.95.36-1.16.73-1.78.61-1.01,1.12-2.26,2.02-3.03.36-.31,1.56-.82,1.69-.2.45,2.17-1,6.64-3.39,6.67Z"/>
        <path class="cls-1" d="M132.42,140.41c-1.5.18-2.26-2.12-1.82-4.36.16.08.7.21.76.04.53-1.75,1.46-4.22,2.72-4.38.25-.03.84.14.89.56.37,3.03-.55,7.91-2.55,8.14Z"/>
        <path class="cls-1" d="M99.91,129.66c.64,1.97-.73,5.04-2.14,3.99.26-1.37.92-3,2.14-3.99Z"/>
        <path class="cls-1" d="M65.31,137.47c-.21,3.03-2.77,5.31-5.66,6.46l.99-8.12c1.06-.53,2.23-.63,3.37-.28.86.27,1.37,1.02,1.31,1.94Z"/>
        <path class="cls-1" d="M141.42,142.59c-1.49.25-2.23-2.55-1.74-4.83.16-.11.5-.02.69.04.41-2.03,1.59-5.34,2.91-5.1.33.06.77.48.79.96.13,2.97-.63,8.59-2.65,8.94Z"/>
      </g>
    </g>
  </g>
</svg>
