<?xml version="1.0" encoding="UTF-8"?>
<svg id="Capa_2" data-name="Capa 2" xmlns="http://www.w3.org/2000/svg" viewBox="0 0 200 200">
  <defs>
    <style>
      .cls-1 {
        fill: #539dd6;
      }

      .cls-2 {
        fill: #fff;
      }
    </style>
  </defs>
  <g id="Capa_1-2" data-name="Capa 1">
    <g id="BYD">
      <circle class="cls-1" cx="100" cy="100" r="100"/>
      <g>
        <path class="cls-2" d="M56.06,103.57l-3.06-.08-7.71-.04-24.47-.08c-.83,0-1.53.36-2.33-.01-.05-1.94-.26-3.94-.04-5.96l28.33-.04,1.54-.22,6,.09c2.29.03,4.48-.1,5.15-2.36.36-1.21-.13-2.41-1.15-3.22-.93-.74-2.1-.71-3.26-.76l-3.55-.15-8.26-.02-22.43-.05-2.35.07c-.16-2.02-.15-3.99.01-6.04l31.31-.05,5.76.07c2.79.03,5.53.8,7.65,2.57,4.09,3.41,4.41,9.38.51,13.08,2.01,2.06,3.19,4.77,2.67,7.6-.72,3.91-3.79,6.85-7.64,7.61l-2.92.47c-1.55.25-3.04-.27-4.62.21H18.78c-.37,0-.4-.68-.4-.91l.02-5.37,1.12.09,33.83-.06c1.66,0,3.26-.03,4.62-.71,1.66-.84,2.17-2.91,1.09-4.32-.68-.89-1.85-1.37-3-1.4Z"/>
        <path class="cls-2" d="M133.63,110.05l23.47-.02,3.02-.15c1.07-.05,2.09-.27,3.18-.11,1.31.19,4.67-.56,6.26-1.28,3.67-1.68,5.83-5.67,5.06-9.64-.84-4.39-4.58-7.2-8.9-7.66l-1.86-.19-5.33-.1-7.41-.16-9.73-.02-7.67.04c-.45-1.65.28-3.64-.24-6.05l20.81-.04,5.08.13,7.93.35c3.56.52,6.76,1.86,9.39,4.23,3.44,3.11,5.18,7.27,4.93,11.93-.23,4.09-2.13,7.62-5.2,10.29-3.6,3.13-7.73,4.05-12.35,4.27l-4.14.2-5.05-.05-1.9.23h-19.21c-.39.01-.14-.72-.14-.93v-5.26Z"/>
        <path class="cls-2" d="M105.8,106.07v10.15s-8.34.02-8.34.02v-18.05s12.42,0,12.42,0c.54,0,1.07.26,1.61-.07l4.43.02c1.16,0,2.23-.4,2.9-1.31.57-1.32.66-2.72.56-4.17l-.06-7.97,7.04.02.03,13.1-.41,2.08c-.47,2.36-2.37,3.77-4.71,4.12-.65.1-1.24.36-1.98.18-.62-.15-1.27.22-1.89.22l-11.43.02c-.41.26-.17,1.09-.17,1.63Z"/>
        <path class="cls-2" d="M94.49,100.92l-.02,3.43-4.2.1-7.48-.03-2.97-.22c-1.66-.12-3.4-.74-4.5-1.97s-1.37-2.88-1.56-4.43c-.06-.48-.29-.89.02-1.39l-.1-11.72h7.08c-.17,3.06-.23,5.82,0,8.73-.1,1.28-.1,2.71.74,3.73.7.85,2.09.91,3.14.96l2.86.14,4.92-.04c.68,0,1.32.23,2.01-.3.21.98.07,1.8.06,2.74Z"/>
      </g>
    </g>
  </g>
</svg>
