<?xml version="1.0" encoding="UTF-8"?>
<svg id="Capa_2" data-name="Capa 2" xmlns="http://www.w3.org/2000/svg" viewBox="0 0 200 200">
  <defs>
    <style>
      .cls-1 {
        fill: #2c4060;
      }

      .cls-2 {
        fill: #fff;
      }
    </style>
  </defs>
  <g id="Capa_1-2" data-name="Capa 1">
    <g id="Crum_Bread" data-name="Crum Bread">
      <circle class="cls-1" cx="100" cy="100" r="100"/>
      <g>
        <path class="cls-2" d="M192.84,92.66v23.08s-6.63.02-6.63.02l-.02-1.38c-1.16,1.24-2.63,1.61-4.29,1.68-4.22.18-7.73-2.7-8.44-6.85-.6-3.52.29-7.21,3.28-9.32,2.07-1.47,4.71-1.87,7.14-1.17.75.22,1.34.59,1.98,1.13v-7.22s6.54,0,6.54,0c.18,0,.31,0,.45.04ZM183.19,110.58c1.14,0,2.06-.61,2.48-1.65s.43-2.28.04-3.33-1.36-1.71-2.48-1.72-2.13.64-2.53,1.74c-.38,1.05-.37,2.26.04,3.29s1.32,1.66,2.46,1.67Z"/>
        <path class="cls-2" d="M7.16,107.25v-.13c.14-.17.1-.39.12-.63.22-3.86,3.1-6.75,6.78-7.7,1.97-.51,4.01-.55,5.99-.1,2.57.58,4.81,2.25,5.64,4.76l-5.43,2.67c-.21-.42-.39-.74-.64-1.07-1.01-1.33-2.93-1.58-4.21-.49-.54.46-.84,1.11-.95,1.8-.18,1.19-.03,2.63.85,3.45,1.24,1.17,3.21.99,4.27-.33.28-.35.48-.7.68-1.13l5.45,2.67c-.98,2.79-3.54,4.45-6.37,4.89-3.09.48-6.44-.08-8.91-2.04-1.83-1.44-2.97-3.53-3.13-5.86-.02-.29.02-.54-.12-.76Z"/>
        <path class="cls-2" d="M81.52,107v8.76s-7.05,0-7.05,0v-8.97c-.07-1.33-.52-2.49-1.91-2.48-1.51.01-2.16,1.29-2.2,2.76v8.69s-7.05,0-7.05,0v-17.06s6.69,0,6.69,0l.02,1.58c.64-.64,1.34-1.07,2.16-1.41,2.74-1.04,6.32-.44,8.02,2.09,2.03-2.43,5.36-3.15,8.32-2.14s4.06,3.65,4.16,6.56v10.37s-7.04,0-7.04,0v-8.88c-.04-1.29-.5-2.51-1.82-2.57-1.5-.07-2.24,1.19-2.29,2.69Z"/>
        <path class="cls-2" d="M113.45,104.34c2.42.94,3.94,2.62,4.02,5.23.1,3.21-2.21,5.06-5.15,5.76-1.18.26-2.32.41-3.56.41h-12.81s0-21.82,0-21.82h12.17c1.38.01,2.67.19,3.98.55,2.59.78,4.51,2.72,4.33,5.52-.07,1.11-.48,2.11-1.2,2.95-.49.57-1.06.98-1.77,1.39ZM109.02,100.61c-.03-.66-.4-1.16-1-1.35-.36-.13-.74-.17-1.13-.19h-3.69s0,3.24,0,3.24h3.57c1.21,0,2.31-.41,2.26-1.7ZM110.05,108.76c-.04-.59-.33-1.06-.86-1.29-.38-.19-.79-.25-1.23-.28h-4.76s0,3.42,0,3.42h4.51c.43,0,.84-.06,1.23-.18.75-.23,1.18-.87,1.12-1.67Z"/>
        <path class="cls-2" d="M60.19,98.7v17.06s-6.7,0-6.7,0v-1.58c-2.3,2.22-6.01,2.42-8.72.93-1.29-.71-2.17-1.88-2.69-3.23-.43-1.12-.55-2.24-.6-3.45v-9.74s7.05,0,7.05,0v8.54c.03.5.06.94.2,1.39.21.89.96,1.47,1.88,1.51s1.71-.41,2.1-1.23c.32-.59.39-1.23.43-1.92v-8.29s7.05,0,7.05,0Z"/>
        <path class="cls-2" d="M156.91,115.77c-2.69-.72-4.28-3.02-3.9-5.82.33-2.45,2.29-3.62,4.59-4.06.87-.17,1.72-.26,2.61-.26h3.36c-.11-.92-.78-1.63-1.73-1.84-1.92-.43-4.22.03-5.83,1.17l-2.24-4.63c.61-.39,1.22-.69,1.91-.94,2.53-.9,5.22-1.21,7.88-.87,2.94.37,5.61,1.72,6.58,4.64.33.98.5,1.96.5,3.03v9.57s-6.53,0-6.53,0l-.03-2.18c-.56,1.15-1.56,1.94-2.82,2.25-1.43.35-2.93.33-4.37-.05ZM163.61,110.15l.03-1.13h-2.17c-.46.01-.92.11-1.29.4-.45.35-.56.97-.36,1.51.17.48.67.79,1.23.87,1.15.15,2.31-.46,2.57-1.65Z"/>
        <path class="cls-2" d="M145.22,110.64c.72-.2,1.27-.61,1.87-1.02l3.68,3.7c-1.25,1.3-2.79,2.1-4.5,2.45-1.84.38-3.68.38-5.53.07-4.49-.82-7.86-4.15-7.75-8.85.05-2.35.96-4.5,2.71-6.09,1.04-.94,2.25-1.63,3.62-2.04,3.59-1.07,8.02-.4,10.61,2.43,1.95,2.12,2.34,4.77,2.01,7.57h-11.81c.68,2.01,3.23,2.31,5.08,1.78ZM145.47,105.47c-.27-1.44-1.41-2.31-2.81-2.29s-2.48.92-2.68,2.29h5.49Z"/>
        <path class="cls-2" d="M126.89,108.04v7.72s-7.05,0-7.05,0v-17.06s6.69,0,6.69,0l.02,1.84c1.38-1.58,3.48-2.17,5.51-2.15v6.22c-1.53-.21-2.97-.25-4.16.7-.36.31-.62.68-.76,1.12-.18.51-.24,1.01-.26,1.61Z"/>
        <path class="cls-2" d="M34.37,115.75h-7.05s0-17.06,0-17.06h6.7s.02,1.83.02,1.83c1.42-1.57,3.44-2.14,5.51-2.14v6.23c-1.69-.23-3.42-.25-4.55,1.1-.45.64-.58,1.37-.63,2.17v7.86Z"/>
        <path class="cls-2" d="M109.55,88.11c-.35.31-.79.37-1.21.44-.4.07-1-.19-1.25-.56-.3-.43-.81-.57-1.29-.39-.04.35-.14.72-.34.8-.3.12-.79-.38-1.09-.34-.41.05-.75.03-1.15-.07-1.42-.33-4.36-.29-5.77.09-.54.14-1.01.27-1.57.33-.88.09-1.7.42-2.54.64-.47.12-.88.29-1.3.52-.25.14-.5.16-.76.03-.55-.27-1,.05-1.56-.33-.38-.26-.83-.23-1.18.1-.94-.52-1.73-.08-2.61-.27-.13.17-.31.07-.45.07-1.8.09-2.94-1.06-4.1-1.01-.5.02-.85-.06-1.31-.23-.69-.25-1.57.1-2.2-.29-.28.24-.6.36-.96.35-.25,0-.44.09-.66.17l-1.37.52-1.69.69-1.14.67c-.36.12-.81.09-1.01.45l-.61,1.08c-.38.68-.95-.21-1.53.44l-.62.69c-.18.2-.39.34-.44.63-.06.38-.25.62-.52.88-.35.34-.3,1.15-.9,1.37l-.68.07-.98.77c-.07.05-.15.08-.21.09-.1.02-.15-.09-.23-.14-.39-.27-.86-.11-1.14.23-.46.56-.97.16-1.41.3-.18.05-.28.32-.4.42l-1.23.05.74-.67c.09-.08.33-.04.41-.15l.54-.72c.16-.21.49-.17.74-.2.37,0,.68-.14.86-.46l1.46-.95,8.3-6.01c.28-.21.7-.31,1.01-.37.27-.05.32-.11.53-.25.27-.18.69-.25,1-.35l.36-.11c1.37-.41,2.78-.51,4.2-.28l2.41.55c.72.17,1.41.36,2.15.42l2.61-.07c.8-.02,1.6.05,2.38.16.93.13,1.74-.05,2.64-.25l5.97-1.32c.99-.22,1.97-.09,2.96-.02l2.95.22c1.09.08,1.35-.69,2.32-.69.76,0,.98.84,1.38.93.86.2,2.02-.46,3.2.53.32.27.53-.29,1.02-.32.97-.04,1.21,1.09,2.2,1.03l1.26-.08c1-.06,1.99-.06,2.95.21l1.02.49c.42.2.89.02,1.26-.22l.76-.5c.5-.24,1.06-.17,1.46.2.13.12.24.2.42.28.28-.18.64-.31.85-.57.59-.73,1.01.02,1.81-.52,1.09-.74,1.83-.49,2.45-.83.18-.1.3.03.46.05.96.13,1.9.49,2.51,1.27l.85,1.34c.49.77,1.22.19,1.46.94.09.27.28.45.59.48,1.24.11,2.45.27,3.66.61,2.14.6,3.38,2.05,4.32,4,.26.54.44,1.08.52,1.69,0,.04.03.11.01.13-.03.05-.11.03-.18.04l-1.38.04c-.33-1.34-1.03-2.53-2.05-3.46-.79-.73-1.74-1.1-2.8-1.21-.68-.07-1.32-.26-2.02-.15.05.15.13.44.04.54-1.05.22-1.1-1.31-1.65-1.51-.15-.05-.28.18-.48.2-.09,0-.22-.07-.26-.18-.09-.23-.29-.29-.44-.45l-.43-.44-.27-.36-.24-.71c-.23-.26-.4-.61-.69-.81-.89-.62-2.68-.59-3.18.65l.35.32-.31.71c-.1.24-.31.29-.54.37-.29.1-.72.03-.79-.32-.03-.18.02-.4.05-.56l.02-.11s-.04-.06-.11-.07l-.74-.09c-.78-.1-.84.66-1.3.73-.49.07-.75-.5-1.04-.52-.18-.01-.34.2-.5.27l-.73-.33-.71.62c-.53.18-1.25.16-1.77-.06-.21-.2-.3-.58-.63-.63l-.47.23-.77-.31c-.23-.09-.47-.13-.72-.08-3.13.68-3.6-.55-4.33-.64-.4-.05-.34.46-.5.61-.24.21-1.24-.37-1.61-.85-.09-.12-.17-.41-.35-.38Z"/>
        <polygon class="cls-2" points="55.47 76.23 57.19 83.73 55.79 84.07 53.62 74.67 55.29 74.26 59.96 77.77 62.59 72.58 64.28 72.2 66.45 81.6 65.04 81.93 63.3 74.41 60.45 79.96 55.47 76.23"/>
        <path class="cls-2" d="M137.75,80.75l.7-2.97,6.29,1.48.32-1.39c.03-.13-.02-.25-.12-.34l-6.08-1.45.34-1.39,5.93,1.4c.95.2,1.59,1.11,1.36,2.07l-1.39,5.91-5.96-1.41c-.88-.21-1.48-1-1.38-1.93ZM144.01,82.37l.41-1.79-4.89-1.17-.34,1.51c-.04.17.09.32.26.36l4.56,1.09Z"/>
        <path class="cls-2" d="M76.7,75.14l6.41-.72-.17-1.46c-.02-.15-.17-.24-.33-.22l-6.1.67-.17-1.42,6.23-.7c.97-.04,1.73.66,1.84,1.62l.66,5.93-6.29.7c-.87,0-1.58-.59-1.76-1.43l-.33-2.98ZM78.89,78.09l4.59-.51-.22-1.82-4.99.55.2,1.58c.02.19.23.22.42.2Z"/>
        <path class="cls-2" d="M98.45,76.17c0,.12.06.34.2.34l6.24.27-.06,1.44-6.31-.28c-.78-.04-1.53-.84-1.5-1.61l.18-4.6c.03-.79.83-1.54,1.62-1.52l4.66.16c.96.1,1.64.9,1.6,1.86l-.12,2.81-6.47-.26-.05,1.38ZM103.57,73.64l.06-1.4c0-.19-.03-.36-.24-.42l-4.48-.19c-.2.02-.29.16-.3.35l-.06,1.47,5.02.19Z"/>
        <path class="cls-2" d="M118.23,77.35c-.03.24.16.31.35.34l6.03.69-.17,1.42-6.31-.71c-.77-.21-1.44-.93-1.35-1.76l.52-4.6c.09-.75.94-1.42,1.69-1.34l4.57.48c1,.13,1.67,1,1.56,2l-.32,2.78-6.43-.72-.16,1.42ZM123.52,75.15l.17-1.45c.02-.17-.04-.33-.22-.38l-4.44-.5c-.16,0-.29.09-.31.24l-.19,1.54,4.99.55Z"/>
        <path class="cls-2" d="M114.85,77.29c-.06.81-.94,1.45-1.74,1.38l-4.59-.35c-.98-.08-1.65-1.06-1.51-2.03l1.44.1c-.05.16-.01.47.18.49l4.48.36c.19.01.32-.1.33-.28l.09-1.09c.01-.16-.08-.33-.25-.34l-4.49-.36c-.93-.07-1.61-.95-1.54-1.87l.1-1.24c.07-.81.88-1.53,1.73-1.46l4.55.34c1.02.08,1.76,1.05,1.57,2.05l-1.43-.11c0-.15-.01-.47-.18-.48l-4.5-.36c-.2-.02-.31.14-.33.31l-.08,1.08c-.01.14.12.3.28.31l4.47.35c.85.07,1.54.81,1.55,1.66l-.12,1.54Z"/>
        <path class="cls-2" d="M92.76,71.97l-4.42.33c-.17.01-.31.13-.3.31l.44,6.03-1.43.1-.59-7.75,6.26-.46c.9-.07,1.63.68,1.76,1.52l.46,6.09-1.42.11-.48-6.02c-.01-.13-.11-.28-.29-.26Z"/>
        <path class="cls-2" d="M94.68,123.76l-.15.93c-.4,1.13-1.7.92-2.82.5l-4.51-1.7c-1.09.27-.43,1.68-1.37,1.44l-.67-.17-.71-.24c-.15-.05-.27.04-.39.06l-1.36-.26-.59-.28c-.17-.08-.38-.23-.51-.36l-.75-.7-.95-1.07c-.36-.4-.78-.96-.54-1.16.22-.18.92.45,1.29.85.91.99,1.74,1.88,3.1,2.04.63.07,1.21.21,1.85.42,0-.76.11-1.45.84-1.62.86-.2,1.88.23,2.71.67.96.51,1.94.9,2.98,1.22.59.18,1.73.56,1.91.4s-.21-1.07.32-1.89c.18-.29.46-.37.77-.22.26.12.27.46.1.7l-.54.44Z"/>
        <path class="cls-2" d="M129.5,74.17c-.2-.04-.32,0-.42.15l-1.18,5.99-1.41-.27,1.2-6.05c.16-.83,1.03-1.31,1.82-1.28l4.43.85-.26,1.43-4.17-.82Z"/>
        <path class="cls-2" d="M75.14,78.46l.31,1.4-1.59.3c-.78.15-1.67-.47-1.84-1.3l-1.67-8.51,1.42-.27,1.62,8.36c.03.13.07.2.16.25s.2.07.32.02l1.27-.24Z"/>
        <polygon class="cls-2" points="70.02 80.89 68.61 81.19 67.13 73.56 68.53 73.29 70.02 80.89"/>
        <polygon class="cls-2" points="135.54 81.82 134.14 81.51 135.92 73.95 137.31 74.26 135.54 81.82"/>
        <path class="cls-2" d="M73.56,92.68l-.43.88c-.08.17-.25.25-.42.21-.62-.13-.2-1.27.11-2.01.13-.31.31-.56.61-.73.77-.42,1.57-.76,2.46-.98.09.3-.08.51-.28.65l-1.61,1.16c-.24.17-.31.54-.45.82Z"/>
        <path class="cls-2" d="M137.81,97.41c-.43.25-.86-.61-1.18-1.22-.19-.36-.47-.51-.82-.7l-1.3-.7c-.24-.13-.43-.33-.4-.63,1.02.12,1.98.37,2.91.82.56.64,1.36,2.11.79,2.44Z"/>
        <path class="cls-2" d="M63.92,118.52c.12.09-.05.48-.18.56-1.41.19-2.54-1.55-2.86-2.89.83-.15,1.6.98,2.18,1.69l.86.65Z"/>
        <polygon class="cls-2" points="137.59 73.18 136.18 72.86 136.5 71.46 137.89 71.79 137.59 73.18"/>
        <polygon class="cls-2" points="66.94 72.47 66.64 71.07 68.04 70.78 68.32 72.18 66.94 72.47"/>
        <path class="cls-2" d="M90.66,129.93h-.68s-.38-.05-.38-.05c-.78-.08-1.53-.12-2.32-.06-.74.05-1.42-.11-2.12-.32l-2.42-.72c-.39-.12-.8-.07-1.19.04-1.47.43-2.78-.14-3.88-1.14-.58-.53-1.4.07-2.02-.16l-1.33-.5c-.02.24.13.32.21.44l.04.06c.02.07-.07.1-.09.03l-.04-.03c-.46-.32-.73-.79-1.04-1.24l-.75-1.07c-.24-.34-.67-.36-1.01-.13-.26.17-.57.24-.88.26-.1.11-.17.21-.24.39-.63-.03-1.21.22-1.82.35-1.22-.36-1.62-1.61-3.1-1.01-.51.21-1.04.2-1.55,0-1.82-.74-3.11-2.11-4.34-3.58-.42-.5-.87-.91-1.37-1.33l-1.3-1.09c-.61-.51-1.05-1.18-1.34-1.96h1.48c.33.55.77.97,1.31,1.34.46.31.85.68,1.24,1.09l1.88,1.96c.79.82,1.61,1.57,2.67,2.03.34.15.75.32,1.09.17l1.05-.45c.68-.14,1.34.21,1.76.73.12.15.33.4.52.35.34-.15.6-.44.99-.45l1.59-.04c.49-.37.39-.98,1.17-.9.49.05.69.42.93.81.52.84,1.28,1.53,2.07,2.11.33.24.72.24,1.04.06.77-.44,1.58-.2,2.13.43.46.52,1.02.92,1.67,1.13l.63-.37c.34-.03.75.12,1.06-.06.29-.17.53-.21.86-.08l1.22.47,1.16.6c.35.18.73.4,1.13.29.24-.07.32-.47.57-.56.14-.05.19.57.73.48l1.39-.24c.82-.14,1.34.56,1.89.32.36-.16.71-1.07,1.41-.64.44.27.96.22,1.37-.1.53-.41.9.29,1.88-.01l.72-.22,1.69.07c.53.02,1.28.66,2.25.52.33-.05.63-.05.96.02l1.95.43c.96.21,1.2-.71,1.88-1.18l1,.46c.52-.48,1.17-.75,1.86-.61.34.07.64.07.99,0l.51.03.69-.74c.3-.32.08-.73.12-1.08.33-1.16.7-1.73,1.52-2.58.16-.16.32-.21.49-.11.13.08.3.22.21.4l-.38.72c.63.2.83-.56,1.28-.57.15,0,.32.1.43.22.5.51,1.22.58,1.79.14.13-.1.29-.13.44-.05.39.22.84.13,1.17-.15s.67-.34,1.11-.26c.31.06.78.09.99-.16l.72-.86c.48-.57,1.29.4,1.72.02l.5-.45c.16-.14.37-.19.58-.07l.59.35c.26-.23.47-.54.81-.63l.5-.12c.35-.18.63-.46.89-.74.51-.54,1.03-.2,1.32-.38.49-.32.46-1.38.98-1.41.21-.01.44.16.68.02.13-.07.29-.21.36-.43l.36-1.01c.11-.32.32-.56.55-.65.8-.31,1.19.42,1.98.14.28-.1.45-.35.59-.59l.48-.85c.12-.22.45-.43.71-.3.28.14.09.79.17,1.29.86.19.87-.43,1.17-.51.52-.14.85.52,1.9.22l1.74.71c-.82.37-1.55.66-2.36.86l-1.92.28c-.61.09-1.16.24-1.73.48-.87.37-1.35-.17-1.93.4l-1.94,1.9c-1.1.88-2.41,1.52-3.76,1.95l-1.24.28-1.67.53c-.36.12-.77.02-1.07-.06l-1.26.92c-.16.12-.35.11-.51.26-.35.32-.81.53-1.3.59-.53.06-.98.22-1.46.43-.3.13-.6.2-.84.44-.84-.33-1.64-.59-2.5-.78l-1.91,2.25-.77.68c-.44.39-1.09.58-1.68.63-.67.06-1.26.2-1.9.36l-.86.22-2.2.56c-.56.14-1.13.06-1.7,0l-2.2-.23c-1.25-.13-2.15-.58-3.02-.53l-1.45.09c-1.51.1-2.97.26-4.42.71l-.3.07Z"/>
      </g>
    </g>
  </g>
</svg>
