<?xml version="1.0" encoding="UTF-8"?>
<svg id="Capa_2" data-name="Capa 2" xmlns="http://www.w3.org/2000/svg" viewBox="0 0 200 200">
  <defs>
    <style>
      .cls-1 {
        fill: none;
      }

      .cls-2 {
        fill: #f28c00;
      }

      .cls-3 {
        fill: #004289;
      }

      .cls-4 {
        fill: #fff;
      }
    </style>
  </defs>
  <g id="Capa_1-2" data-name="Capa 1">
    <g id="Deli_Moon" data-name="Deli Moon">
      <circle class="cls-1" cx="100" cy="100" r="100"/>
      <g>
        <path class="cls-3" d="M184.21,100c0,47.06-38.15,85.22-85.21,85.22S13.78,147.06,13.78,100,51.92,14.78,98.99,14.78s85.21,38.15,85.21,85.22Z"/>
        <path class="cls-2" d="M49.47,132.16v7.51h-.81v-.67h-.07c-.17.26-.39.45-.65.56-.3.12-.91.18-1.86.18-.66,0-1.15-.03-1.49-.07-.4-.05-.73-.14-.98-.29-.25-.14-.45-.35-.61-.61-.21-.37-.32-.93-.32-1.69s.1-1.32.32-1.7c.15-.26.34-.47.55-.61.21-.14.48-.24.81-.29.38-.06,1.03-.09,1.94-.09.6,0,1.03.03,1.29.08.44.09.76.29.98.62h.05v-2.92h.84ZM46.18,135.1c-.62,0-1.08.03-1.4.07-.5.08-.84.28-1.01.61-.14.27-.2.71-.2,1.31,0,.55.06.95.18,1.21.15.34.47.55.96.64.27.05.68.08,1.23.08.71,0,1.21-.02,1.53-.08.26-.04.47-.11.62-.19.15-.09.28-.22.38-.4.14-.25.21-.68.21-1.28s-.08-1.07-.23-1.33c-.16-.28-.47-.47-.9-.56-.29-.05-.75-.08-1.36-.08Z"/>
        <path class="cls-2" d="M53.83,134.46h.84v.71h.06c.13-.23.32-.42.59-.56.18-.09.43-.15.75-.18.24-.02.58-.03,1.04-.03.61,0,1.06.05,1.35.15.63.22.94.79.94,1.72v.54h-.84v-.37c0-.31-.03-.54-.07-.7-.08-.26-.25-.43-.54-.52-.22-.07-.54-.1-.95-.1-.72,0-1.25.06-1.58.19-.33.12-.54.38-.64.76-.08.26-.12.67-.12,1.21v2.4h-.84v-5.21Z"/>
        <path class="cls-2" d="M63.98,134.46h.84v2.64c0,.52.03.89.1,1.13.11.35.36.58.77.68.3.07.71.11,1.25.11.77,0,1.35-.08,1.74-.25.18-.07.34-.19.46-.34.13-.15.21-.32.24-.5.04-.22.07-.52.07-.89v-2.58h.84v5.21h-.84v-.78h-.05c-.18.28-.39.48-.65.61-.34.16-.99.24-1.92.24-.74,0-1.32-.06-1.74-.18-.51-.14-.84-.43-.98-.88-.09-.31-.14-.75-.14-1.34v-2.88Z"/>
        <path class="cls-2" d="M80.23,134.46h.83v3.9c0,.82-.04,1.45-.13,1.87-.08.4-.29.72-.63.97-.28.2-.72.33-1.3.37-.32.03-.82.04-1.5.04-.94,0-1.62-.06-2.01-.19-.61-.21-.96-.56-1.06-1.06-.01-.08-.02-.23-.02-.44h.84c.02.19.05.34.1.43.12.22.36.37.74.45.29.06.73.09,1.32.09,1,0,1.69-.06,2.07-.19.35-.11.57-.37.64-.78.05-.25.08-.62.1-1.13h-.06c-.2.26-.44.43-.72.53-.29.1-.9.15-1.83.15-.75,0-1.34-.04-1.76-.12-.28-.05-.51-.13-.7-.25-.19-.12-.36-.29-.51-.51-.25-.38-.38-.94-.38-1.68,0-1.15.35-1.9,1.07-2.24.27-.13.66-.21,1.16-.25.29-.02.72-.03,1.3-.03.61,0,1.04.02,1.3.06.5.08.87.3,1.09.67h.05v-.67ZM77.75,135.11c-1,0-1.67.08-2,.25-.41.21-.62.74-.62,1.6s.23,1.37.69,1.59c.28.13.9.19,1.85.19,1.03,0,1.68-.08,1.97-.26.22-.15.37-.35.45-.62.08-.24.11-.58.11-1.02,0-.52-.07-.9-.22-1.14-.17-.27-.49-.45-.96-.52-.28-.05-.72-.08-1.29-.08Z"/>
        <path class="cls-2" d="M84.91,137.85h.87v.15c0,.31.03.52.11.64.12.18.41.29.85.33.28.03.8.04,1.56.04.81,0,1.34-.02,1.58-.06.34-.06.56-.17.65-.36.06-.1.08-.23.08-.39,0-.25-.06-.44-.19-.56-.11-.11-.24-.17-.39-.2-.22-.04-.49-.06-.8-.05-.16,0-.95-.01-2.38-.03-.5,0-.87-.06-1.11-.15-.29-.11-.5-.29-.62-.52-.09-.19-.14-.45-.14-.76,0-.54.17-.94.52-1.18.22-.16.6-.26,1.15-.31.37-.03.89-.05,1.57-.05,1.05,0,1.81.08,2.26.23.32.11.55.3.69.57.08.16.12.45.12.87h-.87c0-.32-.06-.53-.17-.63-.11-.11-.33-.19-.66-.25-.33-.05-.81-.08-1.43-.08-1.13,0-1.81.08-2.06.24-.18.11-.27.31-.27.59,0,.22.06.37.16.47.09.08.24.15.46.18.21.03.53.05.93.04.61-.01,1.41,0,2.4.04.67.03,1.13.19,1.4.5.18.22.29.56.29,1.01,0,.32-.05.57-.14.77-.09.19-.24.36-.44.48-.22.13-.59.21-1.12.26-.37.03-.88.04-1.54.04-.89,0-1.55-.03-1.96-.09-.45-.05-.78-.18-.99-.36-.18-.16-.29-.35-.34-.57-.03-.17-.06-.35-.06-.56,0-.06,0-.16.01-.3Z"/>
        <path class="cls-2" d="M137.53,137.85h.88v.15c0,.31.04.52.11.64.12.18.41.29.85.33.28.03.8.04,1.56.04.81,0,1.33-.02,1.58-.06.34-.06.55-.17.66-.36.06-.1.09-.23.09-.39,0-.25-.07-.44-.2-.56-.11-.11-.24-.17-.39-.2-.22-.04-.49-.06-.8-.05-.16,0-.96-.01-2.39-.03-.5,0-.88-.06-1.11-.15-.29-.11-.49-.29-.61-.52-.09-.19-.14-.45-.14-.76,0-.54.17-.94.52-1.18.22-.16.6-.26,1.15-.31.37-.03.89-.05,1.57-.05,1.06,0,1.81.08,2.27.23.31.11.54.3.68.57.08.16.12.45.12.87h-.87c0-.32-.06-.53-.16-.63-.11-.11-.34-.19-.67-.25-.33-.05-.8-.08-1.42-.08-1.13,0-1.82.08-2.06.24-.18.11-.26.31-.26.59,0,.22.05.37.16.47.09.08.24.15.45.18.22.03.53.05.94.04.61-.01,1.4,0,2.39.04.67.03,1.13.19,1.39.5.19.22.29.56.29,1.01,0,.32-.04.57-.14.77-.09.19-.24.36-.45.48-.22.13-.59.21-1.11.26-.37.03-.88.04-1.55.04-.89,0-1.55-.03-1.96-.09-.44-.05-.77-.18-.99-.36-.18-.16-.29-.35-.35-.57-.04-.17-.05-.35-.05-.56,0-.06,0-.16,0-.3Z"/>
        <path class="cls-2" d="M97.09,133.17h.84v1.29h3.64v.72h-3.64v2.26c0,.47.02.77.03.88.02.13.07.24.16.35.08.11.18.18.3.23.23.08.58.13,1.05.13.41,0,.69-.03.87-.1.25-.09.39-.28.44-.56.03-.15.03-.39.03-.71v-.33h.82v.33c0,.37-.02.67-.05.9-.08.43-.29.75-.66.92-.33.17-.84.25-1.53.25-.74,0-1.28-.09-1.63-.26-.31-.15-.51-.4-.6-.76-.06-.23-.09-.56-.09-1.01v-2.53h-1.29v-.72h1.29v-1.29Z"/>
        <path class="cls-2" d="M109.06,134.38c.84,0,1.45.03,1.84.08.34.04.61.13.82.24.21.12.4.29.55.52.27.38.4.98.4,1.82,0,.7-.09,1.23-.26,1.59-.17.37-.43.64-.78.81-.31.14-.71.23-1.2.25-.31.02-.67.03-1.04.03-.79,0-1.37-.03-1.73-.09-.68-.1-1.16-.35-1.45-.76-.27-.38-.4-.98-.4-1.79,0-.77.11-1.35.32-1.72.19-.34.45-.58.77-.72.29-.14.66-.21,1.1-.23.32-.02.67-.03,1.05-.03ZM109.12,135.1c-.54,0-.94.03-1.2.07-.54.07-.88.29-1.05.64-.13.29-.19.71-.19,1.29s.08,1.01.24,1.28c.18.3.54.5,1.08.57.28.04.72.06,1.33.06s1.08-.02,1.34-.08c.48-.09.8-.31.96-.65.12-.26.19-.68.19-1.26,0-.55-.07-.95-.19-1.21-.13-.26-.34-.45-.63-.55-.31-.11-.93-.17-1.87-.17Z"/>
        <path class="cls-2" d="M116.98,134.46h.84v.71h.06c.13-.23.32-.42.59-.56.18-.09.43-.15.75-.18.23-.02.58-.03,1.04-.03.61,0,1.06.05,1.36.15.63.22.94.79.94,1.72v.54h-.83v-.37c0-.31-.03-.54-.08-.7-.07-.26-.25-.43-.53-.52-.22-.07-.54-.1-.96-.1-.72,0-1.25.06-1.58.19-.32.12-.54.38-.64.76-.07.26-.11.67-.11,1.21v2.4h-.84v-5.21Z"/>
        <path class="cls-2" d="M132.77,138.07h.86c-.01.44-.11.77-.31,1-.23.26-.59.45-1.09.56-.34.08-.82.11-1.47.11-.93,0-1.62-.03-2.08-.11-.5-.08-.86-.24-1.11-.46-.42-.4-.63-1.1-.63-2.1,0-.78.11-1.36.33-1.74.26-.45.68-.72,1.28-.85.34-.07.89-.11,1.66-.11.88,0,1.51.05,1.89.14.67.16,1.11.52,1.34,1.09.13.33.19.88.2,1.65h-5.81c.02.65.15,1.09.39,1.34.18.19.5.31.96.37.3.04.8.06,1.49.06.65,0,1.1-.03,1.36-.1.37-.09.59-.26.68-.5.02-.06.05-.18.06-.35ZM132.73,136.52c0-.51-.14-.87-.41-1.07-.22-.17-.54-.27-.98-.32-.32-.03-.71-.05-1.15-.05-.56,0-1.01.03-1.32.1-.44.09-.72.31-.86.66-.08.18-.12.4-.14.68h4.87Z"/>
        <g>
          <path class="cls-4" d="M44.6,113.23h2.46v2.04c.59-.73,1.14-1.23,1.63-1.52.88-.49,2.44-.73,4.69-.73s3.7.12,4.7.36c1.22.28,2.12.75,2.71,1.39.19.21.41.53.65.95.34-.68.81-1.23,1.42-1.64.61-.41,1.35-.7,2.24-.85.8-.14,1.99-.21,3.56-.21,2.24,0,3.86.14,4.88.44,1.53.45,2.58,1.29,3.13,2.52.33.72.49,2.26.49,4.6v8.15h-2.46v-8.72c0-1.9-.28-3.13-.85-3.69-.77-.75-2.5-1.12-5.22-1.12-1.88,0-3.29.17-4.23.52-1.03.39-1.68,1.16-1.95,2.32-.22.94-.33,2.47-.33,4.58v6.11h-2.46v-8.72c0-1.14-.07-1.99-.22-2.54-.24-.94-.93-1.57-2.07-1.89-.91-.25-2.18-.37-3.81-.37-1.91,0-3.34.18-4.3.53-1.01.4-1.64,1.1-1.89,2.11-.21.87-.33,2.46-.33,4.78v6.11h-2.46v-15.49Z"/>
          <path class="cls-4" d="M89.07,113.02c2.5,0,4.33.08,5.48.25.99.14,1.81.39,2.45.74.63.35,1.18.87,1.64,1.55.79,1.12,1.19,2.93,1.19,5.42,0,2.08-.26,3.66-.79,4.74-.52,1.11-1.29,1.9-2.32,2.39-.92.44-2.12.69-3.57.77-.95.05-1.98.07-3.09.07-2.36,0-4.08-.09-5.16-.25-2.03-.3-3.46-1.06-4.32-2.29-.78-1.12-1.17-2.9-1.17-5.33,0-2.29.32-3.99.96-5.12.58-1.01,1.35-1.73,2.31-2.16.87-.38,1.96-.61,3.28-.69.93-.05,1.97-.08,3.11-.08ZM89.27,115.19c-1.6,0-2.8.06-3.59.18-1.58.23-2.61.87-3.09,1.93-.39.84-.58,2.11-.58,3.8s.24,3,.7,3.81c.53.9,1.59,1.47,3.22,1.69.82.11,2.14.16,3.95.16s3.21-.07,3.98-.22c1.43-.28,2.38-.92,2.85-1.9.36-.77.54-2.03.54-3.76,0-1.62-.19-2.81-.56-3.57-.38-.79-1-1.33-1.86-1.63-.91-.33-2.76-.49-5.56-.49Z"/>
          <path class="cls-4" d="M111.5,113.02c2.5,0,4.34.08,5.49.25.98.14,1.8.39,2.44.74.64.35,1.19.87,1.64,1.55.79,1.12,1.2,2.93,1.2,5.42,0,2.08-.26,3.66-.79,4.74-.53,1.11-1.3,1.9-2.32,2.39-.92.44-2.12.69-3.58.77-.95.05-1.98.07-3.08.07-2.36,0-4.08-.09-5.17-.25-2.02-.3-3.47-1.06-4.31-2.29-.78-1.12-1.18-2.9-1.18-5.33,0-2.29.32-3.99.97-5.12.57-1.01,1.34-1.73,2.3-2.16.87-.38,1.97-.61,3.29-.69.94-.05,1.98-.08,3.11-.08ZM111.69,115.19c-1.59,0-2.79.06-3.59.18-1.58.23-2.61.87-3.1,1.93-.38.84-.57,2.11-.57,3.8s.24,3,.7,3.81c.52.9,1.6,1.47,3.21,1.69.83.11,2.15.16,3.95.16s3.21-.07,3.98-.22c1.43-.28,2.38-.92,2.86-1.9.36-.77.54-2.03.54-3.76,0-1.62-.18-2.81-.55-3.57-.38-.79-1.01-1.33-1.87-1.63-.91-.33-2.76-.49-5.56-.49Z"/>
          <path class="cls-4" d="M124.6,113.23h2.47v2.34h.18c.38-.73.92-1.3,1.63-1.69,1-.57,3.06-.85,6.18-.85,2.77,0,4.74.22,5.94.67,1.17.45,1.95,1.25,2.35,2.41.31.87.46,2.16.46,3.87v8.75h-2.47v-7.71c0-1.46-.08-2.52-.23-3.19-.25-1.14-.91-1.86-1.99-2.19-.96-.29-2.41-.44-4.37-.44-2.49,0-4.34.26-5.52.79-.42.19-.8.47-1.15.85-.35.38-.59.78-.71,1.2-.21.63-.31,1.8-.31,3.52v7.17h-2.47v-15.49Z"/>
        </g>
        <g>
          <path class="cls-4" d="M82.77,63.24v42.85h-4.71v-3.83h-.3c-.97,1.52-2.2,2.59-3.71,3.2-1.69.69-5.24,1.04-10.62,1.04-3.76,0-6.59-.13-8.52-.38-2.31-.29-4.17-.84-5.59-1.65-1.42-.81-2.58-1.97-3.46-3.48-1.2-2.1-1.79-5.33-1.79-9.68s.59-7.57,1.79-9.69c.88-1.53,1.92-2.69,3.13-3.49,1.2-.8,2.75-1.36,4.64-1.7,2.18-.36,5.89-.54,11.13-.54,3.39,0,5.85.15,7.35.44,2.49.51,4.35,1.69,5.56,3.54h.31v-16.64h4.8ZM63.9,80.03c-3.51,0-6.15.13-7.94.38-2.84.45-4.75,1.6-5.73,3.47-.8,1.54-1.2,4.01-1.2,7.44,0,3.12.34,5.45,1.04,6.96.84,1.89,2.65,3.12,5.45,3.65,1.55.29,3.89.44,7.03.44,3.99,0,6.89-.13,8.7-.41,1.51-.23,2.7-.61,3.56-1.12.86-.51,1.57-1.26,2.14-2.25.8-1.45,1.2-3.89,1.2-7.31,0-3.59-.43-6.12-1.29-7.6-.94-1.65-2.67-2.71-5.16-3.17-1.66-.32-4.26-.48-7.79-.48Z"/>
        </g>
        <g>
          <path class="cls-4" d="M119.08,96.9h4.93c-.06,2.52-.65,4.44-1.76,5.76-1.3,1.51-3.37,2.58-6.22,3.21-1.93.42-4.72.63-8.39.63-5.3,0-9.25-.21-11.87-.63-2.8-.46-4.91-1.33-6.31-2.61-2.43-2.27-3.65-6.26-3.65-11.98,0-4.42.64-7.75,1.92-9.97,1.44-2.51,3.88-4.12,7.32-4.81,1.92-.39,5.06-.6,9.42-.6,5.06,0,8.68.25,10.83.76,3.81.88,6.34,2.96,7.6,6.23.73,1.89,1.12,5.02,1.16,9.38h-33.18c.12,3.71.86,6.26,2.2,7.64,1,1.07,2.83,1.77,5.46,2.1,1.72.23,4.56.35,8.54.35,3.7,0,6.3-.19,7.78-.57,2.07-.54,3.36-1.5,3.87-2.87.14-.35.26-1.03.34-2.02ZM118.86,88.22c-.02-2.92-.8-4.96-2.32-6.11-1.24-.94-3.11-1.54-5.62-1.79-1.82-.19-4.02-.29-6.59-.29-3.22,0-5.75.18-7.57.54-2.45.48-4.08,1.73-4.9,3.75-.44,1.03-.71,2.33-.82,3.91h27.82Z"/>
          <path class="cls-4" d="M128.61,63.24h4.71v42.85h-4.71v-42.85Z"/>
          <path class="cls-4" d="M138.9,63.24h4.72v5.62h-4.72v-5.62ZM138.9,76.3h4.72v29.78h-4.72v-29.78Z"/>
        </g>
        <path class="cls-2" d="M151.43,27.65c-19.62-.41-35.86,15.16-36.28,34.79h.02c3.72-11.53,14.55-19.88,27.32-19.88,15.86,0,28.71,12.86,28.71,28.71,0,12.91-8.51,23.82-20.23,27.44,19.15-.15,34.83-15.52,35.23-34.79.41-19.62-15.16-35.86-34.78-36.27Z"/>
      </g>
    </g>
  </g>
</svg>
