<?xml version="1.0" encoding="UTF-8"?>
<svg id="Capa_2" data-name="Capa 2" xmlns="http://www.w3.org/2000/svg" viewBox="0 0 200 200">
  <defs>
    <style>
      .cls-1 {
        fill: #7c964f;
      }

      .cls-2 {
        fill: #fff;
      }
    </style>
  </defs>
  <g id="Capa_1-2" data-name="Capa 1">
    <g id="El_Candil" data-name="El Candil">
      <circle class="cls-1" cx="100" cy="100" r="100"/>
      <g>
        <path class="cls-2" d="M97.04,85.73c-2.72,2.61-5.9,4.31-9.41,5.56-2.93,1.05-5.55,2.41-8.12,4.13-1.33.89-4.73,1.92-6.03,1.06-.47-4.38-.93-8.92,1.39-12.7,2.1-3.42,5.18-6.03,8.98-7.51-3.2-1.03-6.27-2.06-8.9-4.09-4.01-3.11-8.49-5.43-13.6-5.95-.3-.03-.62-.04-.76-.24-.15-.21-.09-.49.06-.78,3.31-6.39,10.75-8.48,17.74-8.08,2.09.12,4.01.67,6.04,1.07-3.18-5.4-4.76-11.4-4.9-17.68.91-.57,1.83-.71,2.87-.7,1.44-2.09,3.94-2.7,6.34-1.7,4.5,1.87,9.88,5.96,12.27,10.45,2.04-5.85,6.61-11.39,11.84-14.42,1.29-.75,2.46.2,3.67.27,1.13-.09,2.65-1.34,3.99-.18.32.95.39,2.21.39,3.3,0,3.43.04,6.69-.39,10.11-.68,5.36-2.69,10.26-5.32,14.84,2.3-1.62,4.3-2.83,6.77-3.56,3.52-1.05,7.33-.53,10.28,1.7,1.27.96,2.28,2.16,3.23,3.4.63.81,1.3,1.3,2.18,1.77,1.9,1.04,2.98,3.03,2.54,5.27-6.09-.45-11.3-.17-15.84,4.11-2.32,2.19-4.92,3.96-7.82,5.22.38,2.31-.04,4.63-1.23,6.68-1.92,3.31-1.3,6.74.23,10.25-2.34.83-5,.77-6.09-1.05-.89-1.49-2.15-2.63-3.84-3.29-3.55-1.4-6.52-3.69-8.55-7.26ZM105.03,52.23c-.04-.32.04-.6.28-.67.29-.08.48.12.65.36,2.18,2.94,2.68,6.52,1.31,9.94-.97,2.41-1.31,4.81-1.36,7.45l-.04,2.28-.36,1.28.54-.13c.74-1.86,1.92-3.47,3.48-4.79,4.09-3.47,7.09-9.5,8.77-14.63,1.05-3.21,1.5-6.36,1.6-9.74.08-2.96.27-5.8-.12-8.75-1.05-.38-2.39-.02-3.08.93-1.88,2.55-3.27,5.29-4.41,8.25-.77,1.65-.96,3.37-1.35,5.07-.08-1.83.47-3.51.95-5.28.82-3.02,2.34-5.75,4.04-8.45-.72-.53-1.84-.77-2.87-.34-4.09,2.62-7.4,6.16-9.7,10.44-1.7,3.16-2.52,6.45-2.66,10.05-.22,5.39.67,10.67,2.71,15.64v-4.67c-.02-2.59,1.64-5.65,1.83-7.62.22-2.23.08-4.4-.21-6.61ZM91.52,48.88c-1.13-.9-2.99-4.57-6.78-7.26-1.34-.96-2.86-1.23-4.32-.53.31,9.45,4.25,18.35,11.33,24.64,1.33,1.18,2.67,2.18,4.24,2.97,1.29.65,2.31,1.47,3.47,2.47-1.05-2.01-2.6-3.53-4.15-5.15-2.08-2.18-3.1-4.84-2.9-7.87.14-2.13-1.29-2.52-.7-2.98s3.83,1.88,4.12,3.51c.52,2.9,1.25,5.52,3.04,7.95,1.82,2.46,3.24,5.15,4.48,7.98.28-.09.32-.3.48-.52-2.5-4.54-3.7-9.68-4.05-14.96-.09-1.33-1.06-2.44-2.32-3.47-.18,1.6,1.14,2.55,1.61,4.52.17.71.88,1.35.35,2.33-.36-1.68-1-3.08-2.01-4.52-.82-1.16-.97-2.8-.7-4.2.05-.23.74-.1.81.07l.21.5c.23.56.77.97,1.17,1.4l.86.91c-.05-2.35.37-4.41.76-6.68-.1-1.04-.94-2.22-1.66-3.09-2.87-3.45-6.47-6.27-10.59-7.97-1.8-.74-3.68-.32-4.89,1.02,3.15,1.41,5.33,4.37,7.42,7.3.37.51.66,1.01.8,1.55l.14.15c.38.41.67.9.81,1.36l.09.1c.12.14.21.3.29.47.02.02.09.07.12.16l.07.21s.05.07.18.17c-.1-.15-.25,0-.1.1-.13-.1-.17-.16-.19-.24l-.08-.22c-.02-.05-.07-.08-.09-.1-.1-.11-.22-.32-.28-.47l-.13-.15c-.39-.44-.67-.88-.82-1.37-.01-.04-.05-.07-.09-.1ZM105.01,69.07c-.06-2.8.5-5.18,1.47-7.68s.95-5.11-.36-7.39c.42,3.02.06,5.76-.98,8.57-1.19,3.21-1.08,6.62-.55,9.93.39-1.1.44-2.24.42-3.43ZM100.86,71.4l-2.72-4.3c-1.79-2.42-2.7-5.13-3.12-8.09-.12-.87-.97-1.52-1.72-2.18-.24,3.51.21,6.08,2.82,8.74,1.82,1.86,3.44,3.76,4.63,6.02l.1-.19ZM75.34,64.6c-4.27-1.28-8.73-1.03-12.88.84,4.88.8,9.15,2.98,12.98,6,2.21,1.74,4.76,2.64,7.39,3.57,4.52,1.4,9.06,2.12,13.83,2.49,1.17-1.55,2.88-2.27,4.85-2.69-1.49-1.94-3.09-3.57-5.04-4.86-4.64-2.24-8.54-6.28-11.37-10.64-2.09-.51-4.15-1.07-6.34-1.23-6.48-.47-13.14,1.02-16.81,6.62,1.97-.69,3.9-1.39,6.01-1.33l2.85.08c1.67.05,3.21.62,4.72.99.02.06.07.12.16.13l.41.08s.07.09.16.11l.41.08c0,.06.08.14.18.09.19-.08.38.06.37.13-.21.14-.44.04-.55-.04-.03-.02-.07-.09-.17-.11l-.4-.08s-.07-.09-.16-.11l-.41-.08c-.03-.06-.09-.1-.19-.07ZM139.24,70.13c-1.63-3.2-7.93-4.26-11.39-4.35l-3.91-.1c0-.06.03-.12.1-.15l5.48.09c3.2.05,6.8.52,9.42,2.71-.48-1.08-1.47-1.67-2.5-2.21-1.55-.81-2.71-3.55-5.38-5.23-3.12-1.95-6.92-2.04-10.32-.6-2.85,1.21-5.43,2.83-7.51,5.12l-2.25,2.47c-1.58,1.27-2.94,2.68-3.83,4.6,4.85-.71,8.07,2.37,9.23,7.01,2.65-1.21,4.95-2.76,7.05-4.69,1.86-1.71,3.74-3.12,6.23-3.85,3.11-.92,6.31-1.24,9.6-.83ZM100.97,71.59l-.09.3c.23.1.3-.24.09-.3ZM107.53,84.39l-1.05-1.43c-1.46-2.28-2.47-4.68-3.29-7.28-1.97-.07-3.98.48-5.41,1.89-1.32,1.3-1.57,3.25-1.06,5.06,1.23,4.43,4.74,7.74,8.97,9.43,3.68,1.46,4.23,3.8,5.09,4.38,1.04.7,2.33.57,3.5.29-.61-1.57-.95-3.11-1.08-4.72-.19-2.33.72-4.19,1.7-6.21,1.6-3.3.88-7.41-1.37-10.19-1.41-1.75-3.3-2.4-5.5-2.3-1.44.06-3.31.55-3.96,1.87.41,2.8,1.72,5.33,2.95,7.81l.67,1.34s.06.07.08.1c.12.14.21.31.29.47.02.02.09.07.12.16l.07.21s.06.07.09.1l.1.09s.09.07.12.16l.07.22s.05.07.18.17c-.1-.15-.25,0-.1.1-.13-.1-.17-.16-.19-.24l-.07-.22s-.06-.07-.09-.1l-.1-.09s-.09-.07-.12-.16l-.07-.22c-.02-.05-.07-.08-.09-.1-.1-.1-.22-.33-.28-.46l-.15-.14ZM77.29,92.83c-.39,1.17-.91,1.97-1.56,3.04,1.14-.31,2.38-.52,3.4-1.23,2.71-1.89,5.59-3.24,8.71-4.37,3.32-1.2,6.31-2.94,8.8-5.4-1.1-2.11-1.39-4.41-.53-6.51-3.71-.25-7.14-.83-10.73-1.65-5.15,1.39-10.74,6.54-11.2,11.76-.22,2.52-.12,4.97.11,7.44,1.08-.74,1.73-1.85,2.22-3.09.91-2.31,2-4.51,3.93-6.11,1.45-1.22,2.75-2.57,4.55-3.2-3.58,2.07-6.35,5.26-7.7,9.31Z"/>
        <path class="cls-2" d="M117.73,122.96l-7.6-9.37c-.62-.77-1.13-1.49-1.95-2.11l.08,11.21c0,.7.12,1.54.53,2.07.6.78,1.95.43,2.42,1,.15.18,0,.82-.3.79-2.4-.29-4.65-.08-7.02-.08-2.81,0-5.5-.23-8.33.07-.26.03-.42-.61-.28-.78.43-.54,1.34-.19,1.93-.76l-1.33-4.6c-.1-.35-.42-.61-.81-.6l-4.9.04-1.48,4.39c-.54,1.6,2.05.75,2.14,1.73.04.46-.26.63-.74.58-1.8-.19-3.5-.17-5.3.02-.46.05-.73-.18-.71-.6.06-.87,1.99,0,2.7-1.87l5-13.11c.33-.86.59-1.57.7-2.55,2.41-.88,2.53-2.77,3.22-.78l5.67,16.38c.67,1.94,3.88,1.76,4.5.64.57-1.02.52-2.36.52-3.53l.03-10.96c0-2.64-2.78-1.59-2.83-2.56-.02-.35.23-.6.67-.57,2,.12,3.87.26,5.96,0,.7,1.48,1.59,2.72,2.67,3.98l7.62,8.93.03-7.79-.23-2.38c-.1-1.02-.87-1.57-1.88-1.58l-.75-.2c-.2-.05-.22-.91-.03-.91,2.42.02,4.65.23,7.06-.06.22-.03.37.59.24.77-.41.57-1.83.17-2.23,1.29-.36,1.01-.39,2.06-.4,3.16l-.04,13.96c-.25.42-1.24.7-1.67.51l-2.88-3.76ZM94.39,118.33c.24,0,.49-.08.54-.21.04-.12.07-.4.01-.55l-2.03-5.96-2.23,6.59,3.71.14Z"/>
        <path class="cls-2" d="M126.1,126.51c-.34.02-.28-.88-.05-.94l.73-.19c.4-.1.88-.12,1.17-.35.32-.25.45-.75.45-1.27v-13.97c0-.88-.58-1.48-1.45-1.42-.43.03-.72-.19-.7-.58.01-.31.27-.53.71-.54l6.05-.22c2.5-.09,4.89.08,7.27.69,4.51,1.17,7.22,5.2,6.79,9.81-.38,4.04-2.98,7.22-6.92,8.35-2.18.62-4.44.81-6.76.65s-4.72-.18-7.3-.04ZM141.8,120.75c.78-2.4.84-4.94.18-7.3-1.06-3.84-4.77-5.48-8.64-4.99-.4.05-.74.41-.74.86l.04,13.54c0,1.32.87,2.18,2.08,2.36,3.21.48,6.04-1.28,7.08-4.47Z"/>
        <path class="cls-2" d="M34.36,117.15h-3.5s.03,6.15.03,6.15c0,.55.41,1.38,1,1.53,1.62.41,3.41.5,5.01-.02,1.82-.59,2.17-2.98,2.97-3.27,1.25-.45.32,2.96-.56,4.99-5.28-.2-10.26-.19-15.43-.01-.29.01-.41-.53-.27-.75.38-.6,1.68-.2,2.49-.76.42-.29.51-.91.51-1.44v-13.91c-.01-1.62-1.66-1.31-2.25-1.76-.21-.16-.2-.68.1-.77.74-.23,1.46.02,2.18.02h10.74c.43,0,.84-.23,1.38,0l.4,4.36c.02.27-.54.43-.79.3-.66-.36-.69-3.36-3.65-3.34l-3.86.03-.04,7.02c1.43.23,2.86.29,4.25-.11.92-.27.48-2.24,1.4-2.31.34-.03.61.2.56.65-.2,1.86-.12,3.65-.02,5.52.02.41-.48.54-.74.43-.71-.29-.16-2.54-1.92-2.54Z"/>
        <path class="cls-2" d="M72.65,123.14c1.54,1.89,3.65,2.71,6.03,2.34,1.99-.31,3.77-1.87,4.59-3.98.15-.38.39-.61.69-.6,1.16.04.28,2.83-.41,4.85-3.84,1.28-7.32,1.6-11.18.3s-6.43-4.9-6.41-9.09c.04-6.97,6.01-10.74,12.79-10.26l4.82.77.33,3.86c.04.43.1.81-.32.97-.37.13-.71-.07-.83-.5-.68-2.44-2.82-3.84-5.33-3.81-1.96.02-3.65.88-4.88,2.41-2.59,3.22-2.55,9.47.11,12.76Z"/>
        <path class="cls-2" d="M57.95,121.79c-.06,1.69-.62,3.12-1.16,4.72-5.02-.14-9.9-.21-14.92,0-.44.02-.65-.22-.64-.56.02-.82,1.59-.32,2.3-.91.32-.27.46-.88.46-1.33v-14.01c0-.48-.24-1.04-.5-1.24-.59-.47-1.95-.13-2.05-.85-.04-.31.21-.61.62-.58,2.74.22,5.38.18,8.15,0,.33-.02.46.53.32.76-.34.54-1.33.23-1.89.72-.31.27-.44.75-.44,1.28v13.04c.01.7.23,1.73.97,1.95,1.65.49,3.62.58,5.25-.03,1.49-.56,2.07-2.7,2.71-3.24.14-.12.84-.04.83.28Z"/>
        <path class="cls-2" d="M175.87,121.44c1.25,0,.16,3.04-.62,5.09l-15.34-.04c-.21,0-.23-.86,0-.92l.76-.17c.62-.14,1.67-.16,1.69-.96l.18-7.66-.18-7.66c-.03-1.27-2.35-.65-2.42-1.51-.03-.32.26-.63.69-.59,2.81.26,5.51.11,8.32.05.21,0,.17.87-.03.92l-.72.18c-.79.2-1.52.48-1.52,1.42v13.27c0,.63.27,1.68.9,1.89,1.69.55,3.71.63,5.38-.02s2.13-3.28,2.91-3.28Z"/>
        <path class="cls-2" d="M158.17,126.5c-3.01-.14-5.87-.13-8.9,0-.19,0-.18-.87.01-.92l.75-.21c.9.03,1.58-.53,1.58-1.48v-14.23c0-.94-.69-1.49-1.58-1.48l-.75-.21c-.18-.05-.2-.93-.01-.92,3.03.14,5.89.14,8.91,0,.19,0,.18.87,0,.92l-.75.22c-.9-.03-1.59.53-1.59,1.47v14.24c0,.94.69,1.5,1.59,1.47l.74.21c.19.06.18.93,0,.92Z"/>
        <path class="cls-2" d="M132.5,138.57l1.88.09c-.08.52,0,1.19-.32,1.57-.29.34-1.08.16-1.55.12l-.03,7.73h-2.55s-.03-7.73-.03-7.73c-.4.07-.93.18-1.26-.14-.26-.26-.28-1.2-.02-1.43.34-.31.91-.18,1.3-.14-.07-1.15.03-2.27.79-3.06,1.89-1.97,4.32-.26,7.16-.94l.04,10.89c0,.25.06.54.14.71s.57.17.8.2c.36.41.41.99.56,1.63-.9.45-2,.54-2.95.06-.66-.33-1.05-1.11-1.06-1.88l-.05-9.63c-.88-.2-1.95-.5-2.63.13-.38.35-.25,1.03-.26,1.82Z"/>
        <path class="cls-2" d="M34.05,142.79c.9,1.29.68,3.34-.61,4.33-.98.75-2.28,1-3.48.99l-4.51-.02v-12.31s3.75-.05,3.75-.05c2.59-.04,4.9.83,4.85,3.25-.03,1.19-.84,2.16-2.23,2.56.89.35,1.71.48,2.24,1.24ZM30.73,140.44c.87-.46.89-2.06.06-2.5s-1.8-.38-2.77-.37v3.21c.93.07,1.84.13,2.71-.33ZM31.06,145.91c.75-.33.9-1.23.79-1.87s-.52-1.34-1.25-1.37l-2.58-.1v3.61c1.06-.03,2.05.16,3.04-.27Z"/>
        <path class="cls-2" d="M110.4,147.03c-.84,1.09-1.92,1.53-3.18,1.38-1.15-.14-2.15-.91-2.62-2.14-1.17-3.06-.35-7.15,2.46-7.81,1.23-.29,2.19-.02,3.25.83l-.04-4.7,2.56.29v13.16c-1.07.19-2.15.13-2.22-.12l-.22-.9ZM110.23,145.26v-3.92c0-.74-1.05-1.18-1.67-1.15-2.05.08-2.33,3.89-1.32,5.76.34.63,1.15.68,1.72.54.44-.11,1.26-.54,1.27-1.22Z"/>
        <path class="cls-2" d="M77.4,151.95c-.93.18-1.65-.08-2.52-.15l-.04-4.6c-.9,1.02-1.93,1.37-3.14,1.19-1.07-.16-2.05-.89-2.5-2.08-1.2-3.19-.28-7.27,2.48-7.87,1.32-.29,2.41.07,3.4,1.07.13-.2.08-.73.24-.79.6-.2,1.31-.17,2.05-.01l.02,13.24ZM74.85,145.15l-.05-3.94c0-.71-1.18-1.09-1.74-1.02-2.03.27-2.15,3.98-1.28,5.67.35.68,1.17.81,1.81.61.5-.15,1.27-.63,1.26-1.32Z"/>
        <path class="cls-2" d="M43.93,146.77c-1.79,2.36-5.66,2.22-7.25-.2-1.08-1.64-1.04-3.72-.43-5.47.66-1.88,2.38-2.79,4.29-2.77s3.64,1.14,4.15,3.12c.44,1.73.45,3.71-.76,5.31ZM42.13,141.62c-.21-.85-.91-1.43-1.68-1.43-2.06,0-2.3,3.02-1.72,5.08.26.94,1.04,1.35,1.89,1.28,1.75-.13,2.01-2.91,1.51-4.93Z"/>
        <path class="cls-2" d="M147.34,147.67c-1.67,1.11-3.96,1.02-5.48-.17-2.29-1.79-2.25-6.7.29-8.4,1.53-1.03,3.69-1.02,5.23-.03s1.91,2.57,1.91,4.21-.37,3.35-1.94,4.39ZM146.48,141.65c-.19-.82-.77-1.37-1.55-1.45-.68-.08-1.5.29-1.78,1.07-.5,1.42-.51,3.05.11,4.45.3.68,1.08.88,1.71.82,1.76-.17,2-2.84,1.51-4.89Z"/>
        <path class="cls-2" d="M164.4,145.75c.53.4.81.9,1.1,1.45-1.72,1.29-3.87,1.62-5.77.77-2.87-1.28-3.19-6.13-1.05-8.4,1.55-1.66,4.46-1.64,6.02-.02,1.16,1.21,1.35,2.9,1.13,4.57l-5.87.03c-.05,1.25.65,2.28,1.83,2.38.92.08,1.74-.03,2.61-.77ZM163.38,142.54c.05-1.12-.14-1.7-.74-2.26-.52-.21-1.29-.33-1.79,0-.72.47-.91,1.35-.9,2.28l3.44-.02Z"/>
        <path class="cls-2" d="M118.39,146.23c1.15.63,2.49.31,3.52-.46.45.35.7.76,1.08,1.37-1.8,1.51-4.68,1.84-6.61.28-1.53-1.24-1.76-3.35-1.49-5.18s1.39-3.26,2.87-3.69c1.86-.54,3.8-.05,4.83,1.5.79,1.19.9,2.59.68,4.07l-5.86.04c.03.81.22,1.67.97,2.08ZM120.85,142.53c.05-1.12-.18-1.9-.81-2.25s-1.64-.27-2.1.34-.52,1.29-.52,1.95l3.43-.04Z"/>
        <path class="cls-2" d="M93.39,146.27c1.12.58,2.39.25,3.38-.46.55.31.86.85,1.13,1.39-1.84,1.38-4.26,1.7-6.2.54-2.14-1.28-2.47-4.84-1.4-7.06.75-1.56,2.23-2.39,3.97-2.33,1.63.06,3.01.9,3.63,2.46.4,1.01.54,2.12.36,3.33l-5.94.03c.03.75.25,1.69,1.07,2.11ZM95.8,142.56c.02-.84-.07-1.6-.64-2.13-.54-.5-1.65-.49-2.17.03-.56.57-.66,1.37-.69,2.1h3.5Z"/>
        <path class="cls-2" d="M87.73,138.65v9.41c-.72.1-1.38.18-2.02,0-.35-.09-.29-.83-.3-1.17-1.02,1.5-3.03,2.06-4.52,1.05-.74-.5-1-1.39-1-2.23l.05-7.02c.91-.14,1.6-.13,2.45-.04l.02,6.86c0,.36.13.66.33.82.23.18.51.25.91.19.73-.1,1.55-.79,1.56-1.57v-6.29s2.52-.03,2.52-.03Z"/>
        <path class="cls-2" d="M54.68,138.65v9.37c-.72.16-1.49.28-2.01-.05-.3-.19-.24-.81-.29-1.07-.98,1.42-2.9,2.03-4.45,1.09-.74-.45-1.08-1.41-1.08-2.27v-7.05s2.51,0,2.51,0l.02,6.83c0,.39.17.85.57.98.98.3,2.21-.44,2.21-1.49v-6.32s2.52-.02,2.52-.02Z"/>
        <path class="cls-2" d="M173.18,147.81c-2.02,1.04-4.44.77-6.27-.58.1-.66.58-1.09,1.13-1.49,1.65,1.21,3.98,1.15,4.07-.13.04-.55-.23-.91-.8-1.1l-2.38-.8c-1.05-.36-1.65-1.27-1.74-2.27s.43-2,1.43-2.53c1.79-.95,4.06-.67,5.72.54l-.91,1.44c-1.68-.99-3.7-.99-3.68.19,0,.4.25.71.7.86l2.38.8c1.1.37,1.81,1.3,1.89,2.34s-.43,2.17-1.54,2.74Z"/>
        <path class="cls-2" d="M62.89,147.67c-1.14.84-2.75,1.04-4.05.38-.84-.43-1.3-1.41-1.32-2.34l-.07-5.39c-.36.08-.91.23-1.22-.1-.26-.28-.27-1.19-.02-1.44.29-.28.81-.2,1.22-.13l.08-2.06,2.4-.26c.16.85.1,1.52.02,2.29l2.26.03-.25,1.67c-.7.16-1.3.09-1.98.03l.03,4.94c0,.44.2.91.48,1.03.42.18,1,.09,1.48-.15.41.42.54.68.94,1.52Z"/>
        <path class="cls-2" d="M153.79,147.98c-.89.27-1.65.18-2.52.08v-9.39c.82-.11,1.44-.1,2.21-.01l.26,1.76c.5-1.46,1.75-2.45,3.37-1.91l-.43,2.36c-.54.05-1.12-.13-1.61.12-.68.35-1.21,1.26-1.22,2.05l-.07,4.95Z"/>
        <path class="cls-2" d="M66.62,147.97c-.92.29-1.66.19-2.54.09v-9.4c.88-.1,1.59-.1,2.51,0l.03,9.3Z"/>
        <path class="cls-2" d="M65.57,136.67c-.96.14-1.65-.53-1.74-1.26-.11-.93.5-1.66,1.49-1.69.84-.03,1.49.56,1.56,1.31s-.37,1.5-1.32,1.63Z"/>
      </g>
    </g>
  </g>
</svg>
