<?xml version="1.0" encoding="UTF-8"?>
<svg id="Capa_2" data-name="Capa 2" xmlns="http://www.w3.org/2000/svg" viewBox="0 0 200 200">
  <defs>
    <style>
      .cls-1 {
        fill: #1d1d1b;
      }

      .cls-2 {
        fill: #fff;
      }
    </style>
  </defs>
  <g id="Capa_1-2" data-name="Capa 1">
    <g id="Eneldo">
      <circle class="cls-1" cx="100" cy="100" r="100"/>
      <g>
        <path class="cls-2" d="M68.68,95.97c-.21.24-.24.52-.26.78-.06.7-.16,1.4-.11,2.09.19,2.88.08,5.76.08,8.64,0,1.1.05,2.21.05,3.31,0,.56-.07,1.13-.12,1.69-.02.18-.08.37-.14.54-.13.39-.42.61-.83.68-.7.11-1.4.06-2.08-.11-.32-.08-.5-.31-.58-.62-.04-.15-.05-.32-.05-.48-.02-3.18-.06-6.36-.06-9.53,0-2.23.07-4.47.08-6.7,0-2.59-.04-5.17-.04-7.76,0-1.99.06-3.98.08-5.98,0-.42.13-.79.3-1.16.43-.96,1.93-1.2,2.65-.31.33.41.57.85.73,1.34.3.92.59,1.85.89,2.77,1.41,4.45,3.18,8.76,5.14,12.99.25.54.53,1.06.87,1.73.05-.29.1-.43.1-.57,0-3.47-.01-6.95-.03-10.42-.01-1.78-.04-3.55-.08-5.33-.01-.54-.06-1.07-.09-1.61-.05-.76.29-1.18,1.04-1.24.29-.02.59.02.89.04.4.04.8.09,1.23.13.56.28.67.77.66,1.4-.05,1.7-.05,3.39-.04,5.09.04,6.06.1,12.12.13,18.18.01,1.86-.03,3.72-.06,5.57,0,.4-.06.81-.17,1.19-.15.55-.47.71-1.04.65-.98-.1-1.73-.57-2.25-1.39-.24-.39-.45-.8-.63-1.22-1.41-3.32-2.82-6.65-4.21-9.98-.25-.59-.41-1.23-.63-1.83-.23-.6-.47-1.2-.73-1.79-.1-.22-.27-.4-.42-.59-.06-.08-.15-.13-.25-.22Z"/>
        <path class="cls-2" d="M131.6,109.38c-.36.53-.7,1.08-1.09,1.6-.78,1.04-1.88,1.59-3.12,1.87-.5.11-1.01.17-1.52.22-1.02.1-2.04.18-3.06.26-.56.04-1.13.05-1.69-.08-.59-.13-.96-.49-1.1-1.05-.09-.36-.11-.74-.13-1.12-.16-2.85-.14-5.7-.16-8.56-.03-5.01-.05-10.01-.09-15.02,0-.78-.07-1.56-.11-2.34-.03-.62-.07-1.24-.05-1.85.01-.4.09-.8.18-1.19.19-.78.67-1.35,1.43-1.63.4-.15.82-.27,1.24-.34,1.95-.33,3.86-.19,5.72.5.59.22,1.07.61,1.55,1.01,1.28,1.05,2.03,2.42,2.42,4.01.25,1.02.36,2.07.38,3.12.1,4.95.15,9.9-.08,14.85-.05,1.08-.11,2.15-.14,3.23-.03.88-.26,1.7-.6,2.51ZM127.65,107.16c.41-.99.66-2,.65-3.07,0-.51-.02-1.02-.01-1.53.04-2.85.1-5.7.11-8.56,0-1.88-.07-3.77-.14-5.65-.03-.84-.17-1.66-.47-2.45-.17-.43-.39-.83-.71-1.17-.23-.24-.49-.41-.84-.43-.32-.02-.64-.09-.96-.13-1.1-.16-1.75.21-1.84,1.45-.05.75-.04,1.5-.02,2.26.03,1.48.1,2.96.11,4.44.03,2.72.02,5.44.05,8.15.01,1.69.04,3.39.09,5.08.02.64.07,1.29.15,1.93.04.34.15.69.3,1,.24.52.67.73,1.25.67.6-.06,1.07-.37,1.44-.81.31-.37.56-.78.84-1.18Z"/>
        <path class="cls-2" d="M140.42,82.73c.82-1.73,2.21-2.73,4.04-3.18.53-.13,1.06-.07,1.6,0,1.41.19,2.5.94,3.51,1.86.78.71,1.31,1.58,1.56,2.59.17.68.29,1.37.37,2.06.07.67.08,1.34.08,2.02.01,4.82.14,9.64.3,14.45.04,1.35.09,2.69,0,4.04-.09,1.22-.36,2.39-.93,3.49-.39.75-.88,1.42-1.5,1.98-1.52,1.36-3.28,1.78-5.26,1.33-1.95-.44-3.23-1.62-3.92-3.49-.37-1-.56-2.03-.63-3.08-.1-1.56-.19-3.12-.23-4.68-.08-3.31-.13-6.62-.18-9.93-.03-2.29.12-4.57.43-6.84.12-.91.35-1.8.75-2.63ZM147.44,108.36c.08-.42.22-.84.24-1.26.06-1.43.2-2.85.18-4.28-.04-2.94-.04-5.87-.06-8.81-.02-2.26-.04-4.52-.07-6.79,0-.46-.06-.91-.15-1.36-.12-.66-.49-1.19-.99-1.63-.32-.28-.67-.41-1.11-.32-1.15.24-1.86.92-2.16,2.04-.19.71-.22,1.44-.21,2.16.03,2.69.06,5.39.1,8.08.04,2.85.06,5.71.13,8.56.02.8.13,1.61.27,2.4.09.47.29.93.51,1.35.33.62.88.93,1.6.89.75-.05,1.36-.32,1.73-1.05Z"/>
        <path class="cls-2" d="M95.22,80.56c.71.77.81,1.62.7,2.45-.13.93-.58,1.39-1.56,1.43-.4.02-.81-.02-1.21-.03-.38,0-.75-.03-1.13,0-.85.06-1.41.51-1.64,1.33-.11.41-.17.84-.21,1.27-.03.29-.02.59,0,.89.23,2.66.1,5.33.16,7.99,0,.38.01.76.07,1.13.04.29.12.58.24.85.21.47.58.78,1.13.78.38,0,.75-.03,1.13-.04.38,0,.75-.01,1.13.01.43.03.69.3.77.71.16.75.17,1.5-.06,2.24-.23.75-.74,1.17-1.54,1.19-.35,0-.7,0-1.05.01-.75.02-1.25.39-1.57,1.07-.25.53-.34,1.09-.37,1.65-.03.83.03,1.67.06,2.5,0,.19.06.37.1.56.12.54.43.85,1,.88.38.02.75.05,1.13.06.48,0,.97-.02,1.45-.01.27,0,.54,0,.8.05.91.16,1.33.62,1.34,1.53,0,.51-.03,1.02-.12,1.52-.13.69-.47.94-1.17,1-.11,0-.22.01-.32,0-1.83-.08-3.66.08-5.49.19-.32.02-.65.03-.97,0-.93-.1-1.41-.56-1.54-1.48-.03-.19-.04-.38-.04-.56-.09-5.09-.17-10.18-.28-15.26-.06-2.94-.04-5.87.05-8.8.02-.62-.01-1.24,0-1.86,0-.65,0-1.29.03-1.94.01-.29.06-.59.13-.88.32-1.39,1.1-2.33,2.59-2.5.75-.09,1.5-.18,2.25-.16,1.34.04,2.68.15,4.01.24Z"/>
        <path class="cls-2" d="M47.92,82.29c.33-.68.85-1.13,1.55-1.36.43-.14.88-.26,1.34-.3.78-.07,1.56-.1,2.34-.07.97.03,1.93.14,2.9.21.29.02.53.1.69.34.55.81.71,1.68.34,2.6-.22.55-.64.87-1.22.93-.4.04-.81.02-1.21.02-.43,0-.86-.04-1.29-.02-.89.04-1.46.52-1.7,1.36-.11.39-.16.79-.21,1.19-.03.27-.03.54-.01.81.23,2.77.14,5.54.2,8.32,0,.32,0,.65.06.97.16.98.69,1.47,1.68,1.54.35.03.7-.02,1.05,0,.32.01.65.02.96.09.4.09.66.36.73.77.1.67.11,1.34-.07,2-.06.21-.15.41-.26.59-.27.44-.66.7-1.2.68-.24,0-.48-.02-.73-.04-.68-.07-1.2.22-1.61.74-.42.52-.71,1.11-.73,1.76-.03.97-.03,1.94.04,2.9.08,1.05.37,1.31,1.42,1.38.67.05,1.34,0,2.02,0,.46,0,.91,0,1.35.16.78.29,1.04.6,1.04,1.43,0,.51-.03,1.02-.12,1.53-.12.66-.44.91-1.1.98-.13.01-.27.01-.4,0-1.86-.05-3.71.09-5.57.21-.43.03-.86.04-1.28-.09-.59-.18-.98-.55-1.1-1.17-.06-.31-.08-.64-.08-.96-.09-4.95-.18-9.91-.27-14.86-.06-3.02-.08-6.03.05-9.05.03-.67,0-1.35-.02-2.02-.02-.81-.06-1.62.1-2.42.08-.39.21-.78.32-1.16Z"/>
        <path class="cls-2" d="M112.55,113.15c-.25.58-.58.73-1.03.73-1.37-.01-2.75,0-4.12,0-.51,0-1.02,0-1.53,0-.19,0-.38.01-.57,0-1.02-.06-1.59-.53-1.84-1.51-.1-.39-.15-.8-.17-1.2-.03-.43-.04-.86,0-1.29.19-2.66.05-5.33,0-7.99-.1-5.79-.25-11.57-.14-17.36,0-.51-.04-1.02-.05-1.53,0-.48-.03-.97.02-1.45.07-.59.41-.94,1-.98.56-.04,1.13,0,1.69.07.21.03.42.24.58.41.36.38.54.87.63,1.38.08.48.11.96.15,1.44.02.21,0,.43,0,.65-.19,2.2-.11,4.41-.11,6.62,0,3.07-.02,6.14-.02,9.21,0,2.37.01,4.74.03,7.11,0,.46.05.91.13,1.36.13.75.58,1.14,1.33,1.15.43,0,.86-.07,1.28-.11.43-.04.86-.11,1.28-.1.83.03,1.21.37,1.44,1.17.15.52.22,1.06.16,1.6-.03.26-.11.52-.13.62Z"/>
        <path class="cls-2" d="M83.81,63.69c-.89-.41-1.19-1.42-.74-2.12.31-.48.7-.74,1.33-.73,2.37.02,4.74,0,7.1-.03,4.6-.05,9.2-.13,13.81-.17,3.09-.02,6.19.03,9.28.04.27,0,.54-.02.75.21.32.34.58.71.65,1.18.09.68-.29,1.24-1.01,1.44-.26.07-.53.11-.8.13-.38.03-.75.04-1.13.02-2.85-.13-5.7-.04-8.56-.03-6.59.03-13.19.06-19.78.09-.35,0-.69-.03-.91-.04Z"/>
        <path class="cls-2" d="M116.27,132.18c-.14.31-.37.54-.69.65-.25.09-.52.16-.78.19-.43.04-.86.06-1.29.03-2.04-.12-4.09-.06-6.13-.05-7.42.03-14.85.08-22.27.12-.13,0-.27,0-.4,0-.74-.03-1.25-.47-1.41-1.2-.12-.59.32-1.41.93-1.64.22-.08.47-.08.71-.08,1.8,0,3.6.02,5.41,0,3.28-.02,6.56-.05,9.85-.08,4.2-.04,8.39-.09,12.59-.12.81,0,1.61.06,2.42.06.33,0,.56.13.75.38.4.52.59,1.08.32,1.73Z"/>
        <path class="cls-2" d="M97.09,23.87c-1.05,2.11-3.16,3.3-5.45,3.08-.86-.08-1.69-.29-2.48-.66-.73-.34-1.29-.86-1.74-1.52-1.37-2.03-1.18-5.11.35-6.95,1.28-1.55,3.77-2.33,5.62-1.75,1.19.37,2.09,1.08,2.87,1.98.79.92,1.26,2,1.36,3.22.08.93-.09,1.82-.52,2.6ZM94.81,22.66c.04-.13.13-.38.18-.64.24-1.1-.33-2.45-1.52-3.24-.11-.07-.24-.12-.37-.13-.48-.06-.96-.1-1.44-.14-.56-.05-1.06.13-1.5.47-1.29,1.01-1.57,3.13-.58,4.44.25.33.55.61.93.76.82.33,1.67.41,2.52.11.76-.27,1.35-.77,1.78-1.62Z"/>
        <path class="cls-2" d="M112.55,180.37c-1.17,2.4-3.74,3.59-6.38,2.98-.39-.09-.78-.21-1.15-.36-1.07-.42-1.87-1.17-2.39-2.19-.92-1.82-.98-3.65-.08-5.51.96-1.98,3.89-3.47,6.17-2.72,2.2.38,4.07,2.93,4.3,4.85.13,1.04.02,2.04-.46,2.95ZM110.24,179.13c.48-1.02.34-2.16-.36-3.04-.45-.56-1.02-.92-1.73-1.12-1.42-.39-3.13.5-3.57,1.91-.28.91-.21,1.81.22,2.67.25.49.6.91,1.11,1.13,1.83.78,3.57-.03,4.32-1.54Z"/>
        <path class="cls-2" d="M73.88,31.08c-.45-.38-.6-.84-.7-1.32-.46-2.33-1.28-4.55-2.06-6.78-.22-.63-.45-1.27-.52-1.98.15-.11.28-.24.44-.31,1.44-.7,2.97-1.1,4.56-1.28.18-.02.38,0,.56.04.29.05.58.14.87.18,1.35.16,2.31.97,3.13,1.94.86,1.02,1.28,2.25,1.23,3.59-.07,2.05-1.08,3.55-2.92,4.38-1.34.6-2.78,1-4.18,1.48-.12.04-.26.05-.42.08ZM73.57,22.34c.04.17.07.3.1.42.56,1.76,1.13,3.53,1.7,5.29,0,.02.03.04.05.06.02.02.05.02.04.02.54-.16,1.06-.3,1.56-.46,1.25-.39,2.03-1.57,1.86-2.85-.15-1.13-.77-1.98-1.63-2.68-.1-.08-.23-.13-.36-.18-1.17-.49-2.24-.18-3.32.38Z"/>
        <path class="cls-2" d="M125.71,168.51c.3.6,2.58,7.82,3.09,9.73.03.12.03.26.05.41-.12.05-.21.1-.31.13-.77.22-1.55.44-2.33.66-.57.16-1.13.36-1.7.49-1.13.26-2.25.18-3.32-.29-2.26-1-3.57-3.75-2.99-6.19.38-1.57,1.33-2.68,2.72-3.43.56-.3,1.18-.51,1.8-.71.89-.29,1.81-.53,2.71-.79.07-.02.16-.01.28-.02ZM124.11,171.32c-.65.24-1.2.43-1.75.65-.43.17-.79.45-1.11.78-.4.41-.6.89-.62,1.45-.05,1.26.41,2.32,1.4,3.11.22.18.51.31.79.38,1.1.26,2.12.04,3.15-.5-.62-1.95-1.22-3.86-1.86-5.87Z"/>
        <path class="cls-2" d="M112.52,16.39c.36-.06.54.03.68.21.13.17.25.35.37.53,1.25,1.82,2.49,3.64,3.74,5.46.15.22.31.42.52.69.08-.21.15-.32.18-.45.28-1.37.55-2.74.82-4.11.06-.29.1-.59.42-.82.6.03,1.22.19,1.84.33.16.03.27.18.25.37-.03.21-.07.42-.11.63-.44,2.13-.89,4.26-1.32,6.4-.12.58-.18,1.17-.28,1.75-.06.34-.12.69-.23,1.02-.19.58-.52.67-.94.24-.24-.25-.45-.53-.64-.82-1.22-1.87-2.42-3.75-3.63-5.63-.09-.13-.18-.25-.26-.36-.24.03-.2.19-.23.31-.26,1.18-.53,2.36-.78,3.55-.05.24-.05.48-.08.72-.04.32-.08.64-.39.91-.52.04-1.08-.01-1.63-.16-.33-.09-.57-.21-.47-.7.09-.47.17-.95.27-1.43.44-2.16.88-4.32,1.32-6.48.09-.42.16-.85.27-1.26.08-.31.21-.6.33-.9Z"/>
        <path class="cls-2" d="M89.12,172.27c.16.28.07.52.02.75-.33,1.53-.67,3.05-.99,4.58-.2.95-.34,1.91-.52,2.86-.11.58-.24,1.16-.38,1.73-.03.13-.08.26-.13.38-.13.29-.39.36-.67.19-.13-.08-.26-.19-.37-.31-.14-.16-.26-.35-.37-.52-1.27-1.91-2.53-3.81-3.8-5.72-.06-.09-.14-.16-.25-.28-.07.15-.15.26-.18.37-.29,1.37-.58,2.74-.86,4.11-.06.29-.11.58-.35.85-.73,0-1.48.06-2.16-.51.04-.27.06-.56.12-.85.4-1.92.81-3.84,1.21-5.77.19-.92.36-1.85.55-2.77.06-.29.16-.57.27-.84.09-.21.26-.25.47-.18.35.12.59.37.76.69.19.35.35.73.57,1.07,1.12,1.72,2.25,3.42,3.37,5.13.05.08.14.13.28.26.43-1.91.85-3.73,1.27-5.61.73.13,1.4.26,2.12.39Z"/>
        <path class="cls-2" d="M41.86,144.43c.57.35.97.81,1.23,1.39.17.37.12.61-.17.87-.2.18-.43.32-.66.47-.51.34-1.04.67-1.54,1.03-.85.61-1.7,1.23-2.54,1.87-.71.54-1.39,1.11-2.09,1.65-.3.23-.6.46-.92.65-.36.2-.51.16-.79-.11-.06-.06-.11-.12-.16-.18-.95-1.04-1.79-2.15-2.45-3.4-.24-.45-.46-.93-.57-1.42-.56-2.52,1.97-4.25,3.86-3.66.21.06.41.13.62.2.2.06.4.13.61.19.24-.25.29-.55.41-.81.37-.81.72-1.62,1.11-2.42.16-.33.37-.65.75-.86.67.41,1.1,1,1.37,1.72.1.27.04.54-.09.78-.23.43-.46.85-.69,1.28-.26.47-.53.94-.76,1.42-.12.26-.18.56-.23.85-.04.22.02.42.16.61.13.18.31.23.49.11.2-.13.39-.28.59-.43.67-.5,1.34-1,2.01-1.49.15-.11.31-.2.47-.3ZM36.92,147.95c-.34-.66-.71-1.18-1.14-1.66-.34-.38-.73-.5-1.22-.49-.96.03-1.25.44-.92,1.36.24.7.66,1.29,1.12,1.86.09.12.23.21.36.33.6-.47,1.17-.91,1.8-1.4Z"/>
        <path class="cls-2" d="M161.26,59.02c-.76-.45-1.18-1.09-1.45-1.84-.05-.15.03-.37.1-.53.28-.61.58-1.21.87-1.82.32-.65.63-1.31.97-2-.19-.24-.36-.46-.53-.68-.36.06-.57.27-.8.45-.48.38-.96.79-1.44,1.17-.25.2-.52.39-.79.55-.3.18-.5.16-.72-.1-.41-.46-.75-.98-.99-1.57.26-.51.71-.81,1.15-1.11.67-.45,1.36-.87,2.01-1.35,1.38-1.03,2.74-2.09,4.11-3.13.36-.28.71-.58,1.2-.73.12.13.25.26.36.4.72.91,1.44,1.81,2.14,2.73.28.36.56.73.76,1.14.6,1.22.48,2.41-.3,3.51-.81,1.13-2.27,1.54-3.61,1.07-.27-.1-.53-.27-.87-.26-.41.66-.58,1.43-.93,2.12-.34.67-.62,1.37-1.24,1.98ZM162.77,50.91c.39.54.71,1.01,1.06,1.45.2.25.45.47.71.64.37.25.77.21,1.14-.03.38-.25.54-.6.46-1.04-.04-.26-.13-.52-.24-.77-.23-.52-.58-.97-.97-1.38-.1-.11-.24-.18-.39-.29-.59.47-1.15.92-1.78,1.41Z"/>
        <path class="cls-2" d="M42.84,53.85c-.3.5-.67.95-1.12,1.34-.21.18-.35.19-.58.03-.29-.2-.56-.41-.83-.64-1.3-1.12-2.59-2.26-3.91-3.37-.59-.5-1.23-.95-1.84-1.44-.32-.25-.62-.51-.91-.79-.13-.12-.19-.31-.29-.47.19-.43.47-.75.76-1.07.71-.77,1.4-1.56,2.12-2.33.31-.33.64-.66.99-.94.65-.52,1.39-.69,2.2-.45.13.04.26.08.39.1,1.34.25,1.98,1.19,2.36,2.38.08.27.04.58.02.88-.02.32-.13.63-.1.97.46.22.94.25,1.41.33.69.12,1.38.24,2.06.37.34.07.67.18.97.46-.16.87-.92,1.28-1.35,1.94-.86-.08-1.64-.29-2.42-.45-.76-.16-1.51-.35-2.28-.53-.21.26-.39.49-.6.75.18.16.33.31.49.45.58.48,1.18.94,1.74,1.43.45.4.51.53.73,1.06ZM36.5,48.17c.36.3.64.55.93.77.29.22.53.52.93.67.42-.54.85-1.05,1.24-1.59.14-.19.24-.42.3-.65.13-.46-.05-.87-.49-1.17-.34-.23-.89-.27-1.21-.02-.67.53-1.24,1.16-1.71,1.99Z"/>
        <path class="cls-2" d="M157.59,151.66c-.63-.09-1.19-.16-1.74-.26-.55-.1-1.11-.21-1.65-.36-.38-.1-.75-.27-1.09-.56.29-.67.68-1.23,1.23-1.68.26-.21.54-.19.84-.11,1.04.27,2.09.52,3.13.78.26.06.52.12.8.18.33-.17.5-.47.71-.79-1.13-.78-2.12-1.66-3.01-2.71.36-.7.73-1.33,1.46-1.71.14.1.27.18.39.28,1.76,1.49,3.52,3,5.29,4.49.49.42,1.01.8,1.52,1.2.32.25.6.53.83.88-.09.4-.35.67-.6.94-.78.85-1.56,1.71-2.36,2.54-.31.33-.65.65-1.02.91-1.72,1.19-4.1.31-4.68-1.7-.16-.55-.21-1.11-.13-1.68.03-.18.04-.37.07-.65ZM161.36,150.22c-.6.52-1.03,1.06-1.4,1.65-.12.2-.2.44-.24.67-.1.53.12.95.6,1.19.43.22.84.13,1.22-.12.7-.47,1.19-1.13,1.59-1.91-.55-.53-1.11-1.01-1.76-1.49Z"/>
        <path class="cls-2" d="M44.71,162.81c.11-.17.2-.37.34-.53.49-.54.98-1.07,1.49-1.59.74-.75,1.53-1.44,2.14-2.3.26-.37.51-.77.67-1.19.35-.91-.08-1.89-.97-2.29-.5-.22-1.01-.25-1.46.07-.39.28-.76.6-1.1.94-1.18,1.22-2.33,2.46-3.5,3.69-.15.16-.3.3-.44.45-.8-.17-1.32-.62-1.75-1.55.04-.07.08-.18.14-.25.8-.91,1.59-1.83,2.4-2.72.58-.64,1.17-1.27,1.78-1.87.44-.44.96-.78,1.51-1.07.47-.24.97-.32,1.49-.24.56.09,1.12.17,1.67.27.18.03.37.11.52.21,1.05.72,1.85,1.65,2.28,2.86.46,1.3.29,2.49-.69,3.51-.47.49-.91.99-1.37,1.48-.76.8-1.45,1.66-2.13,2.53-.28.36-.63.65-.97.96-.2.18-.44.17-.67.02-.55-.36-1.02-.78-1.37-1.4Z"/>
        <path class="cls-2" d="M153.22,34.59c.73.32,1.27.81,1.66,1.46-.16.47-.47.78-.76,1.09-.7.74-1.43,1.46-2.12,2.22-.47.52-.89,1.08-1.31,1.64-.26.35-.4.76-.49,1.18-.22,1.01.87,2.38,2.2,1.84.42-.17.82-.42,1.16-.71.51-.43.98-.92,1.43-1.42.71-.78,1.38-1.58,2.07-2.37.21-.24.45-.46.65-.66.38-.03.6.18.84.35.48.35.63.55.93,1.09-.03.31-.21.54-.4.77-.26.31-.51.63-.81.9-.92.83-1.75,1.75-2.59,2.66-.33.36-.67.7-1.04,1.02-.81.72-1.77,1.02-2.84.92-.48-.05-.96-.14-1.42-.27-.64-.18-1.16-.55-1.59-1.06-.67-.81-1.1-1.72-1.23-2.77-.14-1.08.16-2.02.89-2.83.45-.5.92-.99,1.36-1.49.77-.86,1.54-1.73,2.31-2.59.23-.26.48-.5.74-.75.09-.09.22-.14.34-.22Z"/>
        <path class="cls-2" d="M34.08,58.47c-.22.63-.58,1.14-.85,1.69-.26.53-.57,1.03-.81,1.57.52.45,1.08.69,1.65.95.31-.2.4-.52.52-.81.34-.77.71-1.51,1.19-2.2.28-.4.28-.4.78-.71.53.16,1.03.42,1.46.79.17.15.2.29.1.5-.79,1.56-1.48,3.17-2.5,4.61-.23.33-.46.66-.68.98-.44-.01-.76-.23-1.08-.42-1.12-.64-2.26-1.26-3.34-1.97-1.15-.76-2.37-1.38-3.58-2.02-.43-.22-.88-.41-1.23-.85.06-.15.11-.32.19-.48.57-1.04,1.16-2.07,1.73-3.1.29-.52.56-1.04.85-1.56.42-.78.74-.86,1.48-.38.2.13.4.28.58.43.1.08.18.2.29.32-.55,1.35-1.46,2.51-2.04,3.87.46.39.98.59,1.52.87.1-.14.2-.26.28-.39.34-.61.67-1.23,1.01-1.84.18-.33.41-.62.74-.86.61.26,1.18.55,1.74,1.02Z"/>
        <path class="cls-2" d="M165.64,141.3c.3-.55.58-1.07.85-1.59.27-.52.63-.99.84-1.53-.51-.44-1.18-.84-1.72-1-.72,1.23-1.31,2.57-2.23,3.67-.85-.2-1.33-.47-1.83-1.03,0-.34.16-.62.35-.88.9-1.22,1.58-2.57,2.3-3.89.19-.35.44-.67.68-1.03.21.08.39.12.55.21,1.03.58,2.06,1.17,3.09,1.76,1.19.68,2.38,1.37,3.57,2.05.47.27.93.54,1.39.82.2.13.37.3.59.47-.34.71-.72,1.35-1.09,2-.57,1.01-1.15,2.01-1.73,3.01-.16.28-.36.53-.5.74-.35.09-.54-.09-.75-.19-.19-.1-.39-.2-.56-.32-.19-.14-.36-.31-.58-.49.65-1.32,1.47-2.52,2.08-3.87-.47-.36-1-.57-1.51-.88-.8.94-1.19,2.08-1.95,3.05-.17-.02-.36-.01-.52-.07-.4-.14-.83-.48-1.33-1.02Z"/>
        <path class="cls-2" d="M54.34,38.45c.55-.04,1.06,0,1.55.13.44.11.57.31.54.76-.01.19-.05.38-.11.55-.94,2.5-2.84,3.85-5.45,3.95-1.26.05-2.4-.37-3.33-1.2-1.62-1.45-2.34-3.26-2.01-5.43.25-1.64,1.17-2.87,2.56-3.74.36-.22.78-.37,1.2-.46.65-.14,1.32-.21,2.03-.32.09.18.21.33.24.5.12.64-.02,1.22-.41,1.78-.72-.01-1.36.24-1.94.66-.91.65-1.33,1.54-1.22,2.65.1,1.08.64,1.93,1.52,2.55.6.42,1.29.55,2,.4,1.12-.24,1.98-.82,2.42-1.92.12-.3.28-.58.41-.86Z"/>
        <path class="cls-2" d="M31.75,126.99c.46.46.75.97.94,1.54.14.42.08.81-.26,1.11-.96.83-.62.92-.25,1.7.32.68.66,1.35,1,2.03.12.24.25.47.4.75.35-.01.7-.01,1.04-.04.42-.04.73.11.95.47.3.51.64.99.64,1.67-.17.07-.33.17-.51.2-.24.04-.48.06-.72.03-1.72-.16-3.44-.02-5.16,0-1.34.02-2.69.1-4.03.14-.37,0-.75-.02-1.12-.09-.38-.07-.48-.3-.34-.65.18-.46.48-.84.81-1.19,1.78-1.88,3.35-3.93,5.02-5.89.28-.33.51-.69.77-1.04.21-.28.43-.55.83-.74ZM28.69,134.17c.54.12,1.75.09,2.46-.05-.15-.68-.47-1.27-.88-1.83-.48.36-1.21,1.24-1.58,1.88Z"/>
        <path class="cls-2" d="M148.23,164.83c.5-.11.93-.17,1.33-.31.38-.13.76-.29,1.08-.52.7-.5,1.05-1.22,1.06-2.08,0-1.38-.6-2.44-1.77-3.15-.49-.3-1.07-.4-1.64-.3-1.19.2-2.1.78-2.6,1.93-.12.27-.25.53-.4.84-.56.03-1.11.07-1.65-.16-.39-.17-.48-.36-.38-.77.58-2.54,2.69-4.3,5.31-4.41.11,0,.22-.01.32,0,2.7.32,4.81,2.19,5.31,4.7.31,1.54-.08,2.94-1.06,4.16-1.08,1.35-2.5,2.09-4.2,2.32-.11.01-.22.01-.32,0-.39-.04-.59-.23-.6-.62-.03-.54.08-1.07.23-1.63Z"/>
        <path class="cls-2" d="M130.13,166.87c.49-.73,1.11-1.06,1.85-1.18.24-.04.47.04.67.22.26.23.54.44.79.64.62-.18,2.43-1.11,3.74-1.91-.01-.31,0-.66-.05-1-.06-.49.14-.83.55-1.07.23-.14.47-.26.71-.37.24-.11.49-.19.78-.3.09.18.2.31.22.45.06.29.11.59.1.88-.07,1.24.05,2.47.12,3.71.05.99.1,1.99.17,2.98.05.72.14,1.44.23,2.16.06.46.12.91.01,1.36-.11.47-.35.59-.73.31-.89-.65-1.77-1.31-2.66-1.97-1.55-1.16-3.09-2.33-4.65-3.48-.39-.29-.79-.56-1.18-.84-.21-.16-.41-.34-.68-.57ZM137.5,169.59c-.01-.34-.02-.6-.03-.86-.02-.29-.03-.59-.07-.88-.03-.25.05-.53-.19-.77-.59.35-1.21.58-1.72,1.09.67.49,1.23,1.02,2,1.43Z"/>
        <path class="cls-2" d="M69.37,32.84c-.34.39-.74.62-1.13.85-.55.33-1.07.31-1.56-.13-.22-.19-.45-.37-.7-.57-1.2.61-2.34,1.26-3.45,1.86-.2.33-.09.63-.06.92.08.8-.03,1.04-.75,1.43-.28.15-.58.27-.89.39-.15.06-.31.06-.49.1-.06-.15-.13-.26-.15-.39-.05-.35-.11-.7-.1-1.04.05-2.4-.24-4.78-.37-7.17-.02-.35-.11-.69-.16-1.04-.05-.35-.12-.69-.13-1.04,0-.32.04-.64.12-.95.07-.29.31-.37.56-.22.21.13.4.27.6.41,2.1,1.55,4.19,3.12,6.29,4.66.54.4,1.13.73,1.69,1.1.39.26.42.31.67.83ZM62.23,32.65c.6-.33,1.09-.59,1.58-.86.11-.06.25-.11.22-.33-.6-.44-1.19-.96-1.95-1.36-.02.87.05,1.66.15,2.55Z"/>
        <path class="cls-2" d="M168.19,71.84c-.6-.47-.87-1.05-1.04-1.68-.07-.26,0-.47.16-.67.19-.22.38-.46.55-.7.17-.23.21-.48.06-.76-.33-.65-.65-1.3-.98-1.95-.22-.43-.44-.86-.64-1.26-.28-.16-.52-.07-.75-.04-.7.08-1.2-.21-1.52-.83-.16-.31-.32-.62-.45-.95-.1-.26.04-.51.31-.55.26-.04.54-.07.8-.06,3.26.05,6.51-.12,9.77-.17.22,0,.43-.02.65,0,.37.03.54.3.36.62-.19.33-.39.65-.64.93-1.61,1.78-3.05,3.7-4.56,5.56-.36.44-.67.91-1,1.37-.3.4-.59.83-1.08,1.14ZM168.64,64.66c.2.7.51,1.32.97,1.92.54-.54,1.02-1.08,1.41-1.69.05-.08.05-.19.08-.28-.66-.1-1.64-.08-2.46.05Z"/>
        <path class="cls-2" d="M123.72,29.97c.23-.23.42-.42.61-.6,1.69-1.54,3.38-3.08,5.06-4.63.65-.6,1.27-1.24,1.92-1.85.27-.26.56-.5.87-.72.3-.21.58-.12.72.21.09.19.14.41.16.62.02.27.02.54,0,.8-.08.81-.07,1.61-.03,2.42.05,1.18.1,2.37.14,3.55.03.91.06,1.83.21,2.73.12.74.07.9-.25,1.49-.77.07-1.33-.45-2-.76-.05-.55-.1-1.09-.15-1.61-.66-.48-3-1.49-3.88-1.68-.16.16-.36.34-.54.53-.38.42-.8.61-1.36.33-.33-.17-.7-.27-1.04-.44-.15-.08-.26-.24-.43-.39ZM130.72,26.55c-.64.54-1.23,1.05-1.77,1.64.44.36,1.23.71,1.91.87.19-.37.11-.77.09-1.16-.02-.44.02-.9-.23-1.35Z"/>
        <path class="cls-2" d="M66.43,165.12c.67.03,1.26.33,1.84.68.18.11.22.3.24.49.04.43.07.85.1,1.24.71.45,3.07,1.48,3.83,1.67.21-.18.42-.38.65-.56.46-.37.96-.45,1.51-.19.27.13.55.23.8.37.13.07.23.2.35.31-.07.36-.35.51-.56.7-1.92,1.73-3.84,3.44-5.77,5.16-.68.61-1.36,1.22-2.04,1.83-.2.18-.39.28-.67.13-.23-.37-.25-.81-.22-1.23.12-2.18-.05-4.35-.11-6.53-.02-.72-.11-1.45-.17-2.17-.03-.37-.05-.75-.05-1.13,0-.27.04-.53.28-.78ZM68.73,172.62c.72-.65,1.36-1.11,1.87-1.7-.13-.32-.41-.31-.61-.41-.19-.09-.39-.17-.59-.25-.21-.09-.42-.21-.71-.21-.04.83-.06,1.61.04,2.57Z"/>
        <path class="cls-2" d="M142.39,29.73c-.65-.45-1.27-.87-1.86-1.29.18-.76.42-1.17,1.06-1.77.15.05.33.09.49.17,1.02.5,1.95,1.14,2.88,1.78.64.44,1.3.85,1.96,1.27.27.17.58.29.77.62-.12.51-.36.98-.71,1.4-.26.31-.5.38-.86.2-.38-.19-.73-.45-1.1-.68-.15-.1-.3-.21-.47-.32-.1.1-.18.16-.24.25-1.17,1.84-2.34,3.68-3.5,5.52-.19.3-.35.61-.54.9-.21.32-.37.37-.67.2-.54-.3-1.1-.57-1.51-1.05.11-.59.39-1.09.74-1.53.94-1.19,1.65-2.52,2.46-3.79.29-.45.57-.91.85-1.37.09-.16.16-.33.26-.53Z"/>
        <path class="cls-2" d="M59.66,160.91c.73.3,1.39.59,1.82,1.17.01.35-.18.56-.32.78-.58.94-1.19,1.86-1.78,2.79-.65,1.02-1.3,2.05-1.94,3.07-.1.16-.16.33-.23.48.15.3.43.36.65.52.33.23.66.46.99.7.14.1.21.26.14.43-.24.6-.52,1.18-1.14,1.51-.46-.12-.86-.35-1.24-.6-.88-.57-1.74-1.17-2.61-1.76-.38-.25-.76-.5-1.14-.75-.35-.24-.77-.4-.99-.84.28-.62.52-1.28,1.17-1.72.66.41,1.29.8,1.96,1.22.61-.75,1.03-1.56,1.54-2.3.53-.78,1.01-1.59,1.55-2.36.52-.75.89-1.6,1.57-2.33Z"/>
        <path class="cls-2" d="M180.45,75.4c-.34.4-.74.55-1.17.64-2.22.45-4.34,1.27-6.51,1.89-.1.03-.19.09-.31.14.39,1.19.75,2.37.9,3.61-.57.47-1.22.58-1.87.65-.32-.24-.47-.56-.53-.91-.19-1.29-.66-2.5-1-3.74-.1-.39-.22-.77-.35-1.2.17-.14.32-.31.5-.39.24-.12.5-.22.76-.25,1.21-.15,2.35-.58,3.51-.92,1.55-.45,3.09-.93,4.64-1.39.23-.07.46-.12.7-.18.56.59.6,1.32.73,2.06Z"/>
        <path class="cls-2" d="M26.54,117.06c.58-.49,1.23-.51,1.9-.61.08.14.19.26.23.4.52,1.73,1.03,3.45,1.54,5.18.03.1.03.21.05.31-.25.38-.63.53-1.03.59-2.35.35-4.56,1.24-6.85,1.84-.73.19-1.44.42-2.14.62-.61-.61-.78-1.09-.76-2.17.36-.39.86-.51,1.36-.61,2.23-.41,4.35-1.2,6.58-1.77-.09-.67-.24-1.29-.39-1.9-.14-.62-.55-1.17-.5-1.89Z"/>
        <path class="cls-2" d="M179.97,99.89c-.81,1.6-2.78,2.15-4.33.99-.87-.66-1.11-1.64-.93-2.68.21-1.24,1.21-2.37,2.81-2.22.62.06,1.21.13,1.73.56,1,.84,1.31,2.17.73,3.35Z"/>
        <path class="cls-2" d="M25.62,100.84c-.49,1.22-2.09,2.14-3.81,1.38-1.34-.59-1.85-2.44-1.22-3.74.82-1.69,2.38-1.79,3.79-1.26,1.4.53,1.91,2.24,1.25,3.62Z"/>
        <path d="M127.65,107.16c-.28.39-.53.81-.84,1.18-.37.44-.84.75-1.44.81-.58.06-1.01-.15-1.25-.67-.14-.31-.25-.66-.3-1-.08-.64-.14-1.29-.15-1.93-.04-1.69-.07-3.39-.09-5.08-.02-2.72-.02-5.44-.05-8.15-.02-1.48-.08-2.96-.11-4.44-.01-.75-.03-1.51.02-2.26.09-1.23.74-1.61,1.84-1.45.32.05.64.11.96.13.35.03.61.19.84.43.32.34.54.73.71,1.17.31.79.44,1.61.47,2.45.07,1.88.14,3.77.14,5.65,0,2.85-.07,5.7-.11,8.56,0,.51.01,1.02.01,1.53,0,1.07-.24,2.08-.65,3.07Z"/>
        <path d="M147.44,108.36c-.37.73-.98,1.01-1.73,1.05-.72.05-1.27-.26-1.6-.89-.22-.42-.42-.88-.51-1.35-.15-.79-.26-1.6-.27-2.4-.07-2.85-.09-5.71-.13-8.56-.03-2.69-.06-5.39-.1-8.08,0-.73.02-1.46.21-2.16.3-1.12,1.01-1.8,2.16-2.04.45-.09.79.03,1.11.32.5.44.86.97.99,1.63.08.45.14.91.15,1.36.04,2.26.05,4.52.07,6.79.02,2.94.02,5.87.06,8.81.02,1.43-.11,2.85-.18,4.28-.02.42-.15.84-.24,1.26Z"/>
        <path d="M94.81,22.66c-.43.85-1.02,1.35-1.78,1.62-.85.3-1.7.22-2.52-.11-.38-.15-.68-.43-.93-.76-.99-1.31-.71-3.43.58-4.44.44-.35.94-.52,1.5-.47.48.04.96.08,1.44.14.13.02.27.06.37.13,1.19.79,1.76,2.14,1.52,3.24-.06.26-.15.51-.18.64Z"/>
        <path d="M110.24,179.13c-.75,1.52-2.49,2.32-4.32,1.54-.51-.22-.87-.63-1.11-1.13-.43-.86-.51-1.75-.22-2.67.43-1.4,2.15-2.3,3.57-1.91.7.19,1.27.56,1.73,1.12.71.88.84,2.02.36,3.04Z"/>
        <path d="M73.57,22.34c1.08-.56,2.15-.87,3.32-.38.12.05.26.1.36.18.86.7,1.49,1.55,1.63,2.68.17,1.29-.61,2.47-1.86,2.85-.51.16-1.02.3-1.56.46,0,0-.02,0-.04-.02-.02-.01-.04-.04-.05-.06-.57-1.76-1.13-3.52-1.7-5.29-.04-.12-.06-.25-.1-.42Z"/>
        <path d="M124.11,171.32c.64,2,1.24,3.92,1.86,5.87-1.03.54-2.06.76-3.15.5-.28-.07-.57-.2-.79-.38-.99-.79-1.45-1.85-1.4-3.11.02-.56.23-1.04.62-1.45.32-.33.68-.61,1.11-.78.55-.22,1.1-.41,1.75-.65Z"/>
        <path d="M36.92,147.95c-.63.49-1.2.93-1.8,1.4-.14-.12-.27-.21-.36-.33-.46-.57-.87-1.17-1.12-1.86-.33-.93-.04-1.33.92-1.36.49-.02.88.11,1.22.49.43.49.8,1,1.14,1.66Z"/>
        <path d="M162.77,50.91c.63-.5,1.19-.94,1.78-1.41.15.11.29.18.39.29.39.41.74.86.97,1.38.11.24.19.5.24.77.07.44-.09.79-.46,1.04-.37.24-.77.28-1.14.03-.26-.18-.51-.4-.71-.64-.35-.44-.67-.91-1.06-1.45Z"/>
        <path d="M36.5,48.17c.47-.82,1.04-1.46,1.71-1.99.32-.25.86-.21,1.21.02.44.3.62.71.49,1.17-.07.23-.17.46-.3.65-.39.54-.82,1.05-1.24,1.59-.41-.15-.65-.44-.93-.67-.29-.23-.57-.48-.93-.77Z"/>
        <path d="M161.36,150.22c.64.47,1.2.95,1.76,1.49-.4.79-.88,1.44-1.59,1.91-.37.25-.78.34-1.22.12-.48-.25-.7-.66-.6-1.19.05-.23.12-.47.24-.67.37-.59.8-1.13,1.4-1.65Z"/>
        <path d="M28.69,134.17c.37-.65,1.09-1.52,1.58-1.88.41.56.73,1.14.88,1.83-.71.15-1.92.17-2.46.05Z"/>
        <path d="M137.5,169.59c-.77-.41-1.34-.94-2-1.43.51-.51,1.13-.74,1.72-1.09.23.24.15.52.19.77.04.29.05.59.07.88.01.26.02.52.03.86Z"/>
        <path d="M62.23,32.65c-.1-.89-.18-1.68-.15-2.55.77.4,1.35.92,1.95,1.36.03.22-.11.27-.22.33-.49.27-.98.53-1.58.86Z"/>
        <path d="M168.64,64.66c.82-.13,1.79-.15,2.46-.05-.02.1-.03.21-.08.28-.4.6-.87,1.14-1.41,1.69-.45-.6-.77-1.22-.97-1.92Z"/>
        <path d="M130.72,26.55c.24.45.2.91.23,1.35.02.39.1.79-.09,1.16-.68-.16-1.47-.51-1.91-.87.54-.59,1.13-1.11,1.77-1.64Z"/>
        <path d="M68.73,172.62c-.11-.96-.08-1.74-.04-2.57.29,0,.49.13.71.21.2.08.4.15.59.25.21.1.48.09.61.41-.51.59-1.15,1.05-1.87,1.7Z"/>
      </g>
    </g>
  </g>
</svg>
