<?xml version="1.0" encoding="UTF-8"?>
<svg id="Capa_2" data-name="Capa 2" xmlns="http://www.w3.org/2000/svg" viewBox="0 0 200 200">
  <defs>
    <style>
      .cls-1 {
        fill: #055395;
      }

      .cls-2 {
        fill: #fff;
      }

      .cls-3 {
        fill: #057d3d;
      }
    </style>
  </defs>
  <g id="Capa_1-2" data-name="Capa 1">
    <g id="Farmacia">
      <circle class="cls-2" cx="100" cy="100" r="100"/>
      <g>
        <path class="cls-1" d="M53.37,71.73c0-4.05,0-8.1,0-12.14,0-2.07,1.26-3.34,3.32-3.34,6.23,0,12.46,0,18.7,0,7.31,0,13.87,5.62,15.02,12.87,1.34,8.4-3.75,15.97-12.01,17.82-1.06.24-2.16.35-3.24.35-6.07.03-12.14.02-18.22.02-2.39,0-3.56-1.18-3.56-3.59,0-3.99,0-7.99,0-11.98Z"/>
        <path class="cls-3" d="M99.97,118.38c-4.05,0-8.1,0-12.15,0-2.09,0-3.38-1.22-3.39-3.29-.02-6.23-.09-12.47.01-18.7.12-7.81,5.83-14.2,13.55-15.17,9.02-1.13,16.37,5.34,17.36,13.36.1.84.14,1.7.14,2.55.01,5.91,0,11.83,0,17.74,0,2.34-1.18,3.51-3.54,3.51-4,0-7.99,0-11.99,0Z"/>
        <path class="cls-1" d="M146.54,71.88c0,4.05-.06,8.1.03,12.14.04,1.82-1.32,3.3-3.3,3.29-6.26-.03-12.52.03-18.77-.02-7.59-.06-14.1-5.93-15.04-13.48-1.04-8.41,4.42-15.83,12.8-17.36.73-.13,1.48-.19,2.22-.19,6.26-.01,12.52,0,18.77,0,2.07,0,3.29,1.2,3.29,3.25,0,4.13,0,8.26,0,12.38Z"/>
        <path class="cls-3" d="M99.96,25.19c4.05,0,8.1,0,12.15,0,2.22,0,3.4,1.19,3.4,3.4,0,6.18.01,12.36,0,18.54-.02,7.57-5.77,14.13-13.27,15.15-8.69,1.18-16.36-4.58-17.64-13.28-.15-1.05-.15-2.12-.15-3.18-.01-5.7,0-11.4,0-17.1,0-1.14.21-2.25,1.24-2.87.62-.38,1.43-.62,2.15-.63,4.05-.06,8.1-.03,12.15-.03ZM100,56.28c3.44-.02,6.26-2.85,6.24-6.27-.01-3.4-2.91-6.28-6.28-6.26-3.45.02-6.23,2.87-6.21,6.38.01,3.39,2.84,6.17,6.26,6.15Z"/>
        <g>
          <path class="cls-3" d="M85.51,129.22c3.43-2.8,5.92-2.8,7.8.05.13-.11.26-.21.37-.33,1.52-1.7,3.65-2.25,5.82-1.5,1.53.53,2.46,1.76,2.49,3.54.05,2.68.03,5.36,0,8.03,0,1.07-.62,1.59-1.75,1.6-1.15,0-1.73-.48-1.75-1.58-.03-1.96-.01-3.91-.02-5.87,0-.15,0-.31,0-.46,0-1.73-.64-2.6-1.93-2.63-1.49-.04-2.68,1.08-2.71,2.66-.05,1.98-.02,3.97-.02,5.95,0,1.55-.92,2.27-2.42,1.88-.78-.21-1.1-.79-1.1-1.57,0-1.98,0-3.97,0-5.95,0-.26,0-.52,0-.77-.06-1.13-.54-1.88-1.36-2.13-.89-.27-2.08.04-2.62.87-.36.56-.62,1.27-.64,1.92-.08,1.93-.05,3.86-.02,5.79.02,1.81-1.2,2.08-2.47,1.81-.75-.16-1.05-.77-1.06-1.51,0-1.93-.01-3.86-.02-5.79,0-1.39-.01-2.78,0-4.17.02-1.24.54-1.85,1.56-1.88,1.1-.04,1.63.48,1.77,1.76.01.1.04.19.07.3Z"/>
          <path class="cls-3" d="M145.91,138.62c-1.02,1.01-2.14,1.7-3.52,1.89-1.08.15-2.15.19-3.18-.27-1.47-.66-2.24-1.86-2.2-3.48.03-1.58.79-2.82,2.35-3.26,1.57-.44,3.22-.64,4.84-.88,1.04-.16,1.54-.5,1.58-1.25.04-.73-.44-1.3-1.38-1.51-1.37-.3-2.6-.02-3.61,1.02-.53.54-1.09,1.04-1.96.77-.81-.26-1.27-.97-.91-1.73.29-.6.71-1.25,1.26-1.58.82-.49,1.76-.86,2.7-1.03,1.68-.31,3.39-.24,5.03.35,1.7.61,2.41,1.63,2.42,3.43,0,1.8-.02,3.61.01,5.41,0,.66.06,1.34.2,1.99.24,1.16,0,1.8-.87,2.06-1.09.33-2.19-.18-2.53-1.18-.07-.21-.13-.43-.23-.74ZM145.68,134.47c-.79.15-1.51.28-2.24.43-.6.12-1.21.23-1.79.42-.7.22-1.15.73-1.12,1.49.03.76.54,1.17,1.25,1.39,2.39.73,4.42-1.21,3.9-3.72Z"/>
          <path class="cls-3" d="M112.73,138.61c-1.49,1.51-3.2,2.09-5.18,1.98-2.65-.15-4.28-2.32-3.57-4.87.48-1.73,1.92-2.33,3.48-2.64,1.18-.23,2.39-.33,3.59-.48,1.01-.12,1.48-.48,1.53-1.2.06-.76-.38-1.3-1.33-1.53-1.24-.3-2.4-.11-3.39.76-.27.24-.52.5-.8.73-.62.49-1.43.47-1.99-.02-.5-.44-.6-1.14-.22-1.83.69-1.25,1.89-1.8,3.19-2.1,1.78-.41,3.58-.37,5.34.12,1.94.54,2.72,1.64,2.74,3.66.02,2.24.06,4.47.1,6.71,0,.2.07.4.12.6.28,1.11.03,1.71-.83,2.01-1,.35-2.1-.07-2.49-.96-.11-.25-.17-.52-.31-.94ZM112.5,134.49c-1,.18-2.01.35-3.01.54-.38.07-.75.18-1.11.31-.67.25-1.06.76-1.03,1.47.03.73.51,1.14,1.18,1.36,2.39.79,4.45-1.14,3.96-3.69Z"/>
          <path class="cls-3" d="M66.86,138.6c-1.04,1.03-2.15,1.74-3.49,1.89-.83.09-1.71.13-2.52-.04-1.8-.39-2.88-1.72-2.94-3.39-.07-1.81.81-3.17,2.67-3.67,1.5-.4,3.09-.5,4.62-.8.47-.09,1.02-.31,1.3-.66.53-.67.1-1.65-.82-1.95-1.3-.43-2.54-.3-3.63.6-.32.26-.6.57-.92.82-.61.46-1.38.44-1.92-.03-.58-.51-.63-1.22-.25-1.75.46-.64,1.06-1.31,1.76-1.64,2.47-1.17,5.04-1.12,7.56-.12,1.32.52,1.97,1.57,1.96,3.03-.02,1.91-.02,3.81,0,5.72.01.64.1,1.28.23,1.9.24,1.11.01,1.73-.83,2.02-1.02.35-2.15-.1-2.53-1.04-.09-.23-.14-.49-.25-.89ZM66.62,134.46c-1.22.24-2.45.44-3.67.73-1.09.26-1.56.89-1.46,1.76.09.77.86,1.32,1.88,1.36,2.34.08,3.64-1.48,3.24-3.85Z"/>
          <path class="cls-3" d="M124.4,140.79c-3.53-.21-5.68-1.81-6.33-4.93-.34-1.61-.23-3.23.35-4.78.89-2.36,2.68-3.59,5.12-3.87,1.75-.2,3.45,0,4.94,1.07.73.52,1.31,1.16,1.36,2.13.04.7-.25,1.22-.89,1.47-.66.25-1.32.24-1.83-.37-.13-.16-.25-.33-.37-.49-1.2-1.59-3.61-1.5-4.61.24-.91,1.59-.97,3.32-.27,4.98.83,1.96,3.46,2.22,4.76.55.19-.24.35-.51.56-.73.52-.55,1.34-.66,1.98-.29.58.34.81.99.59,1.75-.34,1.17-1.12,2-2.21,2.43-1.01.4-2.11.58-3.16.86Z"/>
          <path class="cls-3" d="M54.88,129.74c0,.4,0,.67,0,.95,0,2.7,0,5.4,0,8.11,0,1.19-.59,1.79-1.72,1.81-1.16.02-1.79-.56-1.79-1.72-.02-2.68,0-5.35,0-8.03,0-1.13.05-1.1-1.01-1.1-.85,0-1.26-.4-1.27-1.12,0-.75.36-1.08,1.24-1.15,1.04-.07,1.08-.07,1.03-1.17-.07-1.49.23-2.76,1.63-3.56,1.04-.59,2.16-.67,3.29-.45.7.13,1.21.56,1.33,1.32.13.84-.42,1.47-1.27,1.45-1.25-.04-1.96,1.04-1.4,2.16.06.12.28.2.43.22.38.04.77.02,1.16.05.65.04,1.06.37,1.1,1.05.05.66-.32,1.1-1.05,1.18-.51.05-1.03.01-1.68.01Z"/>
          <path class="cls-3" d="M76.11,129.94c.32-.61.56-1.17.89-1.67.56-.84,1.37-1.2,2.39-1.1.98.1,1.62.75,1.64,1.7.01,1.04-.5,1.62-1.54,1.76-.1.01-.21.01-.31.01-1.84.06-2.49.55-2.65,2.37-.16,1.89-.12,3.8-.15,5.7-.02,1.44-.62,1.99-2.08,1.87-.9-.07-1.43-.58-1.43-1.49-.02-3.5-.02-7,0-10.5,0-.81.55-1.35,1.33-1.43.94-.09,1.57.27,1.75,1.12.11.51.1,1.05.15,1.65Z"/>
          <path class="cls-3" d="M135.13,133.88c0,1.64.01,3.29,0,4.93-.02,1.29-.54,1.8-1.77,1.79-1.21,0-1.74-.56-1.75-1.83,0-3.26,0-6.53,0-9.79,0-1.26.54-1.82,1.75-1.83,1.23,0,1.76.5,1.77,1.79.02,1.64,0,3.29,0,4.93Z"/>
          <path class="cls-3" d="M133.39,122.21c1.05,0,1.87.83,1.85,1.85-.03.97-.87,1.81-1.83,1.83-1.02.02-1.84-.8-1.84-1.85,0-1.1.73-1.83,1.82-1.82Z"/>
        </g>
        <g>
          <path class="cls-1" d="M50.15,152.7c1.53-2.06,3.48-2.54,5.76-2.05,1.55.34,2.73,1.52,2.79,3.09.12,2.82.14,5.65.09,8.47-.02,1.43-1.22,2.12-2.56,1.56-.36-.15-.74-.61-.83-.99-.16-.69-.14-1.42-.15-2.14-.02-1.57,0-3.14,0-4.7,0-1.69-.61-2.53-1.87-2.57-1.45-.05-2.66,1.07-2.7,2.58-.04,1.8,0,3.6-.02,5.4,0,.43-.02.88-.09,1.3-.14.88-.63,1.22-1.65,1.23-1.09,0-1.59-.32-1.74-1.22-.07-.45-.06-.92-.06-1.38,0-1.82.02-3.65-.01-5.47-.03-1.63-.69-2.42-1.95-2.44-1.39-.02-2.58,1.04-2.63,2.48-.06,1.69-.02,3.39-.03,5.09,0,.59,0,1.18-.1,1.76-.13.85-.65,1.18-1.69,1.18-1.04,0-1.51-.33-1.68-1.2-.04-.2-.07-.41-.07-.61,0-3.24-.01-6.48,0-9.71,0-1.23.59-1.87,1.66-1.87.96,0,1.51.49,1.63,1.47.02.17.04.35.09.72,1.1-1.34,2.37-2.1,3.99-2.19,1.7-.09,2.99.57,3.84,2.21Z"/>
          <path class="cls-1" d="M119.57,159.86c.3-1.39.6-2.79.9-4.18.25-1.18.48-2.36.78-3.53.32-1.25.82-1.65,1.96-1.66,1.31-.01,1.91.37,2.22,1.66.53,2.19.98,4.4,1.47,6.6.08.34.16.68.42,1.05.13-.52.28-1.03.4-1.55.48-2.12.94-4.25,1.42-6.38.25-1.09.88-1.52,1.95-1.37.88.13,1.45.82,1.38,1.82-.04.58-.19,1.16-.36,1.72-.8,2.65-1.62,5.29-2.44,7.93-.11.37-.26.73-.41,1.07-.25.54-.67.83-1.27.83-.31,0-.62.01-.92,0-1.06-.02-1.49-.31-1.77-1.35-.59-2.2-1.13-4.42-1.7-6.62-.06-.24-.14-.48-.35-.73-.37,1.43-.74,2.86-1.1,4.29-.26,1.02-.49,2.04-.78,3.05-.3,1.04-.73,1.34-1.77,1.36-1.62.04-2.02-.11-2.39-1.25-1.03-3.2-2.04-6.4-2.98-9.62-.45-1.55.39-2.61,1.84-2.51.8.05,1.19.43,1.43,1.45.57,2.37,1.14,4.73,1.71,7.1.07.27.14.54.21.81.06,0,.12,0,.18,0Z"/>
          <path class="cls-1" d="M104.38,152.16c1.21-1.06,2.47-1.68,4.03-1.68,2.82,0,4.5,1.54,4.58,4.37.07,2.44.03,4.88,0,7.32-.01,1.22-.6,1.73-1.86,1.71-1.16-.02-1.63-.51-1.64-1.74,0-1.77,0-3.55,0-5.32,0-.21,0-.41,0-.62-.02-1.83-.78-2.81-2.22-2.84-1.57-.03-2.86,1.23-2.89,2.88-.03,1.95,0,3.91-.01,5.86,0,1.54-1.4,2.38-2.72,1.57-.38-.24-.74-.86-.74-1.3-.05-5.04-.04-10.07-.03-15.11,0-1.03.68-1.64,1.74-1.64,1.08,0,1.73.62,1.74,1.71.01,1.61,0,3.23,0,4.84Z"/>
          <path class="cls-1" d="M69.48,161.89c-1.43,1.55-3.16,2.08-5.13,1.99-1.83-.08-3.41-1.31-3.69-2.92-.34-2.01.56-3.69,2.55-4.25,1.52-.43,3.12-.56,4.69-.8,1.01-.16,1.44-.51,1.47-1.26.03-.71-.44-1.23-1.34-1.46-1.31-.34-2.49-.07-3.5.85-.32.29-.64.61-1.01.82-.61.35-1.2.2-1.7-.26-.47-.43-.61-1.05-.25-1.54.47-.64,1-1.37,1.68-1.71,2.53-1.26,5.16-1.21,7.75-.15,1.29.53,1.89,1.61,1.9,3,0,2-.01,4.01.01,6.01,0,.53.07,1.08.19,1.6.24,1.09.03,1.67-.76,1.97-1,.37-2.1-.01-2.52-.9-.13-.28-.2-.58-.35-1ZM69.28,157.71c-.4.11-.74.22-1.08.3-.35.08-.71.12-1.06.19-.6.12-1.21.21-1.79.4-.86.27-1.26.84-1.22,1.56.04.67.61,1.28,1.42,1.41,2.25.35,4.34-1.12,3.73-3.85Z"/>
          <path class="cls-1" d="M80.63,163.87c-1.49.04-2.94-.21-4.2-1.02-.59-.38-1.11-.99-1.47-1.6-.35-.59-.17-1.29.42-1.72.57-.42,1.22-.39,1.78.05.38.3.71.66,1.08.99,1.01.9,2.18,1.09,3.45.71.57-.17,1.02-.51,1.02-1.19,0-.67-.48-.93-1.02-1.08-1.11-.3-2.24-.57-3.35-.87-.47-.13-.93-.28-1.38-.46-1.24-.51-1.99-1.44-2.11-2.79-.12-1.38.31-2.54,1.48-3.35,1.55-1.07,3.31-1.23,5.1-.98,1,.14,2.01.46,2.91.9.52.25.95.84,1.22,1.38.28.56.01,1.17-.5,1.57-.52.41-1.1.42-1.65.08-.3-.19-.57-.44-.84-.67-1.03-.86-2.2-.97-3.4-.54-.33.12-.74.6-.75.92,0,.32.38.82.71.94.91.33,1.88.48,2.82.76.86.26,1.74.5,2.52.92,2.09,1.13,2.43,3.76.77,5.48-1.03,1.06-2.54,1.59-4.6,1.58Z"/>
          <path class="cls-1" d="M152.56,160.83c1.71,0,3.19,0,4.67,0,.49,0,.98-.03,1.46.03.89.12,1.28.66,1.2,1.56-.06.72-.52,1.13-1.37,1.13-3,.01-6.01,0-9.01,0-.68,0-1.29-.1-1.59-.81-.31-.73-.08-1.37.41-1.91,1.48-1.63,2.99-3.25,4.48-4.87.69-.75,1.37-1.5,2.17-2.38-.38-.04-.59-.07-.8-.08-1.39,0-2.77,0-4.16,0-1.11,0-1.64-.46-1.63-1.38.01-.88.54-1.34,1.59-1.34,2.72,0,5.44,0,8.16,0,.63,0,1.19.12,1.46.76.29.67.2,1.31-.3,1.86-.86.96-1.72,1.9-2.59,2.85-1.33,1.46-2.66,2.92-4.16,4.57Z"/>
          <path class="cls-1" d="M93.75,163.87c-4.57.08-7.01-3-6.36-7.71.65-4.74,5.26-7.11,9.6-5.02.76.37,1.45,1.06,1.95,1.75.56.77.28,1.76-.39,2.18-.83.51-1.68.36-2.26-.53-.69-1.04-1.62-1.5-2.82-1.3-1.27.21-2.12,1.02-2.34,2.25-.19,1.09-.25,2.24-.11,3.33.15,1.2.95,2.05,2.2,2.28,1.21.23,2.19-.12,2.94-1.19.31-.44.85-.87,1.36-1,1.03-.27,1.78.53,1.65,1.6-.11.93-.64,1.61-1.34,2.16-1.21.95-2.62,1.24-4.07,1.19Z"/>
          <path class="cls-1" d="M140.67,150.75c0-.8-.01-1.52,0-2.23.02-1.1.66-1.72,1.74-1.73,1.12,0,1.74.62,1.75,1.77,0,.54.02,1.08,0,1.62-.03.48.17.64.63.61.38-.02.78-.02,1.15.04.64.11,1.01.51.97,1.18-.04.63-.44.96-1.05,1.02-.38.04-.79-.03-1.15.07-.21.06-.52.34-.52.53-.04,2.16-.02,4.32-.02,6.47,0,.69.34,1.05,1.03,1.06.03,0,.05,0,.08,0,1.19.08,1.58.33,1.64,1.09.06.78-.58,1.47-1.59,1.56-.74.07-1.5.08-2.23-.01-1.55-.21-2.4-1.21-2.42-2.79-.03-2.34-.03-4.68,0-7.01,0-.67-.13-.97-.87-.96-.85.01-1.16-.35-1.17-1.09,0-.77.34-1.1,1.21-1.15.23-.01.46-.02.81-.04Z"/>
          <path class="cls-1" d="M137.38,157.21c0,1.67,0,3.34,0,5.01,0,1.15-.5,1.64-1.64,1.66-1.25.02-1.84-.46-1.85-1.62-.02-3.36-.02-6.73,0-10.09,0-1.17.6-1.69,1.81-1.68,1.14.01,1.67.55,1.67,1.72,0,1.67,0,3.34,0,5.01Z"/>
          <path class="cls-1" d="M135.63,145.55c1.07,0,1.86.78,1.85,1.83-.01,1.01-.81,1.81-1.81,1.81-1.04,0-1.87-.83-1.86-1.85.02-1.02.79-1.79,1.82-1.79Z"/>
        </g>
      </g>
    </g>
  </g>
</svg>
