<?xml version="1.0" encoding="UTF-8"?>
<svg id="Capa_2" data-name="Capa 2" xmlns="http://www.w3.org/2000/svg" viewBox="0 0 200 200">
  <defs>
    <style>
      .cls-1 {
        fill: none;
      }

      .cls-2 {
        fill: #090a0d;
      }

      .cls-3 {
        fill: #1d1d1b;
      }
    </style>
  </defs>
  <g id="Capa_1-2" data-name="Capa 1">
    <g id="iTech">
      <circle class="cls-1" cx="100" cy="100" r="100"/>
      <g>
        <g>
          <g>
            <path class="cls-2" d="M58.96,84.77h6.1v26.62h-6.1v-26.62Z"/>
            <path class="cls-2" d="M82.4,81.85h-11.19v-5.75h28.64v5.75h-11.19v29.54h-6.25v-29.54Z"/>
            <path class="cls-2" d="M98.48,98.19v-.1c0-7.61,5.39-13.86,13.01-13.86,8.47,0,12.76,6.65,12.76,14.32,0,.55-.05,1.11-.1,1.71h-19.56c.66,4.34,3.73,6.76,7.66,6.76,2.97,0,5.09-1.11,7.21-3.18l3.58,3.18c-2.52,3.02-6,4.99-10.89,4.99-7.71,0-13.66-5.6-13.66-13.81ZM118.2,96.22c-.4-3.93-2.72-7.01-6.76-7.01-3.73,0-6.35,2.87-6.91,7.01h13.66Z"/>
            <path class="cls-2" d="M128.93,98.24v-.1c0-7.56,5.85-13.91,13.86-13.91,4.99,0,8.12,1.87,10.64,4.59l-3.83,4.08c-1.87-1.97-3.83-3.33-6.86-3.33-4.44,0-7.71,3.83-7.71,8.47v.1c0,4.74,3.28,8.52,7.97,8.52,2.87,0,4.99-1.31,6.91-3.28l3.68,3.63c-2.62,2.92-5.7,4.99-10.89,4.99-7.91,0-13.76-6.2-13.76-13.76Z"/>
            <path class="cls-2" d="M159.18,74.59h6.1v14.27c1.71-2.47,4.18-4.64,8.32-4.64,6,0,9.48,4.03,9.48,10.18v16.99h-6.1v-15.12c0-4.13-2.07-6.5-5.7-6.5s-6,2.47-6,6.6v15.02h-6.1v-36.8Z"/>
          </g>
          <path class="cls-2" d="M60.7,114.33v7.51c0,8.55-6.95,15.5-15.5,15.5s-15.16-6.64-15.47-14.91h1.95c.31-.04.64-.06.97-.05.57.02,1.15.04,1.72.05h3.09c.55,0,1.1-.02,1.64-.04,4.02-.14,5.92-1.95,6.33-5.93.08-.81.1-1.63.1-2.44,0-14.01,0-28.02-.02-42.03,0-1.33-.06-2.67-.25-3.99-.3-2.06-1.5-3.52-3.42-4.3-1.57-.63-3.18-1.15-4.8-1.63-1.89-.56-2.86.18-2.87,2.11-.02,2.26.48,2.54,3.19,1.79,3.7-1.03,5.7.42,5.71,4.28.03,12.6-.02,25.2.03,37.81,0,2.07-.65,2.87-2.83,2.84-3.88-.06-7.76-.06-11.64-.05-3.88-.01-7.76-.02-11.64.05-2.18.03-2.83-.77-2.83-2.84.05-12.6,0-25.2.03-37.81,0-3.86,2.01-5.31,5.71-4.28,2.71.75,3.21.47,3.19-1.79-.02-1.93-.98-2.67-2.87-2.11-1.62.48-3.23,1-4.8,1.63-1.92.77-3.12,2.23-3.42,4.3-.19,1.31-.25,2.66-.25,3.99-.02,14.01-.02,28.02-.02,42.03,0,.81.02,1.63.1,2.44.41,3.98,2.31,5.78,6.33,5.93.55.02,1.09.03,1.64.04h3.09c.57-.01,1.15-.02,1.72-.05.34-.01.66,0,.97.05h2.17c.32,9.36,8.01,16.88,17.44,16.88s17.47-7.84,17.47-17.47v-7.51h-1.97ZM25.98,116.59c0-1.46,1.18-2.64,2.64-2.64s2.64,1.18,2.64,2.64-1.18,2.64-2.64,2.64-2.64-1.18-2.64-2.64Z"/>
          <circle class="cls-2" cx="61.98" cy="78.85" r="3.43"/>
        </g>
        <g>
          <path class="cls-3" d="M82.86,120.38h6.24v.91h-5.26v3.1h4.7v.89h-4.7v3.79h-.98v-8.69Z"/>
          <path class="cls-3" d="M90.87,120.19h1.09v1.06h-1.09v-1.06ZM90.93,122.65h.96v6.42h-.96v-6.42Z"/>
          <path class="cls-3" d="M96.6,125.16l1.91-2.51h1.07l-2.43,3.14,2.53,3.28h-1.1l-1.99-2.64-2,2.64h-1.07l2.51-3.26-2.41-3.15h1.09l1.89,2.51Z"/>
          <path class="cls-3" d="M110.02,127.84c-.79.86-1.71,1.35-2.84,1.35-1.56,0-2.73-.98-2.73-2.43v-.02c0-1.15.77-1.99,2.1-2.51-.6-.7-.87-1.23-.87-1.91v-.02c0-1.14.92-2.06,2.3-2.06,1.22,0,2.11.88,2.11,1.96v.02c0,1.1-.78,1.81-2.05,2.26l1.99,2.02c.38-.56.73-1.22,1.04-1.94l.81.37c-.38.82-.78,1.56-1.25,2.18l1.51,1.55-.74.57-1.37-1.4ZM109.43,127.23l-2.32-2.4c-1.15.42-1.66,1.13-1.66,1.86v.02c0,.93.74,1.64,1.81,1.64.82,0,1.54-.43,2.17-1.13ZM109.16,122.27v-.02c0-.7-.52-1.2-1.23-1.2-.78,0-1.32.55-1.32,1.25v.02c0,.51.21.89.87,1.6,1.1-.37,1.68-.91,1.68-1.65Z"/>
          <path class="cls-3" d="M120.7,120.32h.92l3.96,8.75h-1.06l-1.02-2.3h-4.73l-1.03,2.3h-1.01l3.96-8.75ZM123.12,125.88l-1.97-4.42-1.99,4.42h3.96Z"/>
          <path class="cls-3" d="M126.42,125.89v-.02c0-1.81,1.42-3.35,3.29-3.35,1.22,0,1.97.51,2.57,1.14l-.63.67c-.51-.53-1.08-.97-1.95-.97-1.3,0-2.3,1.1-2.3,2.48v.02c0,1.39,1.02,2.49,2.36,2.49.82,0,1.45-.41,1.96-.96l.61.57c-.65.72-1.42,1.24-2.62,1.24-1.87,0-3.29-1.53-3.29-3.33Z"/>
          <path class="cls-3" d="M133.33,125.89v-.02c0-1.81,1.42-3.35,3.29-3.35,1.22,0,1.97.51,2.57,1.14l-.63.67c-.51-.53-1.08-.97-1.95-.97-1.3,0-2.3,1.1-2.3,2.48v.02c0,1.39,1.02,2.49,2.36,2.49.82,0,1.45-.41,1.96-.96l.61.57c-.65.72-1.42,1.24-2.62,1.24-1.87,0-3.29-1.53-3.29-3.33Z"/>
          <path class="cls-3" d="M140.23,125.88v-.02c0-1.85,1.3-3.34,3.08-3.34,1.9,0,2.99,1.51,2.99,3.39,0,.12,0,.2-.01.31h-5.09c.14,1.39,1.12,2.17,2.26,2.17.88,0,1.5-.36,2.02-.91l.6.53c-.65.72-1.43,1.2-2.64,1.2-1.76,0-3.2-1.35-3.2-3.34ZM145.33,125.51c-.1-1.17-.77-2.18-2.05-2.18-1.12,0-1.96.93-2.09,2.18h4.13Z"/>
          <path class="cls-3" d="M147.44,128.25l.48-.68c.7.52,1.46.82,2.22.82s1.33-.4,1.33-1.02v-.02c0-.65-.76-.89-1.6-1.13-1.01-.29-2.12-.63-2.12-1.81v-.02c0-1.1.92-1.84,2.18-1.84.78,0,1.65.27,2.31.71l-.43.72c-.6-.38-1.28-.62-1.9-.62-.76,0-1.24.4-1.24.93v.02c0,.61.79.84,1.65,1.1.99.3,2.06.68,2.06,1.84v.02c0,1.22-1.01,1.92-2.28,1.92-.92,0-1.94-.36-2.66-.94Z"/>
          <path class="cls-3" d="M153.76,125.89v-.02c0-1.81,1.42-3.35,3.35-3.35s3.34,1.51,3.34,3.33v.02c0,1.81-1.43,3.35-3.36,3.35s-3.33-1.51-3.33-3.33ZM159.47,125.89v-.02c0-1.38-1.03-2.51-2.38-2.51s-2.35,1.13-2.35,2.48v.02c0,1.38,1.02,2.49,2.37,2.49s2.36-1.12,2.36-2.47Z"/>
          <path class="cls-3" d="M162.18,122.65h.96v1.68c.47-1.07,1.4-1.84,2.62-1.79v1.03h-.07c-1.4,0-2.54,1.01-2.54,2.94v2.56h-.96v-6.42Z"/>
          <path class="cls-3" d="M167.23,120.19h1.09v1.06h-1.09v-1.06ZM167.29,122.65h.96v6.42h-.96v-6.42Z"/>
          <path class="cls-3" d="M170.07,125.88v-.02c0-1.85,1.3-3.34,3.08-3.34,1.9,0,2.99,1.51,2.99,3.39,0,.12,0,.2-.01.31h-5.09c.14,1.39,1.12,2.17,2.26,2.17.88,0,1.5-.36,2.02-.91l.6.53c-.65.72-1.43,1.2-2.64,1.2-1.76,0-3.2-1.35-3.2-3.34ZM175.18,125.51c-.1-1.17-.77-2.18-2.05-2.18-1.12,0-1.96.93-2.09,2.18h4.13Z"/>
          <path class="cls-3" d="M177.29,128.25l.48-.68c.7.52,1.46.82,2.22.82s1.33-.4,1.33-1.02v-.02c0-.65-.76-.89-1.6-1.13-1.01-.29-2.12-.63-2.12-1.81v-.02c0-1.1.92-1.84,2.18-1.84.78,0,1.65.27,2.31.71l-.43.72c-.6-.38-1.28-.62-1.9-.62-.76,0-1.24.4-1.24.93v.02c0,.61.79.84,1.65,1.1.99.3,2.06.68,2.06,1.84v.02c0,1.22-1.01,1.92-2.28,1.92-.92,0-1.94-.36-2.66-.94Z"/>
        </g>
      </g>
    </g>
  </g>
</svg>
