<?xml version="1.0" encoding="UTF-8"?>
<svg id="Capa_2" data-name="Capa 2" xmlns="http://www.w3.org/2000/svg" viewBox="0 0 200 200">
  <defs>
    <style>
      .cls-1 {
        fill: #fff;
      }

      .cls-2 {
        fill: #e1111e;
      }
    </style>
  </defs>
  <g id="Capa_1-2" data-name="Capa 1">
    <g id="Juan_Valdez" data-name="Juan Valdez">
      <circle class="cls-2" cx="100" cy="100" r="100"/>
      <g>
        <path class="cls-1" d="M9.14,102.79c2.59-3.4,5.41,5.24,12.71,6.64,2.99.57,5.77-.73,7.1-3.47,2.41-5.19,2.04-11.86,1.8-17.71l-9.75,3.09c-1.17.37-2.33-.76-2.6-1.66-.35-1.16.32-2.16,1.54-2.69,7.05-3.05,14.26-5.49,21.74-7.42,1.31-.34,2.41.29,2.71,1.4s-.2,2.16-1.38,2.62l-7.79,3.01c.37,7.43.35,16.45-3.23,22.66-2.35,4.06-6.59,5.88-11.22,4.74s-8.57-3.96-11.53-7.68c-.83-1.04-.89-2.49-.1-3.53Z"/>
        <path class="cls-1" d="M71.5,135.35c-.48,4-.41,10,2.57,11.31,2.68,1.17,6.88-3.28,9.41-5.97.91-.97,2.02-1.42,3.09-.97s2.08,1.6,1.56,2.93c-2.51,6.54-9.26,11.45-16.05,8.74-3.12-1.25-5.34-4.14-5.9-7.55-.99-5.97-.21-12.06,1.81-17.74,1.16-3.25,2.99-5.99,5.69-8.05,3.89-2.98,8.34.35,11.17,4.31.59.83.54,2.59-.45,3.18s-3,.41-3.74-.44c-1-1.16-1.55-2.63-3.21-3-2.81-.63-5.45,9.1-5.95,13.26Z"/>
        <path class="cls-1" d="M189.75,105.33l-13.54,5.22-8.47,3.51c-1.31.55-2.83,0-3.55-1.17-.64-1.03-.58-2.62.57-3.61l14.78-12.73-10.92,4.08c-1.13.42-2.24-.15-2.67-1.25-.31-.79-.01-2.22,1.14-2.66,4.8-1.84,9.55-3.43,14.54-4.69,1.34-.34,2.92.26,3.47,1.47.63,1.38.09,2.97-1,3.93l-7.14,6.26-6.32,5.17,15.56-7.01c2.19-.99,4.15-.82,4.66.74.27.84.03,2.26-1.12,2.71Z"/>
        <path class="cls-1" d="M112.55,82.62c.76-.24,1.42-.02,1.84.37.39.37.77,1.13.51,1.89l-9.51,27.44c-.44,1.28-1.72,1.87-2.82,1.83-1.17-.03-2.22-.72-2.68-2.01l-9.34-26.42c-.48-1.35.63-2.71,1.61-3.03,1.29-.43,2.45.27,3.17,1.5l4.61,14.86,2.89,9.23,3.63-11.73,4.14-11.91c.31-.9.88-1.69,1.94-2.03Z"/>
        <path class="cls-1" d="M143.41,107.07c-2,3.3-5.71,5.6-8.04,3.65-3.99-3.34,1.96-16.9,8.8-18.74l-.1-5.05c-.02-1.05.47-1.98,1.31-2.54.62-.41,1.31-.46,1.91-.17.56.27,1.07,1.02,1.05,1.85l-.22,10.59.66,11.04c.07,1.18,0,2.11-.85,2.76-.81.61-2.02.82-2.91.1-1.03-.85-1.35-2.15-1.6-3.49ZM144.42,95.85c-3.33,2.33-7.14,10.42-5.4,10.71,2.15.36,5.72-6.65,5.4-10.71Z"/>
        <path class="cls-1" d="M79.72,97.52c-1.54-.4-2.69,1.96-3.25,4.32-1.11,4.7.89,8.88-2.25,9.34-1.24.18-2.51-.74-2.59-2.25l-.67-14.02c-.04-.84.55-1.73.99-2.1.6-.51,1.48-.8,2.28-.44,1.27.57,1.56,1.95,1.74,3.4.81-1.37,1.57-2.63,2.97-3.4,2.05-1.14,4.53-.4,5.5,1.77,1.51,3.4,1.82,10.65,1.75,14.97-.02,1.38-1.12,2.36-2.29,2.42s-2.39-.83-2.41-2.19l-.12-6.93c-.04-2.11-.44-4.57-1.65-4.88Z"/>
        <path class="cls-1" d="M101.46,61.97c.81-.28,1.5.54,2.14.68.55-.37,1.31-1.43,1.04-2.19-1.34-3.74-3.33-7.11-5.75-10.21-.35-.45-.81-.83-1.38-.86-1.03,2.96-1.73,5.95-3.21,8.74l-3.6,5.43c-.36.54-.74,1.04-.75,1.75,4.03-.61,3.59-4.56,5.84-6.31.34,1.15-.14,2.11-.41,3.12-1.42,5.3-6.4,4.58-6.53,7.08-.11,1.91-.39,3.76-1.48,5.32-.31.15-.91.15-1.29.09,1.39-3.17,1.84-6.7,1.18-10.19-.59-3.12-3.77-4.6-6.7-3.77-1.48-2.46,4.14-2.26,6.58-.49.91.66.97,1.97,1.62,2.91,1.02-.36,1.61-1.33,2.14-2.25,1.85-3.25,3.42-6.53,4.83-10.02.53-1.32.13-2.99-.54-4.2-1.76-3.2-2.54-6.83-1.55-10.44.1-.36,1.29-.28,1.47-.11-1.1,3.43,0,6.68,1.64,9.57.83,1.48,1.51,2.65,3.16,3.33,2.26.94,4.13,2.62,5.53,4.65l3.5-.25c-.55,2.38-4.25.66-3.75,2.88l.54,2.39c1.44-.8,1.89-2.65,3.03-2.91,2.54-.57,6.23,6.22,5.2,6.7-1.14.54-3.04-3.82-4.22-4.2s-2.97,2.92-4.19,4.73c-2.02,2.99-3.89,5.97-5.16,9.38l-.63,2.27h-2.08c.66-2.75,1.79-5.24,3.46-7.59.61-.86,1.17-1.73,1.35-2.81-2.5-.4-2.35,2.11-3.43,2.39-1.52.4-.62-3.22,2.4-4.62Z"/>
        <path class="cls-1" d="M112.38,137.73l.52,10.41c.04.82-.8,1.56-1.39,1.71-1.68.43-2.65-2.4-2.83-5.02l-.41-6.05c-1.75.99-3.71.79-4.56-.91-.93-1.86,1.93-3.15,4.7-3.71l.21-9.22c.05-2.1,1.22-4.1,3.05-5.11,3.2-1.75,8.47.13,8.66,2.6.07.95-.33,2.37-1.55,2.31-1.14-.06-2.89-2.26-4.61-1.45-1.8.85-1.85,6.14-1.63,9.51l4.54-1.21c.56-.15,1.14-.11,1.58.24.28.23.57.74.62,1.33.1,1.21-.69,2.47-1.87,2.87l-5.01,1.7Z"/>
        <path class="cls-1" d="M97.89,146.21c-1.59,3.06-5.28,5.52-7.81,3.68-3.45-2.51,0-11.32,4.05-15.76,2.25-2.47,6.05-4.15,7.72-2.76.42.35.93,1.12.91,1.96-.13,4.84.16,9.52.69,14.29.14,1.23-.93,2.16-1.8,2.39-1.37.37-2.49-.31-2.97-1.62l-.8-2.19ZM99.08,134.96c-3.14,2.1-7.14,10.08-5.43,10.74s5.76-6.3,5.43-10.74Z"/>
        <path class="cls-1" d="M63.48,107.11c-1.72,3.25-5.71,5.58-8.01,3.58-3.77-3.28,2-17.99,10.18-18.88,1.31-.14,2.62.74,2.62,2.18,0,4.78.11,9.46.73,14.25.14,1.09-.42,1.95-1.13,2.39-.92.57-2.12.55-2.9-.24-.83-.85-.99-1.84-1.49-3.28ZM64.64,95.88c-3.14,2.04-7.16,9.99-5.44,10.73,1.62.69,5.74-6.24,5.44-10.73Z"/>
        <path class="cls-1" d="M119.48,107.12c-1.57,3.07-5.33,5.49-7.8,3.67-3.46-2.55,0-11.33,4.05-15.75,2.28-2.49,6.09-4.14,7.71-2.77.43.36.95,1.14.92,1.97-.17,4.91.21,9.65.68,14.49.12,1.2-1.23,2.12-2.05,2.25-1.28.21-2.27-.46-2.72-1.68l-.8-2.19ZM120.82,95.85c-3.37,2.35-7.09,10.38-5.43,10.7,2.16.42,5.76-6.57,5.43-10.7Z"/>
        <path class="cls-1" d="M52.82,108.06c.17,1.05-.62,1.85-1.04,2.3-.48.52-1.62.91-2.39.45-1.22-.74-1.44-2.11-1.89-3.55-.75,1.49-1.59,2.9-3.03,3.67-2.11,1.12-4.42.15-5.16-2.06-.54-1.61-.85-3.26-.84-5.02l.11-9.78c.02-1.4,1.5-2.36,2.66-2.21,1.26.17,1.99,1.43,1.83,2.8-.42,3.72-1.17,11.06.84,11.62,2.52.7,3.84-7.62,4.03-11.69.07-1.42.83-2.37,2.11-2.34,1.15.02,2.36.86,2.27,2.28-.31,4.53-.27,8.92.49,13.53Z"/>
        <path class="cls-1" d="M122.96,145.61c4.13,2.46,7.51-4.28,9.63-1.48,1.98,2.62-3.13,6.2-7.67,6.25-3.36.04-6.03-2.12-6.4-5.48-.49-4.5,1.27-9.09,4.7-12.03,2.8-2.4,6.84-3.04,8.51-.68,2.8,3.95-3.58,11.1-8.77,13.41ZM127.87,135.84c.15-.75-.15-1.21-.56-1.27-2.33-.33-5.09,4.67-5.23,7.85,2.58-1.75,4.4-3.93,5.79-6.59Z"/>
        <path class="cls-1" d="M154.29,106.93c4.39,2.23,7.11-3.83,9.43-1.74.67.61,1,1.99.29,2.86-1.93,2.35-5.04,3.71-8.1,3.61s-5.53-2.1-5.97-5.23c-1.01-7.22,4.53-14.82,10.35-14.4,2.27.17,3.78,2,3.45,4.27-.63,4.34-5.39,8.67-9.45,10.63ZM153.49,103.64c2.62-1.74,4.32-3.91,5.66-6.34.18-.51.15-1.16-.2-1.36-1.84-1.04-5.42,4.05-5.46,7.7Z"/>
        <path class="cls-1" d="M128.52,110.85c-.63-.58-1.07-1.46-1.1-2.33-.26-7.14-.3-14.12-.01-21.26.05-1.15.53-2.23,1.42-2.77.65-.4,1.31-.43,1.79-.22.65.28,1.16.97,1.14,1.83-.18,7.73-.13,15.29.43,22.98.07.91-.55,1.75-1.06,2.06-.78.48-1.79.47-2.6-.28Z"/>
        <path class="cls-1" d="M89.35,41.67c-1.33,1.41-5.42,3.69-6.05,3.33-.92-.52,1.05-2.48-.82-1.88.11-1.49.88-2.9,2.24-3.65-.1-1.27-.53-2.16-.89-3.33,2.25-1.15,1.62,2.36,3.99,2.26,2.6-.11,2.78-3.34,4.7-2.3-.99,1.93-1.66,3.95-3.17,5.56Z"/>
        <path class="cls-1" d="M104.96,43.01c-1.3.69-2.07-.66-2.92-.38-.68.23-1.58,3.05.1,4.66.05.27-.54.68-.77.65-.28-.05-.83-.3-.92-.76-.33-1.62-1.16-2.86-1.69-4.47-.84-2.53,1.34-5.55,3.94-5.83,1.23-.13,2.16-.06,3.17-.79.35-.26,1.37,0,1.23.34-.46,1.12-1.89.85-2.81,1.11-1.36.39-2.36,1.93-2.42,3.28-.07,1.45,2.83-.39,3.7,1.02.3.49-.29,1.01-.6,1.17Z"/>
        <path class="cls-1" d="M114.8,43.7l-1.19,2.51c-.09.18-.4.45-.54.42-1-.23.57-2.83-.06-4.19-.51-1.1-1.13-1.94-.57-3.34-.45-.45-.86-.82-1.08-1.54,2.22-1.89,5.43,1.87,5.7,4.15.3,2.48-1.68,6.06-2.55,6.1-.18,0-.45-.26-.43-.42.15-.96,2.13-2.17.71-3.7Z"/>
        <path class="cls-1" d="M115.86,58.23c-.27.3-.49.36-.71.35-.92-.06-.02-1.82,1.23-3.53-.41-.62-1.35-1.91-2.19-1.8-1.56.2-2.3,1.98-4.04,1.98.85-1.76,2.08-3.97,3.7-4.85,1.73-.94,3.78-1,5.05-2.86.26.78.26,1.43-.03,2.28-.92.51-2.37,1.04-2.55,2.24-.21,1.38,2.62,1.69,2.79,2.96.12.9-.84.6-1.22,1.02l-2.02,2.22Z"/>
        <path class="cls-1" d="M113.2,74.47c-.68.29-1.33.22-1.96.03.95-6.28,3.77-11.99,7.72-16.68.04,1.18.42,2.49-.14,3.24-2.93,3.97-5.09,8.32-5.62,13.41Z"/>
        <path class="cls-1" d="M133.06,125.47c-1.67,1.84-3.97,4.35-5.4,3.15-1.69-1.43,1.26-4.64,3.95-6.06.82-.43,1.61.33,1.84.88.31.72.19,1.39-.4,2.03Z"/>
        <path class="cls-1" d="M117.07,74.4c-.26.41-1.56.33-2.03.06.76-3.88,1.87-7.47,3.91-10.61.1,1,.25,2.01.02,2.91l-1.9,7.64Z"/>
        <path class="cls-1" d="M110.23,49.14c-1.06-1.88-5.74-1.95-6.78.26-.31-.83-.18-2.74.89-2.82l5.28-.38c.73.46,1.06,1.97.61,2.94Z"/>
        <path class="cls-1" d="M92.98,47.96c.94.12.37,2.19-1.39,2.88-.41.16-.88.05-1.12-.2-.17-.18-.4-.58-.27-1.02.34-1.15,1.6-1.81,2.78-1.66Z"/>
        <path class="cls-1" d="M110.4,41.27l1.03.89c-1.28.46-2.71.71-3.74-.21-.29-.26.2-1.12.47-1.32,1.33-.98,5.56.93,2.23.64Z"/>
        <path class="cls-1" d="M81.86,70.49c-.81-.52.03-2.99.92-3.02,1.07-.03,1.04,1.14.91,1.77-.12.58-.8,1.92-1.83,1.25Z"/>
        <path class="cls-1" d="M84.48,74.51c-.64.29-1.45.12-2.23.06l2.97-2.4c.54.87,0,2-.74,2.34Z"/>
        <path class="cls-1" d="M189.34,109.97h.2l.44.8h.42l-.49-.82c.32-.02.52-.15.52-.5,0-.44-.28-.58-.77-.58h-.71v1.91h.41v-.8ZM189.34,109.19h.33c.21,0,.32.04.32.23s-.11.23-.32.23h-.33v-.46Z"/>
        <path class="cls-1" d="M189.63,111.55c.94,0,1.79-.65,1.79-1.73s-.85-1.74-1.79-1.74-1.79.65-1.79,1.74.86,1.73,1.79,1.73ZM189.63,108.5c.7,0,1.26.53,1.26,1.32s-.56,1.32-1.26,1.32-1.25-.54-1.25-1.32.56-1.32,1.25-1.32Z"/>
      </g>
    </g>
  </g>
</svg>
