<?xml version="1.0" encoding="UTF-8"?>
<svg id="Capa_2" data-name="Capa 2" xmlns="http://www.w3.org/2000/svg" xmlns:xlink="http://www.w3.org/1999/xlink" viewBox="0 0 200 200">
  <defs>
    <style>
      .cls-1, .cls-2 {
        fill: none;
      }

      .cls-3 {
        clip-path: url(#clippath-11);
      }

      .cls-4 {
        clip-path: url(#clippath-10);
      }

      .cls-5 {
        fill: #be2325;
      }

      .cls-6 {
        clip-path: url(#clippath-1);
      }

      .cls-7 {
        clip-path: url(#clippath-3);
      }

      .cls-8 {
        clip-path: url(#clippath-4);
      }

      .cls-9 {
        clip-path: url(#clippath-2);
      }

      .cls-10 {
        clip-path: url(#clippath-7);
      }

      .cls-11 {
        clip-path: url(#clippath-6);
      }

      .cls-12 {
        clip-path: url(#clippath-9);
      }

      .cls-13 {
        clip-path: url(#clippath-8);
      }

      .cls-14 {
        clip-path: url(#clippath-5);
      }

      .cls-15 {
        fill: #fff;
      }

      .cls-2 {
        clip-rule: evenodd;
      }

      .cls-16 {
        clip-path: url(#clippath);
      }
    </style>
    <clipPath id="clippath">
      <path class="cls-2" d="M58.07,89.83l-.09.27-.18.36-.09.27-.18.36v.18h9.02v-.18l.18-.36.09-.27.18-.36.09-.27h-9.02ZM38.58,89.83v1.46h8.2v-1.46h-8.2Z"/>
    </clipPath>
    <clipPath id="clippath-1">
      <rect class="cls-1" x="38.31" y="89.46" width="29.14" height="1.82"/>
    </clipPath>
    <clipPath id="clippath-2">
      <rect class="cls-1" x="38.31" y="89.46" width="29.14" height="1.82"/>
    </clipPath>
    <clipPath id="clippath-3">
      <polygon class="cls-2" points="83.85 89.83 83.76 90.37 83.67 90.83 83.67 91.28 94.41 91.28 94.41 91.01 94.32 91.01 94.32 90.65 94.23 90.65 94.23 90.28 94.14 90.28 94.14 89.92 94.05 89.83 83.85 89.83"/>
    </clipPath>
    <clipPath id="clippath-4">
      <rect class="cls-1" x="83.48" y="89.46" width="11.2" height="1.82"/>
    </clipPath>
    <clipPath id="clippath-5">
      <rect class="cls-1" x="83.48" y="89.46" width="11.2" height="1.82"/>
    </clipPath>
    <clipPath id="clippath-6">
      <rect class="cls-1" x="115" y="89.74" width="8.29" height="1.55"/>
    </clipPath>
    <clipPath id="clippath-7">
      <rect class="cls-1" x="114.72" y="89.46" width="8.74" height="1.82"/>
    </clipPath>
    <clipPath id="clippath-8">
      <rect class="cls-1" x="114.72" y="89.46" width="8.74" height="1.82"/>
    </clipPath>
    <clipPath id="clippath-9">
      <polygon class="cls-2" points="144.05 89.83 143.96 90.19 143.78 90.92 143.78 91.28 154.52 91.28 154.52 91.01 154.43 91.01 154.43 90.65 154.34 90.65 154.34 90.28 154.25 90.28 154.25 89.92 154.16 89.83 144.05 89.83"/>
    </clipPath>
    <clipPath id="clippath-10">
      <rect class="cls-1" x="143.5" y="89.46" width="11.29" height="1.82"/>
    </clipPath>
    <clipPath id="clippath-11">
      <rect class="cls-1" x="143.5" y="89.46" width="11.29" height="1.82"/>
    </clipPath>
  </defs>
  <g id="Capa_1-2" data-name="Capa 1">
    <g id="Kaia">
      <circle cx="100" cy="100" r="100"/>
      <g>
        <polygon class="cls-15" points="38.58 89.83 46.78 89.83 46.78 110.5 48.24 110.5 58.07 89.83 67.09 89.83 55.52 114.24 67.09 138.64 58.07 138.64 48.24 117.97 46.78 117.97 46.78 138.64 38.58 138.64 38.58 89.83"/>
        <path class="cls-15" d="M83.85,89.83h10.2l11.93,48.82h-8.38l-2.64-10.84h-11.84l-2.73,10.84h-8.29l11.75-48.82ZM88.95,103.12l-4.1,17.21h8.29l-4.1-17.21h-.09Z"/>
        <rect class="cls-15" x="115" y="89.74" width="8.2" height="48.91"/>
        <path class="cls-15" d="M144.05,89.83h10.11l11.93,48.82h-8.38l-2.64-10.84h-11.84l-2.73,10.84h-8.29l11.84-48.82ZM149.15,103.12l-4.19,17.21h8.29l-4.1-17.21Z"/>
        <path class="cls-15" d="M45.14,143.02h-5.37v3.55l.09.09h3.73q.09,0,.09.18v.55c0,.09,0,.18-.09.18h-3.83v3.64l.09.09h5.28c.09,0,.18,0,.18.09v.64c0,.09-.09.18-.18.18h-6.28c-.09,0-.09-.09-.09-.18v-9.84q0-.09.09-.09h6.28c.09,0,.18,0,.18.09v.64c0,.09-.09.18-.18.18Z"/>
        <path class="cls-15" d="M50.42,152.12v-.09l3.01-4.83v-.09l-3.01-4.83v-.09q0-.09.09-.09h.82l.18.09,2.55,4.1h.09l2.55-4.1.18-.09h.91v.18l-3.01,4.83v.09l3.01,4.83v.09s0,.09-.09.09h-.82l-.18-.18-2.55-4.01v-.09l-.09.09-2.55,4.01-.18.18h-.82l-.09-.09Z"/>
        <path class="cls-15" d="M64.63,151.85c-.55-.27-.91-.64-1.18-1.18-.36-.46-.46-1.09-.46-1.73v-3.64c0-.64.09-1.18.46-1.73.27-.55.64-.91,1.18-1.18.46-.27,1.09-.36,1.82-.36.64,0,1.28.09,1.73.36.55.27,1,.64,1.28,1.18.27.55.36,1.09.36,1.73v3.64c0,.64-.09,1.28-.36,1.73-.27.55-.73.91-1.28,1.18-.46.27-1.09.46-1.73.46-.73,0-1.37-.18-1.82-.46ZM68.18,150.76c.46-.46.64-1,.64-1.73v-3.73c0-.73-.18-1.28-.64-1.73-.46-.46-1-.73-1.73-.73s-1.37.27-1.82.73c-.36.46-.64,1-.64,1.73v3.73c0,.73.27,1.28.64,1.73.46.46,1.09.64,1.82.64s1.28-.18,1.73-.64Z"/>
        <path class="cls-15" d="M82.12,142.2v.64c0,.09-.09.18-.18.18h-2.82v9.02c0,.09-.09.18-.18.18h-.73c-.09,0-.18-.09-.18-.18v-9.02h-2.73c-.09,0-.18-.09-.18-.18v-.64c0-.09.09-.09.18-.09h6.65c.09,0,.18,0,.18.09Z"/>
        <path class="cls-15" d="M87.86,152.03v-9.84q0-.09.09-.09h.73q.18,0,.18.09v9.84c0,.09,0,.18-.18.18h-.73c-.09,0-.09-.09-.09-.18Z"/>
        <path class="cls-15" d="M96.6,151.94c-.46-.27-.91-.64-1.18-1.18-.27-.46-.36-1-.36-1.64v-4.01c0-.64.09-1.18.36-1.64.27-.46.73-.82,1.18-1.09.55-.27,1.09-.46,1.82-.46.64,0,1.28.18,1.73.46.55.27.91.64,1.18,1.09.27.46.46,1,.46,1.64l-.09.09h-.09l-.73.09c-.09,0-.09-.09-.09-.18,0-.64-.27-1.18-.64-1.64-.46-.36-1-.64-1.73-.64s-1.28.27-1.73.64c-.46.46-.64,1-.64,1.64v4.01c0,.73.18,1.28.64,1.64.46.46,1,.64,1.73.64s1.28-.18,1.73-.64c.36-.36.64-.91.64-1.64q0-.09.09-.09h.73c.09,0,.18.09.18.18,0,.55-.18,1.09-.46,1.64-.27.46-.64.82-1.18,1.09-.46.27-1.09.36-1.73.36-.73,0-1.28-.09-1.82-.36Z"/>
        <path class="cls-15" d="M114.81,151.58c-.64-.55-1-1.18-1-2v-.46c0-.09.09-.09.18-.09h.73q.09,0,.09.09v.46c0,.55.27,1,.73,1.28.46.36,1.09.55,1.91.55.73,0,1.28-.18,1.73-.46.36-.36.55-.73.55-1.28,0-.27-.09-.64-.27-.82-.18-.27-.46-.46-.82-.73-.36-.18-.91-.46-1.55-.73-.73-.27-1.28-.55-1.73-.73-.36-.18-.73-.55-.91-.82-.27-.36-.36-.82-.36-1.28,0-.82.27-1.46.82-1.91.55-.46,1.37-.64,2.28-.64,1.09,0,1.91.18,2.55.73.64.46.91,1.18.91,2v.27c0,.09,0,.18-.09.18h-.73c-.09,0-.18-.09-.18-.18v-.27c0-.55-.18-1-.64-1.37-.46-.36-1.09-.55-1.82-.55s-1.18.18-1.55.46c-.36.27-.55.64-.55,1.18,0,.36.09.64.27.91.09.18.36.36.73.55s.82.36,1.55.64c.64.27,1.28.55,1.64.82.46.27.82.55,1.09.91.27.36.36.82.36,1.37,0,.82-.27,1.46-.91,1.91-.55.46-1.37.73-2.46.73s-1.91-.27-2.55-.73Z"/>
        <path class="cls-15" d="M128.2,151.85c-.55-.27-1-.64-1.28-1.09-.27-.46-.46-1.09-.46-1.73v-6.83c0-.09.09-.09.18-.09h.73c.09,0,.18,0,.18.09v6.92c0,.64.18,1.18.64,1.64.46.46,1,.64,1.73.64s1.28-.18,1.73-.64c.46-.46.73-1,.73-1.64v-6.92q0-.09.09-.09h.73c.09,0,.18,0,.18.09v6.83c0,.64-.18,1.28-.46,1.73-.27.46-.64.82-1.18,1.09s-1.09.46-1.82.46c-.64,0-1.28-.18-1.73-.46Z"/>
        <path class="cls-15" d="M140.04,151.58c-.64-.55-.91-1.18-.91-2v-.46q0-.09.09-.09h.73c.09,0,.18,0,.18.09v.46c0,.55.18,1,.64,1.28.46.36,1.09.55,1.91.55s1.37-.18,1.73-.46c.36-.36.55-.73.55-1.28,0-.27-.09-.64-.27-.82-.18-.27-.46-.46-.82-.73-.36-.18-.82-.46-1.55-.73s-1.28-.55-1.64-.73c-.46-.18-.73-.55-1-.82-.27-.36-.36-.82-.36-1.28,0-.82.27-1.46.82-1.91.64-.46,1.37-.64,2.37-.64s1.91.18,2.46.73c.64.46,1,1.18,1,2v.27c0,.09-.09.18-.18.18h-.73c-.09,0-.09-.09-.09-.18v-.27c0-.55-.27-1-.73-1.37-.46-.36-1-.55-1.82-.55-.64,0-1.18.18-1.55.46-.36.27-.55.64-.55,1.18,0,.36.09.64.27.91.18.18.46.36.73.55.36.18.91.36,1.55.64.73.27,1.28.55,1.73.82.36.27.73.55,1,.91.27.36.46.82.46,1.37,0,.82-.36,1.46-.91,1.91-.64.46-1.46.73-2.55.73-1,0-1.91-.27-2.55-.73Z"/>
        <path class="cls-15" d="M157.8,142.1h.73q.09,0,.09.09v9.84c0,.09,0,.18-.09.18h-.73c-.09,0-.18-.09-.18-.18v-4.46h-4.74v4.46c0,.09,0,.18-.09.18h-.73c-.09,0-.18-.09-.18-.18v-9.84c0-.09.09-.09.18-.09h.73q.09,0,.09.09v4.37l.09.09h4.64v-4.46c0-.09.09-.09.18-.09Z"/>
        <path class="cls-15" d="M165.09,152.03v-9.84q0-.09.09-.09h.82q.09,0,.09.09v9.84c0,.09,0,.18-.09.18h-.82c-.09,0-.09-.09-.09-.18Z"/>
      </g>
    </g>
  </g>
</svg>
