<?xml version="1.0" encoding="UTF-8"?>
<svg id="Capa_2" data-name="Capa 2" xmlns="http://www.w3.org/2000/svg" viewBox="0 0 200 200">
  <defs>
    <style>
      .cls-1 {
        fill: #fff;
      }

      .cls-2 {
        fill: #e30613;
      }
    </style>
  </defs>
  <g id="Capa_1-2" data-name="Capa 1">
    <g id="La_Juvenil" data-name="La Juvenil">
      <circle class="cls-2" cx="100" cy="100" r="100"/>
      <g>
        <g>
          <path class="cls-1" d="M27.83,136.06v-16.61h-5.8v16.61c0,4.04,3.3,7.39,7.34,7.43h5.89v-5.68h-5.53c-1.76,0-1.9-1.27-1.9-1.75Z"/>
          <path class="cls-1" d="M69.76,136.06c0,.48-.14,1.75-1.91,1.75h-4.25v5.68h4.61c4.04-.04,7.34-3.39,7.34-7.43v-16.61h-5.8v16.61Z"/>
          <path class="cls-1" d="M90.31,135.46s-.26,2.58-3.05,2.58-3.18-2.58-3.18-2.58v-16.01h-5.78l.02,16.61s.34,7.43,8.93,7.43,8.59-7.43,8.59-7.43v-16.61h-5.54v16.01Z"/>
          <path class="cls-1" d="M111.23,119.45l-3.97,18.36-4.13-18.36h-5.49l5.33,20.76c.5,1.89,2.22,3.28,4.26,3.28s3.77-1.4,4.27-3.3l5.46-20.75h-5.73Z"/>
          <path class="cls-1" d="M115.65,131.29c0,6.64,5.68,12.2,12.32,12.2h2.69v-5.56h-2.33c-4.99,0-6.4-4.02-6.4-4.02h8.73v-5.28h-8.67c1.82-3.56,6.35-3.69,6.35-3.69h2.35v-5.5h-2.71c-6.66.01-12.33,5.21-12.33,11.84Z"/>
          <path class="cls-1" d="M146.97,131.29s-5.98-8.16-7.22-10.12c-1.24-1.96-2.51-1.72-2.51-1.72-3.65,0-3.23,3.24-3.23,3.24v20.81h5.74v-12.29s5.63,8.11,7.22,10.3c1.54,2.12,2.78,1.99,2.78,1.99,2.96,0,2.9-3.2,2.9-3.2v-20.84h-5.68v11.84Z"/>
          <rect class="cls-1" x="155.58" y="119.45" width="5.68" height="24.04"/>
          <path class="cls-1" d="M172.44,137.81c-1.76,0-1.9-1.27-1.9-1.75v-16.61h-5.8v16.61c0,4.04,3.3,7.39,7.34,7.43h5.89v-5.68h-5.53Z"/>
          <path class="cls-1" d="M175.31,121.55h.22l.49.89h.47l-.55-.92c.36-.02.58-.17.58-.56,0-.49-.31-.65-.86-.65h-.79v2.13h.46v-.89ZM175.31,120.68h.37c.24,0,.36.04.36.26s-.12.26-.36.26h-.37v-.51Z"/>
          <path class="cls-1" d="M175.64,123.32c1.05,0,2-.72,2-1.93s-.95-1.94-2-1.94-2,.72-2,1.94.96,1.93,2,1.93ZM175.64,119.91c.78,0,1.4.6,1.4,1.48s-.62,1.48-1.4,1.48-1.4-.6-1.4-1.48.62-1.48,1.4-1.48Z"/>
          <path class="cls-1" d="M45.61,119.45c-2.05,0-3.78,1.4-4.27,3.3l-5.47,20.75h5.73l1.39-6.04h5.32l1.39,6.04h5.49l-5.33-20.76c-.5-1.89-2.22-3.28-4.26-3.28ZM44.21,132.04l1.48-6.46,1.45,6.46h-2.93Z"/>
        </g>
        <g>
          <circle class="cls-1" cx="100" cy="71.87" r="36.26"/>
          <g>
            <path class="cls-2" d="M100,38.06c-18.67,0-33.81,15.14-33.81,33.81s15.14,33.81,33.81,33.81,33.81-15.14,33.81-33.81-15.14-33.81-33.81-33.81ZM82.87,65.15c1.96,0,3.56,1.6,3.56,3.56s-1.6,3.56-3.56,3.56-3.57-1.6-3.57-3.56,1.6-3.56,3.57-3.56ZM116.39,63.16h-2.83c-.2.02-.35.19-.35.38v18.71c0,9.32-7.56,16.88-16.88,16.88s-16.88-7.56-16.88-16.88v-6.05h1.75v6.05c0,8.36,6.78,15.13,15.14,15.13s15.14-6.78,15.14-15.13v-18.71c0-.1,0-.16,0-.25,0-.91.71-1.63,1.62-1.63h3.3v1.5ZM116.39,60.63h-3.22c-1.46,0-2.66,1.18-2.66,2.64,0,.1,0,.19,0,.28v18.71c0,7.83-6.34,14.17-14.17,14.17s-14.17-6.35-14.17-14.17v-6.05h1.75v6.05c0,6.86,5.56,12.42,12.42,12.42s12.43-5.56,12.43-12.42v-18.71c0-.09,0-.19,0-.28,0-2.44,1.98-4.42,4.42-4.42h3.22v1.78ZM116.39,57.87h-3.31c-2.98,0-5.28,2.4-5.28,5.39v.28s0,18.71,0,18.71c0,6.33-5.13,11.47-11.47,11.47s-11.47-5.13-11.47-11.47v-6.05h1.75v6.05c0,5.36,4.35,9.72,9.72,9.72s9.72-4.36,9.72-9.72v-18.71s-.01-.28-.01-.28c0-3.96,3.14-7.17,7.1-7.17h3.24v1.77ZM116.39,55.09h-3.11c-4.52-.01-8.19,3.65-8.19,8.18v18.99c0,4.84-3.92,8.76-8.76,8.76s-8.77-3.92-8.77-8.76v-6.05h1.76v6.05c0,3.87,3.13,7.01,7.01,7.01s7.02-3.14,7.02-7.01v-18.71s0-.28,0-.28c0-5.49,4.45-9.95,9.94-9.95h3.11v1.77ZM116.39,52.31s-2.88,0-3.03,0c-6.06,0-10.96,4.91-10.96,10.97v.28s0,18.71,0,18.71c0,3.34-2.71,6.05-6.06,6.05s-6.05-2.71-6.05-6.05v-6.05h1.74v6.05c0,2.39,1.93,4.32,4.32,4.32s4.32-1.93,4.32-4.32v-18.71s0-.28,0-.28c0-7.02,5.69-12.72,12.71-12.72.15,0,3.03,0,3.03,0v1.75ZM116.39,49.53h-2.98c-7.59,0-13.74,6.14-13.74,13.73v.28s.01,18.71.01,18.71c0,1.85-1.5,3.35-3.35,3.35s-3.35-1.5-3.35-3.35v-6.05h1.76c0,.06,0,5.98,0,6.05,0,.88.72,1.6,1.6,1.6s1.6-.72,1.6-1.6c0-.07,0-18.65,0-18.71,0-.28,0-.28,0-.28,0-8.55,6.93-15.48,15.48-15.48h2.98v1.75Z"/>
            <path class="cls-2" d="M83.28,68.46c.13-.06.2-.19.2-.37,0-.2-.06-.34-.19-.41-.07-.04-.18-.06-.32-.06h-.77v.89h.75c.15,0,.26-.02.33-.05Z"/>
            <path class="cls-2" d="M82.87,71.39c1.48,0,2.68-1.2,2.68-2.68s-1.2-2.68-2.68-2.68-2.68,1.2-2.68,2.68,1.2,2.68,2.68,2.68ZM81.52,67.05h1.59c.23,0,.4.03.52.09.12.05.23.13.31.23.07.08.13.18.17.28.04.1.06.22.06.35,0,.16-.04.31-.12.47-.08.15-.21.26-.39.32.15.06.26.15.33.26.06.11.1.29.1.52v.22c0,.15,0,.26.02.31.02.09.06.15.13.19v.08h-.77c-.02-.07-.04-.13-.04-.18-.02-.09-.03-.19-.03-.29v-.31c0-.21-.04-.35-.11-.42-.07-.07-.2-.11-.4-.11h-.68v1.3h-.68v-3.32Z"/>
            <path class="cls-2" d="M100,34.97c-20.35,0-36.9,16.55-36.9,36.9s16.55,36.9,36.9,36.9,36.9-16.55,36.9-36.9-16.55-36.9-36.9-36.9ZM100,107.41c-19.6,0-35.54-15.94-35.54-35.54s15.94-35.54,35.54-35.54,35.54,15.94,35.54,35.54-15.94,35.54-35.54,35.54Z"/>
          </g>
        </g>
      </g>
    </g>
  </g>
</svg>
