<?xml version="1.0" encoding="UTF-8"?>
<svg id="Capa_2" data-name="Capa 2" xmlns="http://www.w3.org/2000/svg" viewBox="0 0 200 200">
  <defs>
    <style>
      .cls-1 {
        fill: #010101;
      }

      .cls-2 {
        fill: #3d3a87;
      }

      .cls-3 {
        fill: #231f20;
      }

      .cls-4 {
        fill: #f6a355;
      }

      .cls-4, .cls-5, .cls-6, .cls-7 {
        fill-rule: evenodd;
      }

      .cls-8 {
        fill: #29abe3;
      }

      .cls-5, .cls-9 {
        fill: #e52629;
      }

      .cls-10, .cls-7 {
        fill: #03a86f;
      }

      .cls-6, .cls-11 {
        fill: #faea27;
      }

      .cls-12 {
        fill: #eb5d9d;
      }

      .cls-13 {
        fill: #f08224;
      }

      .cls-14 {
        fill: #bed137;
      }
    </style>
  </defs>
  <g id="Capa_1-2" data-name="Capa 1">
    <g id="Matilda">
      <circle class="cls-2" cx="100" cy="100" r="100"/>
      <g>
        <path class="cls-1" d="M62.15,98.47c-.11-.01-.19-.05-.25-.13-.37.07-.73.22-1.07.43-.31.22-.52.51-.61.89.83.33,1.26.95,1.28,1.86.04.93-.4,1.56-1.3,1.88-.31.12-.64.18-.99.18-.76.11-1.47.05-2.15-.17.17.33.4.56.68.68.37.17.75.28,1.14.35.24,0,.48.01.74.04.04,0,.08.01.11.03.22,0,.44-.02.67-.05.35,0,.68-.06.99-.18.9-.33,1.34-.95,1.3-1.88-.02-.92-.45-1.54-1.28-1.86.1-.37.3-.67.62-.89.34-.22.69-.36,1.07-.43.06.07.14.12.25.13.07,0,.13.01.2.02-.35-.59-.82-.89-1.39-.9"/>
        <path class="cls-1" d="M73.18,103.08c.02.55.02,1.3,0,2.24-.02,1.05-.03,1.77-.02,2.17.04,1.69.3,3.13.8,4.34.34-.16.57-.39.71-.68-.19-.84-.29-1.77-.31-2.78-.01-.4,0-1.12.02-2.17.02-.94.02-1.69,0-2.24-.11-2.31-1.06-3.98-2.86-5.01-.01,0-.03-.01-.04-.02,1.05,1.01,1.62,2.39,1.7,4.15"/>
        <path class="cls-1" d="M77.19,112.04l.02-.09c0-.35-.11-.57-.33-.67,0,.01,0,.04-.02.09-.13-.08-.3-.11-.49-.07-.12.02-.21.06-.27.12.37.88.52,1.41.43,1.59-.2.42-.59.93-1.16,1.54-.63.68-1.68,1.06-3.17,1.16-2.25.16-4.32-.55-6.2-2.12-1.09,1.06-2.54,1.75-4.36,2.06-1.03.17-1.96.18-2.8.04-.5.01-.91,0-1.25-.04-.61-.19-1.19-.45-1.74-.78.88.78,1.86,1.33,2.93,1.66.34.04.75.05,1.25.04.84.14,1.78.13,2.8-.04,1.82-.31,3.27-1,4.36-2.06,1.88,1.57,3.95,2.27,6.2,2.12,1.48-.1,2.54-.48,3.17-1.16.57-.6.95-1.12,1.16-1.54.1-.19-.08-.81-.54-1.85"/>
        <path class="cls-1" d="M88.46,92.03c.01.36,0,.84-.04,1.43-.05.71-.08,1.18-.09,1.41,0,.64.07,1.07.2,1.3.19.31.55.47,1.07.5-.05-.24-.07-.54-.07-.92.01-.23.04-.7.09-1.41.04-.59.05-1.07.04-1.43-.04-.95-.42-1.63-1.14-2.04-.15-.08-.3-.14-.45-.18.24.36.37.81.39,1.35"/>
        <path class="cls-1" d="M78.57,99.19s0,0,.02-.05c-.45-.05-.79-.08-1.01-.11.01.14.04.27.1.41.12.24.42.39.9.45,0-.31-.01-.55-.02-.69"/>
        <path class="cls-1" d="M91.3,97.65c.32.94.13,1.53-.6,1.75-.23.07-.59.14-1.08.2-.55.05-.93.1-1.14.16-.21.11-.28.15-.22.13-.06.04-.13.05-.22.04.16,3.48.27,6.1.34,7.85.01.05.01.36,0,.94-.01.45,0,.81.04,1.08.12.84.51,1.2,1.16,1.07.03,0,.05,0,.07-.01-.01-.06-.03-.11-.03-.17-.04-.28-.05-.64-.04-1.08.01-.58.01-.89,0-.94-.07-1.75-.19-4.36-.34-7.85.08.01.16,0,.22-.04-.06.03.01-.02.22-.13.2-.06.58-.11,1.14-.16.49-.06.86-.13,1.08-.2.72-.23.92-.81.6-1.75-.1-.26-.31-.5-.63-.71-.2-.11-.39-.19-.59-.23,0,.02.02.04.03.06"/>
        <path class="cls-1" d="M80.81,114.01c-.04.11-.01.22.09.33.14.14.29.15.44.05-.19-.12-.37-.24-.53-.37"/>
        <path class="cls-1" d="M91.98,111.81c-.33-.13-.49-.2-.49-.2,0,0-.06.01-.17.03.02.07.03.13.04.21.06.44.02.82-.13,1.14-.55,1.23-1.74,2-3.54,2.3-1.29.22-2.51.24-3.67.05-.17.13-.32.1-.45-.09-.63-.13-1.18-.31-1.66-.54-.03.02-.07.02-.1.03.23.2.49.39.77.56,0,.12.06.22.18.29.11.06.22.06.34,0,.48.23,1.04.41,1.66.54.13.19.28.22.45.09,1.16.18,2.38.16,3.67-.05,1.81-.3,2.99-1.07,3.54-2.3.14-.32.19-.7.13-1.14-.06-.48-.25-.79-.58-.92"/>
        <path class="cls-1" d="M105.18,113.74c-.78-.42-1.19-1.35-1.23-2.78-.01-.46.01-1.06.07-1.81.06-.84.1-1.37.11-1.57,0-.59,0-1.48.02-2.66.02-1.17.04-2.05.04-2.64.23-.05.35-.16.38-.34.12-1.43.18-2.12.18-2.06,0-.92-.22-1.53-.67-1.84-.2-.15-.44-.23-.72-.24.13.32.19.72.19,1.2,0-.06-.06.63-.18,2.06-.02.18-.15.3-.38.34,0,.59-.01,1.47-.04,2.64-.01,1.18-.02,2.07-.02,2.66-.01.2-.05.73-.11,1.57-.06.75-.08,1.35-.07,1.81.04,1.43.45,2.36,1.23,2.78.98.51,1.19,1.13.63,1.86-.52.71-1.25,1.05-2.21,1.03-.14,0-.5,0-1.07-.02-.17.07-.33.14-.47.2-.12.05-.27.05-.44,0-.19-.05-.31-.13-.34-.24-.61-.02-1.54-.06-2.77-.11-.15.03-.3.03-.45-.02-.52-.02-.81-.04-.89-.04h-.69c-.34,0-.62-.01-.85-.04-.07,0-.13-.02-.19-.03.02.07.04.14.07.2.16.4.6.63,1.32.71.23.02.51.04.85.04h.69c.07,0,.37.01.89.04.16.05.31.05.45.02,1.23.05,2.15.08,2.77.11.04.11.15.19.34.24.17.05.31.05.43,0,.14-.06.3-.13.47-.2.57.01.92.02,1.07.02.95.02,1.69-.32,2.21-1.03.55-.74.34-1.36-.63-1.86"/>
        <path class="cls-1" d="M93.51,106.18c-.03-.19-.05-.37-.08-.55-.09,0-.18,0-.27,0,.06.22.17.4.35.55"/>
        <path class="cls-1" d="M102.04,93.06s-.08.01-.11.02c-.17.29-.37.57-.6.82,0,.03.02.07.01.11-.01.12-.05.24-.11.34.36-.39.63-.81.81-1.28"/>
        <path class="cls-1" d="M103.14,89.77c-.14-.22-.3-.42-.46-.6.53,1.02.72,2.06.58,3.11-.19,1.31-.87,2.37-2.02,3.16-1.01.69-2.32.95-3.92.78-1.66-.18-2.84-.76-3.54-1.74-.17-.12-.32-.26-.46-.4.13.27.27.53.44.77.22.32.5.59.82.82.7.98,1.88,1.56,3.54,1.74,1.6.17,2.91-.09,3.92-.78,1.16-.8,1.83-1.85,2.03-3.16.17-1.25-.14-2.49-.92-3.71"/>
        <path class="cls-1" d="M116.23,101.36l-.07,5.75c.06.09.06.18,0,.27-.05,1.54-.07,2.35-.07,2.42.05.98.27,1.73.67,2.26.39.2.71.36.96.49-.25-.49-.4-1.11-.43-1.87,0-.07.02-.88.07-2.42.06-.1.06-.19,0-.27l.07-5.75c.1-6.58.05-10.44-.13-11.59-.02-.14-.12-.25-.29-.31-.16-.06-.31-.07-.47-.02-.1-.06-.24-.11-.39-.17.14,1.49.17,5.22.08,11.2"/>
        <path class="cls-1" d="M106.68,92.03s-.06-.02-.09-.03c.03.05.06.1.1.15,0-.04,0-.08,0-.12"/>
        <path class="cls-1" d="M119.54,113.76s-.39-.2-1.16-.59c.02.2.06.5.11.91.05.36-.13.71-.54,1.03-.34.26-.71.45-1.12.54-1.39.33-3.08.42-5.08.27-.12.1-.28.13-.49.11-.21-.01-.35-.07-.43-.18-.59-.06-1.22-.14-1.9-.23-.12.08-.28.11-.49.07-.19-.04-.32-.1-.38-.2,0,0-.4-.06-1.16-.18-.01.14-.01.27,0,.41.02.19.15.31.38.34,1.3.21,1.96.31,1.97.31.06.1.19.16.38.2.2.04.37.01.49-.07.68.1,1.31.17,1.9.23.08.11.23.17.43.18.2.02.37-.01.49-.11,2,.14,3.69.05,5.08-.27.41-.1.78-.28,1.12-.54.41-.33.59-.67.54-1.03-.1-.8-.15-1.19-.15-1.19"/>
        <path class="cls-1" d="M140.52,88.81c-.04.12-.14.21-.31.25-.2.36-.35,1.12-.43,2.26.02.23.04.39.05.47.05,1.17.08,2.09.09,2.77v.29s.05.06.09.11c.04.04.06.07.07.09.17.21.12.36-.14.45.04,1.76.04,3.28.02,4.56-.04,2.29-.1,4.34-.2,6.15-.11,1.87-.16,2.71-.16,2.51-.02.31-.02.63.02.94,0,.82.41,1.24,1.24,1.28-.03-.12-.04-.25-.04-.4-.04-.31-.04-.63-.02-.94,0,.19.05-.64.16-2.51.1-1.81.16-3.86.2-6.15.02-1.28.02-2.8-.02-4.56.26-.1.31-.25.14-.45-.01-.02-.04-.05-.07-.09-.04-.05-.07-.08-.09-.11v-.29c-.01-.67-.04-1.6-.09-2.77-.01-.08-.03-.24-.05-.47.08-1.15.23-1.9.43-2.26.17-.05.27-.13.31-.25.05-.14-.02-.27-.2-.38.05-.16.01-.28-.11-.36-.01-.01-.07-.05-.18-.11-.01-.12-.12-.22-.33-.29-.19-.06-.35-.07-.47-.04.09.09.12.19.09.3"/>
        <path class="cls-1" d="M143.83,112.29c-.13-.19-.2-.29-.2-.29,0,0-.06-.07-.18-.22-.13-.16-.3-.23-.51-.22-.12,0-.21.03-.3.08.04.9-.29,1.65-.99,2.22-.35.3-.77.51-1.25.63-1.06.6-2.18.86-3.35.78-1.21-.1-2.28-.53-3.22-1.3-.6.45-1.28.81-2.03,1.09-1.66,1.07-3.47,1.45-5.41,1.12-.87-.14-1.68-.44-2.44-.9,0,0,0,0,0,0,1.08.97,2.3,1.56,3.63,1.77,1.94.33,3.74-.05,5.41-1.12.75-.28,1.42-.64,2.03-1.09.94.77,2.01,1.21,3.22,1.3,1.17.08,2.28-.17,3.34-.78.48-.12.9-.33,1.25-.63.76-.63,1.09-1.45.98-2.46"/>
        <path class="cls-1" d="M162.9,103.08c.02.55.02,1.3,0,2.24-.02,1.05-.03,1.77-.02,2.17.04,1.69.3,3.13.8,4.34.16-.07.41-.39.69-.8-.17-.81-.27-1.69-.29-2.66-.01-.4,0-1.12.02-2.17.02-.94.02-1.69,0-2.24-.11-2.31-1.06-3.98-2.86-5.01-.01,0-.03-.01-.04-.02,1.05,1.01,1.62,2.39,1.7,4.15"/>
        <path class="cls-1" d="M151.87,98.47c-.11-.01-.19-.05-.25-.13-.37.07-.73.22-1.07.43-.31.22-.52.51-.61.89.83.33,1.26.95,1.28,1.86.04.93-.4,1.56-1.3,1.88-.31.12-.64.18-.99.18-.76.11-1.47.05-2.15-.17.17.33.4.56.68.68.37.17.75.28,1.14.35.24,0,.49.01.74.04.04,0,.08.01.11.03.22,0,.44-.02.67-.05.35,0,.68-.06.99-.18.9-.33,1.34-.95,1.3-1.88-.02-.92-.45-1.54-1.28-1.86.1-.37.3-.67.61-.89.34-.22.69-.36,1.07-.43.06.07.15.12.25.13.07,0,.13.01.2.02-.35-.59-.82-.89-1.39-.9"/>
        <path class="cls-1" d="M169.92,105.47l.02-.09c0-.35-1.86,3.6-2.07,3.5,0,.01,0,.04-.02.09-.03-.02-.05-.03-.08-.04-.67,2.01-1.45,3.97-1.5,4.07-.2.42-.59.93-1.16,1.54-.63.68-1.68,1.06-3.17,1.16-2.25.16-4.32-.55-6.2-2.12-1.08,1.06-2.54,1.75-4.36,2.06-1.03.17-1.96.18-2.8.04-.49.01-.91,0-1.25-.04-.61-.19-1.19-.45-1.74-.78.88.78,1.86,1.33,2.93,1.66.34.04.75.05,1.25.04.84.14,1.78.13,2.8-.04,1.82-.31,3.27-1,4.36-2.06,1.88,1.57,3.95,2.27,6.2,2.12,1.48-.1,2.54-.48,3.16-1.16.57-.6.95-1.12,1.16-1.54.1-.19,2.92-7.38,2.46-8.41"/>
        <path class="cls-12" d="M76.22,111.17c.46,1.04.64,1.65.54,1.84-.2.42-.59.93-1.16,1.54-.63.68-1.68,1.06-3.17,1.16-2.25.16-4.32-.55-6.2-2.12-1.08,1.06-2.54,1.75-4.36,2.06-1.03.17-1.96.18-2.8.04-.49.01-.91,0-1.25-.04-1.18-.36-2.25-.99-3.2-1.9-.01-.01-.05-.08-.13-.22-.55-.66-.93-1.45-1.12-2.37-.21-.93-.18-1.78.07-2.57.06-.51.2-.95.42-1.34,1.17-2.11,3.16-3.03,5.97-2.77.06,0,.11.02.16.05.2,0,.46.02.78.07.02,0,.06,0,.11.02.06,0,.1,0,.13.02,1.29-.05,2.43.12,3.44.49v-.34s.08-.04.09-.06c-.05.04-.03.03.05-.04.05-4.13-.69-6.21-2.22-6.24-.11-.01-.19-.05-.25-.13-.37.07-.73.22-1.07.44-.31.22-.52.51-.61.89.83.33,1.26.95,1.28,1.86.04.93-.4,1.56-1.3,1.88-.31.12-.65.18-.99.18-.95.13-1.84.01-2.66-.36-.54-.24-.88-.85-1.01-1.83-.13-.96.01-1.66.43-2.08.13-.14.21-.3.24-.47.25-.23.52-.43.8-.6.35-.19.73-.37,1.14-.52,1.31-.8,2.88-1.18,4.7-1.16,1.81.02,3.29.21,4.45.56,1.22.17,2.23.48,3.04.94,1.8,1.02,2.75,2.69,2.86,5.01.02.55.02,1.3,0,2.24-.02,1.05-.03,1.77-.02,2.17.04,1.69.3,3.14.8,4.34.51-.24.8-.63.87-1.16.04-.13.16-.22.36-.25.19-.04.36-.01.49.07.01-.05.02-.08.02-.09.22.1.32.32.32.67l-.02.09Z"/>
        <path class="cls-11" d="M91.01,110.93c.32.13.52.44.58.92.06.44.02.81-.13,1.14-.55,1.23-1.74,2-3.54,2.3-1.29.22-2.51.23-3.67.05-.17.13-.32.1-.45-.09-.63-.13-1.18-.31-1.66-.54-.12.06-.23.06-.34,0-.12-.07-.18-.17-.18-.29-.46-.28-.85-.6-1.17-.96h-.02v.02c-.17.14-.33.14-.49-.02-.16-.16-.16-.31,0-.47,0-.01.02-.04.07-.09-.2-.29-.36-.57-.47-.85-.23-.53-.41-2.37-.54-5.53-.06-1.33-.11-2.81-.15-4.47-.2-.19-.21-.36-.02-.51l.02-.02c-.02-1.22-.04-2-.05-2.33,0,.01,0,0,.02-.05-.59-.06-.98-.1-1.18-.13-.49-.06-.8-.21-.92-.45-.17-.39-.16-.76.04-1.14.18-.35.48-.59.89-.72.06-.02.13-.02.2,0,1.36.1,2.93-.83,4.7-2.78-.05-.12-.02-.24.07-.36.16-.22.4-.44.74-.67,1.04-1.64,1.68-2.54,1.93-2.71.77-.53,1.53-.59,2.26-.18.72.41,1.1,1.09,1.14,2.04.01.36,0,.84-.04,1.43-.05.71-.08,1.18-.09,1.41,0,.64.07,1.07.2,1.3.2.34.61.51,1.21.51.3,0,.61.09.92.27.33.2.54.44.63.71.32.94.13,1.53-.6,1.75-.23.07-.59.14-1.08.2-.55.05-.93.1-1.14.16-.21.11-.28.15-.22.13-.06.04-.13.05-.22.04.16,3.48.27,6.1.34,7.85.01.05.01.36,0,.94-.01.45,0,.81.04,1.08.12.84.51,1.2,1.16,1.07.48-.1.72-.14.72-.14,0,0,.16.07.49.2"/>
        <path class="cls-9" d="M104.21,112.87c.98.51,1.19,1.13.63,1.86-.52.71-1.25,1.05-2.21,1.03-.14,0-.5,0-1.07-.02-.17.07-.33.14-.47.2-.12.05-.27.05-.43,0-.19-.05-.31-.13-.34-.23-.61-.02-1.54-.06-2.77-.11-.15.04-.3.03-.45-.02-.52-.02-.81-.04-.89-.04h-.69c-.34,0-.62-.01-.85-.04-.72-.07-1.16-.31-1.32-.71-.24-.57-.19-1.29.16-2.17.42-1.04.62-1.77.6-2.19-.06-1.49-.22-3.1-.47-4.81-.45.04-.81-.07-1.1-.31-.3-.25-.44-.6-.42-1.05-.18-.11-.21-.25-.07-.43,1.59-2.15,4.33-4.19,8.21-6.13.81-.4,1.27-.62,1.37-.67.6-.2,1.09-.17,1.46.11.45.31.67.93.67,1.84,0-.06-.06.63-.18,2.06-.02.18-.15.3-.38.34,0,.59-.01,1.47-.04,2.64-.01,1.18-.02,2.07-.02,2.66-.01.2-.05.73-.11,1.57-.06.75-.08,1.35-.07,1.81.04,1.43.45,2.36,1.23,2.78"/>
        <path class="cls-13" d="M118.71,114.08c.05.36-.13.7-.54,1.03-.34.27-.71.45-1.12.54-1.39.33-3.08.42-5.08.27-.12.1-.28.13-.49.11-.21-.01-.35-.07-.43-.18-.59-.06-1.22-.14-1.9-.23-.12.08-.28.11-.49.07-.19-.04-.32-.1-.38-.2-.01,0-.67-.1-1.97-.31-.23-.04-.36-.15-.38-.34-.06-.52.09-1.02.45-1.52.07-.1.25-.31.52-.63.23-.27.4-.49.52-.67.29-.47.39-1.72.29-3.74-.05-1.11-.09-1.95-.13-2.51-.28-.11-.33-.27-.16-.47.06-.07.1-.13.13-.16v-.14c-.05-1.01-.12-2.53-.22-4.54-.16-.1-.21-.22-.14-.36-.02.05.01-.02.11-.22-.05-.89-.11-2.2-.2-3.92-.08-1.76-.15-3.06-.2-3.91t0,0c-.9-.26-1.4-.79-1.5-1.57-.06-.52.25-.9.92-1.14-.02-.08,0-.16.07-.24.02-.02.06-.06.11-.11.11-.12.25-.18.43-.18s.33.06.45.18c.04.04.06.06.07.07l.04.04c.29.02.82-.02,1.59-.13.82-.1,1.26-.14,1.32-.14,1.31,0,2.43.06,3.35.18.87.11,1.47.26,1.81.45.16-.05.31-.04.47.02.17.06.26.16.29.31.18,1.15.22,5.01.13,11.59l-.07,5.75c.06.08.06.18,0,.27-.05,1.54-.07,2.35-.07,2.42.05.98.27,1.73.67,2.26,1.06.54,1.59.81,1.59.81,0,0,.05.4.15,1.19"/>
        <path class="cls-8" d="M142.85,111.42c.11,1.01-.22,1.83-.98,2.46-.35.3-.77.51-1.25.63-1.06.6-2.18.86-3.34.78-1.21-.1-2.28-.53-3.22-1.3-.6.45-1.28.81-2.03,1.09-1.66,1.07-3.47,1.45-5.41,1.12-1.34-.22-2.55-.81-3.63-1.77-1.09-.96-1.8-2.1-2.15-3.42-.41-1.49-.66-3.16-.76-5.01-.2-1.47-.16-2.86.13-4.18.55-3.93,2.23-5.91,5.03-5.93.53-.16,1.07-.21,1.63-.16.46-.06.93-.06,1.41,0,.13-.01.26,0,.4.05,1.25.22,2.4.75,3.44,1.59.05-.07.09-.14.13-.22.05-.13.1-.28.15-.45.01.11.04.44.09.99.18.17.36.36.54.56.58-.59,1.02-1.02,1.32-1.3-.07.04-.4.24-.99.61-.16.1-.35.1-.58.02-.24-.08-.34-.24-.29-.45.04-.13.09-.33.16-.58-.04.01-.11.04-.24.09.4-1.3.48-2.6.25-3.89-.01-.16-.02-.25-.02-.27h-.02c-.16-.71-.4-1.33-.74-1.84-.02-.04-.07-.09-.13-.16v-.09c-.11-.16-.2-.3-.27-.42-.07-.04-.1-.05-.09-.04-.07.02-.16.04-.25.05-.11-.06-.32-.16-.63-.29-.28-.12-.49-.22-.65-.31-.19-.12-.36-.25-.49-.4-.13-.37,0-.72.4-1.05.47-1.01,1.29-1.48,2.46-1.39.05.01.09.02.11.04.15.06.29.08.43.05.06.01.08.02.05.02.43.04.84.08,1.21.13,0-.14.1-.24.31-.27.21-.05.38-.02.52.07-.02-.02.15.1.52.38.36.05.57.08.63.09.04-.11.14-.19.31-.24.16-.04.3-.02.42.04.22.13.43.27.65.42,1.17.18,1.86.3,2.06.36.12-.04.28-.02.47.04.21.07.31.17.33.29.11.06.17.1.18.11.12.08.16.2.11.36.18.11.25.23.2.38-.04.12-.14.2-.31.25-.2.36-.35,1.12-.43,2.26.02.23.04.39.05.47.05,1.17.08,2.09.09,2.77v.29s.05.06.09.11c.04.04.06.07.07.09.17.2.12.36-.14.45.04,1.76.04,3.28.02,4.56-.04,2.29-.1,4.34-.2,6.15-.11,1.87-.16,2.71-.16,2.51-.02.31-.02.63.02.94,0,.95.56,1.37,1.68,1.26.1-.16.25-.23.45-.23.2-.01.37.06.51.22.12.14.18.22.18.22,0,0,.07.1.2.29"/>
        <path class="cls-14" d="M168.94,104.6c.46,1.04-2.36,8.22-2.46,8.41-.21.42-.59.93-1.16,1.54-.63.68-1.68,1.06-3.16,1.16-2.25.16-4.32-.55-6.2-2.12-1.09,1.06-2.54,1.75-4.36,2.06-1.03.17-1.96.18-2.8.04-.49.01-.91,0-1.25-.04-1.18-.36-2.25-.99-3.2-1.9-.01-.01-.05-.08-.13-.22-.55-.66-.93-1.45-1.12-2.37-.2-.93-.18-1.78.07-2.57.06-.51.2-.95.42-1.34,1.17-2.11,3.16-3.03,5.97-2.77.06,0,.11.02.16.05.2,0,.46.02.78.07.02,0,.06,0,.11.02.06,0,.1,0,.13.02,1.29-.05,2.44.12,3.44.49v-.34s.08-.04.09-.06c-.05.04-.03.03.05-.04.05-4.13-.69-6.21-2.22-6.24-.11-.01-.19-.05-.25-.13-.37.07-.73.22-1.07.44-.31.22-.52.51-.62.89.83.33,1.26.95,1.28,1.86.04.93-.4,1.56-1.3,1.88-.31.12-.64.18-.99.18-.95.13-1.84.01-2.66-.36-.54-.24-.88-.85-1.01-1.83-.13-.96.01-1.66.43-2.08.13-.14.21-.3.24-.47.25-.23.52-.43.8-.6.35-.19.73-.37,1.14-.52,1.31-.8,2.88-1.18,4.7-1.16,1.81.02,3.29.21,4.45.56,1.22.17,2.23.48,3.04.94,1.8,1.02,2.75,2.69,2.86,5.01.02.55.02,1.3,0,2.24-.02,1.05-.03,1.77-.02,2.17.04,1.69.3,3.14.8,4.34.51-.24,2.05-3.02,2.12-3.55.04-.13.16-.22.36-.25.19-.04.36-.01.49.07.01-.05.02-.08.02-.09.22.1,2.07-3.85,2.07-3.5l-.02.09Z"/>
        <path class="cls-1" d="M64.41,107.1s-1.59-1.76-2.43.1c-.84,1.86,0,5.21.37,5.76.37.56-.87-3.35.34-5.11,1.21-1.77,1.72-.75,1.72-.75"/>
        <path class="cls-1" d="M154.01,107.1s-1.59-1.76-2.43.1c-.84,1.86,0,5.21.37,5.76.37.56-.87-3.35.34-5.11,1.21-1.77,1.72-.75,1.72-.75"/>
        <path class="cls-1" d="M131.8,100.75s-1.57-1.08-2.5.84c-1.71,3.54.69,10.57.71,10.06.04-.89-.86-7.99.35-9.76,1.21-1.77,1.44-1.15,1.44-1.15"/>
      </g>
    </g>
  </g>
</svg>
