<?xml version="1.0" encoding="UTF-8"?>
<svg id="Capa_2" data-name="Capa 2" xmlns="http://www.w3.org/2000/svg" viewBox="0 0 200 200">
  <defs>
    <style>
      .cls-1 {
        fill: none;
      }

      .cls-2 {
        fill: #575757;
      }

      .cls-2, .cls-3, .cls-4, .cls-5, .cls-6 {
        fill-rule: evenodd;
      }

      .cls-3 {
        fill: #c12a2f;
      }

      .cls-4 {
        fill: #0e74ba;
      }

      .cls-5 {
        fill: #0d71b9;
      }

      .cls-6 {
        fill: #565656;
      }
    </style>
  </defs>
  <g id="Capa_1-2" data-name="Capa 1">
    <g id="MaxiPet">
      <circle class="cls-1" cx="100" cy="100" r="100"/>
      <g>
        <path class="cls-6" d="M116.08,86.12c.61-1.12,1.17-2.1,1.7-3.1.16-.3.42-.23.66-.23,1.98,0,3.96,0,5.94,0h.73c-.58-.97-.99-1.9-1.42-2.82-.34-.73-.31-.78.43-.99.85-.23,1.03-.15,1.29.64.67,2.07,1.94,3.76,3.3,5.4.27.33.43.23.69-.01,1.69-1.59,3.28-3.28,4.68-5.13.12-.15.19-.37.52-.44-.4.97-.92,1.8-1.43,2.64-.84,1.39-1.79,2.7-2.93,3.87-.26.27-.23.4.03.63,1.7,1.56,3.58,2.87,5.53,4.08.29.18.47.14.7-.1,1.85-1.88,3.65-3.79,4.95-6.12-.58,2.75-2.1,4.99-3.82,7.13.77.62.84.63,1.59.07,2.42-1.82,4.41-3.97,5.31-6.95.28-.94.39-1.89.36-2.87-.01-.33-.17-.61-.31-.88-1.24-2.32-3.11-4.06-5.17-5.63-.41-.32-.85-.6-1.28-.91.23-.14.42,0,.62.1,2.97,1.58,5.26,3.89,7.13,6.65.26.38.26.84.27,1.28,0,.28.11.38.38.36.17-.01.34,0,.51,0,11.36,0,22.71,0,34.07,0,2.31,0,4,1.11,4.8,3.12.22.55.32,1.13.32,1.73,0,15.72,0,31.43,0,47.15,0,2.69-2.11,4.78-4.81,4.83-.17,0-.34,0-.51,0-53.92,0-107.83,0-161.75,0-1.53,0-2.86-.37-3.95-1.47-.87-.88-1.3-1.95-1.37-3.17,0-.1,0-.21,0-.32-.02-15.61-.03-31.22-.05-46.83,0-3.03,2.02-5.05,5.08-5.05,11.78,0,23.55,0,35.33.01.62,0,.89-.13.82-.79-.06-.59.2-1.09.54-1.57,1.8-2.52,3.95-4.65,6.7-6.13.25-.14.49-.32.91-.33-.84.64-1.61,1.19-2.35,1.79-1.45,1.17-2.71,2.51-3.77,4.05-.77,1.11-.9,2.27-.67,3.54.55,2.99,2.26,5.25,4.51,7.17.42.35.89.65,1.29,1.02.47.44.85.15,1.23-.1.29-.19-.03-.32-.11-.43-1.3-1.66-2.48-3.4-3.21-5.4-.16-.43-.28-.87-.3-1.37.23.39.45.79.71,1.17,1.21,1.79,2.66,3.37,4.18,4.89.25.25.43.24.7.07,1.94-1.2,3.8-2.5,5.49-4.04.32-.29.29-.43.01-.72-1.73-1.82-3.05-3.93-4.21-6.21.42,0,.5.3.65.5,1.35,1.73,2.84,3.33,4.45,4.83.26.24.42.33.7.01,1.42-1.63,2.67-3.37,3.3-5.47.19-.62.51-.71,1.05-.62.93.15,1,.28.62,1.12-.44.97-.9,1.94-1.49,2.91,1.29.17,2.52.22,3.71.08,1.54-.19,2.5.3,3,1.77.18.53.53,1,.84,1.57-.28.01-.49.03-.71.03-2.95,0-5.9.01-8.85,0-.35,0-.57.11-.8.37-2.88,3.25-6.34,5.7-10.32,7.42-.27.12-.5.23-.8-.02-2.34-1.99-4.49-4.15-5.86-6.95-.31-.65-.61-.86-1.39-.85-6.19.06-12.39.03-18.58.03-5.6,0-11.21,0-16.81,0-1.53,0-2.23.7-2.23,2.25,0,11.67-.04,23.34.03,35.02.02,3.73.01,7.45.06,11.18.01,1.06.62,1.68,1.68,1.72.17,0,.34,0,.51,0,53.77,0,107.54,0,161.3,0,.23,0,.47.01.69,0,.9-.09,1.45-.67,1.51-1.57.01-.17,0-.34,0-.51,0-15.32,0-30.63,0-45.95,0-1.62-.5-2.13-2.1-2.13-11.55,0-23.09,0-34.64-.01-.49,0-.71.13-.92.6-1.11,2.46-2.83,4.47-4.79,6.29-.22.2-.48.36-.66.59-.61.8-1.26.74-2.12.33-3.81-1.82-7.17-4.23-9.91-7.46-.24-.28-.49-.33-.82-.33-3.35,0-6.7,0-10.05,0h-.82Z"/>
        <path class="cls-2" d="M99.91,48.39c2.9,0,5.75.34,8.4,1.64,3.5,1.72,5.45,4.69,6.64,8.27,1.09,3.3,1.72,6.72,2.52,10.09.62,2.63,1.17,5.27,1,7.99-.27,4.43-1.52,8.48-4.81,11.67-2.39,2.32-5.31,3.69-8.53,4.37-4.3.91-8.6.77-12.79-.51-6.81-2.09-10.93-7.68-11.06-14.84-.1-6.17,1.08-12.13,2.98-17.97.56-1.7,1.13-3.39,2.12-4.9,1.89-2.9,4.65-4.49,7.95-5.25,1.83-.42,3.69-.62,5.58-.56ZM98.64,89.57c3.11.13,5.58-.09,7.99-.91,3.62-1.24,6.33-3.45,7.64-7.14,1.16-3.25,1.08-6.57.51-9.91-.12-.7-.53-.92-1.27-.73-1.19.3-2.39.51-3.61.56-4.71.2-8.1-2.04-9.76-6.45-.9-2.39-1.29-4.87-1.37-7.41-.06-1.66.13-3.32.19-4.98.03-.76-.12-.92-.86-.85-.71.06-1.42.14-2.13.25-4.18.65-7,3.01-8.28,7.01-1.24,3.86-2.08,7.84-2.72,11.85-.45,2.81-.75,5.64-.25,8.48.76,4.33,3.12,7.4,7.24,9.07,2.33.94,4.77,1.13,6.66,1.16ZM104.91,66.63c1.48.02,2.76-1.23,2.78-2.7.02-1.42-1.23-2.65-2.72-2.68-1.48-.03-2.8,1.22-2.81,2.65,0,1.46,1.26,2.71,2.75,2.73Z"/>
        <path class="cls-5" d="M152.66,98.07c.63-1.58,1.22-1.98,2.84-1.98,5.54,0,11.08,0,16.62-.01.47,0,.71.13.88.58.4,1.05.6,2.1.37,3.21-.25,1.24-1,1.91-2.28,1.94-1.31.03-2.61.04-3.92,0-.55-.02-.71.12-.7.69.02,5.75,0,11.5.03,17.26,0,.52-.13.74-.66.81-1.19.16-2.39.25-3.59.17-1.88-.13-2.79-1.06-2.81-2.96-.03-2.23,0-4.47,0-6.7,0-2.84-.01-5.69.01-8.53,0-.55-.1-.76-.71-.74-1.56.05-3.12-.01-4.68.03-.56.02-.85-.18-1.01-.69-.13-.4-.28-.79-.37-1.36-.41,1.7-1.57,1.96-2.94,1.94-2.42-.03-4.85,0-7.27-.02-.54,0-.68.16-.65.68.04.84.04,1.69,0,2.53-.02.45.13.56.56.56,2.63-.02,5.27,0,7.9-.02.48,0,.71.15.88.59.37.97.54,1.94.35,2.97-.24,1.29-.93,1.9-2.26,1.91-2.25.02-4.51.02-6.76,0-.52,0-.7.12-.67.66.04.97.04,1.94,0,2.91-.02.54.1.72.68.71,3.03-.03,6.07,0,9.1-.03.45,0,.67.14.84.55.36.9.51,1.82.41,2.78-.15,1.42-.93,2.2-2.35,2.21-3.98.03-7.96.05-11.95,0-2.3-.03-3.57-1.46-3.58-3.85-.02-4.23-.01-8.47,0-12.7,0-1.6-.11-3.21.06-4.8.21-1.9,1.51-3.1,3.43-3.11,4.38-.03,8.76,0,13.15-.02.33,0,.5.12.61.41.18.45.35.9.44,1.46Z"/>
        <path class="cls-3" d="M49.58,104.62c-.79,2.56-1.59,5.13-2.38,7.69-.15.48-.33.96-.41,1.45-.14.82-.66,1.22-1.38,1.45-1.49.48-2.98.47-4.46,0-.69-.22-1.13-.7-1.34-1.4-.91-3.02-2.03-5.97-2.82-9.02-.03-.13-.03-.3-.29-.39-.05.89-.12,1.75-.15,2.62-.1,3.69-.18,7.37-.28,11.06-.02.67-.08,1.35-.11,2.02,0,.24-.07.37-.33.44-1.57.41-3.15.56-4.74.11-1.27-.36-1.81-1.12-1.74-2.43.2-3.81.43-7.61.65-11.42.16-2.75.34-5.51.45-8.26.03-.66.26-1.1.79-1.47.65-.45,1.34-.78,2.13-.9,1.3-.2,2.6-.19,3.89.12,1.5.37,2.41,1.36,2.93,2.78,1.06,2.95,1.97,5.94,2.9,8.93.06.21.08.44.29.63.25-.26.26-.59.34-.88,1.01-3.49,2.04-6.98,3.25-10.41.16-.45.42-.67.85-.82,1.94-.64,3.88-.68,5.83-.07,1.18.37,1.82,1.17,1.97,2.42.59,4.85.99,9.72,1.39,14.58.17,2.04.29,4.07.46,6.11.04.42-.07.64-.48.81-1.61.64-3.25.68-4.89.2-1.13-.33-1.61-1.06-1.67-2.32-.21-3.87-.3-7.75-.39-11.62-.02-.68-.07-1.37-.1-2.05-.05,0-.1,0-.15,0Z"/>
        <path class="cls-3" d="M69.86,95.82c1.19.02,2.55.2,3.81.87.72.38,1.19.97,1.45,1.74,1.89,5.6,3.45,11.29,5.05,16.97.36,1.27.69,2.56,1.07,3.82.13.42.07.69-.3.9-1.86,1.06-3.79,1.17-5.75.38-.69-.28-1.01-.94-1.22-1.62-.28-.92-.53-1.86-.76-2.79-.1-.4-.23-.59-.7-.58-2.08.03-4.17.02-6.25,0-.39,0-.55.12-.64.5-.31,1.31-.69,2.6-.98,3.91-.1.46-.33.66-.76.77-1.27.34-2.54.4-3.81.12-1.91-.42-2.65-1.66-2.16-3.55,1.01-3.93,2.3-7.77,3.63-11.61.93-2.7,1.91-5.38,2.85-8.08.18-.53.51-.8,1.02-.99,1.38-.51,2.79-.78,4.47-.77ZM69.37,110.09c.61,0,1.22-.03,1.83,0,.56.04.73-.07.56-.68-.6-2.05-1.14-4.13-1.72-6.19-.11-.37-.11-1.03-.42-1.03-.43,0-.38.65-.51,1.03-.71,2.06-1.41,4.13-2.02,6.23-.17.58-.01.68.52.65.59-.04,1.18,0,1.77,0Z"/>
        <path class="cls-3" d="M91.88,113.26c-.25.15-.34.37-.46.56-1.46,2.19-2.92,4.38-4.36,6.58-.22.34-.47.49-.87.48-.7,0-1.39.02-2.08-.1-2.72-.5-3.81-2.91-2.38-5.29.38-.63.82-1.22,1.27-1.81,1.31-1.7,2.62-3.4,3.96-5.08.26-.32.26-.52.02-.85-1.92-2.67-3.8-5.36-5.72-8.02-.33-.45-.32-.78-.08-1.24,1.16-2.19,3.76-3.16,5.78-2.13.93.48,1.55,1.29,2.11,2.13,1.04,1.56,2.06,3.13,3.09,4.69.01.02.03.03.06.05.21-.11.29-.33.41-.51,1.25-1.84,2.53-3.68,3.74-5.55.39-.61.88-.92,1.55-1.04,1.02-.17,2.02-.15,2.98.24,1.91.76,2.53,2.85,1.4,4.67-.55.9-1.23,1.71-1.89,2.53-1.17,1.44-2.33,2.88-3.53,4.3-.29.35-.27.56-.02.91,2.02,2.85,4.01,5.72,6.03,8.58.2.28.19.48.08.79-.87,2.65-3.49,3.02-5.21,2.6-.96-.23-1.63-.89-2.14-1.67-1.13-1.7-2.21-3.43-3.31-5.15-.14-.22-.29-.45-.44-.68Z"/>
        <path class="cls-5" d="M114.08,108.12c0-3.07,0-6.15,0-9.22,0-1.42.37-1.98,1.72-2.44,2.44-.83,4.98-1,7.54-.92,2.08.06,4.11.38,5.99,1.33,3.35,1.68,4.78,4.64,4.54,8.18-.2,2.94-1.41,5.3-4.1,6.74-1.67.89-3.49,1.18-5.36,1.24-.9.03-1.81.03-2.72,0-.43-.02-.57.09-.56.55.03,2.11,0,4.21.02,6.32,0,.4-.08.59-.52.66-1.28.2-2.55.29-3.84.18-1.87-.16-2.69-1.13-2.7-3.19-.02-3.14,0-6.28,0-9.41ZM121.11,104.36c0,.9,0,1.81,0,2.71,0,.26.02.44.36.43.84-.03,1.69.02,2.52-.05,1.52-.13,2.44-.98,2.68-2.39.27-1.6-.3-2.93-1.58-3.51-1.17-.53-2.42-.44-3.66-.33-.33.03-.32.25-.32.49,0,.88,0,1.77,0,2.65Z"/>
        <path class="cls-3" d="M104.32,107.26c0-3.49,0-6.99-.01-10.48,0-.46.13-.62.57-.68,1.23-.16,2.46-.37,3.71-.21,1.97.25,2.67,1.01,2.78,3,.01.21,0,.42,0,.63,0,6.74,0,13.47.01,20.21,0,.55-.14.78-.7.85-1.13.14-2.26.23-3.4.17-2.03-.11-2.95-1.04-2.96-3.06-.02-3.12,0-6.23,0-9.35,0-.36,0-.72,0-1.07Z"/>
        <path class="cls-2" d="M73.64,59.06c0-1.6.58-2.98,1.32-4.32,1.94-3.52,4.95-5.37,8.91-5.81,1.16-.13,2.31-.11,3.47-.1.43,0,.86.06,1.07.51.22.45-.1.75-.32,1.08-.05.07-.1.14-.16.19-2.97,2.49-4.18,5.97-5.35,9.47-.39,1.15-.69,2.34-1.04,3.5-.15.51-.36.98-.72,1.38-.71.79-1.66,1.05-2.56.52-1.83-1.09-3.45-2.41-4.26-4.49-.25-.63-.33-1.3-.36-1.94Z"/>
        <path class="cls-6" d="M113.57,48.82c3.02,0,5.87.59,8.24,2.58,2.12,1.77,3.48,4.04,3.94,6.78.31,1.84-.34,3.45-1.54,4.83-.86.99-1.81,1.88-3.01,2.46-1.19.57-2.31.17-2.94-.98-.34-.62-.49-1.3-.67-1.96-.76-2.67-1.61-5.31-2.83-7.81-.73-1.51-1.73-2.83-3.02-3.92-.06-.05-.14-.1-.19-.17-.29-.36-.66-.73-.49-1.23.18-.52.72-.53,1.18-.56.44-.03.88,0,1.33,0Z"/>
        <path class="cls-4" d="M99.64,128.05c0,.44-.02.89,0,1.33.03.48-.01.79-.64.78-.87-.01-1.22-.16-1.24-.8-.03-.88-.02-1.77-.01-2.65,0-.49-.26-.68-.71-.66-.36.01-.58.14-.56.57.03.99-.01,1.98.02,2.97.01.41-.13.53-.53.56-1.11.07-1.36-.14-1.36-1.24,0-.72,0-1.43,0-2.15,0-.52-.25-.71-.74-.71-.51,0-.54.32-.54.72.02.95,0,1.9.01,2.84,0,.37-.09.51-.48.54-1.14.09-1.4-.13-1.4-1.27,0-.91.01-1.81,0-2.72-.01-.53.21-.89.67-1.12,1.07-.53,2.16-.72,3.27-.15.24.13.42.09.63-.02.48-.25.99-.34,1.53-.32,1.36.07,2.08.81,2.09,2.17,0,.44,0,.88,0,1.33Z"/>
        <path class="cls-4" d="M130,127.61c0-.44.03-.89,0-1.33-.06-.67.25-1.08.83-1.34,1.02-.45,2.06-.61,3.1-.06.24.13.41.1.63-.01.58-.31,1.2-.39,1.84-.29,1.19.19,1.77.86,1.79,2.06.01.97-.01,1.94.01,2.91.01.39-.09.55-.51.58-1.14.07-1.37-.12-1.37-1.28,0-.69,0-1.39,0-2.08,0-.5-.21-.74-.72-.74-.49,0-.57.28-.56.7.03.95,0,1.9.02,2.84,0,.36-.08.52-.47.55-1.17.09-1.42-.12-1.42-1.3,0-.69,0-1.39,0-2.08,0-.52-.26-.71-.75-.71-.52,0-.54.32-.53.72.02.97,0,1.94.01,2.91,0,.32-.09.43-.42.47-1.19.13-1.47-.11-1.47-1.31,0-.4,0-.8,0-1.2Z"/>
        <path class="cls-4" d="M66.14,128.51s-.02.02-.03.03c-.04-.86-.49-1.35-1.21-1.59-.38-.13-.76-.22-1.15-.33-.2-.06-.47-.08-.44-.36.03-.25.3-.27.5-.3.43-.06.84.06,1.24.17.57.15.86-.13.74-.72-.07-.35-.31-.54-.62-.65-.98-.34-1.95-.33-2.88.14-.6.31-.87.82-.84,1.5.03.64.34,1.06.91,1.32.46.21.96.3,1.45.41.18.04.4.1.39.34-.01.26-.24.33-.45.35-.54.07-1.06-.02-1.54-.26-.51-.26-.65.05-.73.42-.1.46.16.76.54.97,1.15.64,3.06.3,3.93-.72.04-.11.09-.23.14-.34,0-.1.02-.19.04-.29,0-.04,0-.07,0-.11Z"/>
        <path class="cls-4" d="M45.77,124.65c-.03-.49-.04-.9-.09-1.32-.04-.36.13-.47.45-.53.97-.17,1.33.09,1.44,1.08.18,1.66.04,3.32.07,4.97,0,.44-.26.75-.64.94-1.07.54-2.19.61-3.3.16-1.29-.52-1.85-1.92-1.46-3.5.31-1.24,1.54-2.04,2.96-1.91.17.02.33.05.57.09ZM45.78,127.36c0-.25-.02-.51,0-.75.05-.46-.17-.58-.58-.57-.61.02-.98.3-1.13.89-.18.68.04,1.43.5,1.7.69.4,1.21.1,1.22-.69,0-.19,0-.38,0-.57Z"/>
        <path class="cls-4" d="M115.06,130.15c-.23.03-.41.06-.59.07-1.14.06-2.17-.19-2.72-1.31-.55-1.11-.52-2.25.21-3.29.88-1.25,3.52-1.48,4.64-.43.25.23.34.51.34.85,0,1.81,0,3.62,0,5.43,0,.34-.1.48-.45.52-1.15.14-1.43-.11-1.44-1.27,0-.19,0-.37,0-.58ZM115.07,127.44c0-.27-.03-.55,0-.82.06-.49-.16-.62-.61-.6-.61.03-.97.33-1.11.91-.17.66.02,1.39.45,1.65.35.2.73.24,1.09.09.33-.14.13-.48.17-.73.02-.16,0-.33,0-.5Z"/>
        <path class="cls-4" d="M58.45,130.24c-1.73,0-2.86-1.11-2.87-2.82-.01-1.71,1.16-2.87,2.9-2.86,1.71,0,2.86,1.15,2.86,2.84,0,1.77-1.09,2.85-2.89,2.84ZM57.51,127.42c.02.15.02.34.06.53.11.47.36.81.89.81.53,0,.78-.31.9-.79.12-.47.1-.92-.07-1.36-.18-.49-.58-.67-1.06-.54-.67.18-.69.76-.73,1.35Z"/>
        <path class="cls-4" d="M83.99,127.48c-.02,1.75-1.14,2.78-2.97,2.75-1.71-.03-2.79-1.16-2.77-2.91.02-1.69,1.18-2.8,2.91-2.78,1.73.02,2.85,1.18,2.82,2.93ZM82.07,127.38c.05-.27-.03-.56-.14-.82-.14-.33-.41-.52-.79-.52-.38,0-.66.15-.81.49-.25.59-.25,1.19.01,1.77.15.33.45.48.82.47.35-.01.6-.18.74-.49.12-.27.19-.56.16-.89Z"/>
        <path class="cls-4" d="M155.87,130.24c-1.73,0-2.86-1.13-2.87-2.83,0-1.71,1.18-2.87,2.92-2.85,1.7.01,2.86,1.17,2.86,2.85,0,1.75-1.12,2.84-2.91,2.83ZM156.89,127.4c-.05-.24-.06-.5-.14-.73-.13-.39-.4-.63-.84-.64-.44,0-.72.21-.86.61-.17.49-.17.99,0,1.48.13.4.41.63.84.64.46,0,.75-.24.87-.67.06-.22.09-.45.13-.69Z"/>
        <path class="cls-4" d="M143.48,127.72c0,.27,0,.55,0,.82,0,.92-.22,1.26-1.09,1.51-.99.28-1.99.32-2.97-.06-.73-.29-1.1-.88-1.07-1.62.04-.78.42-1.26,1.24-1.46.51-.12,1.04-.15,1.55-.23.17-.03.43.06.45-.21.02-.25-.18-.35-.39-.42-.57-.19-1.13-.09-1.68.05-.31.08-.61.25-.77-.21-.14-.4-.1-.75.29-.99.16-.1.34-.18.52-.21.47-.09.95-.16,1.44-.14,1.76.06,2.46.78,2.46,2.54,0,.21,0,.42,0,.63ZM140.92,128.86c.41-.01.8.02.74-.54-.03-.25.03-.55-.37-.44-.38.11-.99-.12-1.07.49-.07.51.41.46.7.49Z"/>
        <path class="cls-4" d="M52.97,127.75c0,.25,0,.5,0,.76,0,.96-.23,1.31-1.12,1.55-.97.26-1.95.31-2.91-.07-.76-.3-1.15-.91-1.09-1.66.06-.77.44-1.24,1.27-1.44.51-.12,1.04-.14,1.56-.22.15-.02.38.04.42-.18.04-.25-.15-.37-.36-.44-.59-.2-1.16-.09-1.74.05-.26.06-.52.24-.69-.13-.16-.36-.18-.69.13-.98.19-.18.43-.27.68-.31.44-.06.88-.14,1.31-.12,1.86.06,2.67.81,2.56,2.56-.01.21,0,.42,0,.63ZM50.4,128.86c.44,0,.83.02.76-.54-.03-.21.07-.54-.32-.44-.4.11-1.04-.16-1.13.49-.07.51.42.46.69.48Z"/>
        <path class="cls-4" d="M122.67,127.22c0,.53-.02,1.05,0,1.58.02.51-.2.85-.65,1.05-1.06.47-2.15.54-3.25.16-.82-.28-1.29-.88-1.32-1.74-.04-1.05-.02-2.1-.03-3.15,0-.12-.03-.28.12-.33.45-.14.91-.17,1.36.02.35.15.38.48.39.8,0,.76,0,1.51,0,2.27,0,.47.15.82.69.88.67.07.81-.04.81-.72,0-.93.02-1.85,0-2.78-.01-.39.13-.51.49-.56,1.04-.14,1.39.15,1.39,1.2,0,.44,0,.88,0,1.32Z"/>
        <path class="cls-4" d="M104.95,127.73c0,.27,0,.55,0,.82,0,.91-.22,1.25-1.11,1.5-.97.27-1.95.31-2.91-.06-.77-.3-1.13-.88-1.08-1.66.05-.78.43-1.24,1.26-1.44.51-.12,1.04-.14,1.56-.21.16-.02.38.02.41-.2.03-.22-.13-.34-.32-.41-.58-.21-1.17-.11-1.74.03-.31.08-.6.26-.77-.2-.14-.38-.1-.7.23-.96.85-.66,3.26-.46,3.99.33.33.36.47.79.48,1.27.01.4,0,.8,0,1.2ZM102.42,128.86c.26-.08.69.13.73-.42.04-.58-.01-.62-.83-.51-.31.04-.69.06-.65.5.04.43.41.41.75.43Z"/>
        <path class="cls-4" d="M32.06,130.25c-1.76,0-3.05-.87-3.43-2.32-.46-1.74.14-3.56,1.44-4.29.99-.55,2.04-.62,3.1-.24.49.18.91.48.86,1.09-.04.52-.36.69-.84.48-.69-.3-1.39-.36-2.04.09-.63.43-.86,1.51-.57,2.43.25.78.85,1.2,1.71,1.22.28,0,.54-.06.8-.13.28-.07.59-.47.83.06.21.47.19.91-.26,1.23-.48.36-1.05.39-1.63.38Z"/>
        <path class="cls-4" d="M162.48,128.98c-.04-1.56.32-1.98,1.84-2.2.33-.05.67-.06,1-.11.15-.02.38.04.39-.2,0-.2-.15-.34-.34-.41-.6-.21-1.2-.11-1.8.05-.27.07-.54.22-.69-.15-.15-.37-.17-.74.2-1.02.87-.68,3.29-.46,4.03.36.31.35.44.76.44,1.21,0,.78-.02,1.56,0,2.33.02.49-.19.82-.61,1-1.19.52-2.39.56-3.6.06-.43-.18-.65-.57-.88-.94h.01ZM165.07,128.86c.13-.01.25-.02.38-.03.47-.07.28-.44.3-.7.03-.36-.23-.26-.43-.25-.21.02-.42.04-.63.08-.24.05-.45.18-.42.46.03.26.21.4.48.42.1,0,.21.01.32.02Z"/>
        <path class="cls-4" d="M39.47,127.2c0,.55-.01,1.09,0,1.64.01.48-.21.8-.63,1-1.06.48-2.15.55-3.26.18-.79-.26-1.28-.82-1.33-1.67-.05-1.09-.04-2.19-.05-3.28,0-.1,0-.23.11-.27.45-.15.91-.18,1.36,0,.35.14.4.46.4.79,0,.76,0,1.51,0,2.27,0,.5.18.85.75.9.65.05.77-.04.77-.7,0-.93.03-1.85-.01-2.78-.02-.43.17-.54.53-.58,1.02-.12,1.36.16,1.36,1.18,0,.44,0,.88,0,1.33Z"/>
        <path class="cls-4" d="M84.23,127.61c0-.48.02-.97,0-1.45-.03-.53.22-.88.66-1.12,1.04-.54,2.13-.65,3.24-.3.88.27,1.34.89,1.37,1.84.03,1.03,0,2.06.01,3.09,0,.33-.13.42-.44.46-1.17.13-1.45-.1-1.45-1.26,0-.69,0-1.39,0-2.08,0-.53-.27-.76-.79-.75-.49,0-.78.13-.74.73.05.94,0,1.89.02,2.84.01.38-.12.5-.49.53-1.15.09-1.4-.12-1.4-1.26,0-.42,0-.84,0-1.26Z"/>
        <path class="cls-4" d="M124.8,128.12c.2.53.63.63,1.06.7.44.07.88,0,1.3-.16.3-.11.58-.29.78.14.18.39.12.73-.21,1.02-.03.03-.07.05-.1.07-.95.62-2.97.41-3.86-.39-.88-.8-1.14-2.46-.56-3.56.52-1,1.74-1.56,2.95-1.34,1.22.22,1.97.95,2.1,2.03.08.68-.13.98-.82,1.09-.86.15-1.73.27-2.64.42ZM125.64,125.93c-.24-.01-.46.06-.64.21-.18.15-.39.35-.29.58.1.25.37.07.56.06.25-.01.5-.07.75-.12.15-.03.39,0,.42-.19.04-.2-.14-.33-.31-.44-.15-.09-.31-.12-.48-.11Z"/>
        <path class="cls-4" d="M148.42,127.93c.07,1.55-.56,2.24-2.12,2.3-.57.02-1.14.03-1.68-.18-.39-.15-.72-.36-.77-.83-.06-.59.25-.85.79-.63.5.19,1.01.3,1.54.22.19-.03.38-.1.38-.35,0-.21-.18-.28-.34-.32-.49-.12-.98-.2-1.45-.4-.63-.27-.96-.75-.97-1.42,0-.64.28-1.14.86-1.43.93-.47,1.9-.48,2.87-.14.34.12.58.34.64.71.09.54-.22.81-.74.67-.43-.12-.85-.24-1.3-.17-.2.03-.46.04-.47.32,0,.25.23.26.41.31.32.09.65.16.97.25.6.18,1.07.53,1.39,1.09h-.01Z"/>
        <path class="cls-4" d="M170.03,130.24c-.53.02-1.05-.03-1.53-.28-.41-.21-.66-.54-.54-1.02.09-.35.24-.62.71-.38.43.22.91.31,1.41.28.26-.02.57-.04.59-.35.02-.33-.31-.35-.55-.4-.45-.09-.9-.19-1.32-.39-.54-.26-.84-.67-.88-1.28-.04-.65.2-1.17.76-1.48.96-.53,1.97-.54,2.98-.18.39.14.65.42.62.85-.03.42-.17.73-.72.53-.45-.17-.93-.28-1.42-.17-.16.04-.36.08-.36.29,0,.2.16.26.34.31.44.12.9.22,1.32.39.78.31,1.16.86,1.12,1.57-.04.77-.51,1.31-1.33,1.56-.39.12-.78.14-1.18.13Z"/>
        <path class="cls-4" d="M107.37,130.24c-.51.02-1.01-.04-1.48-.26-.37-.18-.6-.45-.58-.89.03-.54.26-.7.76-.5.5.19,1.01.31,1.54.24.19-.03.39-.09.41-.32.02-.24-.18-.32-.37-.36-.49-.12-.99-.2-1.45-.4-.6-.27-.92-.73-.94-1.38-.02-.62.23-1.12.78-1.42.96-.52,1.97-.53,2.99-.16.33.12.57.35.6.74.04.55-.22.76-.74.62-.43-.12-.86-.24-1.3-.17-.2.03-.46.05-.47.33,0,.24.23.26.41.31.44.13.9.23,1.32.41.79.32,1.09.83,1.04,1.62-.04.69-.49,1.22-1.21,1.46-.43.14-.87.17-1.31.16Z"/>
        <path class="cls-4" d="M75.71,130.24c-.51.02-1.01-.03-1.48-.24-.39-.18-.66-.45-.64-.92.03-.52.27-.69.76-.5.48.18.96.3,1.48.25.22-.02.45-.08.48-.32.04-.27-.22-.34-.42-.38-.47-.1-.95-.19-1.39-.38-.6-.26-.92-.7-.94-1.36-.02-.68.26-1.18.86-1.49.91-.46,1.86-.46,2.82-.15.33.11.6.3.67.69.1.59-.19.85-.76.7-.41-.11-.81-.22-1.24-.17-.21.03-.47.06-.51.3-.04.28.24.3.44.35.46.13.94.22,1.38.43.64.3.98.77.96,1.48-.02.74-.39,1.22-1.05,1.5-.45.19-.93.24-1.42.22Z"/>
        <path class="cls-4" d="M148.43,127.94c.04-.39.06-.78.13-1.17.29-1.71,2.32-2.76,3.9-2.03.33.15.56.38.62.74.08.51-.25.77-.78.63-.55-.14-1.1-.15-1.53.29-.41.41-.47.92-.32,1.46.2.68.9,1.04,1.74.82.44-.12.79-.2.93.36.12.52-.12.87-.6,1.03-1.39.46-3.55-.05-3.96-1.98-.02-.09-.04-.16-.14-.17,0,0,.01.01.01.01Z"/>
        <path class="cls-4" d="M162.47,128.96c-.03.91-.31,1.21-1.2,1.26-1.55.09-2.23-.53-2.23-2.07,0-1.3.01-2.61,0-3.91,0-.41.05-.67.54-.71.72-.05,1.17.14,1.28.62.08.32-.15.76.16.94.26.15.66.07.99.05.38-.02.46.22.49.51.03.37.03.73-.41.89-.06.02-.13.01-.19.03-.33.07-.88-.19-.97.15-.14.55-.15,1.17.03,1.74.11.35.48.29.76.27.3-.02.58-.05.76.25h-.01Z"/>
        <path class="cls-5" d="M55.31,126.88c0,.9-.02,1.81,0,2.71,0,.38-.12.51-.49.54-1.11.09-1.35-.11-1.37-1.21-.03-1.76.1-3.53-.08-5.29-.06-.58.12-.84.72-.84.78,0,1.14.19,1.16.82.03,1.09,0,2.18,0,3.28h.05Z"/>
        <path class="cls-4" d="M39.98,127.23c0-.69.01-1.39,0-2.08,0-.26.08-.36.34-.41,1.29-.22,1.61.22,1.57,1.2-.05,1.22-.03,2.44,0,3.66,0,.39-.13.5-.5.53-1.14.09-1.39-.12-1.4-1.26,0-.55,0-1.09,0-1.64Z"/>
        <path class="cls-4" d="M102.85,121.88c.42.05.79.16.91.59.11.41-.1.7-.43.89-.47.28-.95.53-1.43.77-.37.19-.65-.02-.87-.28-.19-.23-.23-.54,0-.74.51-.43,1.07-.81,1.61-1.2.06-.04.16-.03.21-.03Z"/>
        <path class="cls-4" d="M41.87,123.32c-.05.57-.51.96-1.07.89-.63-.07-1.02-.51-.95-1.09.06-.55.52-.91,1.11-.86.57.05.96.5.91,1.06Z"/>
        <path class="cls-2" d="M99.8,71.97c.84,0,1.68-.02,2.53,0,1.31.03,1.8.61,1.59,1.89-.24,1.45-.84,2.68-2.11,3.51-1.04.68-1.02,1.73-.88,2.77.26,1.93,1.71,3.23,3.63,3.31,2.02.09,3.58-1.06,4.06-2.97.08-.33.14-.66.26-.97.18-.47.54-.68,1.05-.63.51.05.81.34.87.84.19,1.46-.35,2.69-1.28,3.76-2.24,2.58-6.18,2.85-8.8.64-.96-.81-.97-.82-1.94.02-3.45,3.03-8.63,1.08-9.74-2.35-.16-.5-.28-1.01-.36-1.53-.11-.77.23-1.28.87-1.37.74-.11,1.09.2,1.25,1.06.43,2.31,2.04,3.7,4.26,3.49,2.83-.26,4.01-2.58,3.54-4.86-.1-.5-.44-.86-.86-1.13-1.39-.89-1.99-2.24-2.17-3.81-.13-1.11.3-1.59,1.44-1.66.46-.03.93-.02,1.39-.03.46,0,.93,0,1.39,0h0Z"/>
        <path class="cls-2" d="M96.46,63.64c-.01,1.47-1.3,2.73-2.77,2.72-1.47-.01-2.75-1.3-2.73-2.75.02-1.43,1.3-2.65,2.77-2.64,1.48.01,2.74,1.25,2.73,2.67Z"/>
        <path class="cls-4" d="M67.77,129.29c-.04.46-.41.76-.86.71-.5-.06-.81-.41-.76-.87.05-.44.42-.73.89-.69.46.04.77.4.73.85Z"/>
        <path class="cls-4" d="M69.4,129.29c-.04.46-.41.76-.86.71-.5-.06-.81-.41-.76-.87.05-.44.42-.73.89-.69.46.04.77.4.73.85Z"/>
        <path class="cls-4" d="M71.02,129.29c-.04.46-.41.76-.86.71-.5-.06-.81-.41-.76-.87.05-.44.42-.73.89-.69.46.04.77.4.73.85Z"/>
      </g>
    </g>
  </g>
</svg>
