<?xml version="1.0" encoding="UTF-8"?>
<svg id="Capa_2" data-name="Capa 2" xmlns="http://www.w3.org/2000/svg" viewBox="0 0 200 200">
  <defs>
    <style>
      .cls-1 {
        fill: #d7d5c8;
      }

      .cls-2 {
        fill: #443930;
      }
    </style>
  </defs>
  <g id="Capa_1-2" data-name="Capa 1">
    <g id="Nyra">
      <circle class="cls-1" cx="100" cy="100" r="100"/>
      <g>
        <path class="cls-2" d="M18.39,112.39c.62-2.04,1.03-4.05,1.23-6.02.2-1.97.3-4.25.3-6.84v-25.55h5.91l24.51,34.63v-22.54c0-2.01-.13-4.09-.38-6.26-.26-2.17-.62-4.11-1.09-5.83h3.94c-.47,1.72-.84,3.66-1.09,5.83-.26,2.17-.38,4.26-.38,6.26v26.32h-7.17l-23.36-33.05.05,20.19c0,2.41.11,4.65.33,6.73.22,2.08.62,4.12,1.2,6.13h-3.99Z"/>
        <path class="cls-2" d="M91.1,73.98l-11.16,21.34v17.07h-8.75v-17.07l-11.16-21.34h8.75l10.67,20.46,5.47-10.5c.84-1.68,1.26-3.47,1.26-5.36,0-1.13-.18-2.66-.55-4.6h5.47Z"/>
        <path class="cls-2" d="M130.5,112.39h-8.75l-7.88-15.59c-.66-1.17-1.48-1.75-2.46-1.75-.55,0-1.19.16-1.91.49-.73.33-1.48.8-2.24,1.42v15.43h-8.75v-38.41h18.99c2.48,0,4.58.44,6.29,1.31,1.71.88,2.98,2.04,3.8,3.5.82,1.46,1.23,3.05,1.23,4.76,0,1.53-.35,3.05-1.04,4.54-.69,1.5-1.74,2.81-3.15,3.94-1.4,1.13-3.09,1.9-5.06,2.3.88.29,1.59.65,2.13,1.07.55.42.99.98,1.31,1.67l7.5,15.32ZM117.67,92.26c.89-.77,1.6-1.82,2.13-3.17.53-1.35.79-2.83.79-4.43,0-2.81-.72-5.13-2.16-6.98-1.44-1.84-3.47-2.76-6.1-2.76h-5.09v21.12c1.02-.77,2.19-1.41,3.5-1.94,1.31-.53,2.63-.77,3.94-.74,1.09.04,2.09-.33,2.98-1.09Z"/>
        <path class="cls-2" d="M137.06,112.39l15.32-38.41h8.75l15.32,38.41h-3.83c-.18-2.55-.45-4.93-.79-7.14-.35-2.21-.99-4.49-1.94-6.87l-1.04-2.79h-16.36l-6.68,16.8h-8.75ZM160.64,75.19l-7.77,19.48h15.59l-7.82-19.48Z"/>
        <path class="cls-2" d="M32.44,126.74v-6.75h2.28c.53,0,.96.09,1.3.27s.59.42.75.74c.16.31.24.67.24,1.06s-.08.75-.24,1.06-.41.55-.75.72c-.34.17-.77.26-1.29.26h-1.85v-.74h1.82c.36,0,.65-.05.87-.16.22-.11.38-.26.48-.45.1-.19.15-.43.15-.7s-.05-.51-.15-.71-.26-.36-.48-.47c-.22-.11-.52-.17-.88-.17h-1.44v6.02h-.82ZM35.62,123.71l1.66,3.03h-.95l-1.63-3.03h.92Z"/>
        <path class="cls-2" d="M42.07,126.74v-6.75h4.07v.72h-3.26v2.28h3.04v.72h-3.04v2.29h3.31v.72h-4.13Z"/>
        <path class="cls-2" d="M56.67,120v6.75h-.79l-3.68-5.3h-.07v5.3h-.82v-6.75h.79l3.69,5.31h.07v-5.31h.8Z"/>
        <path class="cls-2" d="M62.01,126.74v-6.75h4.07v.72h-3.26v2.28h3.04v.72h-3.04v2.29h3.31v.72h-4.13Z"/>
        <path class="cls-2" d="M72.48,126.74l-1.85-6.75h.83l1.41,5.5h.07l1.44-5.5h.92l1.44,5.5h.07l1.41-5.5h.83l-1.85,6.75h-.84l-1.49-5.38h-.05l-1.49,5.38h-.84Z"/>
        <path class="cls-2" d="M84.04,126.74h-.86l2.48-6.75h.84l2.48,6.75h-.86l-2.02-5.68h-.05l-2.02,5.68ZM84.35,124.11h3.45v.72h-3.45v-.72Z"/>
        <path class="cls-2" d="M93.74,126.74v-6.75h.82v6.02h3.14v.72h-3.95Z"/>
        <path class="cls-2" d="M112.66,121.68c-.04-.33-.2-.59-.48-.78-.28-.18-.63-.28-1.03-.28-.3,0-.56.05-.78.14-.22.1-.4.23-.52.4-.12.17-.19.36-.19.58,0,.18.04.33.13.46.09.13.2.24.33.32.14.08.28.15.43.21.15.05.29.1.41.13l.69.18c.18.05.37.11.59.19s.42.19.62.33.36.32.49.54c.13.22.19.48.19.8,0,.36-.1.69-.28.99-.19.29-.47.53-.83.7-.36.17-.8.26-1.32.26-.48,0-.9-.08-1.25-.23-.35-.16-.63-.37-.83-.65s-.31-.6-.34-.97h.84c.02.25.11.47.26.63.15.17.34.29.57.37.23.08.48.12.75.12.31,0,.59-.05.84-.15.25-.1.44-.24.59-.43s.22-.4.22-.64c0-.22-.06-.41-.19-.55-.13-.14-.29-.25-.49-.34-.2-.09-.42-.16-.66-.23l-.83-.24c-.53-.15-.94-.37-1.25-.65-.31-.28-.46-.65-.46-1.1,0-.38.1-.71.31-.99.21-.28.48-.5.83-.66.35-.16.74-.24,1.17-.24s.82.08,1.16.23c.34.16.61.37.81.63s.3.57.31.91h-.79Z"/>
        <path class="cls-2" d="M118.22,120.72v-.72h5.06v.72h-2.12v6.02h-.82v-6.02h-2.12Z"/>
        <path class="cls-2" d="M132.67,120h.82v4.47c0,.46-.11.87-.32,1.23-.22.36-.52.65-.91.85-.39.21-.85.31-1.38.31s-.99-.1-1.38-.31c-.39-.21-.7-.49-.91-.85-.22-.36-.32-.77-.32-1.23v-4.47h.82v4.4c0,.33.07.62.22.88.14.26.35.46.62.6s.59.22.97.22.7-.07.97-.22.48-.35.62-.6c.14-.26.22-.55.22-.88v-4.4Z"/>
        <path class="cls-2" d="M140.9,126.74h-2.08v-6.75h2.17c.65,0,1.21.13,1.68.4.47.27.82.65,1.07,1.16.25.5.37,1.1.37,1.8s-.13,1.31-.38,1.81c-.25.51-.62.9-1.09,1.17-.48.27-1.06.41-1.75.41ZM139.64,126.02h1.21c.56,0,1.02-.11,1.39-.32.37-.22.64-.52.82-.92.18-.4.27-.87.27-1.42s-.09-1.01-.27-1.41c-.18-.39-.44-.7-.8-.91-.35-.21-.79-.32-1.32-.32h-1.3v5.3Z"/>
        <path class="cls-2" d="M150.01,120v6.75h-.82v-6.75h.82Z"/>
        <path class="cls-2" d="M161.04,123.37c0,.71-.13,1.33-.39,1.85-.26.52-.61.92-1.06,1.2-.45.28-.96.42-1.54.42s-1.09-.14-1.54-.42c-.45-.28-.8-.68-1.06-1.2-.26-.52-.39-1.13-.39-1.85s.13-1.33.39-1.85c.26-.52.61-.92,1.06-1.2s.96-.42,1.54-.42,1.09.14,1.54.42.8.68,1.06,1.2c.26.52.39,1.13.39,1.85ZM160.25,123.37c0-.58-.1-1.08-.29-1.48-.19-.4-.46-.71-.79-.91-.33-.21-.7-.31-1.11-.31s-.78.1-1.11.31c-.33.21-.59.51-.79.91-.19.4-.29.9-.29,1.48s.1,1.08.29,1.48c.19.4.46.71.79.91.33.21.7.31,1.11.31s.78-.1,1.11-.31c.33-.21.59-.51.79-.91.19-.4.29-.9.29-1.48Z"/>
      </g>
    </g>
  </g>
</svg>
