<?xml version="1.0" encoding="UTF-8"?>
<svg id="Capa_2" data-name="Capa 2" xmlns="http://www.w3.org/2000/svg" viewBox="0 0 200 200">
  <defs>
    <style>
      .cls-1 {
        fill: #82b271;
      }

      .cls-2 {
        fill: #fff;
      }
    </style>
  </defs>
  <g id="Capa_1-2" data-name="Capa 1">
    <g id="Palta">
      <circle class="cls-1" cx="100" cy="100" r="100"/>
      <g>
        <path class="cls-2" d="M168.36,136.66l-68.98,8.02-68.78-8.05-.85-7.74-3.68-40.57-1.55-17.04c4.81-.37,8.97-1.18,13.68-1.86l60.87-8.76,12.77,1.58,45.79,6.71,16.63,2.5-4,44.93-.81,9.06-1.09,11.21ZM99.53,140.56l65.42-7.64,4.37-57.63-24.4-3.65-8.75-1.44-11.47-1.62-25.35-3.98-69.5,10.68c-.19,2.78.17,5.55.38,8.46l.83,11.3,1.68,20.78.33,6.05.72,11.03,65.72,7.65Z"/>
        <path class="cls-2" d="M99.87,139.07l-64.08-7.42-.85-10.14-1.57-22.49-1.09-15.4c-.17-2.34.07-4.58-.54-7.13l21.18-3.18,46.41-7.22,26.11,3.96c.93-.11,1.68,0,2.58.34l38.92,6.17-3.79,55.03-63.28,7.46ZM67.34,106.83l-1.03,8.43c-.55,4.52-2.9,10-7.51,9.82-2.48-.1-4.44-1.98-4.51-4.35-.06-2.23,1.23-4.41,3.72-4.65l.02-3.47c-2.41.08-4.33,1.45-5.44,3.09-1.44,2.13-1.49,4.26-.86,6.75s2.98,4.1,5.52,4.57c9.58,1.78,12.57-8.97,13.43-17.95,10.41-.58,16.5-11.33,13.8-20.93-2.94-10.46-16.95-12.64-25.82-8.29-7.87,3.85-11.41,13.16-8.06,21.09,2.09,4.94,7.16,7.42,12.34,6.01l-.76-3.59c-4.51,1.11-8.43-2.21-9.18-6.68-.7-4.13.41-8.27,2.98-11.61,2.88-3.75,7.23-5.06,11.86-5.21,6.71-.21,12.43,4.01,13.38,10.9.88,6.4-2.65,14.93-9.91,16.11l1.19-10.17c.47-4.01,1.6-7.68,3.28-11.35-1.29-.58-2.4-1-3.8-1.17-3.64,6.51-3.69,15.1-4.62,22.66ZM139.38,96.17l-.22,3.24c6.43.41,10.41,4.12,10.74,10.52.42,8.23-5.64,16.15-14,15.05-4.39-.57-7.68-3.82-8.28-8.27-.43-3.16-.21-6.34.45-9.46l2.15-10.16c-1.17-.16-1.94-.17-2.95-.04-.14.65-.12,1.19-.7,1.81-.27-1.15-.99-2.07-1.96-2.26-3.06-.6-5.54,3.52-6.72,7.22s-3.51,10.49-5.19,10.19-.37-10.6,1.3-14.82c.54-.14,1.52-.06,1.71-.4.17-.31.28-.94.32-1.64l-1.62-.24c.82-3.48,1.14-6.84,1.43-10.37l-3.1.11-2.23,10.46c-.88-.23-1.72-.12-1.93.22-.2.32-.21.96-.18,1.66l1.93.18-1.44,7.76c-.39,2.1-3.21,7.52-5.13,7.16-1.8-.34-1.87-7.36-.78-9.01,3.36-5.11,6.34-10.17,7.3-16.35.51-3.29.48-6.41-2.14-6.76-5.9-.8-7.83,18.04-9.06,24.53-.57,3-2.56,5.62-4.41,7.85-.7-2.15-.02-4.04.27-6.03.55-3.84,1.24-7.46,2.13-11.09-1.02-.36-1.95-.28-2.7.17-.5.3-.52,1.18-.83,1.89-.47-1.36-1.02-2.27-2.04-2.58-5.9-1.77-11.35,18.34-6.18,20.54,2.43,1.03,4.72-1.66,6.05-4.65.15,1.51-.12,2.9.81,3.96,2.09,2.37,5.07-2.03,6.69-5.83.29,3.13.71,6.07,3.18,6.64,2.95.69,5.26-3.28,6.59-6.62.3,2.84.44,5.88,2.33,6.35,2.3.57,3.94-1.9,5.16-4.53l.93,3.13c.52,1.76,2.61,2.19,4.16,1.22,1.64-1.02,2.35-2.64,3.22-4.31.03,7.5,2.8,13.39,10.25,14.42,5.16.72,10.15-.86,13.6-4.84s5.03-9.7,4.15-15.19c-1.04-6.49-6.62-10.9-13.05-10.78Z"/>
        <path class="cls-2" d="M91.69,99.91c1.95,2.35-.37,11.59-3.56,13.71-3.31,2.2.55-17.34,3.56-13.71Z"/>
        <path class="cls-2" d="M124.3,99.59c3.18.5-.61,14.43-3.36,14.1-2.55-.31.65-14.52,3.36-14.1Z"/>
        <path class="cls-2" d="M108.41,84.59c.86,5.7-2.74,13.06-5.19,18.04,0-1.8.19-3.41.63-4.98.89-3.19,1.42-6.33,2.56-9.46.48-1.3.68-2.74,2.01-3.61Z"/>
      </g>
    </g>
  </g>
</svg>
