<svg viewBox="0 0 64 64" xmlns="http://www.w3.org/2000/svg">
  <rect width="64" height="64" rx="15" fill="#23753a"/>
  <g transform="translate(13 13) scale(0.818)" fill="#ffffff">
    <path d="M23.22,4.56c8.79,0,16.48,6.24,18.27,14.83,1.64,1.71,3.27,3.42,4.91,5.13.06-1.02.06-2.19-.06-3.49-.09-.94-.22-1.8-.39-2.57C43.71,7.76,34.16,0,23.21,0,14.27,0,6.49,5.08,2.62,12.5c-.21.38-.4.78-.58,1.17-.15.34-.3.69-.44,1.04-.14.35-.27.71-.39,1.06-.06.18-.12.36-.18.54-.1.32-.19.64-.28.96-.13.49-.24.98-.33,1.47-.1.5-.18,1-.24,1.51-.05.35-.08.7-.11,1.06v.02c-.02.2-.03.41-.04.61v.08c-.02.4-.03.79-.03,1.19,0,1.2.09,2.38.27,3.55.06.38.13.76.2,1.13v.04c.11.55.25,1.1.41,1.64.05.17.1.33.15.5.17.56.36,1.11.58,1.66.07.18.14.35.22.53.01.03.02.05.03.08.05.13.11.25.16.37.09.21.19.41.29.61.86,1.76,1.93,3.41,3.18,4.89.18.21.36.42.55.62.16.17.31.34.48.51.16.17.32.33.49.49.19.18.38.36.57.54.19.17.39.35.59.52,1.19,1.02,2.49,1.92,3.87,2.68.62.34,1.25.65,1.9.94.43.19.87.36,1.32.53.53.19,1.07.37,1.62.53.55.16,1.1.29,1.67.41h.03c.18.04.37.07.55.1.26.05.52.09.78.13.2.03.41.06.62.08.06,0,.12.02.18.02.26.03.52.05.78.07.25.02.5.04.76.05h.19c.27,0,.54.02.81.02.22,0,.44,0,.65,0,.22,0,.44-.02.65-.03h0c.18,0,.35-.03.52-.04.08,0,.16-.02.23-.02.18-.02.36-.04.55-.06.21-.03.43-.05.65-.08.31-.04.61-.09.92-.15.16-.03.33-.06.49-.09l.43-.1s.06,0,.09-.02c.42-.1.84-.21,1.25-.33,7.18-2.07,12.98-7.56,15.46-14.56.09-.26.18-.51.26-.78.08-.26.16-.52.23-.78s.14-.52.2-.78v-.02l.29-1.24L28.63,9.86l-8.31,8.3c-2.77-3.75-7.1-6.13-11.81-6.41,3.42-4.39,8.75-7.22,14.73-7.22M28.61,16.33l12.43,12.43h0c-.05.17-.1.33-.16.49-.11.31-.22.61-.33.91v.02c-1.81,4.56-5.32,8.15-9.68,10.09v-.02c.02-.31.03-.63.03-.95,0-5.6-2.88-10.66-7.6-13.52-.12-1.02-.33-2.02-.64-3-.03-.08-.06-.17-.08-.25-.02-.04-.03-.08-.04-.12l6.08-6.08h0ZM17.78,22.83c.64,1.38.99,2.86,1.03,4.4l.04,1.37,1.23.61c3.85,1.91,6.24,5.77,6.24,10.08,0,.24,0,.48-.03.72,0,.14-.02.27-.03.41,0,.04,0,.08,0,.12-.02.18-.05.36-.08.54-.03.17-.06.33-.09.5h0s0,.06-.02.08h0s-.09.02-.14.02c-.15.03-.31.05-.46.06-.09.02-.18.03-.27.03-.18.02-.36.04-.55.05-.24.02-.48.04-.71.04-.24,0-.48.02-.72.02s-.47,0-.7-.02c-.16,0-.31,0-.46-.03-.09,0-.18,0-.27-.02-.33-.03-.66-.06-.99-.1l-.42-.06c-.3-.04-.61-.1-.92-.16-.15-.03-.3-.06-.45-.1-.15-.03-.3-.07-.45-.11-.15-.04-.3-.08-.45-.13-.16-.04-.31-.08-.47-.14-.05,0-.1-.03-.14-.05-.06-.02-.12-.03-.18-.06-.17-.05-.33-.11-.5-.18-.28-.09-.55-.2-.82-.32-.03,0-.05-.02-.08-.03-.13-.05-.25-.1-.37-.16-.02,0-.04-.02-.06-.03-.2-.09-.39-.18-.58-.28-.74-.37-1.47-.79-2.17-1.27-1.76-1.2-3.29-2.68-4.55-4.39-.03-.04-.07-.09-.1-.13-.38-.52-.73-1.06-1.04-1.62-.08-.12-.14-.24-.21-.37-.04-.07-.08-.14-.11-.21-.1-.19-.2-.39-.29-.59-.08-.15-.15-.31-.22-.47-.05-.1-.09-.2-.13-.29-.02-.04-.04-.09-.05-.13-.07-.14-.12-.28-.17-.42-.07-.17-.13-.34-.2-.52h0c-.02-.06-.04-.11-.05-.16-.05-.13-.09-.25-.13-.38-.12-.35-.22-.71-.31-1.07,0,0-.01-.03-.01-.04-.04-.15-.08-.3-.11-.45-.04-.19-.08-.38-.12-.57-.04-.17-.07-.34-.1-.51,0-.02,0-.05-.01-.07-.07-.39-.12-.77-.15-1.16-.07-.63-.1-1.27-.1-1.91,0-.27,0-.53.02-.8v-.16c.01-.24.03-.47.05-.7,0-.05,0-.09.01-.13.02-.16.03-.32.06-.49,0-.03,0-.06.01-.09.02-.16.04-.31.07-.47.02-.16.05-.31.08-.46.02-.12.04-.24.07-.36.03-.18.07-.36.11-.54.03-.11.05-.22.08-.33.05-.19.1-.38.15-.57.04-.14.08-.28.13-.42,0-.01,0-.02.01-.03.08-.29.18-.57.29-.86.04-.12.09-.24.13-.36h.01c.57-.09,1.15-.14,1.73-.14,4.36,0,8.37,2.56,10.22,6.52"/>
  </g>
</svg>
